<svg width="250" height="250" viewBox="0 0 250 250" fill="none" xmlns="http://www.w3.org/2000/svg">
<rect x="2.5" y="2.5" width="245" height="245" rx="122.5" fill="white" stroke="white" stroke-width="5"/>
<rect x="5" y="5" width="240" height="240" rx="120" fill="#F6BD0E"/>
<rect x="5" y="5" width="240" height="240" rx="120" stroke="white"/>
<path d="M59.2882 113C52.5105 91.8705 69.1642 62.2893 190 113" stroke="black" stroke-width="5"/>
<path d="M46.4482 119.141C44.2158 119.141 41.834 119.36 39.3027 119.8C36.7891 120.222 34.6709 120.696 32.9482 121.224C31.2256 121.751 29.6611 122.234 28.2549 122.674C26.8486 123.096 26.0049 123.307 25.7236 123.307C24.7568 123.307 24.2734 122.973 24.2734 122.305C24.2734 121.619 24.8008 120.925 25.8555 120.222C29.248 117.954 33.0889 116.258 37.3779 115.133C41.6846 114.008 45.7979 113.445 49.7178 113.445C53.6553 113.445 56.8721 113.771 59.3682 114.421C61.8818 115.071 63.9561 115.959 65.5908 117.084C67.2256 118.209 68.5703 119.58 69.625 121.197C71.5938 124.203 72.5781 127.956 72.5781 132.456C72.5781 137.202 71.2773 141.57 68.6758 145.561C65.8105 149.938 62.0225 152.979 57.3115 154.684C54.7451 155.598 51.9941 156.055 49.0586 156.055C44.3828 156.055 40.7266 155.316 38.0898 153.84C37.3516 154.561 36.4551 155.018 35.4004 155.211C34.3457 155.422 32.8867 155.527 31.0234 155.527C29.1602 155.527 27.376 155.378 25.6709 155.079C23.9834 154.78 22.5068 154.402 21.2412 153.945C19.9756 153.471 18.9385 152.952 18.1299 152.39C17.3213 151.81 16.917 151.291 16.917 150.834C16.917 150.377 17.1016 150.025 17.4707 149.779C17.8223 149.516 18.2266 149.384 18.6836 149.384C20.2656 149.384 21.4258 149.138 22.1641 148.646C22.9199 148.136 23.6846 147.187 24.458 145.798C25.249 144.409 25.9785 142.827 26.6465 141.052C27.3145 139.276 27.9385 137.571 28.5186 135.937C29.1162 134.302 29.793 132.649 30.5488 130.979C32.1836 127.306 34.2314 124.889 36.6924 123.729C37.9053 123.166 39.4521 122.735 41.333 122.437C43.2139 122.12 45.1035 121.962 47.002 121.962C48.9004 121.962 49.8496 122.401 49.8496 123.28C49.8496 123.948 49.4453 124.915 48.6367 126.181C47.8457 127.446 46.9932 129.406 46.0791 132.061C45.165 134.715 44.1455 137.879 43.0205 141.553C41.9131 145.227 41.0518 147.916 40.4365 149.621L39.9883 150.781C40.5332 150.834 41.3857 150.86 42.5459 150.86C43.7061 150.86 44.998 150.614 46.4219 150.122C47.8633 149.63 49.1113 148.962 50.166 148.118C51.2207 147.257 52.1699 146.246 53.0137 145.086C53.875 143.926 54.5781 142.695 55.123 141.395C55.6855 140.076 56.1514 138.688 56.5205 137.229C57.2061 134.539 57.5488 131.656 57.5488 128.58C57.5488 122.287 53.8486 119.141 46.4482 119.141ZM106.882 156.055C101.731 156.055 97.0029 155.141 92.6963 153.312C91.7998 154.209 90.6836 154.798 89.3477 155.079C88.0293 155.378 86.2627 155.527 84.0479 155.527C81.8506 155.527 79.7148 155.272 77.6406 154.763C75.5664 154.253 73.9229 153.629 72.71 152.891C71.4795 152.152 70.8643 151.432 70.8643 150.729C70.8643 150.324 71.04 149.999 71.3916 149.753C71.7432 149.507 72.1475 149.384 72.6045 149.384C74.2217 149.384 75.417 149.129 76.1904 148.619C76.9814 148.092 77.7373 147.125 78.458 145.719C79.1963 144.312 79.9082 142.695 80.5938 140.867C81.2793 139.021 81.9121 137.299 82.4922 135.699C83.0898 134.1 83.7578 132.482 84.4961 130.848C86.1309 127.279 88.1787 124.906 90.6396 123.729C91.8174 123.166 93.3555 122.735 95.2539 122.437C97.1523 122.12 98.6377 121.962 99.71 121.962C100.8 121.962 101.503 121.979 101.819 122.015C102.153 122.032 102.487 122.085 102.821 122.173C103.489 122.349 103.823 122.718 103.823 123.28C103.823 123.667 103.744 124.027 103.586 124.361C103.445 124.678 103.05 125.363 102.399 126.418C101.749 127.473 100.888 129.679 99.8154 133.036C104.104 132.772 107.383 131.885 109.65 130.373C111.918 128.844 113.052 126.893 113.052 124.52C113.052 121.303 110.327 119.475 104.878 119.035C103.771 118.947 102.153 118.903 100.026 118.903C97.8994 118.903 95.5352 119.158 92.9336 119.668C90.332 120.16 88.293 120.705 86.8164 121.303C85.3574 121.9 84.0391 122.454 82.8613 122.964C81.6836 123.456 80.9277 123.702 80.5938 123.702C79.6797 123.702 79.2227 123.403 79.2227 122.806C79.2227 122.19 79.7939 121.461 80.9365 120.617C82.0791 119.773 83.6523 118.938 85.6562 118.112C87.6777 117.286 89.9102 116.521 92.3535 115.818C97.873 114.236 103.577 113.445 109.466 113.445C115.354 113.445 119.819 114.368 122.86 116.214C125.919 118.042 127.448 120.468 127.448 123.491C127.448 126.515 125.928 129.028 122.887 131.032C119.863 133.036 115.706 134.144 110.415 134.354C113.808 134.39 116.928 135.207 119.775 136.807C121.146 137.562 122.263 138.556 123.124 139.786C123.985 141.017 124.416 142.44 124.416 144.058C124.416 145.675 124.073 147.195 123.388 148.619C122.72 150.025 121.823 151.186 120.698 152.1C119.591 153.014 118.264 153.77 116.717 154.367C113.887 155.492 110.608 156.055 106.882 156.055ZM99.0771 135.356C98.7432 136.464 98.084 138.705 97.0996 142.08C96.1152 145.438 95.4297 147.688 95.043 148.83C94.6562 149.955 94.4541 150.535 94.4365 150.57C94.999 150.641 95.8955 150.676 97.126 150.676C98.374 150.676 99.7627 150.509 101.292 150.175C102.839 149.823 104.219 149.296 105.432 148.593C106.662 147.89 107.62 146.94 108.306 145.745C109.009 144.55 109.36 143.1 109.36 141.395C109.36 139.689 108.367 138.274 106.381 137.149C104.395 136.024 101.96 135.427 99.0771 135.356ZM154.343 119.141C152.11 119.141 149.729 119.36 147.197 119.8C144.684 120.222 142.565 120.696 140.843 121.224C139.12 121.751 137.556 122.234 136.149 122.674C134.743 123.096 133.899 123.307 133.618 123.307C132.651 123.307 132.168 122.973 132.168 122.305C132.168 121.619 132.695 120.925 133.75 120.222C137.143 117.954 140.983 116.258 145.272 115.133C149.579 114.008 153.692 113.445 157.612 113.445C161.55 113.445 164.767 113.771 167.263 114.421C169.776 115.071 171.851 115.959 173.485 117.084C175.12 118.209 176.465 119.58 177.52 121.197C179.488 124.203 180.473 127.956 180.473 132.456C180.473 137.202 179.172 141.57 176.57 145.561C173.705 149.938 169.917 152.979 165.206 154.684C162.64 155.598 159.889 156.055 156.953 156.055C152.277 156.055 148.621 155.316 145.984 153.84C145.246 154.561 144.35 155.018 143.295 155.211C142.24 155.422 140.781 155.527 138.918 155.527C137.055 155.527 135.271 155.378 133.565 155.079C131.878 154.78 130.401 154.402 129.136 153.945C127.87 153.471 126.833 152.952 126.024 152.39C125.216 151.81 124.812 151.291 124.812 150.834C124.812 150.377 124.996 150.025 125.365 149.779C125.717 149.516 126.121 149.384 126.578 149.384C128.16 149.384 129.32 149.138 130.059 148.646C130.814 148.136 131.579 147.187 132.353 145.798C133.144 144.409 133.873 142.827 134.541 141.052C135.209 139.276 135.833 137.571 136.413 135.937C137.011 134.302 137.688 132.649 138.443 130.979C140.078 127.306 142.126 124.889 144.587 123.729C145.8 123.166 147.347 122.735 149.228 122.437C151.108 122.12 152.998 121.962 154.896 121.962C156.795 121.962 157.744 122.401 157.744 123.28C157.744 123.948 157.34 124.915 156.531 126.181C155.74 127.446 154.888 129.406 153.974 132.061C153.06 134.715 152.04 137.879 150.915 141.553C149.808 145.227 148.946 147.916 148.331 149.621L147.883 150.781C148.428 150.834 149.28 150.86 150.44 150.86C151.601 150.86 152.893 150.614 154.316 150.122C155.758 149.63 157.006 148.962 158.061 148.118C159.115 147.257 160.064 146.246 160.908 145.086C161.77 143.926 162.473 142.695 163.018 141.395C163.58 140.076 164.046 138.688 164.415 137.229C165.101 134.539 165.443 131.656 165.443 128.58C165.443 122.287 161.743 119.141 154.343 119.141ZM213.511 149.305L218.837 148.804C220.401 148.804 221.184 149.226 221.184 150.069C221.184 150.896 220.674 151.616 219.654 152.231C217.158 153.726 214.486 154.736 211.639 155.264C208.791 155.791 206.014 156.055 203.307 156.055C200.617 156.055 198.692 156.002 197.532 155.896C196.39 155.809 195.247 155.615 194.104 155.316C192.979 155.018 192.057 154.613 191.336 154.104C189.771 152.979 188.989 151.247 188.989 148.909C188.989 144.849 191.441 139.742 196.346 133.59C200.055 128.949 203.201 126.242 205.785 125.469C207.139 125.064 208.712 124.862 210.505 124.862C212.315 124.862 213.221 125.548 213.221 126.919C213.221 127.376 213.089 127.921 212.825 128.554C211.823 130.61 210.944 133.045 210.188 135.857C209.433 138.652 209.055 141.166 209.055 143.398C209.055 147.336 210.54 149.305 213.511 149.305ZM186.748 127.604C185.852 127.604 185.403 127.086 185.403 126.049C185.403 124.906 185.746 123.342 186.432 121.355C187.768 117.576 189.2 115.476 190.729 115.054C191.151 114.896 192.426 114.816 194.553 114.816L212.377 115.238C213.256 115.238 215.813 114.975 220.05 114.447C224.304 113.92 226.536 113.656 226.747 113.656C229.015 113.656 230.148 114.43 230.148 115.977C230.148 116.662 229.902 117.752 229.41 119.246C228.936 120.723 228.303 122.12 227.512 123.438C226.721 124.757 225.991 125.416 225.323 125.416C224.919 125.416 224.005 125.091 222.581 124.44C218.274 122.472 214.803 121.487 212.166 121.487C209.529 121.487 206.479 121.742 203.017 122.252C199.554 122.762 196.979 123.368 195.291 124.071C193.604 124.757 192.127 125.39 190.861 125.97C188.506 127.06 187.135 127.604 186.748 127.604Z" fill="white"/>
</svg>
