<svg width="360" height="282" viewBox="0 0 360 282" fill="none" xmlns="http://www.w3.org/2000/svg">
<path d="M43.1 281.69H33.05C32.0014 281.638 31.0039 281.221 30.2311 280.51C29.4583 279.8 28.959 278.841 28.82 277.8L23.23 248H52.92L47.33 277.8C47.191 278.841 46.6916 279.8 45.9188 280.51C45.146 281.221 44.1486 281.638 43.1 281.69V281.69Z" fill="#285E7C"/>
<path d="M23.23 248.32L25.72 261.44C28.4397 260.749 31.2992 260.839 33.97 261.7C36.9011 262.764 39.5108 264.561 41.55 266.92C44.36 270.33 45.72 275.29 45.55 280.81C46.4724 280.127 47.107 279.126 47.33 278L52.92 248.34L23.23 248.32Z" fill="#00597C"/>
<path d="M230.24 281.69H220.19C219.148 281.631 218.159 281.211 217.394 280.5C216.629 279.79 216.136 278.835 216 277.8L210.37 248H240.06L234.47 277.8C234.329 278.84 233.829 279.798 233.057 280.508C232.284 281.218 231.288 281.637 230.24 281.69V281.69Z" fill="#285E7C"/>
<path d="M210.37 248.32L212.86 261.44C215.58 260.749 218.439 260.839 221.11 261.7C224.041 262.764 226.651 264.561 228.69 266.92C231.49 270.33 232.85 275.29 232.69 280.81C233.602 280.115 234.226 279.107 234.44 277.98L240.03 248.32H210.37Z" fill="#00597C"/>
<path d="M100 281.69H89.9C88.852 281.637 87.8556 281.218 87.0832 280.508C86.3108 279.798 85.8109 278.84 85.67 277.8L80.08 248H109.78L104.19 277.8C104.051 278.833 103.556 279.786 102.792 280.496C102.028 281.205 101.041 281.628 100 281.69Z" fill="#00597C"/>
<path d="M80.08 248.32L82.57 261.44C85.2897 260.749 88.1492 260.839 90.82 261.7C93.7524 262.761 96.3626 264.559 98.4 266.92C101.21 270.33 102.57 275.29 102.4 280.81C103.315 280.116 103.942 279.108 104.16 277.98L109.75 248.32H80.08Z" fill="#285E7C"/>
<path d="M292.15 281.69H282.09C281.042 281.637 280.046 281.218 279.273 280.508C278.501 279.798 278.001 278.84 277.86 277.8L272.28 248H302L296.41 277.8C296.268 278.845 295.764 279.806 294.985 280.517C294.207 281.228 293.203 281.643 292.15 281.69Z" fill="#00597C"/>
<path d="M272.28 248.32L274.76 261.44C277.48 260.749 280.339 260.839 283.01 261.7C285.945 262.762 288.558 264.56 290.6 266.92C293.4 270.33 294.76 275.29 294.6 280.81C295.509 280.112 296.131 279.105 296.35 277.98L302 248.32H272.28Z" fill="#285E7C"/>
<path d="M311.56 258.85H81.86C72.22 258.85 64.4 250 64.4 239V21.11C64.4 10.17 205.45 0 215.1 0L311.56 0.58C321.2 0.58 329 10.17 329 21.11V239C329 250 321.2 258.85 311.56 258.85Z" fill="#00597C"/>
<path d="M304 157.57C268.9 99.26 277.86 20.47 279 1.3L95.54 3.58C85.9 3.58 63.73 16.33 63.73 27V239.6C63.73 250.23 71.59 259.08 81.23 259.08H310.93C320.57 259.08 328.22 250.23 328.22 239.6V192.09C316 179.09 308.08 164.39 304 157.57Z" fill="#00597C"/>
<path d="M236.97 0.479996H27.64C12.3748 0.479996 0 12.8548 0 28.12V231.35C0 246.615 12.3748 258.99 27.64 258.99H236.97C252.235 258.99 264.61 246.615 264.61 231.35V28.12C264.61 12.8548 252.235 0.479996 236.97 0.479996Z" fill="#046EA3"/>
<path d="M247.15 1H239.93C242.79 41.85 241.49 102.15 217.8 157.21C206.57 183.31 195.26 196.62 189.37 202.95C164.89 229.27 136.58 237.49 104.72 244.45C74.9805 250.915 44.8991 255.693 14.62 258.76C15.5562 258.939 16.5068 259.033 17.46 259.04H247.15C256.8 259.04 264.42 250.04 264.42 239.14V20.29C264.42 9.35 256.8 1 247.15 1Z" fill="#00597C"/>
<path d="M205.59 29.77H56.1C42.6905 29.77 31.82 40.6405 31.82 54.05V205.42C31.82 218.829 42.6905 229.7 56.1 229.7H205.59C218.999 229.7 229.87 218.829 229.87 205.42V54.05C229.87 40.6405 218.999 29.77 205.59 29.77Z" fill="#285E7C"/>
<path d="M210.57 39.03H51.64C44.8579 39.03 39.36 44.5279 39.36 51.31V209.53C39.36 216.312 44.8579 221.81 51.64 221.81H210.57C217.352 221.81 222.85 216.312 222.85 209.53V51.31C222.85 44.5279 217.352 39.03 210.57 39.03Z" fill="#81827E"/>
<path d="M131.25 123L36.56 224.86C37.893 226.359 39.5244 227.563 41.3498 228.395C43.1752 229.226 45.1542 229.668 47.16 229.69H214.54C216.521 229.675 218.477 229.251 220.285 228.444C222.094 227.637 223.716 226.464 225.05 225L131.25 123Z" fill="#285E7C"/>
<path d="M47.41 39C45.227 39.0706 43.1605 40.0019 41.6617 41.5906C40.1629 43.1794 39.3534 45.2966 39.41 47.48V212.68C39.41 217.54 43.18 221.8 47.41 221.8H122.5V39H47.41Z" fill="#0089DD"/>
<path d="M213.1 39H120.5V221.8H213.1C217.38 221.8 220.85 217.54 220.85 212.68V47.51C220.85 42.65 217.38 39 213.1 39Z" fill="#0089DD"/>
<path d="M52.29 129.43C55.079 129.43 57.34 125.808 57.34 121.34C57.34 116.872 55.079 113.25 52.29 113.25C49.501 113.25 47.24 116.872 47.24 121.34C47.24 125.808 49.501 129.43 52.29 129.43Z" fill="#00597C"/>
<path d="M52.29 154.51C55.079 154.51 57.34 150.888 57.34 146.42C57.34 141.952 55.079 138.33 52.29 138.33C49.501 138.33 47.24 141.952 47.24 146.42C47.24 150.888 49.501 154.51 52.29 154.51Z" fill="#00597C"/>
<path d="M52.29 179.6C55.079 179.6 57.34 175.978 57.34 171.51C57.34 167.042 55.079 163.42 52.29 163.42C49.501 163.42 47.24 167.042 47.24 171.51C47.24 175.978 49.501 179.6 52.29 179.6Z" fill="#00597C"/>
<path d="M52.29 204.69C55.079 204.69 57.34 201.068 57.34 196.6C57.34 192.132 55.079 188.51 52.29 188.51C49.501 188.51 47.24 192.132 47.24 196.6C47.24 201.068 49.501 204.69 52.29 204.69Z" fill="#00597C"/>
<path d="M264.42 239.18V224.09L205.07 221.48C205.07 221.48 233.56 243.7 252.42 258C259.41 255.43 264.42 248 264.42 239.18Z" fill="#00597C"/>
<path d="M218.89 29.77H343.71C345.85 29.77 347.969 30.1917 349.946 31.011C351.923 31.8302 353.72 33.031 355.232 34.5448C356.745 36.0585 357.945 37.8555 358.763 39.833C359.581 41.8106 360.001 43.9299 360 46.07V213.41C360 217.73 358.284 221.874 355.229 224.929C352.174 227.984 348.03 229.7 343.71 229.7H218.89V29.77Z" fill="#14455B"/>
<path d="M215.1 29.77H339.92C344.24 29.77 348.384 31.4863 351.439 34.5412C354.494 37.5962 356.21 41.7396 356.21 46.06V213.41C356.21 217.73 354.494 221.874 351.439 224.929C348.384 227.984 344.24 229.7 339.92 229.7H215.1V29.77Z" fill="#285E7C"/>
<path d="M342.87 38.71H205.16V221.49H342.87V38.71Z" fill="#296789"/>
<path d="M316.35 38.71H331.68C333.817 38.7113 335.933 39.1338 337.906 39.9534C339.88 40.7731 341.672 41.9736 343.182 43.4866C344.691 44.9995 345.887 46.7951 346.702 48.7707C347.517 50.7462 347.934 52.863 347.93 55V205.22C347.93 209.532 346.217 213.668 343.168 216.718C340.118 219.767 335.982 221.48 331.67 221.48H316.35V38.71Z" fill="#194E6B"/>
<path d="M334.04 129.43C336.829 129.43 339.09 125.808 339.09 121.34C339.09 116.872 336.829 113.25 334.04 113.25C331.251 113.25 328.99 116.872 328.99 121.34C328.99 125.808 331.251 129.43 334.04 129.43Z" fill="#307999"/>
<path d="M334.04 154.51C336.829 154.51 339.09 150.888 339.09 146.42C339.09 141.952 336.829 138.33 334.04 138.33C331.251 138.33 328.99 141.952 328.99 146.42C328.99 150.888 331.251 154.51 334.04 154.51Z" fill="#307999"/>
<path d="M334.04 179.6C336.829 179.6 339.09 175.978 339.09 171.51C339.09 167.042 336.829 163.42 334.04 163.42C331.251 163.42 328.99 167.042 328.99 171.51C328.99 175.978 331.251 179.6 334.04 179.6Z" fill="#307999"/>
<path d="M334.04 204.69C336.829 204.69 339.09 201.068 339.09 196.6C339.09 192.132 336.829 188.51 334.04 188.51C331.251 188.51 328.99 192.132 328.99 196.6C328.99 201.068 331.251 204.69 334.04 204.69Z" fill="#307999"/>
<path d="M337.19 129.43C339.979 129.43 342.24 125.808 342.24 121.34C342.24 116.872 339.979 113.25 337.19 113.25C334.401 113.25 332.14 116.872 332.14 121.34C332.14 125.808 334.401 129.43 337.19 129.43Z" fill="#104251"/>
<path d="M337.19 154.51C339.979 154.51 342.24 150.888 342.24 146.42C342.24 141.952 339.979 138.33 337.19 138.33C334.401 138.33 332.14 141.952 332.14 146.42C332.14 150.888 334.401 154.51 337.19 154.51Z" fill="#104251"/>
<path d="M337.19 179.6C339.979 179.6 342.24 175.978 342.24 171.51C342.24 167.042 339.979 163.42 337.19 163.42C334.401 163.42 332.14 167.042 332.14 171.51C332.14 175.978 334.401 179.6 337.19 179.6Z" fill="#104251"/>
<path d="M337.19 204.69C339.979 204.69 342.24 201.068 342.24 196.6C342.24 192.132 339.979 188.51 337.19 188.51C334.401 188.51 332.14 192.132 332.14 196.6C332.14 201.068 334.401 204.69 337.19 204.69Z" fill="#104251"/>
<path d="M221.27 52.53C221.27 55.04 220 57.07 218.43 57.07C216.86 57.07 215.59 55.07 215.59 52.53C215.59 49.99 216.86 48 218.43 48C220 48 221.27 50 221.27 52.53Z" fill="#194E6B"/>
<path d="M303.08 57.08C304.648 57.08 305.92 55.0429 305.92 52.53C305.92 50.0171 304.648 47.98 303.08 47.98C301.511 47.98 300.24 50.0171 300.24 52.53C300.24 55.0429 301.511 57.08 303.08 57.08Z" fill="#194E6B"/>
<path d="M221.27 206.94C221.27 204.43 220 202.4 218.43 202.4C216.86 202.4 215.59 204.4 215.59 206.94C215.59 209.48 216.86 211.49 218.43 211.49C220 211.49 221.27 209.46 221.27 206.94Z" fill="#194E6B"/>
<path d="M303.08 211.49C304.648 211.49 305.92 209.453 305.92 206.94C305.92 204.427 304.648 202.39 303.08 202.39C301.511 202.39 300.24 204.427 300.24 206.94C300.24 209.453 301.511 211.49 303.08 211.49Z" fill="#194E6B"/>
<path d="M151.26 169.84C164.172 169.84 174.64 157.962 174.64 143.31C174.64 128.658 164.172 116.78 151.26 116.78C138.348 116.78 127.88 128.658 127.88 143.31C127.88 157.962 138.348 169.84 151.26 169.84Z" fill="#FFE76E"/>
<path d="M151.26 165.7C140.38 165.7 131.53 155.7 131.53 143.31C131.53 130.92 140.38 120.92 151.26 120.92C162.14 120.92 171 131 171 143.31C171 155.62 162.14 165.7 151.26 165.7Z" fill="#FFCF48"/>
<path d="M151.26 165.7C140.38 165.7 131.53 155.7 131.53 143.31C131.53 130.92 140.38 120.92 151.26 120.92C162.14 120.92 171 131 171 143.31C171 155.62 162.14 165.7 151.26 165.7Z" fill="#FFD31A"/>
<path d="M133.24 145.24C133.24 132.9 142.09 122.86 152.97 122.86C155.407 122.888 157.813 123.4 160.05 124.366C162.287 125.333 164.31 126.735 166 128.49C164.283 126.181 162.058 124.297 159.497 122.985C156.936 121.672 154.107 120.966 151.23 120.92C140.35 120.92 131.5 130.92 131.5 143.31C131.431 149.557 133.827 155.579 138.17 160.07C134.918 155.815 133.183 150.595 133.24 145.24V145.24Z" fill="#FFBE1D"/>
<path d="M146.65 142.24C146.143 141.855 145.739 141.35 145.476 140.771C145.212 140.191 145.097 139.555 145.14 138.92C145.214 137.902 145.526 136.916 146.05 136.04C146.491 135.163 147.144 134.411 147.95 133.85C148.483 133.489 149.061 133.2 149.67 132.99V132.54C149.663 131.969 149.87 131.416 150.25 130.99C150.405 130.794 150.596 130.63 150.814 130.509C151.032 130.387 151.272 130.309 151.52 130.28H152.65C153.147 130.322 153.607 130.56 153.93 130.94C154.317 131.36 154.534 131.909 154.54 132.48V132.93C155.154 133.133 155.741 133.408 156.29 133.75C157.099 134.286 157.762 135.014 158.22 135.87C158.77 136.729 159.113 137.705 159.22 138.72V139.72C159.224 140.292 159.022 140.846 158.65 141.28C158.329 141.664 157.876 141.914 157.38 141.98H156.25C155.748 141.935 155.285 141.695 154.96 141.31C154.575 140.889 154.361 140.34 154.36 139.77C154.332 139.045 154.08 138.347 153.64 137.77C153.317 137.39 152.857 137.152 152.36 137.11H152C151.501 137.173 151.045 137.428 150.73 137.82C150.357 138.25 150.154 138.801 150.16 139.37C150.161 139.535 150.202 139.697 150.281 139.841C150.359 139.986 150.472 140.109 150.61 140.2L157.87 146.62C158.377 147.007 158.781 147.514 159.044 148.095C159.308 148.676 159.423 149.313 159.38 149.95C159.304 150.964 158.992 151.947 158.47 152.82C158.028 153.693 157.379 154.445 156.58 155.01C156.045 155.373 155.463 155.663 154.85 155.87V156.32C154.856 156.889 154.653 157.44 154.28 157.87C153.962 158.265 153.503 158.52 153 158.58H151.87C151.373 158.538 150.913 158.3 150.59 157.92C150.203 157.5 149.986 156.951 149.98 156.38V155.93C149.362 155.729 148.771 155.454 148.22 155.11C147.409 154.577 146.745 153.848 146.29 152.99C145.74 152.134 145.398 151.162 145.29 150.15V149.15C145.284 148.581 145.487 148.03 145.86 147.6C146.174 147.206 146.63 146.951 147.13 146.89H148.26C148.508 146.91 148.749 146.978 148.971 147.091C149.192 147.205 149.389 147.361 149.55 147.55C149.932 147.973 150.149 148.52 150.16 149.09C150.181 149.815 150.43 150.514 150.87 151.09C151.193 151.47 151.653 151.708 152.15 151.75H152.55C153.046 151.684 153.499 151.434 153.82 151.05C154.192 150.616 154.394 150.062 154.39 149.49C154.389 149.325 154.348 149.163 154.269 149.019C154.191 148.874 154.078 148.751 153.94 148.66L146.65 142.24Z" fill="#FFBE1D"/>
<path d="M145.68 141.13C145.171 140.746 144.767 140.242 144.503 139.662C144.239 139.082 144.125 138.445 144.17 137.81C144.246 136.796 144.558 135.813 145.08 134.94C145.522 134.067 146.171 133.315 146.97 132.75C147.507 132.386 148.088 132.094 148.7 131.88V131.44C148.694 130.868 148.896 130.313 149.27 129.88C149.585 129.489 150.041 129.237 150.54 129.18H151.67C151.919 129.2 152.161 129.269 152.383 129.385C152.604 129.5 152.801 129.658 152.96 129.85C153.344 130.272 153.561 130.819 153.57 131.39V131.83C154.187 132.037 154.778 132.315 155.33 132.66C156.141 133.193 156.805 133.922 157.26 134.78C157.81 135.636 158.152 136.608 158.26 137.62V138.62C158.268 139.192 158.065 139.748 157.69 140.18C157.535 140.375 157.343 140.537 157.125 140.657C156.907 140.777 156.667 140.853 156.42 140.88H155.29C155.042 140.86 154.801 140.792 154.579 140.679C154.358 140.565 154.161 140.409 154 140.22C153.616 139.798 153.399 139.251 153.39 138.68C153.369 137.955 153.12 137.256 152.68 136.68C152.521 136.488 152.324 136.33 152.103 136.215C151.881 136.099 151.639 136.03 151.39 136.01H151C150.501 136.067 150.045 136.319 149.73 136.71C149.356 137.143 149.154 137.698 149.16 138.27C149.161 138.435 149.202 138.597 149.281 138.741C149.359 138.886 149.472 139.009 149.61 139.1L156.86 145.52C157.368 145.904 157.773 146.409 158.039 146.988C158.304 147.568 158.421 148.204 158.38 148.84C158.3 149.855 157.985 150.838 157.46 151.71C157.025 152.588 156.375 153.341 155.57 153.9C155.037 154.263 154.459 154.556 153.85 154.77V155.21C153.858 155.782 153.655 156.338 153.28 156.77C153.125 156.965 152.933 157.127 152.715 157.247C152.497 157.367 152.257 157.443 152.01 157.47H150.88C150.631 157.449 150.389 157.379 150.168 157.264C149.947 157.149 149.75 156.991 149.59 156.8C149.207 156.382 148.993 155.837 148.99 155.27V154.82C148.375 154.615 147.788 154.337 147.24 153.99C146.426 153.464 145.762 152.737 145.31 151.88C144.757 151.022 144.414 150.046 144.31 149.03V148.03C144.298 147.457 144.501 146.9 144.88 146.47C145.035 146.275 145.227 146.113 145.445 145.993C145.663 145.873 145.903 145.797 146.15 145.77H147.28C147.527 145.791 147.768 145.861 147.988 145.976C148.208 146.091 148.402 146.249 148.56 146.44C148.95 146.854 149.168 147.401 149.17 147.97C149.196 148.694 149.444 149.392 149.88 149.97C150.04 150.161 150.237 150.319 150.458 150.434C150.679 150.549 150.921 150.619 151.17 150.64H151.56C151.807 150.613 152.047 150.537 152.265 150.417C152.483 150.297 152.675 150.135 152.83 149.94C153.212 149.511 153.419 148.954 153.41 148.38C153.408 148.214 153.365 148.052 153.285 147.907C153.204 147.762 153.089 147.639 152.95 147.55L145.68 141.13Z" fill="#FFE36E"/>
<path d="M152.72 124.53C152.685 124.811 152.57 125.076 152.389 125.293C152.207 125.51 151.967 125.67 151.697 125.754C151.426 125.838 151.138 125.842 150.865 125.766C150.592 125.689 150.348 125.536 150.16 125.324C149.973 125.112 149.85 124.851 149.808 124.571C149.765 124.291 149.804 124.005 149.921 123.747C150.037 123.489 150.225 123.27 150.462 123.116C150.7 122.962 150.977 122.88 151.26 122.88C151.671 122.908 152.055 123.097 152.328 123.406C152.601 123.715 152.742 124.118 152.72 124.53V124.53Z" fill="#FFE36E"/>
<path d="M152.72 162.09C152.685 161.809 152.57 161.544 152.389 161.327C152.207 161.11 151.967 160.95 151.697 160.866C151.426 160.782 151.138 160.778 150.865 160.854C150.592 160.931 150.348 161.084 150.16 161.296C149.973 161.508 149.85 161.769 149.808 162.049C149.765 162.329 149.804 162.615 149.921 162.873C150.037 163.131 150.225 163.35 150.462 163.504C150.7 163.658 150.977 163.74 151.26 163.74C151.671 163.712 152.055 163.523 152.328 163.214C152.601 162.905 152.742 162.502 152.72 162.09Z" fill="#FFE36E"/>
<path d="M134.71 141.65C135.046 141.607 135.388 141.668 135.689 141.824C135.99 141.98 136.236 142.225 136.395 142.524C136.554 142.824 136.618 143.165 136.579 143.501C136.539 143.838 136.398 144.155 136.174 144.41C135.95 144.664 135.654 144.845 135.325 144.927C134.996 145.009 134.65 144.989 134.332 144.87C134.015 144.75 133.741 144.537 133.548 144.259C133.355 143.98 133.251 143.649 133.25 143.31C133.225 142.897 133.365 142.49 133.638 142.179C133.912 141.869 134.297 141.678 134.71 141.65Z" fill="#FFE36E"/>
<path d="M167.81 144.97C168.616 144.97 169.27 144.227 169.27 143.31C169.27 142.393 168.616 141.65 167.81 141.65C167.004 141.65 166.35 142.393 166.35 143.31C166.35 144.227 167.004 144.97 167.81 144.97Z" fill="#FFE36E"/>
<path d="M138.53 155.42C138.655 155.267 138.812 155.144 138.99 155.06C139.168 154.975 139.363 154.931 139.56 154.931C139.757 154.931 139.952 154.975 140.13 155.06C140.308 155.144 140.465 155.267 140.59 155.42C140.867 155.747 141.019 156.162 141.019 156.59C141.019 157.018 140.867 157.433 140.59 157.76C140.465 157.913 140.308 158.036 140.13 158.12C139.952 158.205 139.757 158.249 139.56 158.249C139.363 158.249 139.168 158.205 138.99 158.12C138.812 158.036 138.655 157.913 138.53 157.76C138.253 157.433 138.101 157.018 138.101 156.59C138.101 156.162 138.253 155.747 138.53 155.42Z" fill="#FFE36E"/>
<path d="M161.93 128.86C161.654 129.189 161.503 129.605 161.503 130.035C161.503 130.465 161.654 130.881 161.93 131.21C162.058 131.36 162.216 131.48 162.395 131.563C162.574 131.645 162.768 131.688 162.965 131.688C163.162 131.688 163.356 131.645 163.535 131.563C163.714 131.48 163.872 131.36 164 131.21C164.276 130.881 164.427 130.465 164.427 130.035C164.427 129.605 164.276 129.189 164 128.86C163.874 128.707 163.716 128.584 163.537 128.499C163.358 128.415 163.163 128.371 162.965 128.371C162.767 128.371 162.572 128.415 162.393 128.499C162.214 128.584 162.056 128.707 161.93 128.86V128.86Z" fill="#FFE36E"/>
<path d="M140.59 128.86C140.866 129.189 141.017 129.605 141.017 130.035C141.017 130.465 140.866 130.881 140.59 131.21C140.463 131.36 140.305 131.48 140.128 131.562C139.95 131.645 139.756 131.687 139.56 131.687C139.364 131.687 139.17 131.645 138.992 131.562C138.815 131.48 138.657 131.36 138.53 131.21C138.254 130.881 138.103 130.465 138.103 130.035C138.103 129.605 138.254 129.189 138.53 128.86C138.655 128.707 138.812 128.584 138.99 128.5C139.168 128.415 139.363 128.371 139.56 128.371C139.757 128.371 139.952 128.415 140.13 128.5C140.308 128.584 140.465 128.707 140.59 128.86Z" fill="#FFE36E"/>
<path d="M164 155.42C163.874 155.267 163.716 155.144 163.537 155.059C163.358 154.975 163.163 154.931 162.965 154.931C162.767 154.931 162.572 154.975 162.393 155.059C162.214 155.144 162.056 155.267 161.93 155.42C161.653 155.747 161.501 156.162 161.501 156.59C161.501 157.018 161.653 157.433 161.93 157.76C162.056 157.913 162.214 158.036 162.393 158.121C162.572 158.205 162.767 158.249 162.965 158.249C163.163 158.249 163.358 158.205 163.537 158.121C163.716 158.036 163.874 157.913 164 157.76C164.277 157.433 164.429 157.018 164.429 156.59C164.429 156.162 164.277 155.747 164 155.42V155.42Z" fill="#FFE36E"/>
<path opacity="0.12" d="M204.93 105.69V39H47.41C46.423 38.9893 45.4445 39.1827 44.5359 39.5682C43.6273 39.9537 42.8082 40.5229 42.13 41.24L122.53 105.66L204.93 105.69Z" fill="#091A47"/>
<path d="M245.08 39.03L204.93 114.55V134.23L255.44 39.03H245.08Z" fill="#327796"/>
<path d="M267.89 39.03L204.93 157.89V193.55L286.66 39.03H267.89Z" fill="#327796"/>
<path d="M163.4 126.95H109.59V134.09H163.4V126.95Z" fill="#F7AF0F"/>
<path d="M163.4 125.86H109.59V133H163.4V125.86Z" fill="#FFD31A"/>
<path d="M163.41 125.86H140.82V133H163.41V125.86Z" fill="#FFBE1D"/>
<path d="M127.97 125.86H116.08V133H127.97V125.86Z" fill="#FFE76E"/>
<path d="M162.92 135.17H109.11V142.31H162.92V135.17Z" fill="#F7AF0F"/>
<path d="M162.92 134.09H109.11V141.23H162.92V134.09Z" fill="#FFD31A"/>
<path d="M162.92 134.09H140.33V141.23H162.92V134.09Z" fill="#FFBE1D"/>
<path d="M127.48 134.09H115.59V141.23H127.48V134.09Z" fill="#FFE76E"/>
<path d="M163.16 143.4H109.35V150.54H163.16V143.4Z" fill="#F7AF0F"/>
<path d="M163.16 142.31H109.35V149.45H163.16V142.31Z" fill="#FFD31A"/>
<path d="M163.16 142.31H140.57V149.45H163.16V142.31Z" fill="#FFBE1D"/>
<path d="M127.72 142.31H115.83V149.45H127.72V142.31Z" fill="#FFE76E"/>
<path d="M162.46 151.62H108.65V158.76H162.46V151.62Z" fill="#F7AF0F"/>
<path d="M162.46 150.54H108.65V157.68H162.46V150.54Z" fill="#FFD31A"/>
<path d="M162.46 150.54H139.87V157.68H162.46V150.54Z" fill="#FFBE1D"/>
<path d="M127.02 150.54H115.13V157.68H127.02V150.54Z" fill="#FFE76E"/>
<path d="M161.18 159.85H107.37V166.99H161.18V159.85Z" fill="#F7AF0F"/>
<path d="M161.18 158.77H107.37V165.91H161.18V158.77Z" fill="#FFD31A"/>
<path d="M161.18 158.77H138.59V165.91H161.18V158.77Z" fill="#FFBE1D"/>
<path d="M125.74 158.77H113.85V165.91H125.74V158.77Z" fill="#FFE76E"/>
<path d="M159.1 168.08H105.29V175.22H159.1V168.08Z" fill="#F7AF0F"/>
<path d="M159.1 166.99H105.29V174.13H159.1V166.99Z" fill="#FFD31A"/>
<path d="M159.1 166.99H136.51V174.13H159.1V166.99Z" fill="#FFBE1D"/>
<path d="M123.66 166.99H111.77V174.13H123.66V166.99Z" fill="#FFE76E"/>
<path d="M161.43 176.3H107.62V183.44H161.43V176.3Z" fill="#F7AF0F"/>
<path d="M161.43 175.22H107.62V182.36H161.43V175.22Z" fill="#FFD31A"/>
<path d="M161.44 175.22H138.85V182.36H161.44V175.22Z" fill="#FFBE1D"/>
<path d="M125.99 175.22H114.1V182.36H125.99V175.22Z" fill="#FFE76E"/>
<path d="M131.72 165.04H77.91V172.18H131.72V165.04Z" fill="#F7AF0F"/>
<path d="M131.72 163.95H77.91V171.09H131.72V163.95Z" fill="#FFD31A"/>
<path d="M131.73 163.95H109.14V171.09H131.73V163.95Z" fill="#FFBE1D"/>
<path d="M96.29 163.95H84.4V171.09H96.29V163.95Z" fill="#FFE76E"/>
<path d="M130.28 173.26H76.47V180.4H130.28V173.26Z" fill="#F7AF0F"/>
<path d="M130.28 172.18H76.47V179.32H130.28V172.18Z" fill="#FFD31A"/>
<path d="M130.29 172.18H107.7V179.32H130.29V172.18Z" fill="#FFBE1D"/>
<path d="M94.84 172.18H82.95V179.32H94.84V172.18Z" fill="#FFE76E"/>
<path d="M130.52 181.49H76.71V188.63H130.52V181.49Z" fill="#F7AF0F"/>
<path d="M130.52 180.41H76.71V187.55H130.52V180.41Z" fill="#FFD31A"/>
<path d="M130.52 180.41H107.93V187.55H130.52V180.41Z" fill="#FFBE1D"/>
<path d="M95.08 180.41H83.19V187.55H95.08V180.41Z" fill="#FFE76E"/>
<path d="M136.04 189.72H82.23V196.86H136.04V189.72Z" fill="#F7AF0F"/>
<path d="M136.04 188.63H82.23V195.77H136.04V188.63Z" fill="#FFD31A"/>
<path d="M136.04 188.63H113.45V195.77H136.04V188.63Z" fill="#FFBE1D"/>
<path d="M100.6 188.63H88.71V195.77H100.6V188.63Z" fill="#FFE76E"/>
<path d="M134.76 197.94H80.95V205.08H134.76V197.94Z" fill="#F7AF0F"/>
<path d="M134.76 196.86H80.95V204H134.76V196.86Z" fill="#FFD31A"/>
<path d="M134.76 196.86H112.17V204H134.76V196.86Z" fill="#FFBE1D"/>
<path d="M99.32 196.86H87.43V204H99.32V196.86Z" fill="#FFE76E"/>
<path d="M132.68 206.17H78.87V213.31H132.68V206.17Z" fill="#F7AF0F"/>
<path d="M132.68 205.08H78.87V212.22H132.68V205.08Z" fill="#FFD31A"/>
<path d="M132.68 205.08H110.09V212.22H132.68V205.08Z" fill="#FFBE1D"/>
<path d="M97.24 205.08H85.35V212.22H97.24V205.08Z" fill="#FFE76E"/>
<path d="M135.01 214.39H81.2V221.53H135.01V214.39Z" fill="#F7AF0F"/>
<path d="M135.01 213.31H81.2V220.45H135.01V213.31Z" fill="#FFD31A"/>
<path d="M135.01 213.31H112.42V220.45H135.01V213.31Z" fill="#FFBE1D"/>
<path d="M99.57 213.31H87.68V220.45H99.57V213.31Z" fill="#FFE76E"/>
<path d="M181.56 165.04H127.75V172.18H181.56V165.04Z" fill="#F7AF0F"/>
<path d="M181.56 163.95H127.75V171.09H181.56V163.95Z" fill="#FFD31A"/>
<path d="M181.56 163.95H158.97V171.09H181.56V163.95Z" fill="#FFBE1D"/>
<path d="M146.12 163.95H134.23V171.09H146.12V163.95Z" fill="#FFE76E"/>
<path d="M180.12 173.26H126.31V180.4H180.12V173.26Z" fill="#F7AF0F"/>
<path d="M180.12 172.18H126.31V179.32H180.12V172.18Z" fill="#FFD31A"/>
<path d="M180.12 172.18H157.53V179.32H180.12V172.18Z" fill="#FFBE1D"/>
<path d="M144.68 172.18H132.79V179.32H144.68V172.18Z" fill="#FFE76E"/>
<path d="M180.36 181.49H126.55V188.63H180.36V181.49Z" fill="#F7AF0F"/>
<path d="M180.36 180.41H126.55V187.55H180.36V180.41Z" fill="#FFD31A"/>
<path d="M180.36 180.41H157.77V187.55H180.36V180.41Z" fill="#FFBE1D"/>
<path d="M144.92 180.41H133.03V187.55H144.92V180.41Z" fill="#FFE76E"/>
<path d="M185.88 189.72H132.07V196.86H185.88V189.72Z" fill="#F7AF0F"/>
<path d="M185.88 188.63H132.07V195.77H185.88V188.63Z" fill="#FFD31A"/>
<path d="M185.88 188.63H163.29V195.77H185.88V188.63Z" fill="#FFBE1D"/>
<path d="M150.44 188.63H138.55V195.77H150.44V188.63Z" fill="#FFE76E"/>
<path d="M184.6 197.94H130.79V205.08H184.6V197.94Z" fill="#F7AF0F"/>
<path d="M184.6 196.86H130.79V204H184.6V196.86Z" fill="#FFD31A"/>
<path d="M184.6 196.86H162.01V204H184.6V196.86Z" fill="#FFBE1D"/>
<path d="M149.16 196.86H137.27V204H149.16V196.86Z" fill="#FFE76E"/>
<path d="M182.51 206.17H128.7V213.31H182.51V206.17Z" fill="#F7AF0F"/>
<path d="M182.51 205.08H128.7V212.22H182.51V205.08Z" fill="#FFD31A"/>
<path d="M182.51 205.08H159.92V212.22H182.51V205.08Z" fill="#FFBE1D"/>
<path d="M147.07 205.08H135.18V212.22H147.07V205.08Z" fill="#FFE76E"/>
<path d="M184.85 214.39H131.04V221.53H184.85V214.39Z" fill="#F7AF0F"/>
<path d="M184.85 213.31H131.04V220.45H184.85V213.31Z" fill="#FFD31A"/>
<path d="M184.85 213.31H162.26V220.45H184.85V213.31Z" fill="#FFBE1D"/>
<path d="M149.41 213.31H137.52V220.45H149.41V213.31Z" fill="#FFE76E"/>
<path d="M127.09 139.03V132.55H181.34V138.25L179.19 144.81L139.64 150.43L127.09 139.03Z" fill="#F99F00"/>
<path d="M178.09 125.36C176.393 122.235 174.104 119.47 171.35 117.22L170.9 116.86C166.346 113.304 160.775 111.296 155 111.13H154.22C147.024 111.13 140.122 113.988 135.033 119.076C129.943 124.163 127.083 131.064 127.08 138.26C127.08 138.52 127.08 138.78 127.08 139.04C127.162 142.16 127.785 145.243 128.92 148.15C129.881 150.591 131.187 152.881 132.8 154.95C132.92 155.1 133.04 155.26 133.17 155.41C134.107 156.556 135.134 157.626 136.24 158.61C141.018 162.825 147.126 165.225 153.496 165.39C159.865 165.554 166.089 163.472 171.078 159.509C176.067 155.546 179.502 149.953 180.782 143.712C182.062 137.47 181.106 130.977 178.08 125.37L178.09 125.36ZM154.21 159.89C151.182 159.892 148.188 159.258 145.42 158.03C142.143 156.571 139.281 154.32 137.09 151.48C134.616 148.28 133.089 144.451 132.682 140.427C132.275 136.403 133.004 132.346 134.787 128.715C136.57 125.085 139.335 122.027 142.768 119.889C146.202 117.751 150.165 116.619 154.21 116.62C158.999 116.609 163.655 118.196 167.44 121.13C168.612 122.041 169.688 123.069 170.65 124.2C172.014 125.783 173.136 127.559 173.98 129.47C175.442 132.764 176.059 136.371 175.773 139.963C175.488 143.556 174.31 147.021 172.346 150.042C170.382 153.064 167.695 155.548 164.527 157.267C161.36 158.987 157.814 159.889 154.21 159.89V159.89Z" fill="#F99F00"/>
<path d="M178.09 120.57C177.104 118.756 175.916 117.058 174.55 115.51C173.571 114.399 172.501 113.372 171.35 112.44L170.9 112.07C168.827 110.457 166.534 109.151 164.09 108.19C161.186 107.056 158.107 106.433 154.99 106.35H154.21C150.646 106.35 147.117 107.052 143.824 108.416C140.531 109.78 137.539 111.779 135.019 114.299C132.499 116.819 130.5 119.811 129.136 123.104C127.772 126.397 127.07 129.926 127.07 133.49C127.07 133.75 127.07 134.01 127.07 134.26C127.152 137.38 127.775 140.463 128.91 143.37C129.868 145.815 131.175 148.109 132.79 150.18L133.16 150.63C134.092 151.781 135.119 152.851 136.23 153.83C137.778 155.196 139.476 156.384 141.29 157.37C146.431 160.14 152.329 161.179 158.108 160.332C163.886 159.485 169.237 156.797 173.367 152.667C177.497 148.537 180.185 143.186 181.032 137.408C181.879 131.629 180.84 125.731 178.07 120.59L178.09 120.57ZM154.21 155.1C149.929 155.102 145.744 153.834 142.184 151.457C138.623 149.08 135.848 145.701 134.209 141.746C132.57 137.791 132.141 133.439 132.975 129.241C133.81 125.042 135.871 121.185 138.898 118.158C141.925 115.131 145.782 113.07 149.981 112.235C154.179 111.401 158.531 111.83 162.486 113.469C166.44 115.108 169.82 117.883 172.197 121.444C174.574 125.004 175.842 129.189 175.84 133.47C175.861 136.316 175.316 139.139 174.237 141.773C173.157 144.406 171.565 146.799 169.552 148.812C167.539 150.825 165.146 152.417 162.513 153.497C159.879 154.576 157.056 155.121 154.21 155.1V155.1Z" fill="#FACC00"/>
<path d="M154.21 155.1C166.156 155.1 175.84 145.416 175.84 133.47C175.84 121.524 166.156 111.84 154.21 111.84C142.264 111.84 132.58 121.524 132.58 133.47C132.58 145.416 142.264 155.1 154.21 155.1Z" fill="#F99F00"/>
<path d="M154.21 114.89C159.683 114.891 164.953 116.967 168.957 120.699C172.962 124.43 175.403 129.54 175.79 135C175.79 134.49 175.84 134 175.84 133.47C175.902 130.59 175.388 127.726 174.329 125.047C173.269 122.368 171.686 119.927 169.67 117.868C167.655 115.809 165.249 114.174 162.594 113.057C159.938 111.94 157.086 111.365 154.205 111.365C151.324 111.365 148.472 111.94 145.816 113.057C143.161 114.174 140.755 115.809 138.74 117.868C136.724 119.927 135.141 122.368 134.081 125.047C133.022 127.726 132.508 130.59 132.57 133.47C132.57 133.977 132.59 134.487 132.63 135C133.015 129.539 135.455 124.428 139.46 120.696C143.465 116.964 148.736 114.889 154.21 114.89V114.89Z" fill="#F78100"/>
<path d="M179.09 122.43C178.76 121.68 178.4 120.94 178.02 120.22C177.747 119.733 177.467 119.253 177.18 118.78C176.378 117.503 175.476 116.292 174.48 115.16L174.07 114.71C173.204 113.771 172.272 112.895 171.28 112.09L170.83 111.72C169.753 110.885 168.617 110.129 167.43 109.46C166.337 108.84 165.2 108.299 164.03 107.84C161.122 106.706 158.04 106.084 154.92 106H154.14C146.942 106 140.039 108.859 134.949 113.949C129.859 119.039 127 125.942 127 133.14C127 133.4 127 133.66 127 133.91C127.037 135.487 127.218 137.056 127.54 138.6C127.847 140.108 128.282 141.586 128.84 143.02C129.794 145.467 131.102 147.761 132.72 149.83L133.09 150.28L133.45 150.72C134.289 151.701 135.195 152.623 136.16 153.48L136.36 153.65C137.855 154.943 139.484 156.073 141.22 157.02C146.177 159.686 151.84 160.747 157.427 160.054C163.013 159.362 168.246 156.951 172.402 153.155C176.558 149.359 179.432 144.365 180.627 138.864C181.821 133.364 181.277 127.628 179.07 122.45L179.09 122.43ZM154.14 154.75C151.112 154.757 148.116 154.123 145.35 152.89C143.79 152.193 142.317 151.317 140.96 150.28C140.66 150.05 140.37 149.81 140.08 149.56C139.31 148.91 138.591 148.201 137.93 147.44C137.61 147.09 137.31 146.72 137.02 146.35C136.266 145.372 135.597 144.332 135.02 143.24C134.249 141.784 133.648 140.244 133.23 138.65C132.904 137.425 132.69 136.173 132.59 134.91C132.54 134.32 132.51 133.72 132.51 133.12C132.51 129.807 133.271 126.538 134.734 123.566C136.197 120.593 138.323 117.996 140.948 115.975C143.573 113.954 146.627 112.563 149.875 111.908C153.122 111.253 156.477 111.353 159.68 112.2C160.612 112.448 161.527 112.755 162.42 113.12C164.209 113.851 165.89 114.82 167.42 116C168.204 116.616 168.946 117.284 169.64 118C169.99 118.35 170.31 118.71 170.64 119.08C171.438 120.017 172.154 121.021 172.78 122.08C173.222 122.822 173.619 123.59 173.97 124.38C174.18 124.86 174.38 125.38 174.56 125.84C175.74 129.109 176.115 132.614 175.655 136.058C175.195 139.503 173.912 142.786 171.915 145.63C169.918 148.474 167.266 150.796 164.183 152.399C161.099 154.002 157.675 154.839 154.2 154.84L154.14 154.75Z" fill="#FACC00"/>
<path d="M133.29 139C133.708 140.594 134.309 142.134 135.08 143.59L130.6 146.86C129.963 145.73 129.405 144.557 128.93 143.35C128.372 141.916 127.937 140.438 127.63 138.93L132.63 135.26C132.737 136.524 132.957 137.776 133.29 139V139Z" fill="#FFE885"/>
<path d="M174.14 115.06L169.66 118.33C168.966 117.614 168.224 116.946 167.44 116.33C165.91 115.15 164.229 114.181 162.44 113.45L167.44 109.79C168.627 110.459 169.763 111.215 170.84 112.05L171.29 112.42C172.303 113.229 173.256 114.112 174.14 115.06V115.06Z" fill="#FFE885"/>
<path d="M140.15 149.91C140.44 150.16 140.73 150.4 141.03 150.63L136.45 154L136.25 153.83C135.285 152.973 134.379 152.051 133.54 151.07L138 147.81C138.662 148.564 139.381 149.266 140.15 149.91V149.91Z" fill="#FFE885"/>
<path d="M166.29 127.13C166.296 127.166 166.296 127.204 166.29 127.24H166.11L166.29 127.13Z" fill="#FFE885"/>
<path d="M179.16 122.78L174.57 126.14C174.39 125.64 174.19 125.14 173.98 124.68C173.629 123.89 173.232 123.122 172.79 122.38L177.25 119.13C177.543 119.597 177.823 120.077 178.09 120.57C178.47 121.29 178.83 122 179.16 122.78Z" fill="#FFE885"/>
<path d="M154.909 143.557C153.386 143.557 151.96 143.312 150.632 142.824C149.304 142.326 148.146 141.608 147.16 140.671C146.193 139.753 145.432 138.62 144.875 137.272C144.318 135.915 144.04 134.426 144.04 132.805C144.04 131.193 144.318 129.704 144.875 128.337C145.441 126.96 146.232 125.769 147.248 124.763C148.244 123.776 149.44 123.015 150.837 122.478C152.233 121.931 153.728 121.657 155.319 121.657C156.472 121.657 157.521 121.799 158.469 122.082C159.416 122.355 160.217 122.668 160.871 123.02L161.779 122.214H163.054L163.186 129.802H161.896C161.164 127.487 160.285 125.788 159.26 124.704C158.234 123.62 156.984 123.078 155.51 123.078C153.674 123.078 152.277 123.889 151.32 125.51C150.363 127.121 149.885 129.387 149.885 132.307C149.885 133.957 150.046 135.368 150.368 136.54C150.7 137.702 151.13 138.64 151.657 139.353C152.224 140.095 152.893 140.642 153.664 140.993C154.436 141.335 155.29 141.506 156.228 141.506C157.595 141.506 158.811 141.135 159.875 140.393C160.949 139.65 161.926 138.527 162.805 137.023L164.064 137.785C163.645 138.645 163.166 139.416 162.629 140.1C162.092 140.773 161.472 141.354 160.769 141.843C159.997 142.38 159.143 142.8 158.205 143.103C157.277 143.405 156.179 143.557 154.909 143.557Z" fill="#FFE76E"/>
</svg>
