<?xml version="1.0" encoding="UTF-8"?> <svg xmlns="http://www.w3.org/2000/svg" data-name="Ñëîé 1" viewBox="0 0 600 360.81"><defs><radialGradient id="a" cx="-13" cy="54.41" r="439.34" gradientUnits="userSpaceOnUse"><stop offset="0" stop-color="#ff2c9c"></stop><stop offset=".03" stop-color="#f62f9f"></stop><stop offset=".2" stop-color="#c63eb0"></stop><stop offset=".37" stop-color="#9e4bbe"></stop><stop offset=".54" stop-color="#7f54c9"></stop><stop offset=".7" stop-color="#695bd1"></stop><stop offset=".86" stop-color="#5c60d5"></stop><stop offset="1" stop-color="#5761d7"></stop></radialGradient></defs><g opacity=".2"><path d="M16.63 3.13a4.94 4.94 0 004.49 0l.15-.1 69.36 40.05v49.85L0 40.6v.82l107.57 62.11v55.11l58 33.5-10.27 5.93-56.46-32.61.18-.31-53.74-31v-6.78L34.38 121v-19.37L0 81.79v.82L33.67 102v18.59l-13.89-8c.9-.71.8-1.72-.32-2.36a4.94 4.94 0 00-4.49 0c-1.24.71-1.24 1.87 0 2.59a5 5 0 004.1.18l25.5 14.73v6.78l53.31 30.78H73.12L0 123.09v.82l71.7 41.4H0v.69h98.39l56.22 32.46-10.61 6.16-40.76-23.53-.08-.05H0v.71h73.09l-22.23 12.83H0v.71h51.06l23.45-13.54H103L143.27 205l-9.37 5.4-35.67-20.6-.09-.05H83.77l-29.15 16.87H0v.71h54.81L84 190.5h14l25.91 14.95h-13l-12.64-7.29h-9.81l-21.83 12.6a5 5 0 00-4 .22c-1.24.71-1.24 1.87 0 2.59a4.94 4.94 0 004.49 0c1.14-.66 1.22-1.69.26-2.41l21.3-12.29h9.43l12.64 7.29h14.37l8.1 4.68-13.22 7.61h-19.42l-24.06 13.89a5 5 0 00-4.1.19c-1.24.71-1.24 1.87 0 2.59a4.94 4.94 0 004.49 0c1.12-.65 1.22-1.65.32-2.37l23.54-13.59h18l-6.2 3.58 9.63 5.56-26.06 15H68.76l-28.9-16.68c.9-.72.8-1.73-.32-2.37a4.94 4.94 0 00-4.49 0 1.37 1.37 0 000 2.59 5 5 0 004.1.19L54 235.66H0v.81l.18-.1h55.09L68.49 244l.08.05h26.36l-10.8 6.24h-62l-16 9.24H0v.71h4.89L0 263.06v.82L22.32 251h62l38.61-22.29 18 10.39L96 265H47.66L0 292.55v.82l47.85-27.63h46.92L35.44 300v27.42L0 347.88v.83l36.15-20.88v-27.42l105.49-60.9 15.48 8.94-63.4 36.6v55.12L58 360.81h1.42l35.05-20.23v-55.12l63.4-36.6 9.55 5.51-47 27.13v64.59l-22.58 13v1.68h.71v-1.27l22.58-13v-64.59l47-27.13 12.87 7.45L145 283v77.83h.71v-33.15l18 10.4v22.73h.71v-23.14l-18.74-10.81V307.8l23.71 13.69c-.82.71-.7 1.69.4 2.31a5 5 0 004.49 0 1.37 1.37 0 000-2.6 5 5 0 00-4.19-.14L145.75 307v-23.61l35.94-20.75 11.48 6.62-17.46 10.09v14.85l4.41 2.55v7.57l31.48 18.18v12.84l25.63 14.79c-.89.72-.79 1.73.32 2.37a4.94 4.94 0 004.49 0 1.37 1.37 0 000-2.59 5 5 0 00-4.1-.19l-25.63-14.8v-12.83l-31.48-18.18v-6.75l52.92 30.55c-.83.71-.7 1.69.39 2.32a5 5 0 004.49 0c1.24-.72 1.24-1.88 0-2.59a5 5 0 00-4.19-.15L192 302.8h21.3l24.41 14.09c-.89.72-.79 1.72.32 2.37a4.94 4.94 0 004.49 0c1.24-.72 1.24-1.88 0-2.59a5 5 0 00-4.09-.19l-24.85-14.35h-22.73l-14.43-8.34v-14l17.46-10.09 3.47 2 4.5-2.6 73.34 42.35.09.05h20a1.88 1.88 0 00.87.94 5 5 0 004.49 0 1.37 1.37 0 000-2.6 5 5 0 00-4.49 0 1.86 1.86 0 00-.87.95h-19.81l-72.91-42.1 11.15-6.43 61 35.18c-.9.72-.8 1.73.32 2.37a4.94 4.94 0 004.49 0c1.24-.72 1.24-1.88 0-2.59a5 5 0 00-4.1-.19l-61-35.18 11.58-6.7 86.13 49.72v41.63l-24.79 14.31h1.42l14.77-8.53 14.78 8.53h1.42l-15.49-8.94 8.6-5v-32.7l14.56 8.41V343l29.6 17.12a1.59 1.59 0 00-.53.69h6.2a1.87 1.87 0 00-.86-.92 5 5 0 00-4.1-.18l-29.61-17.1v-20.44l-15.27-8.82v-8.89l-86.13-49.72 12.69-7.33 167 96.39v17h.61v-17.41L240.08 247l10.27-5.93 86 49.68.08.05h62.6l27.62 15.94h-.16v16.95l31.28 18.06c-.9.72-.8 1.72.32 2.37a5 5 0 004.49 0 1.37 1.37 0 000-2.6 5 5 0 00-4.1-.18l-31.28-18.06v-16.22l47.46 27.4.08.05h105.2L600 322.93v-.82l-20.25 11.69H475l-75.62-43.66-.08-.05h-62.63l-85.61-49.43 9-5.22 81.43 47 .08.05h71.85l35 20.21c-.9.71-.8 1.72.32 2.36a4.94 4.94 0 004.49 0c1.24-.71 1.24-1.87 0-2.59a5 5 0 00-4.1-.18l-35.44-20.46H341.8l-12.05-7h96L501.71 231a5 5 0 004.1-.19c1.24-.71 1.24-1.87 0-2.59a5 5 0 00-4.5 0c-1.11.65-1.21 1.65-.32 2.37l-75.4 43.54h-97.07l-30.37-17.53 11.93-6.89h21.17l19.83-11.44a5 5 0 004.1-.19c1.24-.72 1.24-1.88 0-2.59a4.94 4.94 0 00-4.49 0c-1.12.64-1.22 1.65-.32 2.36L331.06 249h-19.75l46.14-26.64h42.67l23.79 13.74c-.89.72-.79 1.72.32 2.37a5 5 0 004.49 0c1.24-.72 1.24-1.88 0-2.59a5 5 0 00-4.1-.19l-24.23-14-.08-.05h-43.05l-59.82 34.54L272 241.5h14l11.3-6.52a5 5 0 004.15-.17c1.24-.71 1.24-1.87 0-2.59a5 5 0 00-4.49 0c-1.11.64-1.22 1.63-.36 2.34l-10.79 6.23h-15.03l-10-5.76 21.29-12.29-6.67-3.85 36.73-21.21h12.25l14.62 8.45c-.9.71-.8 1.72.32 2.36a5 5 0 004.49 0 1.37 1.37 0 000-2.6 5 5 0 00-4.1-.18L324.69 197l-.08-.05H312l-26.69 15.41v-14.09l25-14.44a5 5 0 004.1-.19 1.37 1.37 0 000-2.59 5 5 0 00-4.5 0c-1.11.64-1.21 1.65-.31 2.37l-25 14.44v14.93l-9.85 5.69-34.64-20 16.07-9.28H277l32.95-19h25l34.77 20.07c-.9.71-.8 1.72.31 2.36a5 5 0 004.5 0c1.24-.71 1.24-1.87 0-2.59a5 5 0 00-4.1-.19l-35.2-20.32H309.75l-32.95 19h-19.42l96.54-55.74h68.2l43-24.8.18-.11V69.7a4.76 4.76 0 002.55-.52 1.37 1.37 0 000-2.59 4.94 4.94 0 00-4.49 0 1.37 1.37 0 000 2.59 3.9 3.9 0 001.23.44v37.81L421.93 132h-68.2l-114.36 66-13-7.5 115.46-66.66.18-.1V84l39.5-22.81a5 5 0 004.1-.18c1.24-.72 1.24-1.88 0-2.59a4.94 4.94 0 00-4.49 0c-1.12.64-1.22 1.65-.32 2.36l-39.3 22.68-.18.1v39.84l-115.64 66.76-13.63-7.87 67.73-39.1.18-.1V108.9L163.61 41.72c.9-.71.8-1.72-.32-2.37a5 5 0 00-4.49 0 1.37 1.37 0 000 2.6 5 5 0 004.1.18l85.54 49.39h-25.71L176.6 64.89c.9-.72.8-1.72-.32-2.37a5 5 0 00-4.49 0 1.37 1.37 0 000 2.6 5 5 0 004.1.18l46.56 26.88h27.22l29.57 17.08v33.36l-54.53 31.48v-17l33.5-19.35.18-.1v-17.07a4.28 4.28 0 001.89-.52c1.24-.71 1.24-1.87 0-2.59a5 5 0 00-4.49 0c-1.24.72-1.24 1.88 0 2.59a4.28 4.28 0 001.89.52v16.76l-33.5 19.34-.18.11v17.78l-12.67 7.31-14-8.08-8.5 4.91v-37l29.55-17.06a5 5 0 004.1-.19c1.24-.71 1.24-1.87 0-2.59a4.94 4.94 0 00-4.49 0c-1.12.65-1.22 1.65-.32 2.37l-29.37 17-.18.11v15.1l-22.09-12.75v-14.41l48.18-27.82a5 5 0 004.1-.19c1.24-.71 1.24-1.87 0-2.59a5 5 0 00-4.49 0c-1.12.65-1.22 1.65-.32 2.37l-48 27.71-.18.11V144l22.8 13.17v21.92l-12.09 7-10.22-5.91v-13.4l-15.5-8.95c.9-.72.8-1.72-.32-2.37a5 5 0 00-4.49 0c-1.24.72-1.24 1.88 0 2.59a5 5 0 004.1.19l15.5 8.95v12.58l-33.81-19.51v-29.38l50.87-29.37.18-.11V90.34l-28.75-16.61c.9-.72.8-1.72-.32-2.37a5 5 0 00-4.49 0 1.37 1.37 0 000 2.6 5 5 0 004.1.18l28.77 16.61V101l-50.87 29.37-.18.11v30.21l44.74 25.83-9 5.22-58-33.5v-55.12l-17-9.78V42.67L21.82 2.53c.47-.67.24-1.45-.7-2a4.94 4.94 0 00-4.49 0c-1.24.72-1.24 1.88 0 2.6zm180.72 171.49l83.33 48.12-83.33 48.11L114 222.74z" fill="url(#a)" opacity=".5"></path><path d="M0 87.4l14.25 8.23v27.56l131.6 76-8.09 4.67-67.82-39.18H20.53L0 152.79v.65l20.31 11.73H69.72l67.48 38.95-7.13 4.12-64.18-37.02H9.19L0 165.88v.64l9 5.19h56.68l9.49 5.48H0v.56h76.14l23.94 13.82-9.4 5.43H74l-15.63 9a4 4 0 00-3.23.15 1.08 1.08 0 000 2 3.94 3.94 0 003.54 0c.89-.51 1-1.3.26-1.87l15.21-8.78H89.7l-36.36 21H19.71L1 207.77c.7-.57.63-1.36-.26-1.87a3.1 3.1 0 00-.7-.28v2.58c.13 0 .27-.06.4-.11l19.1 11h33.95l47.15-27.23 20 11.57h-11.02l-8.91 5.14a4 4 0 00-3.27.13 1.09 1.09 0 000 2 3.94 3.94 0 003.54 0c.87-.51 1-1.28.29-1.85l8.5-4.91h11.88l7.86 4.54-16.36 9.45-.42.24 5.26 3L89 238h-9.62l-11.53-6.66c.71-.56.63-1.35-.25-1.86a3.88 3.88 0 00-3.54 0 1.08 1.08 0 000 2 4 4 0 003.23.15l11.88 6.85h10.06l21-12.14v11.11L90.5 249a4 4 0 00-3.23.15 1.08 1.08 0 000 2 3.94 3.94 0 003.54 0c.88-.51 1-1.3.25-1.87l19.72-11.38v-11.77l7.77-4.48 27.3 15.76-12.67 7.32h-16.42l-26 15H71.09l-27.4-15.83c.71-.56.63-1.36-.25-1.86a3.88 3.88 0 00-3.54 0 1.08 1.08 0 000 2 4 4 0 003.23.14l27.74 16h20.07l26-15h15.3l-76.11 44.04H2.37L0 290.59v.64l2.52-1.45h53.76l90.13-52 10.23 5.9-91 52.54-.14.08v31.4l-31.14 18a4 4 0 00-3.23.15 1.08 1.08 0 000 2 3.94 3.94 0 003.54 0c.88-.51 1-1.3.25-1.86l31.14-18v-31.4L157.2 244l10.75 6.2-53.39 30.8-.14.08V308l91.44 52.79H210a4 4 0 00-3.23-.15l-67.43-38.93h20.27l36.36 21c-.71.56-.63 1.35.25 1.86a3.94 3.94 0 003.54 0 1.08 1.08 0 000-2 4 4 0 00-3.23-.15l-36.71-21.19H138.29L115 307.7v-26.3l43-24.82V270l-26.55 15.33v13.53a3.44 3.44 0 00-1.49.41 1.08 1.08 0 000 2 3.88 3.88 0 003.54 0 1.08 1.08 0 000-2 3.4 3.4 0 00-1.49-.41V285.6l26.55-15.33v-14l10-5.77 10.88 6.29.14.08 6.7-3.86v29.18l-23.29 13.45a4 4 0 00-3.23.14 1.08 1.08 0 000 2.05 3.94 3.94 0 003.54 0c.88-.51 1-1.3.25-1.87l23.29-13.44V270.6l17.41 10V292l-38 21.92a4 4 0 00-3.25.08 1.08 1.08 0 000 2 3.88 3.88 0 003.54 0c.88-.51 1-1.3.26-1.86l37.83-21.85.14-.08v-11.88l-18-10.38v-17.28l9.53-5.5 8.06 4.65v10.57l12.21 7.05c-.71.57-.63 1.36.25 1.87a3.94 3.94 0 003.54 0 1.08 1.08 0 000-2 4 4 0 00-3.23-.15l-12.21-7.05v-9.92l26.64 15.38v23.13l-40.09 23.14-.14.08v8.73L214 335.74c-.71.56-.63 1.35.25 1.86a3.88 3.88 0 003.54 0 1.08 1.08 0 000-2 4 4 0 00-3.23-.15l-22.67-13.09v-8.07L232 291.1l.14-.08v-23.81l-35.26-20.36 7.12-4.12 45.73 26.41v43.44l13.35 7.7v39.94l1 .59h1.12l-1.58-.91v-39.29l69.64 40.2h1.12l-84.1-48.56v-43.44l-45.73-26.4 8.1-4.67 44.51 25.7-.14.24 42.36 24.46v5.34l8.6 5v15.29l63.23 36.51c-.71.57-.63 1.36.25 1.87a3.94 3.94 0 003.54 0 1.08 1.08 0 000-2.05 4 4 0 00-3.23-.14l-63.23-36.51v-14.68l10.94 6.32c-.71.56-.63 1.36.25 1.87a3.94 3.94 0 003.54 0 1.08 1.08 0 000-2 4 4 0 00-3.23-.14L300 293.16v-5.35l-42-24.25h19.51l84 48.5v12.69L394.75 344c-.71.56-.63 1.35.25 1.86a3.88 3.88 0 003.54 0 1.08 1.08 0 000-2 4 4 0 00-3.23-.15L362 324.42v-12.68l-83.45-48.18h56.85L403.73 303h79.97l46.84-27a4 4 0 003.23-.14 1.08 1.08 0 000-2.05 3.94 3.94 0 00-3.54 0c-.88.51-1 1.3-.25 1.87l-46.43 26.8h-79.61L335.62 263h-78.07l-44.31-25.59 8.38-4.84 32.12 18.55h90.47l63.38 36.59c-.71.57-.63 1.36.25 1.87a3.94 3.94 0 003.54 0 1.08 1.08 0 000-2.05 4 4 0 00-3.23-.14l-63.72-36.8h-66.96L295 240.48h47.3a1.44 1.44 0 00.68.74 3.88 3.88 0 003.54 0 1.08 1.08 0 000-2 3.94 3.94 0 00-3.54 0 1.51 1.51 0 00-.69.74h-47.45l-18.49 10.64h-22.41l-31.78-18.35 7.38-4.26 28.12 16.24h11.39L292 231h69.31l43.4-25.06a4 4 0 003.19-.17 1.08 1.08 0 000-2 3.88 3.88 0 00-3.54 0c-.9.51-1 1.32-.22 1.89l-43 24.82h-69.3l-23 13.26h-11l-20.42-11.78h10.2l9.9 5.71H265.32l17.21-9.94a4 4 0 003.17-.17 1.08 1.08 0 000-2 3.88 3.88 0 00-3.54 0c-.9.52-1 1.33-.21 1.89l-16.78 9.69h-7.43l-9.9-5.71h-11.35l-6.39-3.68 10.39-6h15.31l19-10.95a4 4 0 003.23-.15 1.08 1.08 0 000-2 3.94 3.94 0 00-3.54 0c-.88.51-1 1.3-.25 1.87l-18.56 10.71h-14.22l4.46-2.58.42-.24-7.59-4.38 20.54-11.86h21.59l22.78 13.15c-.71.57-.63 1.36.25 1.87a3.94 3.94 0 003.54 0 1.08 1.08 0 000-2 4 4 0 00-3.23-.14l-11.73-6.77h42.6l12.25-7.28h24.4a1.51 1.51 0 00.69.74 3.94 3.94 0 003.54 0 1.08 1.08 0 000-2.05 3.94 3.94 0 00-3.54 0 1.51 1.51 0 00-.69.74h-24.56l-12.24 7.08h-43.42l-10.42-6h-20.84l8.51-4.92h48.87l12.61-7.28h37.4L385.53 179a4 4 0 003.23-.15 1.08 1.08 0 000-2 3.94 3.94 0 00-3.54 0c-.88.51-1 1.3-.25 1.87l-17.47 10.01h-36.28l42-24.25h30.84l13-7.5a4 4 0 003.23-.14 1.08 1.08 0 000-2 3.94 3.94 0 00-3.54 0c-.88.51-1 1.3-.25 1.87l-12.57 7.25h-30.86L317.49 196h-48.87l-30.43 17.58L224 205.4l35.41-20.4h38.11l43.22-25a4 4 0 003.23-.15 1.08 1.08 0 000-2 3.94 3.94 0 00-3.54 0c-.88.51-1 1.3-.25 1.87l-42.81 24.71h-37L307 157.48l.14-.09v-21.61l69.74-40.27a4 4 0 003.23-.14 1.08 1.08 0 000-2.05 3.94 3.94 0 00-3.54 0c-.88.51-1 1.3-.25 1.87l-69.6 40.18-.14.09v21.61l-83.14 48-12.21-7 49.83-28.77.14-.08v-43.48l44.38-25.62a4 4 0 003.23-.15 1.08 1.08 0 000-2 3.88 3.88 0 00-3.54 0c-.88.51-1 1.3-.25 1.86l-44.24 25.54-.14.08v43.44l-50 28.85-7.53-4.34 37-21.38v-50.96L258 110.79V91.64l15.71-9.08a4 4 0 003.23-.14 1.08 1.08 0 000-2 3.94 3.94 0 00-3.54 0c-.88.51-1 1.31-.25 1.87l-15.72 9.07v19.16l-17.8 10.27v50.91l-37 21.38-10.16-5.86 28.33-16.36V85.75h-.56v49.83l-14.2-8.2V99.44a3.36 3.36 0 001.49-.4 1.08 1.08 0 000-2.05 3.94 3.94 0 00-3.54 0 1.09 1.09 0 000 2.05 3.43 3.43 0 001.49.4v28.26l14.77 8.53v15l-18.69-10.79c.65-.57.55-1.33-.31-1.83a3.94 3.94 0 00-3.54 0 1.08 1.08 0 000 2 3.92 3.92 0 003.3.12l19.24 11.1v18.6l-28.33 16.35-9.05-5.22 13.77-8V162l-3.48-2v-6l-24.86-14.34v-10.12l-20.2-11.66c.7-.57.62-1.36-.26-1.87a3.94 3.94 0 00-3.54 0 1.09 1.09 0 000 2 4 4 0 003.23.14l20.21 11.67V140l24.81 14.33v5.32l-41.7-24.08c.65-.56.55-1.33-.31-1.82a3.88 3.88 0 00-3.54 0 1.08 1.08 0 000 2 4 4 0 003.3.11l33.44 19.31H167l-19.24-11.11c.7-.57.63-1.36-.26-1.87a3.92 3.92 0 00-3.53 0 1.08 1.08 0 000 2 4 4 0 003.23.14l19.65 11.35h17.85l11.3 6.61v11.06l-13.77 8-2.59-1.5-.14-.08-3.5 2-57.81-33.38h-15.85a1.42 1.42 0 00-.68-.75 3.94 3.94 0 00-3.54 0 1.08 1.08 0 000 2 3.94 3.94 0 003.54 0 1.44 1.44 0 00.68-.74H118l57.46 33.17-8.78 5.08-48-27.74c.71-.56.63-1.36-.26-1.86a3.86 3.86 0 00-3.53 0 1.08 1.08 0 000 2 4 4 0 003.23.15l48 27.73-9.1 5.26-67.88-39.2v-32.75l32-18.48h29.46l23.34-13.47a4 4 0 003.23-.15 1.08 1.08 0 000-2 3.92 3.92 0 00-3.53 0c-.89.51-1 1.3-.26 1.87l-22.96 13.19h-28.36L161 79.24l.14-.08V49.93a3.44 3.44 0 001.49-.41 1.08 1.08 0 000-2 3.94 3.94 0 00-3.54 0 1.08 1.08 0 000 2 3.36 3.36 0 001.49.41v28.9l-64.7 37.35-39.79-23V67.37L27.8 51.05c.71-.56.63-1.35-.25-1.86a3.88 3.88 0 00-3.54 0 1.08 1.08 0 000 2 4 4 0 003.23.15L55.51 67.7v25.83l39.79 23-6.63 3.83-.14.08v25.8l-11.48-6.64v-16.12L53.72 110c.7-.57.62-1.36-.26-1.87a3.94 3.94 0 00-3.54 0 1.09 1.09 0 000 2 4 4 0 003.23.14l23.34 13.48v16.11l12 7v7l67.88 39.19-10 5.77-131.59-76V95.31L0 86.76zm179.53 93l65.69 37.92-65.69 37.92-65.68-37.92z" fill="#42e8e0" opacity=".5"></path></g></svg> 