<svg xmlns="http://www.w3.org/2000/svg" xmlns:xlink="http://www.w3.org/1999/xlink" viewBox="0 0 384.05 101.85"><defs><style>.cls-1{isolation:isolate;}.cls-2{fill:#00597c;}.cls-3{fill:url(#linear-gradient);}.cls-4{fill:#eaeaea;}.cls-5,.cls-7{fill:#fff;}.cls-10,.cls-11,.cls-12,.cls-13,.cls-14,.cls-15,.cls-16,.cls-17,.cls-18,.cls-19,.cls-20,.cls-21,.cls-22,.cls-23,.cls-24,.cls-25,.cls-26,.cls-27,.cls-28,.cls-29,.cls-30,.cls-31,.cls-32,.cls-33,.cls-34,.cls-35,.cls-36,.cls-37,.cls-38,.cls-39,.cls-40,.cls-41,.cls-42,.cls-43,.cls-44,.cls-45,.cls-46,.cls-47,.cls-5,.cls-6,.cls-8,.cls-9{mix-blend-mode:multiply;}.cls-6{fill:#ccc;}.cls-8{fill:url(#linear-gradient-2);}.cls-9{fill:url(#linear-gradient-3);}.cls-10{fill:url(#linear-gradient-4);}.cls-11{fill:url(#linear-gradient-5);}.cls-12{fill:url(#linear-gradient-6);}.cls-13{fill:url(#linear-gradient-7);}.cls-14{fill:url(#linear-gradient-8);}.cls-15{fill:url(#linear-gradient-9);}.cls-16{fill:url(#linear-gradient-10);}.cls-17{fill:url(#linear-gradient-11);}.cls-18{fill:url(#linear-gradient-12);}.cls-19{fill:url(#linear-gradient-13);}.cls-20{fill:url(#linear-gradient-14);}.cls-21{fill:url(#linear-gradient-15);}.cls-22{fill:url(#linear-gradient-16);}.cls-23{fill:url(#linear-gradient-17);}.cls-24{fill:url(#linear-gradient-18);}.cls-25{fill:url(#linear-gradient-19);}.cls-26{fill:url(#linear-gradient-20);}.cls-27{fill:url(#linear-gradient-21);}.cls-28{fill:url(#linear-gradient-22);}.cls-29{fill:url(#linear-gradient-23);}.cls-30{fill:url(#linear-gradient-24);}.cls-31{fill:url(#linear-gradient-25);}.cls-32{fill:url(#linear-gradient-26);}.cls-33{fill:url(#linear-gradient-27);}.cls-34{fill:url(#linear-gradient-28);}.cls-35{fill:url(#linear-gradient-29);}.cls-36{fill:url(#linear-gradient-30);}.cls-37{fill:url(#linear-gradient-31);}.cls-38{fill:url(#linear-gradient-32);}.cls-39{fill:url(#linear-gradient-33);}.cls-40{fill:url(#linear-gradient-34);}.cls-41{fill:url(#linear-gradient-35);}.cls-42{fill:url(#linear-gradient-36);}.cls-43{fill:url(#linear-gradient-37);}.cls-44{fill:url(#linear-gradient-38);}.cls-45{fill:url(#linear-gradient-39);}.cls-46{fill:url(#linear-gradient-40);}.cls-47{fill:url(#linear-gradient-41);}.cls-48{fill:url(#linear-gradient-42);}</style><linearGradient id="linear-gradient" x1="107.17" y1="49.53" x2="479.81" y2="16.07" gradientUnits="userSpaceOnUse"><stop offset="0" stop-color="#06a7f7"/><stop offset="0.81" stop-color="#0479b3"/><stop offset="0.98" stop-color="#046ea3"/></linearGradient><linearGradient id="linear-gradient-2" x1="126.37" y1="21.48" x2="133.5" y2="21.48" gradientUnits="userSpaceOnUse"><stop offset="0" stop-color="#cfcfcf"/><stop offset="0.6" stop-color="#ebeced"/><stop offset="1" stop-color="#fff"/></linearGradient><linearGradient id="linear-gradient-3" x1="132.94" y1="21.79" x2="135.16" y2="21.79" xlink:href="#linear-gradient-2"/><linearGradient id="linear-gradient-4" x1="121.82" y1="23.54" x2="123.63" y2="23.54" xlink:href="#linear-gradient-2"/><linearGradient id="linear-gradient-5" x1="131.68" y1="27.97" x2="133.94" y2="27.97" xlink:href="#linear-gradient-2"/><linearGradient id="linear-gradient-6" x1="121.82" y1="29.25" x2="125.42" y2="29.25" xlink:href="#linear-gradient-2"/><linearGradient id="linear-gradient-7" x1="116.65" y1="18.09" x2="117.8" y2="18.09" xlink:href="#linear-gradient-2"/><linearGradient id="linear-gradient-8" x1="121.95" y1="7.52" x2="124.18" y2="7.52" xlink:href="#linear-gradient-2"/><linearGradient id="linear-gradient-9" x1="103.42" y1="12.44" x2="111.97" y2="12.44" xlink:href="#linear-gradient-2"/><linearGradient id="linear-gradient-10" x1="98.52" y1="13.02" x2="104.91" y2="13.02" xlink:href="#linear-gradient-2"/><linearGradient id="linear-gradient-11" x1="108.63" y1="3.3" x2="113.38" y2="3.3" xlink:href="#linear-gradient-2"/><linearGradient id="linear-gradient-12" x1="115.59" y1="24.74" x2="116.65" y2="24.74" xlink:href="#linear-gradient-2"/><linearGradient id="linear-gradient-13" x1="115.92" y1="31.07" x2="117.8" y2="31.07" xlink:href="#linear-gradient-2"/><linearGradient id="linear-gradient-14" x1="107.27" y1="32.09" x2="100.44" y2="38.34" xlink:href="#linear-gradient-2"/><linearGradient id="linear-gradient-15" x1="123.03" y1="45.1" x2="106.14" y2="52.74" xlink:href="#linear-gradient-2"/><linearGradient id="linear-gradient-16" x1="132.23" y1="65.48" x2="115.35" y2="73.11" xlink:href="#linear-gradient-2"/><linearGradient id="linear-gradient-17" x1="120.04" y1="77.19" x2="123.13" y2="77.19" xlink:href="#linear-gradient-2"/><linearGradient id="linear-gradient-18" x1="120.96" y1="78.14" x2="124.6" y2="78.14" xlink:href="#linear-gradient-2"/><linearGradient id="linear-gradient-19" x1="128.66" y1="84.86" x2="130.1" y2="84.86" xlink:href="#linear-gradient-2"/><linearGradient id="linear-gradient-20" x1="126.86" y1="86.33" x2="129.06" y2="86.33" xlink:href="#linear-gradient-2"/><linearGradient id="linear-gradient-21" x1="125.87" y1="87.73" x2="127.74" y2="87.73" xlink:href="#linear-gradient-2"/><linearGradient id="linear-gradient-22" x1="73.4" y1="20.44" x2="92.03" y2="20.44" xlink:href="#linear-gradient-2"/><linearGradient id="linear-gradient-23" x1="75.67" y1="36.74" x2="85.64" y2="36.74" xlink:href="#linear-gradient-2"/><linearGradient id="linear-gradient-24" x1="67.84" y1="26.92" x2="66.14" y2="31.69" xlink:href="#linear-gradient-2"/><linearGradient id="linear-gradient-25" x1="62.76" y1="22.26" x2="58.05" y2="23.16" xlink:href="#linear-gradient-2"/><linearGradient id="linear-gradient-26" x1="52.39" y1="38.16" x2="46.7" y2="54.19" xlink:href="#linear-gradient-2"/><linearGradient id="linear-gradient-27" x1="82.63" y1="46.09" x2="78.19" y2="58.58" xlink:href="#linear-gradient-2"/><linearGradient id="linear-gradient-28" x1="68.67" y1="50.15" x2="64.6" y2="61.58" xlink:href="#linear-gradient-2"/><linearGradient id="linear-gradient-29" x1="61.12" y1="44.34" x2="58.01" y2="53.09" xlink:href="#linear-gradient-2"/><linearGradient id="linear-gradient-30" x1="44.16" y1="55.11" x2="51.44" y2="55.11" xlink:href="#linear-gradient-2"/><linearGradient id="linear-gradient-31" x1="48.76" y1="61.59" x2="59" y2="61.59" xlink:href="#linear-gradient-2"/><linearGradient id="linear-gradient-32" x1="86.36" y1="57.81" x2="75.44" y2="56.46" xlink:href="#linear-gradient-2"/><linearGradient id="linear-gradient-33" x1="71.29" y1="68.04" x2="75.21" y2="77.58" xlink:href="#linear-gradient-2"/><linearGradient id="linear-gradient-34" x1="56.36" y1="83.02" x2="61.36" y2="83.02" xlink:href="#linear-gradient-2"/><linearGradient id="linear-gradient-35" x1="53.02" y1="88.43" x2="61.63" y2="88.43" xlink:href="#linear-gradient-2"/><linearGradient id="linear-gradient-36" x1="47.6" y1="82.82" x2="52.36" y2="82.82" xlink:href="#linear-gradient-2"/><linearGradient id="linear-gradient-37" x1="12.22" y1="75.7" x2="37.62" y2="75.7" xlink:href="#linear-gradient-2"/><linearGradient id="linear-gradient-38" x1="30.33" y1="61.95" x2="44.52" y2="61.95" xlink:href="#linear-gradient-2"/><linearGradient id="linear-gradient-39" x1="8.33" y1="83.61" x2="13.08" y2="83.61" xlink:href="#linear-gradient-2"/><linearGradient id="linear-gradient-40" x1="3.41" y1="83.2" x2="4.39" y2="86.75" xlink:href="#linear-gradient-2"/><linearGradient id="linear-gradient-41" x1="5.52" y1="82.61" x2="6.5" y2="86.16" xlink:href="#linear-gradient-2"/><linearGradient id="linear-gradient-42" x1="48.9" y1="35.48" x2="384.05" y2="59.07" gradientUnits="userSpaceOnUse"><stop offset="0" stop-color="#06a7f7"/><stop offset="0.98" stop-color="#046ea3"/></linearGradient></defs><g class="cls-1"><g id="Layer_2" data-name="Layer 2"><g id="Layer_1-2" data-name="Layer 1"><rect class="cls-2" x="359.57" y="23.01" width="4.4" height="55.15" rx="2.2"/><polygon class="cls-3" points="363.97 29 53.67 43.45 57.71 47.86 363.97 37.35 363.97 29"/><path class="cls-4" d="M125.38,84.09l-.67,2.58-.57,1.77c-.41-.15-.92-.86-.53-2.09.22-.68-3-4.1-3.81-4.52s-1.06-3.39-1.06-3.39H118l-.35-1.06h-.71s-1.41-5.79-1.7-7.28a15.46,15.46,0,0,0-1-2.6h0c-1.17-2.49-2.93-5.87-3.41-7.22a36.21,36.21,0,0,1-1.13-6l-5.35-10.71L102.46,40l-.89-1.79,6.22-1.91,13.49,34.27Z"/><path class="cls-5" d="M104.67,7.71l-.08.09Z"/><path class="cls-6" d="M110.58,49.16a30,30,0,0,0-6.31-5.59L102.46,40l.38-.7,3.29.14Z"/><path class="cls-6" d="M114.16,67.5c-1.17-2.49-2.93-5.87-3.41-7.22a36.21,36.21,0,0,1-1.13-6h1.8S112.79,64.22,114.16,67.5Z"/><path class="cls-7" d="M135.16,21.53A12.53,12.53,0,0,0,133.5,24a3.34,3.34,0,0,0,.14,2.33c.43.6.64,1,.39,1.17s-1.67.61-1.84.81a3.24,3.24,0,0,0-.37.85l-.47.27s-.14.61-.33.67a3.84,3.84,0,0,0-1.3.72c-.33.36-.74,1.5-1.07,1.67a3.24,3.24,0,0,1-1.88,0,8.1,8.1,0,0,1-1.35-1h0c-.91-.72-2-1.61-2.35-1.85a4,4,0,0,0-1.25-.53,2.91,2.91,0,0,0-1.52,0,10.14,10.14,0,0,0-2.5,1.56,6.86,6.86,0,0,0-1.88,2s-.29,3.32-.36,4.48a43.27,43.27,0,0,0,.92,5h0v0c.91,4.28,2.19,9.78,2.34,10.43v.06A39.68,39.68,0,0,1,121.31,60c.16,1,.38,2.33.63,3.72h0c.38,2.17.83,4.47,1.18,5.67a24.65,24.65,0,0,0,3,5.33h0l-.72.81.26.88-.45.39s3.51,4.59,3.79,4.8a19.71,19.71,0,0,1,1.26,3.11l-.12,1.2h0l-.07.64s.48,2.36.53,2.56,0,.35-.37.23a2.27,2.27,0,0,1-1.13-.71c-.16-.22-.36-.53-.49-.71l-.11-.17.9,2.07s0,.42-.37.47a4.24,4.24,0,0,1-1.25-.13,1,1,0,0,1-.33-.13.19.19,0,0,0-.12-.05h0c-.37-.08-1.41-.06-1.62-.45s-.64-2.62-1.27-3.32a29.43,29.43,0,0,1-3.23-4.53c-.1-.56-.21-3.46-.21-3.46l-.92-.14V77l-1.2-.21s-.53-5.19-.63-5.87-2.16-4.48-3.32-7-1.88-8.61-2-9.18S109.2,46,109.2,46l-3.07-6.61s-3,1-5,.36-9.54-4.7-12-4.7a16.67,16.67,0,0,0-3.49.55,18.68,18.68,0,0,0-5.13,1.82c-.63.63-1.3,1-1.27,2l7.6,9.22-.14.32S92,55.48,92,58.06s0,4.45-1.34,5.54a14.57,14.57,0,0,1-3.78,1.77c-.48.16-.9.28-1.22.36a3.42,3.42,0,0,1-.48.1,3.13,3.13,0,0,0-.59.22c-2.72,1.18-13.8,6.73-16.93,8.72a28.23,28.23,0,0,0-5.55,5.1h0l-.71.84a12.19,12.19,0,0,0-1.79,2.65C59.18,84.53,61,85.31,61,85.31l.46-.11s2.58,2,3.15,2.26,2.12.75,2.61,1,1.41.6,1.27.81a2.27,2.27,0,0,1-1.27,1c-.29.06-2.81.07-5.6.06h0c-3.73,0-7.93-.06-7.93-.06A8.36,8.36,0,0,1,53,88.45a8.4,8.4,0,0,1,.18-1.87,24.45,24.45,0,0,0-1.91,2.83l-3.85-2.23.15-.6a36.83,36.83,0,0,1,1.23-4.2c.27-.38,3.43-3.23,3.53-3.32h0L53.45,79l3.89-2c.42-.22,3.48-2.74,4.82-3.73a105.16,105.16,0,0,0,8.32-8.07c1.13-1.38,6.75-7.25,8.9-7l-5.75-3.75-.14,0c-1.22.39-10.15,3.21-13.7,2.7h0A3.14,3.14,0,0,1,59,57s-9.61,8.76-10.24,9.18-2.12,1.59-3.47,1.59c0,0-2.89.5-5,1.13-.36.11-1.33.48-2.69,1C31.13,72.49,15.7,79,14.42,80c-1,.79-1.75,1.06-2.2,1.48a1.45,1.45,0,0,0-.45,1s.05.68.16,1.35h0A2.58,2.58,0,0,0,12.34,85l.74.74.81-.18s4.94,3.23,5.33,4.32v.39s-9.85.1-10.91,0a6.33,6.33,0,0,1-2.12-1.35h0a16.5,16.5,0,0,1-3.35-3.44,8.72,8.72,0,0,1,.78-2.79l-2.3.78A12,12,0,0,1,0,81.12c0-.17,0-.76,0-1.47a10.51,10.51,0,0,1,.42-3.11,39.3,39.3,0,0,1,7.47-2.12h0a5.13,5.13,0,0,1,.87,0l.39.46s5.58-1.24,6.5-1.55,7.84-3.57,9.89-5.2c.79-.62,2.46-2.2,4.6-3.82h0l.05,0,.08-.07h0c3.41-2.56,8-5.17,12-4.3l3.21-4.8-1.38-1.52s1.57-1.66,2.7-3.06A7.77,7.77,0,0,0,48,48.87c.35-1,3.11-9,3.14-9.82,0,0-1-6.6.43-9.75a17.26,17.26,0,0,1,4.61-5.46h0a12,12,0,0,1,4-2.31l.43-1.41s8,.83,12.84.94h1.18c4.52,0,13-1.34,15.54-2.37.43-.17,1.09-.38,1.91-.61h0c4.16-1.17,12.53-2.83,16.24-1.57,4.45,1.52,5.62,2.55,6.64,4.91l.67.75,1.52-.29h0a23.6,23.6,0,0,1-.42-4.8,19,19,0,0,1,0-2.79h0c.14-.46,2.58-4.17,3.64-4.38l-.71-.46a25.75,25.75,0,0,1-4.27,2.86,13.79,13.79,0,0,1-2.47.42,7.44,7.44,0,0,0,2.19-1.16s-4.21,1.84-6.68,1.87c0,0,2.3-.64,2.47-1h0a68.36,68.36,0,0,1-7.46,1.3,13.91,13.91,0,0,1-3.27,0A26.07,26.07,0,0,0,104,13l-.15,0a33.31,33.31,0,0,1-5.37.5l-.31-.06s4.63-2.19,5.48-3.39a6.68,6.68,0,0,0-1.77,1.13c.06-.11,1.93-3.58,5.51-4.27,0,0-2,.08-2.73.77a7.8,7.8,0,0,1,3.93-2.22h0a7.61,7.61,0,0,0,1.56-2,8.28,8.28,0,0,1,3.19-2.26h0A8.93,8.93,0,0,1,117.54,0c2.18.24,4.16.42,5.19,2.15a5.62,5.62,0,0,1,.7,4.45l.75.53S130.71,6.8,133,9c0,0,2.76,1.94,3.47,3.67a4.94,4.94,0,0,1,1,2C137.56,15.63,138.73,20.89,135.16,21.53Z"/><path class="cls-8" d="M133.5,21.34a31,31,0,0,1-3.33.36c-1.06,0-1.69,0-2.09,0a26.33,26.33,0,0,0,2.56-.72,33.63,33.63,0,0,1-4.27.72l1.25.06-.56.18S132,22.19,133.5,21.34Z"/><polygon class="cls-9" points="135.16 21.53 132.94 21.97 134.75 22.06 135.16 21.53"/><path class="cls-10" d="M123.5,26.25a1.08,1.08,0,0,1-1-.55c-.32-.64-.29-4.45,1.17-4.88A1.44,1.44,0,0,0,122.07,22C121.64,23.31,121.59,26.39,123.5,26.25Z"/><polygon class="cls-11" points="133.94 27.59 131.68 28.03 132.19 28.35 133.94 27.59"/><path class="cls-12" d="M125.42,31.58c-.91-.72-2-1.61-2.35-1.85a4,4,0,0,0-1.25-.53l.11-2.28C122.07,27.7,125.32,31.46,125.42,31.58Z"/><path class="cls-13" d="M117.8,21.23a4,4,0,0,1-.62-.65l-.07,1.3h0a23.6,23.6,0,0,1-.42-4.8,19,19,0,0,1,0-2.79h0s.3,3,.89,3.72c0,0-.52-.14-.59-.28A9.79,9.79,0,0,0,117.8,21.23Z"/><path class="cls-14" d="M124.18,7.15A7.5,7.5,0,0,0,122,8.42a11,11,0,0,1,1.48-1.8Z"/><path class="cls-15" d="M112,11.13a6.86,6.86,0,0,1-1.08,1.32h0a68.36,68.36,0,0,1-7.46,1.3A49.5,49.5,0,0,0,112,11.13Z"/><path class="cls-16" d="M104.91,12.52c-.11.28-.87.46-.87.46l-.15,0a33.31,33.31,0,0,1-5.37.5C99.4,13.46,104.91,12.52,104.91,12.52Z"/><path class="cls-17" d="M113.38,1.15s-2.65,3.17-2.65,3.25-2,1-2.1,1a7.61,7.61,0,0,0,1.56-2,8.28,8.28,0,0,1,3.19-2.26Z"/><path class="cls-18" d="M115.59,22.17a25.3,25.3,0,0,1,.32,5.42l.74-5.71Z"/><path class="cls-19" d="M117.8,30.73a6.86,6.86,0,0,0-1.88,2V29.41a4,4,0,0,0,.55,1.2A3.74,3.74,0,0,0,117.8,30.73Z"/><path class="cls-20" d="M106.13,39.4S103.71,35,102,34.76a18.41,18.41,0,0,0-5.14.58s3.92.9,5.19,2a14,14,0,0,1,2.26,2.52Z"/><polygon class="cls-21" points="118.84 52.79 116.86 51.31 116.48 42.26 118.84 52.79"/><path class="cls-22" d="M126.08,74.7s-3-2.27-3.35-3-.78-7.84-.79-8c.38,2.17.83,4.47,1.18,5.67a24.65,24.65,0,0,0,3,5.33Z"/><path class="cls-23" d="M120,77a12.37,12.37,0,0,0,3.09-.56A13.3,13.3,0,0,1,120,77.94Z"/><path class="cls-24" d="M121,78.19s3-.83,3.64-1.16L121,79.25Z"/><polygon class="cls-25" points="130.03 86.53 129.67 84.96 129.25 83.6 128.66 83.19 129.65 83.67 130.1 85.89 130.03 86.53"/><polygon class="cls-26" points="128.46 87.73 127.8 85.52 126.86 84.04 128.03 85.15 128.66 87.41 129.06 88.61 128.46 87.73"/><path class="cls-27" d="M127.74,90.14a1,1,0,0,1-.33-.13.19.19,0,0,0-.12-.05h0l-.61-2.29-.54-1.79-.27-.56.6.81Z"/><path class="cls-28" d="M92,18.09c-.12.07-7.74,4.48-9.94,4.69s-8.5-1.66-8.69-1.72h1.18c4.52,0,13-1.34,15.54-2.37C90.55,18.53,91.21,18.32,92,18.09Z"/><path class="cls-29" d="M85.64,35.61a18.68,18.68,0,0,0-5.13,1.82c-.63.63-1.3,1-1.27,2l-3.57-5.33Z"/><path class="cls-30" d="M73.93,32.43s-12.56-5.69-13.36-7.69c0,0,3,4.88,5.41,5.78S72.87,31.74,73.93,32.43Z"/><path class="cls-31" d="M60.13,21.53V24l-4-.16h0A12,12,0,0,1,60.13,21.53Z"/><path class="cls-32" d="M52.25,41.77l-2.82,7.28-2.57,1.46A7.77,7.77,0,0,0,48,48.87c.35-1,3.11-9,3.14-9.82Z"/><path class="cls-33" d="M86.84,48.62s-6,3.57-7.63,4.14l-4.63,1.62S80.69,53,81.71,52.3s5-3.36,5-3.36Z"/><path class="cls-34" d="M73.49,54.5c-1.22.39-10.15,3.21-13.7,2.7,2.31-.6,5-7.45,5-7.45C66,50,73.49,54.5,73.49,54.5Z"/><path class="cls-35" d="M64.23,49.16l-6.54-5.3S54.87,49,54.37,49.75C54.37,49.75,64.16,50.15,64.23,49.16Z"/><path class="cls-36" d="M44.16,53.57s4.53,2.58,7.28,3.07a31.32,31.32,0,0,1-5.9-1.55Z"/><polygon class="cls-37" points="59 57 54.09 57.27 48.76 66.18 59 57"/><polygon class="cls-38" points="79.38 58.2 82.49 58.2 78.04 55.87 74.63 55.11 79.38 58.2"/><path class="cls-39" d="M78.06,68l6.49-1.93c-2.72,1.18-13.8,6.73-16.93,8.72a28.23,28.23,0,0,0-5.55,5.1c.11-.16,3.76-5.23,4.57-6.38S78.06,68,78.06,68Z"/><path class="cls-5" d="M86.84,65.37c-.48.16-.9.28-1.22.36Z"/><path class="cls-40" d="M61,85.31s-2.16-.08-2.53-.45a14.32,14.32,0,0,0-2.12-1.22l5-2.92a12.19,12.19,0,0,0-1.79,2.65C59.18,84.53,61,85.31,61,85.31Z"/><path class="cls-41" d="M61.63,90.28c-3.73,0-7.93-.06-7.93-.06A8.36,8.36,0,0,1,53,88.45a8.4,8.4,0,0,1,.18-1.87,17.65,17.65,0,0,0,3,2.47C57,89.28,61.49,90.25,61.63,90.28Z"/><path class="cls-42" d="M52.36,79.06l-2.54,5.38L47.6,86.58a36.83,36.83,0,0,1,1.23-4.2c.27-.38,3.43-3.23,3.53-3.32Z"/><path class="cls-43" d="M37.62,69.92C31.13,72.49,15.7,79,14.42,80c-1,.79-1.75,1.06-2.2,1.48l1.62-2.41S20,75,24.06,74C26.53,73.36,33,71.38,37.62,69.92Z"/><path class="cls-44" d="M44.52,61.84s-11.2.24-14.19,2.35c3.41-2.56,8-5.17,12-4.3Z"/><path class="cls-45" d="M13.08,85.75a8.18,8.18,0,0,1-1.87-.28,9.39,9.39,0,0,1-2-1.48,17.26,17.26,0,0,1-.9-2.52s2.39,2.19,3.6,2.35h0A2.58,2.58,0,0,0,12.34,85Z"/><path class="cls-46" d="M6.19,88.92h0a16.5,16.5,0,0,1-3.35-3.44,8.72,8.72,0,0,1,.78-2.79l1.25,2.74Z"/><path class="cls-47" d="M7.92,74.42,0,79.65a10.51,10.51,0,0,1,.42-3.11A39.3,39.3,0,0,1,7.92,74.42Z"/><rect class="cls-2" x="379.65" y="34.7" width="4.4" height="67.15" rx="2.2"/><polygon class="cls-48" points="50.6 41.22 384.05 46.06 384.05 59.15 47.99 48.42 50.6 41.22"/></g></g></g></svg>