<svg xmlns="http://www.w3.org/2000/svg" viewBox="0 0 655.95 1000"><defs><style>.cls-1{fill:#0089dd;}</style></defs><g id="Layer_2" data-name="Layer 2"><g id="Layer_1-2" data-name="Layer 1"><polygon class="cls-1" points="204.73 14.14 91.82 14.14 14.14 91.81 14.14 364.41 21.21 364.41 21.21 94.74 94.74 21.21 204.73 21.21 204.73 14.14"/><polygon class="cls-1" points="204.73 28.28 97.67 28.28 28.28 97.67 28.28 352.63 35.35 352.63 35.35 100.6 100.6 35.34 204.73 35.34 204.73 28.28"/><polygon class="cls-1" points="48.45 107.49 106.46 49.48 204.73 49.48 204.73 42.41 103.53 42.41 43.45 102.49 48.45 107.49"/><polygon class="cls-1" points="363.82 964.65 264.47 964.65 264.47 891.77 137.64 891.77 80.46 834.59 75.46 839.59 134.72 898.84 257.4 898.84 257.4 971.72 370.89 971.72 370.89 859.35 363.82 859.35 363.82 964.65"/><polygon class="cls-1" points="385.03 985.86 385.03 859.35 377.96 859.35 377.96 978.79 250.33 978.79 250.33 905.91 131.79 905.91 70.46 844.59 65.46 849.59 128.86 912.98 243.26 912.98 243.26 985.86 385.03 985.86"/><polygon class="cls-1" points="385.03 140.66 385.03 14.14 243.26 14.14 243.26 87.02 128.86 87.02 65.46 150.41 70.46 155.41 131.79 94.09 250.33 94.09 250.33 21.21 377.96 21.21 377.96 140.66 385.03 140.66"/><polygon class="cls-1" points="7.07 911.12 7.07 623.8 0 623.8 0 914.04 85.96 1000 204.73 1000 204.73 992.93 88.89 992.93 7.07 911.12"/><polygon class="cls-1" points="7.07 88.89 88.89 7.07 204.73 7.07 204.73 0 85.96 0 0 85.96 0 376.2 7.07 376.2 7.07 88.89"/><polygon class="cls-1" points="370.89 140.66 370.89 28.28 257.4 28.28 257.4 101.16 134.72 101.16 75.46 160.41 80.46 165.41 137.64 108.22 264.47 108.22 264.47 35.34 363.82 35.34 363.82 140.66 370.89 140.66"/><polygon class="cls-1" points="55.47 140.42 60.47 145.42 125.93 79.95 236.19 79.95 236.19 7.07 392.1 7.07 392.1 140.66 399.17 140.66 399.17 21.21 627.74 21.21 627.74 14.14 399.17 14.14 399.17 7.07 627.74 7.07 627.74 0 229.13 0 229.13 72.88 123 72.88 55.47 140.42"/><polygon class="cls-1" points="21.21 905.26 21.21 635.59 14.14 635.59 14.14 908.18 91.82 985.86 204.73 985.86 204.73 978.79 94.74 978.79 21.21 905.26"/><polygon class="cls-1" points="583.58 126.24 558.91 90.78 483.5 90.78 483.5 97.84 555.22 97.84 574.4 125.42 436.83 262.99 441.82 267.99 583.58 126.24"/><polygon class="cls-1" points="601.94 127.88 566.3 76.64 483.5 76.64 483.5 83.71 562.6 83.71 592.76 127.06 456.82 262.99 461.82 267.99 601.94 127.88"/><polygon class="cls-1" points="627.74 43.17 451.93 43.17 451.93 148.79 373.36 227.36 202.52 227.36 152.4 277.49 157.39 282.48 205.45 234.43 376.29 234.43 459 151.71 459 50.24 627.74 50.24 627.74 43.17"/><polygon class="cls-1" points="627.74 57.3 466.07 57.3 466.07 154.64 379.22 241.5 208.38 241.5 162.39 287.48 167.39 292.48 211.31 248.56 382.14 248.56 473.14 157.57 473.14 64.38 627.74 64.38 627.74 57.3"/><path class="cls-1" d="M120.6,384V257.16l56.57-56.56H344.06V66.45H280.44V137H150.81L57,230.81V355.7L4.71,402.77V597.23L57,644.3V769.19L150.81,863H280.44v70.53h63.62V799.4H177.17L120.6,742.84V616L68.33,568.91V431.09Zm-7.07,235.11V745.76l60.71,60.71H337v120H287.51V856H153.74L64.05,766.26V641.15L11.78,594.09V405.91l52.27-47.06V233.74l89.69-89.69H287.51V73.51H337v120H174.24l-60.71,60.71V380.87L61.27,427.94V572.06Z"/><path class="cls-1" d="M106.46,377.73V251.31l64.85-64.85H329.92V80.58H294.58v70.54H156.67L71.12,236.67V362L18.85,409.06V590.94L71.12,638V763.33l85.55,85.55H294.58v70.54h35.34V813.54H171.31l-64.85-64.85V622.27L54.2,575.21V424.79ZM308.72,912.35h-7.07V841.81h-142L78.19,760.4V634.86L25.92,587.79V412.21l52.27-47.07V239.6l81.41-81.41h142V87.65h7.07v77.6H162.53L85.26,242.52V368.28L33,415.35v169.3l52.27,47.07V757.48l77.27,77.27H308.72ZM99.39,625.42v126.2l69,69H322.85v91.74h-7.06V827.68H165.45L92.32,754.55v-126L40.06,581.5v-163l52.26-47.07v-126l73.13-73.13H315.79V87.65h7.06v91.74H168.38l-69,69v126.2L47.13,421.65v156.7Z"/><polygon class="cls-1" points="422.96 266.87 565.22 124.61 551.53 104.91 483.5 104.91 483.5 111.98 547.83 111.98 556.04 123.78 417.96 261.87 422.96 266.87"/><polygon class="cls-1" points="627.74 29.03 437.79 29.03 437.79 142.93 367.5 213.22 196.67 213.22 142.4 267.49 147.4 272.48 199.59 220.29 370.43 220.29 444.86 145.86 444.86 36.1 627.74 36.1 627.74 29.03"/><polygon class="cls-1" points="456.4 643.26 456.4 595.3 322.4 595.3 227.1 500 322.4 404.7 456.4 404.7 456.4 356.74 449.33 356.74 449.33 397.63 319.48 397.63 217.11 500 319.48 602.37 449.33 602.37 449.33 643.26 456.4 643.26"/><polygon class="cls-1" points="484.68 643.26 484.68 567.02 334.12 567.02 267.09 500 334.12 432.97 484.68 432.97 484.68 356.74 477.61 356.74 477.61 425.9 331.19 425.9 257.09 500 331.19 574.09 477.61 574.09 477.61 643.26 484.68 643.26"/><path class="cls-1" d="M283,664.05H420.3V628.71H297.63l-83.36-83.36-25,25ZM214.27,555.34l80.43,80.43H413.24v7.07H291.78l-82.5-82.5Zm74.58,94.57H413.24V657H285.92l-86.64-86.64,5-5Z"/><polygon class="cls-1" points="470.54 643.26 470.54 581.17 328.26 581.17 247.1 500 328.26 418.84 470.54 418.84 470.54 356.74 463.47 356.74 463.47 411.77 325.33 411.77 237.1 500 325.33 588.24 463.47 588.24 463.47 643.26 470.54 643.26"/><polygon class="cls-1" points="264.01 690.37 165.37 591.73 165.37 408.27 264.01 309.63 497.67 309.63 650.51 156.79 645.51 151.8 494.75 302.56 261.08 302.56 158.3 405.34 158.3 594.66 261.08 697.44 494.75 697.44 645.51 848.2 650.51 843.2 497.67 690.37 264.01 690.37"/><polygon class="cls-1" points="512.95 461.25 512.95 356.74 505.88 356.74 505.88 454.18 342.9 454.18 297.08 500 342.9 545.82 505.88 545.82 505.88 643.26 512.95 643.26 512.95 538.75 345.83 538.75 307.08 500 345.83 461.25 512.95 461.25"/><polygon class="cls-1" points="498.81 643.26 498.81 552.89 339.97 552.89 287.08 500 339.97 447.11 498.81 447.11 498.81 356.74 491.75 356.74 491.75 440.04 337.05 440.04 277.09 500 337.05 559.96 491.75 559.96 491.75 643.26 498.81 643.26"/><polygon class="cls-1" points="551.04 318.15 551.04 684.7 650.95 784.61 655.95 779.61 558.11 681.77 558.11 321.07 655.95 223.23 650.95 218.24 551.04 318.15"/><polygon class="cls-1" points="35.35 899.4 35.35 647.37 28.28 647.37 28.28 902.33 97.67 971.72 204.73 971.72 204.73 964.65 100.6 964.65 35.35 899.4"/><path class="cls-1" d="M297.63,371.3H420.3V336H283l-93.71,93.71,25,25Zm-98.35,58.36L285.92,343H413.24v7.07H288.85l-84.57,84.57Zm92.5-72.5H413.24v7.07H294.7l-80.43,80.43-5-5Z"/><polygon class="cls-1" points="655.95 263.22 650.95 258.22 579.32 329.86 579.32 672.98 650.95 744.62 655.95 739.62 586.38 670.06 586.38 615.1 629.56 615.1 629.56 608.03 586.38 608.03 586.38 596.75 629.56 596.75 629.56 589.68 586.38 589.68 586.38 578.39 629.56 578.39 629.56 571.32 586.38 571.32 586.38 560.03 629.56 560.03 629.56 552.96 586.38 552.96 586.38 541.67 629.56 541.67 629.56 534.6 586.38 534.6 586.38 523.32 629.56 523.32 629.56 516.25 586.38 516.25 586.38 504.96 629.56 504.96 629.56 497.89 586.38 497.89 586.38 486.6 629.56 486.6 629.56 479.53 586.38 479.53 586.38 468.24 629.56 468.24 629.56 461.17 586.38 461.17 586.38 449.88 629.56 449.88 629.56 442.81 586.38 442.81 586.38 431.53 629.56 431.53 629.56 424.46 586.38 424.46 586.38 413.17 629.56 413.17 629.56 406.1 586.38 406.1 586.38 394.81 629.56 394.81 629.56 387.74 586.38 387.74 586.38 332.79 655.95 263.22"/><polygon class="cls-1" points="543.97 315.22 655.95 203.24 650.95 198.24 536.9 312.29 536.9 690.55 650.95 804.6 655.95 799.6 543.97 687.63 543.97 315.22"/><polygon class="cls-1" points="565.18 324 565.18 678.84 650.95 764.62 655.95 759.62 572.25 675.92 572.25 326.93 655.95 243.23 650.95 238.23 565.18 324"/><polygon class="cls-1" points="444.86 854.14 370.43 779.71 199.59 779.71 147.4 727.52 142.4 732.51 196.67 786.78 367.5 786.78 437.79 857.07 437.79 970.97 627.74 970.97 627.74 963.9 444.86 963.9 444.86 854.14"/><polygon class="cls-1" points="473.14 842.43 382.14 751.43 211.31 751.43 167.39 707.52 162.39 712.52 208.38 758.5 379.22 758.5 466.07 845.36 466.07 942.7 627.74 942.7 627.74 935.63 473.14 935.63 473.14 842.43"/><polygon class="cls-1" points="459 848.28 376.29 765.57 205.45 765.57 157.39 717.52 152.4 722.52 202.52 772.64 373.36 772.64 451.93 851.21 451.93 956.83 627.74 956.83 627.74 949.76 459 949.76 459 848.28"/><polygon class="cls-1" points="399.17 859.35 392.1 859.35 392.1 992.93 236.19 992.93 236.19 920.05 125.93 920.05 60.47 854.58 55.47 859.58 123 927.12 229.13 927.12 229.13 1000 627.74 1000 627.74 992.93 399.17 992.93 399.17 985.86 627.74 985.86 627.74 978.79 399.17 978.79 399.17 859.35"/><polygon class="cls-1" points="48.45 892.51 43.45 897.51 103.53 957.59 204.73 957.59 204.73 950.52 106.46 950.52 48.45 892.51"/><polygon class="cls-1" points="258.15 704.51 151.23 597.59 151.23 402.41 258.15 295.49 491.82 295.49 640.51 146.8 635.51 141.8 488.89 288.42 255.22 288.42 144.16 399.48 144.16 600.52 255.22 711.58 488.89 711.58 635.51 858.2 640.51 853.2 491.82 704.51 258.15 704.51"/><polygon class="cls-1" points="417.96 738.87 556.04 876.95 547.83 888.75 483.5 888.75 483.5 895.82 551.53 895.82 565.22 876.13 422.96 733.87 417.96 738.87"/><polygon class="cls-1" points="436.83 737.74 574.4 875.32 555.22 902.89 483.5 902.89 483.5 909.96 558.91 909.96 583.58 874.5 441.82 732.75 436.83 737.74"/><polygon class="cls-1" points="252.3 718.65 137.1 603.45 137.1 396.55 252.3 281.35 485.96 281.35 630.51 136.8 625.52 131.81 483.03 274.29 249.37 274.29 130.03 393.63 130.03 438.16 84.55 438.16 84.55 445.23 130.03 445.23 130.03 456.52 84.55 456.52 84.55 463.59 130.03 463.59 130.03 474.88 84.55 474.88 84.55 481.94 130.03 481.94 130.03 493.23 84.55 493.23 84.55 500.3 130.03 500.3 130.03 511.59 84.55 511.59 84.55 518.66 130.03 518.66 130.03 529.95 84.55 529.95 84.55 537.02 130.03 537.02 130.03 548.31 84.55 548.31 84.55 555.38 130.03 555.38 130.03 606.37 249.37 725.72 483.03 725.72 625.52 868.2 630.51 863.2 485.96 718.65 252.3 718.65"/><polygon class="cls-1" points="562.6 917.03 483.5 917.03 483.5 924.1 566.3 924.1 601.94 872.86 461.82 732.75 456.82 737.74 592.76 873.68 562.6 917.03"/></g></g></svg>