<svg xmlns="http://www.w3.org/2000/svg" viewBox="0 0 655.95 1000"><defs><style>.cls-1{fill:#0089dd;}</style></defs><g id="Layer_2" data-name="Layer 2"><g id="Layer_1-2" data-name="Layer 1"><polygon class="cls-1" points="451.22 14.14 564.13 14.14 641.81 91.81 641.81 364.41 634.74 364.41 634.74 94.74 561.21 21.21 451.22 21.21 451.22 14.14"/><polygon class="cls-1" points="451.22 28.28 558.28 28.28 627.67 97.67 627.67 352.63 620.6 352.63 620.6 100.6 555.35 35.34 451.22 35.34 451.22 28.28"/><polygon class="cls-1" points="607.5 107.49 549.49 49.48 451.22 49.48 451.22 42.41 552.42 42.41 612.5 102.49 607.5 107.49"/><polygon class="cls-1" points="292.13 964.65 391.48 964.65 391.48 891.77 518.31 891.77 575.49 834.59 580.49 839.59 521.23 898.84 398.55 898.84 398.55 971.72 285.06 971.72 285.06 859.35 292.13 859.35 292.13 964.65"/><polygon class="cls-1" points="270.92 985.86 270.92 859.35 277.99 859.35 277.99 978.79 405.62 978.79 405.62 905.91 524.16 905.91 585.49 844.59 590.49 849.59 527.09 912.98 412.69 912.98 412.69 985.86 270.92 985.86"/><polygon class="cls-1" points="270.92 140.66 270.92 14.14 412.69 14.14 412.69 87.02 527.09 87.02 590.49 150.41 585.49 155.41 524.16 94.09 405.62 94.09 405.62 21.21 277.99 21.21 277.99 140.66 270.92 140.66"/><polygon class="cls-1" points="648.88 911.12 648.88 623.8 655.95 623.8 655.95 914.04 569.99 1000 451.22 1000 451.22 992.93 567.06 992.93 648.88 911.12"/><polygon class="cls-1" points="648.88 88.89 567.06 7.07 451.22 7.07 451.22 0 569.99 0 655.95 85.96 655.95 376.2 648.88 376.2 648.88 88.89"/><polygon class="cls-1" points="285.06 140.66 285.06 28.28 398.55 28.28 398.55 101.16 521.23 101.16 580.49 160.41 575.49 165.41 518.31 108.22 391.48 108.22 391.48 35.34 292.13 35.34 292.13 140.66 285.06 140.66"/><polygon class="cls-1" points="600.48 140.42 595.48 145.42 530.02 79.95 419.75 79.95 419.75 7.07 263.85 7.07 263.85 140.66 256.78 140.66 256.78 21.21 28.21 21.21 28.21 14.14 256.78 14.14 256.78 7.07 28.21 7.07 28.21 0 426.82 0 426.82 72.88 532.95 72.88 600.48 140.42"/><polygon class="cls-1" points="634.74 905.26 634.74 635.59 641.81 635.59 641.81 908.18 564.13 985.86 451.22 985.86 451.22 978.79 561.21 978.79 634.74 905.26"/><polygon class="cls-1" points="72.37 126.24 97.04 90.78 172.45 90.78 172.45 97.84 100.73 97.84 81.55 125.42 219.12 262.99 214.12 267.99 72.37 126.24"/><polygon class="cls-1" points="54.01 127.88 89.65 76.64 172.45 76.64 172.45 83.71 93.35 83.71 63.19 127.06 199.13 262.99 194.13 267.99 54.01 127.88"/><polygon class="cls-1" points="28.21 43.17 204.02 43.17 204.02 148.79 282.59 227.36 453.43 227.36 503.55 277.49 498.56 282.48 450.5 234.43 279.66 234.43 196.95 151.71 196.95 50.24 28.21 50.24 28.21 43.17"/><polygon class="cls-1" points="28.21 57.3 189.88 57.3 189.88 154.64 276.73 241.5 447.57 241.5 493.56 287.48 488.56 292.48 444.64 248.56 273.8 248.56 182.81 157.57 182.81 64.38 28.21 64.38 28.21 57.3"/><path class="cls-1" d="M587.61,431.09V568.91L535.35,616V742.84L478.78,799.4H311.89V933.55h63.62V863H505.14L599,769.19V644.3l52.27-47.07V402.77L599,355.7V230.81L505.14,137H375.51V66.45H311.89V200.6H478.78l56.57,56.56V384Zm7.07,141V427.94l-52.26-47.07V254.24l-60.71-60.71H319v-120h49.48v70.54H502.21l89.69,89.69V358.85l52.27,47.06V594.09L591.9,641.15V766.26L502.21,856H368.44v70.54H319v-120H481.71l60.71-60.71V619.13Z"/><path class="cls-1" d="M601.75,424.79V575.21l-52.26,47.06V748.69l-64.85,64.85H326V919.42h35.34V848.88H499.28l85.55-85.55V638l52.27-47.07V409.06L584.83,362V236.67l-85.55-85.55H361.37V80.58H326V186.46H484.64l64.85,64.85V377.73Zm-254.52,410H493.42l77.27-77.27V631.72L623,584.65V415.35l-52.27-47.07V242.52l-77.27-77.27H347.23V87.65h7.07v70.54H496.35l81.41,81.41V365.14L630,412.21V587.79l-52.27,47.07V760.4l-81.41,81.41h-142v70.54h-7.07Zm261.59-256.4V421.65l-52.26-47.07V248.38l-69-69H333.1V87.65h7.06v84.67H490.5l73.12,73.13v126l52.27,47.07v163l-52.27,47.07v126L490.5,827.68H340.16v84.67H333.1V820.61H487.57l69-69V625.42Z"/><polygon class="cls-1" points="232.99 266.87 90.73 124.61 104.42 104.91 172.45 104.91 172.45 111.98 108.12 111.98 99.91 123.78 237.99 261.87 232.99 266.87"/><polygon class="cls-1" points="28.21 29.03 218.16 29.03 218.16 142.93 288.44 213.22 459.28 213.22 513.55 267.49 508.55 272.48 456.35 220.29 285.52 220.29 211.09 145.86 211.09 36.1 28.21 36.1 28.21 29.03"/><polygon class="cls-1" points="199.55 643.26 199.55 595.3 333.54 595.3 428.84 500 333.54 404.7 199.55 404.7 199.55 356.74 206.62 356.74 206.62 397.63 336.47 397.63 438.84 500 336.47 602.37 206.62 602.37 206.62 643.26 199.55 643.26"/><polygon class="cls-1" points="171.27 643.26 171.27 567.02 321.83 567.02 388.86 500 321.83 432.97 171.27 432.97 171.27 356.74 178.34 356.74 178.34 425.9 324.76 425.9 398.86 500 324.76 574.09 178.34 574.09 178.34 643.26 171.27 643.26"/><path class="cls-1" d="M466.67,570.34l-25-25-83.36,83.36H235.64v35.34H373Zm-20-10-82.5,82.5H242.71v-7.07H361.25l80.43-80.43Zm5,5,5,5L370,657H242.71v-7.07H367.1Z"/><polygon class="cls-1" points="185.41 643.26 185.41 581.17 327.69 581.17 408.85 500 327.69 418.84 185.41 418.84 185.41 356.74 192.48 356.74 192.48 411.77 330.62 411.77 418.85 500 330.62 588.24 192.48 588.24 192.48 643.26 185.41 643.26"/><polygon class="cls-1" points="391.94 690.37 490.58 591.73 490.58 408.27 391.94 309.63 158.28 309.63 5.44 156.79 10.44 151.8 161.2 302.56 394.87 302.56 497.65 405.34 497.65 594.66 394.87 697.44 161.2 697.44 10.44 848.2 5.44 843.2 158.28 690.37 391.94 690.37"/><polygon class="cls-1" points="143 461.25 143 356.74 150.06 356.74 150.06 454.18 313.05 454.18 358.87 500 313.05 545.82 150.06 545.82 150.06 643.26 143 643.26 143 538.75 310.12 538.75 348.87 500 310.12 461.25 143 461.25"/><polygon class="cls-1" points="157.13 643.26 157.13 552.89 315.98 552.89 368.87 500 315.98 447.11 157.13 447.11 157.13 356.74 164.2 356.74 164.2 440.04 318.9 440.04 378.86 500 318.9 559.96 164.2 559.96 164.2 643.26 157.13 643.26"/><polygon class="cls-1" points="104.91 318.15 104.91 684.7 5 784.61 0 779.61 97.84 681.77 97.84 321.07 0 223.23 5 218.24 104.91 318.15"/><polygon class="cls-1" points="620.6 899.4 620.6 647.37 627.67 647.37 627.67 902.33 558.28 971.72 451.22 971.72 451.22 964.65 555.35 964.65 620.6 899.4"/><path class="cls-1" d="M441.68,454.65l25-25L373,336H235.64V371.3H358.32Zm10-20L367.1,350.09H242.71V343H370l86.64,86.64Zm-5,5-5,5-80.43-80.43H242.71v-7.07H364.17Z"/><polygon class="cls-1" points="0 263.22 5 258.22 76.63 329.86 76.63 672.98 5 744.62 0 739.62 69.56 670.06 69.56 615.1 26.39 615.1 26.39 608.03 69.56 608.03 69.56 596.75 26.39 596.75 26.39 589.68 69.56 589.68 69.56 578.39 26.39 578.39 26.39 571.32 69.56 571.32 69.56 560.03 26.39 560.03 26.39 552.96 69.56 552.96 69.56 541.67 26.39 541.67 26.39 534.6 69.56 534.6 69.56 523.32 26.39 523.32 26.39 516.25 69.56 516.25 69.56 504.96 26.39 504.96 26.39 497.89 69.56 497.89 69.56 486.6 26.39 486.6 26.39 479.53 69.56 479.53 69.56 468.24 26.39 468.24 26.39 461.17 69.56 461.17 69.56 449.88 26.39 449.88 26.39 442.81 69.56 442.81 69.56 431.53 26.39 431.53 26.39 424.46 69.56 424.46 69.56 413.17 26.39 413.17 26.39 406.1 69.56 406.1 69.56 394.81 26.39 394.81 26.39 387.74 69.56 387.74 69.56 332.79 0 263.22"/><polygon class="cls-1" points="111.98 315.22 0 203.24 5 198.24 119.05 312.29 119.05 690.55 5 804.6 0 799.6 111.98 687.63 111.98 315.22"/><polygon class="cls-1" points="90.77 324 90.77 678.84 5 764.62 0 759.62 83.7 675.92 83.7 326.93 0 243.23 5 238.23 90.77 324"/><polygon class="cls-1" points="211.09 854.14 285.52 779.71 456.35 779.71 508.55 727.52 513.55 732.51 459.28 786.78 288.44 786.78 218.16 857.07 218.16 970.97 28.21 970.97 28.21 963.9 211.09 963.9 211.09 854.14"/><polygon class="cls-1" points="182.81 842.43 273.8 751.43 444.64 751.43 488.56 707.52 493.56 712.52 447.57 758.5 276.73 758.5 189.88 845.36 189.88 942.7 28.21 942.7 28.21 935.63 182.81 935.63 182.81 842.43"/><polygon class="cls-1" points="196.95 848.28 279.66 765.57 450.5 765.57 498.56 717.52 503.55 722.52 453.43 772.64 282.59 772.64 204.02 851.21 204.02 956.83 28.21 956.83 28.21 949.76 196.95 949.76 196.95 848.28"/><polygon class="cls-1" points="256.78 859.35 263.85 859.35 263.85 992.93 419.75 992.93 419.75 920.05 530.02 920.05 595.48 854.58 600.48 859.58 532.95 927.12 426.82 927.12 426.82 1000 28.21 1000 28.21 992.93 256.78 992.93 256.78 985.86 28.21 985.86 28.21 978.79 256.78 978.79 256.78 859.35"/><polygon class="cls-1" points="607.5 892.51 612.5 897.51 552.42 957.59 451.22 957.59 451.22 950.52 549.49 950.52 607.5 892.51"/><polygon class="cls-1" points="397.8 704.51 504.71 597.59 504.71 402.41 397.8 295.49 164.13 295.49 15.44 146.8 20.44 141.8 167.06 288.42 400.72 288.42 511.78 399.48 511.78 600.52 400.72 711.58 167.06 711.58 20.44 858.2 15.44 853.2 164.13 704.51 397.8 704.51"/><polygon class="cls-1" points="237.99 738.87 99.91 876.95 108.12 888.75 172.45 888.75 172.45 895.82 104.42 895.82 90.73 876.13 232.99 733.87 237.99 738.87"/><polygon class="cls-1" points="219.12 737.74 81.55 875.32 100.73 902.89 172.45 902.89 172.45 909.96 97.04 909.96 72.37 874.5 214.12 732.75 219.12 737.74"/><polygon class="cls-1" points="403.65 718.65 518.85 603.45 518.85 396.55 403.65 281.35 169.99 281.35 25.43 136.8 30.43 131.81 172.91 274.29 406.58 274.29 525.92 393.63 525.92 438.16 571.39 438.16 571.39 445.23 525.92 445.23 525.92 456.52 571.39 456.52 571.39 463.59 525.92 463.59 525.92 474.88 571.39 474.88 571.39 481.94 525.92 481.94 525.92 493.23 571.39 493.23 571.39 500.3 525.92 500.3 525.92 511.59 571.39 511.59 571.39 518.66 525.92 518.66 525.92 529.95 571.39 529.95 571.39 537.02 525.92 537.02 525.92 548.31 571.39 548.31 571.39 555.38 525.92 555.38 525.92 606.37 406.58 725.72 172.91 725.72 30.43 868.2 25.43 863.2 169.99 718.65 403.65 718.65"/><polygon class="cls-1" points="93.35 917.03 172.45 917.03 172.45 924.1 89.65 924.1 54.01 872.86 194.13 732.75 199.13 737.74 63.19 873.68 93.35 917.03"/></g></g></svg>