<svg width="252" height="248" viewBox="0 0 252 248" fill="none" xmlns="http://www.w3.org/2000/svg">
<g clip-path="url(#clip0)">
<path d="M138.56 50.5L132.86 38.77C132.74 38.5258 132.67 38.2604 132.653 37.9889C132.636 37.7175 132.673 37.4454 132.761 37.1882C132.849 36.9309 132.987 36.6936 133.167 36.4897C133.347 36.2859 133.566 36.1195 133.81 36V36C134.057 35.8821 134.325 35.8145 134.599 35.801C134.873 35.7875 135.146 35.8284 135.404 35.9215C135.662 36.0145 135.898 36.1577 136.1 36.3428C136.302 36.528 136.465 36.7514 136.58 37L142.28 48.72C142.4 48.9643 142.47 49.2297 142.487 49.5011C142.504 49.7725 142.467 50.0446 142.379 50.3019C142.291 50.5591 142.153 50.7964 141.973 51.0003C141.793 51.2042 141.574 51.3706 141.33 51.49C141.083 51.6069 140.816 51.674 140.543 51.6875C140.27 51.701 139.997 51.6606 139.74 51.5687C139.483 51.4768 139.246 51.3351 139.044 51.1517C138.841 50.9684 138.677 50.7469 138.56 50.5V50.5Z" fill="#999999"/>
<path d="M152.51 74.42C152.228 74.5643 151.916 74.6397 151.6 74.64C151.212 74.6381 150.832 74.5274 150.503 74.3207C150.174 74.1139 149.91 73.8192 149.74 73.47L149.4 72.76L147.91 69.71L145.76 65.28L144.27 62.21L144.03 61.74C143.805 61.2467 143.78 60.6851 143.961 60.1738C144.142 59.6625 144.514 59.2416 145 59C145.28 58.8642 145.589 58.7957 145.9 58.8C146.289 58.7992 146.67 58.9074 147.001 59.1124C147.332 59.3175 147.598 59.6111 147.77 59.96L147.95 60.36L149.45 63.42L151.59 67.83L153.08 70.9L153.47 71.68C153.704 72.1709 153.735 72.7345 153.555 73.2479C153.375 73.7612 152.999 74.1825 152.51 74.42V74.42Z" fill="#046EA3"/>
<path d="M141.19 32.86L139.59 29.78L136.73 24.25C136.064 22.9562 134.911 21.9798 133.526 21.5354C132.14 21.091 130.634 21.2149 129.34 21.88L125.27 24C125.158 24.0441 125.054 24.1048 124.96 24.18C124.282 24.5655 123.706 25.1072 123.28 25.76C122.839 26.384 122.542 27.0977 122.41 27.85C122.316 28.2493 122.285 28.6611 122.32 29.07C122.322 29.4074 122.366 29.7432 122.45 30.07C122.537 30.5132 122.688 30.9411 122.9 31.34L123.56 32.6L125.56 36.38L127.36 40C127.528 40.3604 127.743 40.6967 128 41C128.144 41.2002 128.315 41.3787 128.51 41.53C128.81 41.8157 129.146 42.061 129.51 42.26C130.286 42.7131 131.162 42.9683 132.06 43.0032C132.958 43.0381 133.851 42.8515 134.66 42.46H134.79L138.36 40.62L138.87 40.34C139.061 40.2535 139.242 40.1462 139.41 40.02C140.545 39.2624 141.356 38.1086 141.685 36.7844C142.015 35.4602 141.838 34.0608 141.19 32.86V32.86ZM137.26 37.22L136.82 37.44L133.18 39.32H133.13C132.644 39.5608 132.083 39.6003 131.568 39.43C131.053 39.2596 130.626 38.8931 130.38 38.41L129.56 36.81L127.29 32.43L125.94 29.79C125.764 29.447 125.686 29.0621 125.714 28.6775C125.742 28.293 125.876 27.9237 126.1 27.61C126.29 27.3473 126.54 27.1345 126.83 26.99L127.38 26.71L130.91 24.89C131.401 24.6408 131.971 24.5956 132.495 24.7641C133.019 24.9327 133.456 25.3013 133.71 25.79L138.15 34.41C138.219 34.5445 138.276 34.6851 138.32 34.83C138.351 34.9305 138.368 35.0348 138.37 35.14C138.419 35.5585 138.338 35.9818 138.14 36.3535C137.942 36.7251 137.635 37.0274 137.26 37.22V37.22Z" fill="#CCCCCC"/>
<path d="M151.98 55.09L152.31 55.73C152.646 56.3766 152.85 57.0838 152.91 57.8102C152.97 58.5366 152.884 59.2676 152.658 59.9604C152.431 60.6532 152.069 61.2939 151.592 61.8451C151.115 62.3962 150.533 62.8466 149.88 63.17L149.36 63.44L145.81 65.28H145.68C144.391 65.907 142.908 66.0048 141.547 65.5526C140.187 65.1004 139.057 64.134 138.4 62.86L137.4 60.86L134 54.24C133.663 53.5939 133.457 52.8871 133.396 52.1608C133.335 51.4345 133.419 50.7033 133.643 50.0098C133.868 49.3164 134.228 48.6745 134.703 48.1217C135.178 47.5689 135.758 47.1162 136.41 46.79L136.71 46.63L139.26 45.32L140.39 44.72H140.46C141.757 44.0541 143.266 43.9296 144.655 44.3738C146.044 44.8181 147.2 45.7948 147.87 47.09L151.98 55.09Z" fill="#0089DD"/>
<path d="M163.65 97.35C163.15 97.5826 162.578 97.6081 162.059 97.4207C161.54 97.2334 161.116 96.8485 160.88 96.35L160.54 95.63L159 92.58L157 88.3L155.51 85.23L155.24 84.67C154.998 84.1779 154.961 83.6099 155.137 83.0905C155.313 82.5712 155.688 82.143 156.18 81.9C156.462 81.7557 156.774 81.6803 157.09 81.68C157.479 81.6808 157.859 81.7909 158.188 81.9978C158.517 82.2047 158.781 82.5 158.95 82.85L159.18 83.36L160.68 86.36L162.77 90.64L164.26 93.7L164.66 94.53C164.784 94.7806 164.856 95.0536 164.873 95.3327C164.889 95.6119 164.849 95.8914 164.754 96.1547C164.66 96.4179 164.514 96.6594 164.324 96.8648C164.134 97.0702 163.905 97.2352 163.65 97.35V97.35Z" fill="#046EA3"/>
<path d="M174.84 120.31C174.558 120.454 174.246 120.53 173.93 120.53C173.54 120.528 173.159 120.419 172.827 120.214C172.495 120.01 172.226 119.717 172.05 119.37L171.69 118.62L170.2 115.55L168.09 111.18L166.6 108.1L166.36 107.63C166.121 107.135 166.089 106.566 166.27 106.048C166.451 105.529 166.83 105.104 167.325 104.865C167.82 104.626 168.389 104.594 168.907 104.775C169.426 104.956 169.851 105.335 170.09 105.83L170.27 106.23L171.78 109.31L173.89 113.64L175.38 116.71L175.79 117.55C175.909 117.793 175.979 118.058 175.996 118.329C176.013 118.6 175.976 118.871 175.888 119.127C175.8 119.384 175.662 119.62 175.482 119.823C175.302 120.026 175.084 120.192 174.84 120.31Z" fill="#046EA3"/>
<path d="M163.52 78.75L159.06 70.13C158.394 68.8362 157.241 67.8598 155.856 67.4154C154.47 66.971 152.964 67.0949 151.67 67.76H151.58L147.91 69.67L147.6 69.83C146.306 70.4962 145.33 71.6487 144.885 73.0345C144.441 74.4202 144.565 75.9256 145.23 77.22L149.69 85.84C150.334 87.1344 151.466 88.1203 152.836 88.5815C154.207 89.0427 155.704 88.9415 157 88.3H157.13L160.68 86.46L161.2 86.19C161.843 85.8559 162.413 85.3979 162.878 84.8423C163.343 84.2868 163.693 83.6447 163.909 82.9531C164.125 82.2615 164.201 81.534 164.135 80.8126C164.068 80.0913 163.859 79.3903 163.52 78.75ZM159.59 83.12L159.13 83.36L155.51 85.21C155.023 85.4455 154.464 85.4823 153.951 85.3124C153.437 85.1425 153.01 84.7794 152.76 84.3L148.32 75.67C148.194 75.4279 148.116 75.1632 148.093 74.8911C148.069 74.6191 148.099 74.345 148.182 74.0847C148.265 73.8245 148.398 73.5831 148.575 73.3747C148.751 73.1662 148.967 72.9947 149.21 72.87L149.45 72.74L153.12 70.85L153.29 70.78C153.532 70.6536 153.797 70.5763 154.069 70.5526C154.341 70.529 154.615 70.5594 154.875 70.6421C155.136 70.7249 155.377 70.8583 155.585 71.0347C155.794 71.2111 155.965 71.427 156.09 71.67L160.53 80.3C160.658 80.546 160.735 80.8152 160.757 81.0916C160.779 81.368 160.745 81.646 160.657 81.909C160.569 82.172 160.43 82.4147 160.246 82.6228C160.063 82.8308 159.84 82.9999 159.59 83.12V83.12Z" fill="#0089DD"/>
<path d="M174.64 101.63L170.2 93C169.868 92.3585 169.414 91.7887 168.861 91.3233C168.309 90.8579 167.671 90.5059 166.983 90.2876C166.294 90.0693 165.57 89.989 164.85 90.0512C164.131 90.1133 163.431 90.3168 162.79 90.65H162.72L159 92.58L158.69 92.75C158.049 93.0807 157.479 93.5345 157.014 94.0854C156.548 94.6364 156.196 95.2737 155.977 95.9609C155.757 96.6482 155.676 97.3719 155.736 98.0906C155.797 98.8094 155.999 99.5092 156.33 100.15L160.77 108.76C161.429 110.032 162.559 110.997 163.918 111.449C165.278 111.901 166.76 111.804 168.05 111.18L168.17 111.12L171.74 109.31L172.25 109.03C173.548 108.365 174.529 107.212 174.977 105.825C175.425 104.437 175.304 102.928 174.64 101.63ZM170.73 106L170.27 106.24L166.65 108.1H166.6C166.114 108.341 165.553 108.38 165.038 108.21C164.523 108.04 164.096 107.673 163.85 107.19L159.39 98.59C159.14 98.0986 159.093 97.5284 159.259 97.0026C159.426 96.4768 159.792 96.0377 160.28 95.78L160.54 95.66L164.21 93.75L164.36 93.67C164.85 93.4201 165.419 93.3734 165.943 93.54C166.467 93.7066 166.904 94.0731 167.16 94.56L171.62 103.19C171.748 103.433 171.827 103.698 171.851 103.971C171.876 104.244 171.845 104.52 171.763 104.781C171.68 105.043 171.546 105.285 171.369 105.494C171.191 105.703 170.974 105.875 170.73 106V106Z" fill="#0089DD"/>
<path d="M186 143.19C185.718 143.334 185.406 143.41 185.09 143.41C184.701 143.409 184.321 143.299 183.992 143.092C183.663 142.885 183.399 142.59 183.23 142.24L182.87 141.5L181.38 138.42L179.3 134.15L177.79 131.07L177.52 130.51C177.403 130.263 177.337 129.994 177.324 129.721C177.311 129.448 177.352 129.175 177.445 128.918C177.538 128.66 177.681 128.424 177.865 128.222C178.05 128.02 178.272 127.856 178.52 127.74C178.796 127.603 179.102 127.534 179.41 127.54C179.8 127.538 180.184 127.646 180.516 127.851C180.848 128.056 181.116 128.35 181.29 128.7L181.52 129.18L183.02 132.25L185.09 136.53L186.58 139.6L186.98 140.42C187.1 140.666 187.17 140.933 187.185 141.206C187.201 141.479 187.162 141.753 187.071 142.01C186.979 142.268 186.838 142.505 186.654 142.708C186.47 142.91 186.248 143.074 186 143.19Z" fill="#046EA3"/>
<path d="M197.13 166.16C196.846 166.298 196.535 166.37 196.22 166.37C195.832 166.377 195.451 166.271 195.123 166.065C194.794 165.859 194.533 165.562 194.37 165.21L194.04 164.52L192.53 161.44L190.38 157L188.89 154L188.65 153.51C188.534 153.263 188.467 152.996 188.455 152.723C188.442 152.451 188.483 152.179 188.576 151.922C188.669 151.666 188.812 151.43 188.996 151.229C189.18 151.028 189.403 150.865 189.65 150.75C189.926 150.613 190.232 150.544 190.54 150.55C190.929 150.547 191.312 150.654 191.643 150.859C191.974 151.065 192.24 151.36 192.41 151.71L192.61 152.11L194.1 155.19L196.25 159.59L197.73 162.65L198.11 163.43C198.337 163.923 198.361 164.485 198.178 164.995C197.995 165.506 197.618 165.924 197.13 166.16Z" fill="#046EA3"/>
<path d="M185.81 124.59L181.37 116C180.7 114.707 179.545 113.733 178.159 113.289C176.772 112.844 175.266 112.967 173.97 113.63H173.89L170.2 115.54L169.89 115.7C169.25 116.031 168.682 116.484 168.217 117.035C167.753 117.585 167.401 118.222 167.183 118.908C166.965 119.594 166.884 120.317 166.945 121.034C167.007 121.752 167.209 122.451 167.54 123.09L171.98 131.71C172.637 132.984 173.766 133.951 175.126 134.405C176.486 134.859 177.969 134.764 179.26 134.14L179.39 134.08L182.94 132.24L183.45 131.97C184.741 131.304 185.715 130.153 186.158 128.769C186.601 127.385 186.475 125.882 185.81 124.59ZM181.88 129L181.44 129.22L177.82 131.09C177.82 131.09 177.82 131.09 177.75 131.09C177.267 131.327 176.709 131.365 176.199 131.195C175.688 131.024 175.264 130.66 175.02 130.18L170.56 121.55C170.434 121.309 170.357 121.046 170.334 120.776C170.31 120.505 170.341 120.233 170.424 119.974C170.506 119.715 170.64 119.476 170.816 119.269C170.992 119.062 171.208 118.893 171.45 118.77L171.69 118.64L175.38 116.73L175.53 116.66C175.772 116.534 176.037 116.456 176.309 116.433C176.581 116.409 176.855 116.439 177.115 116.522C177.376 116.605 177.617 116.738 177.825 116.915C178.034 117.091 178.205 117.307 178.33 117.55L182.79 126.18C183.042 126.675 183.088 127.249 182.917 127.778C182.747 128.306 182.374 128.746 181.88 129Z" fill="#0089DD"/>
<path d="M197 147.47L192.54 138.84C191.87 137.55 190.716 136.578 189.331 136.137C187.945 135.697 186.442 135.823 185.15 136.49H185.06L181.39 138.38L181.08 138.55C179.785 139.218 178.809 140.372 178.365 141.76C177.92 143.147 178.045 144.654 178.71 145.95L183.17 154.56C183.823 155.833 184.949 156.799 186.306 157.251C187.663 157.703 189.144 157.606 190.43 156.98L190.56 156.93L194.12 155.11L194.63 154.83C195.912 154.16 196.879 153.013 197.323 151.635C197.766 150.258 197.65 148.762 197 147.47V147.47ZM193 151.83L192.56 152.07L188.92 153.94H188.87C188.38 154.171 187.82 154.204 187.307 154.03C186.794 153.857 186.369 153.491 186.12 153.01L181.68 144.41C181.427 143.919 181.379 143.348 181.545 142.821C181.712 142.295 182.08 141.856 182.57 141.6L182.81 141.48L186.48 139.58L186.65 139.49C187.141 139.241 187.711 139.196 188.235 139.364C188.759 139.533 189.196 139.901 189.45 140.39L193.89 149.01C194.02 149.253 194.099 149.519 194.125 149.794C194.15 150.068 194.12 150.344 194.037 150.607C193.955 150.87 193.82 151.113 193.642 151.323C193.464 151.533 193.246 151.705 193 151.83Z" fill="#0089DD"/>
<path d="M205.52 188.13L199.81 176.4C199.692 176.153 199.625 175.886 199.611 175.613C199.598 175.34 199.639 175.067 199.732 174.811C199.825 174.554 199.968 174.318 200.153 174.117C200.339 173.916 200.562 173.754 200.81 173.64V173.64C201.057 173.522 201.324 173.455 201.597 173.441C201.87 173.428 202.142 173.469 202.399 173.562C202.656 173.655 202.892 173.798 203.093 173.983C203.294 174.169 203.456 174.392 203.57 174.64L209.28 186.37C209.398 186.617 209.466 186.885 209.479 187.159C209.493 187.433 209.452 187.706 209.359 187.964C209.266 188.222 209.122 188.458 208.937 188.66C208.752 188.862 208.529 189.025 208.28 189.14V189.14C208.033 189.257 207.765 189.324 207.492 189.337C207.218 189.35 206.945 189.308 206.688 189.214C206.431 189.12 206.196 188.976 205.995 188.789C205.794 188.603 205.633 188.379 205.52 188.13V188.13Z" fill="#999999"/>
<path d="M216.69 211.1L211 199.38C210.88 199.136 210.81 198.87 210.793 198.599C210.776 198.328 210.813 198.055 210.901 197.798C210.989 197.541 211.127 197.304 211.307 197.1C211.487 196.896 211.706 196.729 211.95 196.61C212.444 196.371 213.012 196.337 213.53 196.515C214.049 196.693 214.477 197.068 214.72 197.56L220.42 209.29C220.54 209.534 220.61 209.8 220.627 210.071C220.644 210.343 220.607 210.615 220.519 210.872C220.431 211.129 220.293 211.366 220.113 211.57C219.933 211.774 219.714 211.941 219.47 212.06C219.225 212.181 218.958 212.252 218.685 212.269C218.412 212.286 218.138 212.249 217.88 212.16C217.621 212.07 217.383 211.931 217.179 211.749C216.975 211.567 216.809 211.346 216.69 211.1V211.1Z" fill="#999999"/>
<path d="M193.78 164.64L194.04 164.52L192.53 161.44L192.22 161.61C191.037 162.213 190.115 163.229 189.629 164.465C189.142 165.701 189.125 167.072 189.58 168.32L193.53 168.67L192.89 167.45C192.637 166.959 192.589 166.388 192.755 165.861C192.922 165.335 193.29 164.896 193.78 164.64V164.64ZM193.78 164.64L194.04 164.52L192.53 161.44L192.22 161.61C191.037 162.213 190.115 163.229 189.629 164.465C189.142 165.701 189.125 167.072 189.58 168.32L193.53 168.67L192.89 167.45C192.637 166.959 192.589 166.388 192.755 165.861C192.922 165.335 193.29 164.896 193.78 164.64V164.64ZM193.78 164.64L194.04 164.52L192.53 161.44L192.22 161.61C191.037 162.213 190.115 163.229 189.629 164.465C189.142 165.701 189.125 167.072 189.58 168.32L193.53 168.67L192.89 167.45C192.637 166.959 192.589 166.388 192.755 165.861C192.922 165.335 193.29 164.896 193.78 164.64V164.64ZM193.78 164.64L194.04 164.52L192.53 161.44L192.22 161.61C191.037 162.213 190.115 163.229 189.629 164.465C189.142 165.701 189.125 167.072 189.58 168.32L193.53 168.67L192.89 167.45C192.637 166.959 192.589 166.388 192.755 165.861C192.922 165.335 193.29 164.896 193.78 164.64V164.64ZM208.14 170.49L207.87 169.96L203.7 161.86C203.028 160.566 201.871 159.592 200.481 159.152C199.092 158.711 197.584 158.84 196.29 159.51H196.22L192.53 161.4L192.22 161.57C191.037 162.173 190.115 163.189 189.629 164.425C189.142 165.661 189.125 167.032 189.58 168.28C189.656 168.518 189.753 168.749 189.87 168.97L194.31 177.58C194.906 178.716 195.878 179.609 197.06 180.108C198.242 180.606 199.561 180.677 200.79 180.31C201.061 180.236 201.323 180.132 201.57 180H201.7L205.27 178.16L205.78 177.88C206.421 177.55 206.99 177.097 207.456 176.547C207.921 175.997 208.273 175.361 208.493 174.674C208.712 173.988 208.794 173.265 208.733 172.547C208.673 171.829 208.471 171.13 208.14 170.49V170.49ZM204.21 174.85L203.77 175.07L200.13 177C199.892 177.124 199.631 177.199 199.364 177.221C199.096 177.242 198.827 177.209 198.572 177.124C198.317 177.04 198.082 176.904 197.881 176.726C197.679 176.549 197.516 176.332 197.4 176.09L193.58 168.71L192.94 167.49C192.687 166.999 192.639 166.428 192.805 165.901C192.972 165.375 193.34 164.936 193.83 164.68L194.09 164.56L197.75 162.65L197.91 162.57C198.401 162.321 198.971 162.276 199.495 162.444C200.019 162.613 200.456 162.981 200.71 163.47L203.9 169.63L205.15 172.09C205.389 172.581 205.424 173.147 205.248 173.664C205.072 174.181 204.699 174.607 204.21 174.85V174.85ZM193.78 164.64L194.04 164.52L192.53 161.44L192.22 161.61C191.037 162.213 190.115 163.229 189.629 164.465C189.142 165.701 189.125 167.072 189.58 168.32L193.53 168.67L192.89 167.45C192.637 166.959 192.589 166.388 192.755 165.861C192.922 165.335 193.29 164.896 193.78 164.64V164.64ZM193.78 164.64L194.04 164.52L192.53 161.44L192.22 161.61C191.037 162.213 190.115 163.229 189.629 164.465C189.142 165.701 189.125 167.072 189.58 168.32L193.53 168.67L192.89 167.45C192.637 166.959 192.589 166.388 192.755 165.861C192.922 165.335 193.29 164.896 193.78 164.64V164.64ZM193.78 164.64L194.04 164.52L192.53 161.44L192.22 161.61C191.037 162.213 190.115 163.229 189.629 164.465C189.142 165.701 189.125 167.072 189.58 168.32L193.53 168.67L192.89 167.45C192.637 166.959 192.589 166.388 192.755 165.861C192.922 165.335 193.29 164.896 193.78 164.64V164.64ZM193.78 164.64L194.04 164.52L192.53 161.44L192.22 161.61C191.037 162.213 190.115 163.229 189.629 164.465C189.142 165.701 189.125 167.072 189.58 168.32L193.53 168.67L192.89 167.45C192.637 166.959 192.589 166.388 192.755 165.861C192.922 165.335 193.29 164.896 193.78 164.64V164.64Z" fill="#0089DD"/>
<path d="M205.07 192.34V192.29L204.7 192.74V192.94L205.02 192.87C205.133 192.832 205.251 192.809 205.37 192.8L205.07 192.34ZM205.07 192.34V192.29L204.7 192.74V192.94L205.02 192.87C205.133 192.832 205.251 192.809 205.37 192.8L205.07 192.34ZM205.07 192.34V192.29L204.7 192.74V192.94L205.02 192.87C205.133 192.832 205.251 192.809 205.37 192.8L205.07 192.34ZM205.07 192.34V192.29L204.7 192.74V192.94L205.02 192.87C205.133 192.832 205.251 192.809 205.37 192.8L205.07 192.34ZM219.62 194.23C219.539 193.928 219.425 193.637 219.28 193.36L214.82 184.75C214.494 184.106 214.044 183.532 213.494 183.064C212.945 182.595 212.307 182.241 211.62 182.021C210.932 181.802 210.207 181.721 209.488 181.784C208.768 181.848 208.069 182.054 207.43 182.39H207.34L203.66 184.29L203.35 184.45C202.058 185.124 201.086 186.281 200.644 187.669C200.202 189.057 200.326 190.563 200.99 191.86L202.28 194.37L203.97 197.61L204.16 197.97L204.21 198.08L204.36 198.37L205.45 200.46C206.067 201.675 207.116 202.614 208.392 203.094C209.667 203.573 211.076 203.558 212.34 203.05C212.472 203.014 212.597 202.957 212.71 202.88H212.84L215.53 201.5L216.4 201.06L216.91 200.79C217.307 200.576 217.673 200.311 218 200C218.401 199.653 218.739 199.241 219 198.78C219.434 198.115 219.715 197.362 219.822 196.575C219.929 195.788 219.86 194.987 219.62 194.23V194.23ZM212.42 199.23L211.27 199.83C211.262 199.834 211.254 199.835 211.245 199.835C211.236 199.835 211.228 199.834 211.22 199.83C210.732 200.06 210.175 200.094 209.663 199.925C209.151 199.756 208.724 199.396 208.47 198.92L207.03 196.12L205.32 192.79L205.07 192.31V192.26V192.18L204.91 191.87L204.11 190.32C203.984 190.078 203.906 189.813 203.883 189.541C203.859 189.269 203.889 188.995 203.972 188.735C204.055 188.474 204.188 188.233 204.365 188.025C204.541 187.816 204.757 187.645 205 187.52L205.24 187.39L205.58 187.21L205.91 187.05L208.91 185.5L209.08 185.41C209.57 185.16 210.139 185.113 210.663 185.28C211.187 185.447 211.624 185.813 211.88 186.3L212.73 187.97V188L215.21 192.75L216.32 194.9C216.527 195.314 216.597 195.783 216.52 196.24C216.458 196.549 216.327 196.84 216.139 197.092C215.95 197.345 215.708 197.552 215.43 197.7L214.99 197.93L212.42 199.23ZM205.07 192.33V192.28L204.7 192.73V192.93L205.02 192.86C205.133 192.822 205.251 192.799 205.37 192.79L205.07 192.33ZM205.07 192.33V192.28L204.7 192.73V192.93L205.02 192.86C205.133 192.822 205.251 192.799 205.37 192.79L205.07 192.33ZM205.07 192.33V192.28L204.7 192.73V192.93L205.02 192.86C205.133 192.822 205.251 192.799 205.37 192.79L205.07 192.33ZM205.07 192.33V192.28L204.7 192.73V192.93L205.02 192.86C205.133 192.822 205.251 192.799 205.37 192.79L205.07 192.33Z" fill="#CCCCCC"/>
<path d="M107 50.83L112.93 39.21C113.054 38.9674 113.224 38.7517 113.432 38.5751C113.639 38.3986 113.879 38.2646 114.138 38.181C114.397 38.0974 114.671 38.0658 114.942 38.0879C115.213 38.11 115.478 38.1855 115.72 38.31C115.963 38.4338 116.178 38.6043 116.355 38.8116C116.531 39.0189 116.665 39.2591 116.749 39.5182C116.833 39.7774 116.864 40.0505 116.842 40.322C116.82 40.5934 116.744 40.8578 116.62 41.1L110.69 52.71C110.566 52.9526 110.396 53.1683 110.188 53.3449C109.981 53.5215 109.741 53.6554 109.482 53.739C109.223 53.8226 108.949 53.8542 108.678 53.8321C108.407 53.81 108.142 53.7345 107.9 53.61V53.61C107.413 53.3599 107.044 52.927 106.876 52.4059C106.707 51.8849 106.752 51.3182 107 50.83V50.83Z" fill="#999999"/>
<path d="M105.23 62.9C105.238 63.2473 105.159 63.5911 105 63.9L104.8 64.28L103.25 67.28L101 71.65L99.45 74.65L99.05 75.42C98.8381 75.8312 98.4946 76.1596 98.0742 76.3528C97.6539 76.5459 97.181 76.5927 96.7309 76.4857C96.2809 76.3786 95.8797 76.1239 95.5913 75.7622C95.3029 75.4005 95.1441 74.9526 95.14 74.49C95.1315 74.1415 95.2142 73.7967 95.38 73.49L95.72 72.8L97.27 69.8L99.51 65.42L101.06 62.42L101.31 61.92C101.523 61.5073 101.868 61.1781 102.29 60.9853C102.713 60.7925 103.188 60.7472 103.639 60.8569C104.09 60.9665 104.491 61.2246 104.778 61.5897C105.065 61.9548 105.22 62.4057 105.22 62.87L105.23 62.9Z" fill="#046EA3"/>
<path d="M126.1 27.62C125.612 27.0353 125.005 26.5614 124.32 26.23L123.32 25.74L120.54 24.39L120.23 24.25C120.141 24.1961 120.043 24.1588 119.94 24.14C119.286 23.8653 118.584 23.7238 117.875 23.7238C117.166 23.7238 116.464 23.8653 115.81 24.14V24.14C115.379 24.3019 114.974 24.5277 114.61 24.81C113.9 25.3316 113.326 26.0179 112.94 26.81L112.65 27.43L109.33 34.29L109.04 34.91L108.95 35.08L108.9 35.22L108.73 35.55C108.111 36.8395 108.019 38.3198 108.475 39.6758C108.931 41.0318 109.898 42.1563 111.17 42.81C111.209 42.8409 111.253 42.8646 111.3 42.88L114.9 44.61L115.43 44.87C116.742 45.4988 118.249 45.5813 119.622 45.0994C120.994 44.6175 122.119 43.6107 122.75 42.3L125.59 36.4L126.17 35.24L126.31 34.93L126.97 33.57C127.144 33.2092 127.279 32.8303 127.37 32.44C127.551 31.5933 127.531 30.7158 127.31 29.8785C127.089 29.0412 126.675 28.2675 126.1 27.62V27.62ZM122.79 34.22L119.61 40.83C119.378 41.2905 118.982 41.6473 118.5 41.83C118.23 41.9347 117.942 41.9826 117.653 41.9705C117.364 41.9585 117.08 41.8868 116.82 41.76L116.44 41.58L112.74 39.82C112.433 39.684 112.173 39.4616 111.99 39.18C111.932 39.0997 111.879 39.0162 111.83 38.93C111.692 38.643 111.62 38.3286 111.62 38.01C111.62 37.6915 111.692 37.377 111.83 37.09L112.23 36.25L115.16 30.14L116.03 28.34C116.25 27.8815 116.636 27.524 117.11 27.34C117.346 27.2407 117.599 27.1896 117.855 27.1896C118.111 27.1896 118.364 27.2407 118.6 27.34L118.8 27.41L122.42 29.14L122.93 29.4C123.291 29.5676 123.594 29.8392 123.8 30.18C123.984 30.4775 124.091 30.8166 124.11 31.166C124.129 31.5154 124.061 31.8641 123.91 32.18L123.66 32.71L122.79 34.22Z" fill="#CCCCCC"/>
<path d="M112.75 48.89H112.66L108.93 47.09L108.62 46.94C107.305 46.3105 105.795 46.2274 104.419 46.7091C103.044 47.1908 101.915 48.1979 101.28 49.51L97.53 57.3L97.08 58.3C96.4607 59.5895 96.3692 61.0698 96.8249 62.4258C97.2806 63.7818 98.2476 64.9063 99.52 65.56C99.5599 65.5892 99.6037 65.6127 99.65 65.63L103.25 67.36L103.78 67.61C104.433 67.9202 105.14 68.0987 105.862 68.1354C106.583 68.1721 107.305 68.0662 107.986 67.8238C108.667 67.5815 109.293 67.2073 109.829 66.7228C110.365 66.2383 110.8 65.6529 111.11 65L114.11 58.79L115.32 56.26C115.638 55.6078 115.823 54.8992 115.866 54.1749C115.909 53.4507 115.808 52.7252 115.569 52.0401C115.33 51.3551 114.958 50.7241 114.474 50.1834C113.99 49.6428 113.404 49.2032 112.75 48.89ZM108 63.48C107.883 63.7294 107.718 63.9532 107.514 64.1385C107.311 64.3239 107.072 64.4672 106.813 64.5601C106.554 64.653 106.279 64.6938 106.003 64.68C105.728 64.6663 105.459 64.5983 105.21 64.48L104.76 64.26L101.08 62.49H101.03C100.547 62.2437 100.18 61.8168 100.01 61.302C99.8397 60.7871 99.8792 60.2259 100.12 59.74L101.12 57.63L104.32 50.98C104.558 50.4833 104.982 50.1001 105.5 49.9131C106.018 49.726 106.589 49.7501 107.09 49.98L107.34 50.11L111.07 51.89L111.22 51.96C111.72 52.2003 112.105 52.6277 112.292 53.1499C112.479 53.672 112.453 54.2469 112.22 54.75L110.45 58.42L108 63.48Z" fill="#0089DD"/>
<path d="M93.64 85.61C93.6485 85.9585 93.5658 86.3033 93.4 86.61L93.17 87.08L91.6 90.08L89.44 94.32L87.89 97.32L87.47 98.14C87.2555 98.5569 86.9059 98.8886 86.4783 99.0809C86.0508 99.2731 85.5706 99.3146 85.1164 99.1984C84.6622 99.0823 84.2609 98.8154 83.9782 98.4414C83.6954 98.0675 83.548 97.6086 83.56 97.14C83.5586 96.8125 83.6375 96.4898 83.79 96.2L84.16 95.47L85.72 92.47L87.89 88.23L89.44 85.23L89.73 84.65C89.9423 84.238 90.2867 83.9093 90.708 83.7163C91.1294 83.5233 91.6033 83.4773 92.0539 83.5856C92.5045 83.6939 92.9057 83.9503 93.1933 84.3137C93.4808 84.6771 93.6382 85.1265 93.64 85.59V85.61Z" fill="#046EA3"/>
<path d="M82 108.38C81.9998 108.703 81.9245 109.021 81.78 109.31L81.58 109.69L80.04 112.69L77.82 117.02L76.27 120.02L75.85 120.84C75.5978 121.325 75.1655 121.692 74.6457 121.862C74.126 122.033 73.5603 121.992 73.07 121.75C72.5822 121.498 72.2133 121.064 72.043 120.542C71.8727 120.02 71.9147 119.451 72.16 118.96L72.54 118.2L74.09 115.2L76.29 110.86L77.85 107.86L78.09 107.38C78.3045 106.963 78.6541 106.631 79.0817 106.439C79.5092 106.247 79.9894 106.205 80.4436 106.322C80.8978 106.438 81.2991 106.705 81.5818 107.079C81.8646 107.453 82.012 107.911 82 108.38V108.38Z" fill="#046EA3"/>
<path d="M101.1 71.69H101.01L97.28 69.89L97 69.71C95.6881 69.0802 94.18 68.996 92.8062 69.4758C91.4323 69.9556 90.3045 70.9604 89.67 72.27L85.43 81C84.8069 82.2911 84.7155 83.7752 85.1756 85.133C85.6357 86.4908 86.6104 87.6137 87.89 88.26L88 88.33L91.6 90.06L92.13 90.31C92.7794 90.6232 93.4841 90.8055 94.2039 90.8463C94.9237 90.8872 95.6446 90.7859 96.3252 90.5482C97.0059 90.3104 97.633 89.941 98.1709 89.4609C98.7088 88.9808 99.1468 88.3994 99.46 87.75L103.67 79C104.293 77.689 104.372 76.1849 103.891 74.8156C103.409 73.4463 102.406 72.3228 101.1 71.69V71.69ZM100.59 77.53L96.39 86.28C96.1497 86.78 95.7223 87.1652 95.2001 87.3523C94.678 87.5395 94.1031 87.5135 93.6 87.28L93.17 87L89.47 85.24C88.9857 84.9894 88.6178 84.5602 88.4443 84.0433C88.2707 83.5263 88.305 82.9621 88.54 82.47L92.74 73.74C92.8559 73.4897 93.0204 73.265 93.224 73.0789C93.4275 72.8928 93.666 72.749 93.9257 72.656C94.1853 72.5629 94.4609 72.5224 94.7363 72.5369C95.0117 72.5513 95.2815 72.6203 95.53 72.74L95.76 72.85L99.49 74.65L99.66 74.73C99.9055 74.8522 100.124 75.0217 100.304 75.2287C100.484 75.4358 100.621 75.6764 100.707 75.9366C100.794 76.1968 100.828 76.4716 100.808 76.745C100.788 77.0185 100.714 77.2853 100.59 77.53V77.53Z" fill="#0089DD"/>
<path d="M89.53 94.35H89.44L85.72 92.55L85.4 92.4C84.085 91.7731 82.5755 91.6915 81.2006 92.1729C79.8256 92.6543 78.6968 93.6597 78.06 94.97L73.86 103.7C73.2381 104.989 73.1451 106.47 73.6011 107.827C74.0571 109.184 75.0258 110.308 76.3 110.96C76.3369 110.996 76.3813 111.023 76.43 111.04L80.05 112.77L80.56 113.02C81.8719 113.65 83.3799 113.734 84.7538 113.254C86.1277 112.774 87.2554 111.77 87.89 110.46L92.09 101.72C92.4081 101.068 92.5942 100.36 92.6376 99.6365C92.681 98.9127 92.5809 98.1874 92.343 97.5025C92.1051 96.8175 91.734 96.1864 91.2513 95.6453C90.7685 95.1043 90.1835 94.6641 89.53 94.35V94.35ZM89 100.19L84.79 108.94C84.6829 109.194 84.5244 109.423 84.3245 109.613C84.1246 109.803 83.8877 109.949 83.6285 110.043C83.3693 110.137 83.0936 110.176 82.8185 110.159C82.5434 110.141 82.2749 110.066 82.03 109.94L81.57 109.72L77.9 107.95C77.9 107.95 77.9 107.95 77.84 107.95C77.5968 107.835 77.3794 107.672 77.2006 107.471C77.0219 107.27 76.8855 107.035 76.7996 106.781C76.7137 106.526 76.6801 106.256 76.7008 105.988C76.7215 105.72 76.796 105.459 76.92 105.22L81.12 96.46C81.2359 96.211 81.4 95.9874 81.6028 95.8021C81.8056 95.6169 82.0431 95.4736 82.3016 95.3807C82.5601 95.2877 82.8344 95.2468 83.1087 95.2604C83.3831 95.274 83.652 95.3419 83.9 95.46L84.14 95.57L87.87 97.37L88.03 97.44C88.2744 97.5566 88.4935 97.7204 88.6745 97.9218C88.8556 98.1232 88.9952 98.3584 89.0853 98.6138C89.1754 98.8692 89.2142 99.1399 89.1996 99.4104C89.185 99.6808 89.1171 99.9458 89 100.19V100.19Z" fill="#0089DD"/>
<path d="M70.46 131C70.4563 131.328 70.374 131.65 70.22 131.94L69.97 132.43L68.42 135.43L66.25 139.67L64.71 142.67L64.29 143.49C64.1663 143.733 63.9958 143.948 63.7882 144.125C63.5806 144.301 63.3401 144.434 63.0807 144.517C62.8212 144.6 62.5479 144.63 62.2766 144.607C62.0053 144.583 61.7413 144.506 61.5 144.38C61.1587 144.213 60.8722 143.952 60.6738 143.628C60.4755 143.304 60.3736 142.93 60.38 142.55C60.3801 142.22 60.4589 141.894 60.61 141.6L61 141L62.57 138L64.74 133.76L66.28 130.76L66.57 130.18C66.7791 129.763 67.1227 129.43 67.5452 129.233C67.9677 129.036 68.4443 128.987 68.8978 129.095C69.3514 129.202 69.7553 129.46 70.0443 129.825C70.3332 130.191 70.4903 130.644 70.49 131.11L70.46 131Z" fill="#046EA3"/>
<path d="M58.83 153.78C58.8329 154.103 58.7574 154.422 58.61 154.71L58.41 155.09L56.86 158.09L54.62 162.48L53.08 165.48L52.68 166.25C52.4621 166.663 52.1114 166.992 51.6842 167.181C51.2571 167.371 50.7785 167.411 50.3256 167.296C49.8727 167.18 49.472 166.916 49.1879 166.545C48.9039 166.173 48.7531 165.717 48.76 165.25C48.7651 164.931 48.8402 164.617 48.98 164.33L49.33 163.63L50.89 160.63L53.11 156.26L54.66 153.26L54.92 152.77C55.1345 152.353 55.4841 152.021 55.9117 151.829C56.3392 151.637 56.8194 151.595 57.2736 151.712C57.7278 151.828 58.1291 152.095 58.4118 152.469C58.6946 152.842 58.842 153.301 58.83 153.77V153.78Z" fill="#046EA3"/>
<path d="M77.92 117.09H77.83L74.1 115.29L73.79 115.14C73.1395 114.826 72.4334 114.643 71.712 114.602C70.9907 114.561 70.2684 114.663 69.5865 114.901C68.9046 115.14 68.2765 115.511 67.7383 115.993C67.2001 116.475 66.7623 117.058 66.45 117.71L62.25 126.44C61.6269 127.731 61.5355 129.215 61.9956 130.573C62.4557 131.931 63.4304 133.054 64.71 133.7C64.7373 133.736 64.7762 133.76 64.82 133.77L68.42 135.5L68.95 135.76C70.2631 136.389 71.7722 136.472 73.1462 135.99C74.5203 135.508 75.6472 134.501 76.28 133.19L80.48 124.44C80.7963 123.79 80.981 123.083 81.0235 122.361C81.066 121.639 80.9654 120.916 80.7275 120.233C80.4896 119.55 80.1192 118.921 79.6373 118.381C79.1555 117.842 78.5719 117.403 77.92 117.09ZM77.41 122.94L73.2 131.69C72.9617 132.189 72.5361 132.574 72.0156 132.762C71.4951 132.949 70.9217 132.923 70.42 132.69L69.97 132.47L66.29 130.71C65.8082 130.459 65.4422 130.032 65.2688 129.517C65.0954 129.003 65.1281 128.441 65.36 127.95L69.57 119.21C69.8062 118.709 70.2317 118.322 70.753 118.135C71.2743 117.947 71.8487 117.974 72.35 118.21L72.59 118.32L76.32 120.14L76.48 120.21C76.956 120.458 77.3182 120.881 77.4913 121.389C77.6645 121.897 77.6354 122.453 77.41 122.94Z" fill="#0089DD"/>
<path d="M66.34 139.75H66.25L62.54 137.95L62.21 137.81C60.8981 137.18 59.39 137.096 58.0162 137.576C56.6423 138.056 55.5145 139.06 54.88 140.37L50.68 149.11C50.0573 150.398 49.9629 151.878 50.417 153.235C50.871 154.591 51.8375 155.716 53.11 156.37L53.24 156.44L56.86 158.17L57.37 158.42C58.6834 159.05 60.1929 159.135 61.5684 158.655C62.9439 158.175 64.0734 157.17 64.71 155.86L68.91 147.12C69.2278 146.468 69.4133 145.759 69.4561 145.035C69.4988 144.311 69.3978 143.585 69.1589 142.9C68.92 142.215 68.548 141.584 68.0642 141.043C67.5804 140.503 66.9944 140.063 66.34 139.75V139.75ZM65.83 145.59L61.63 154.34C61.3917 154.839 60.9661 155.224 60.4456 155.412C59.9251 155.599 59.3517 155.573 58.85 155.34L58.41 155.12L54.72 153.36C54.7106 153.356 54.7004 153.353 54.69 153.353C54.6796 153.353 54.6694 153.356 54.66 153.36C54.1863 153.099 53.8291 152.668 53.6603 152.154C53.4914 151.64 53.5235 151.081 53.75 150.59L57.95 141.86C58.0659 141.61 58.2304 141.385 58.4339 141.199C58.6375 141.013 58.876 140.869 59.1357 140.776C59.3953 140.683 59.6708 140.642 59.9463 140.657C60.2217 140.671 60.4915 140.74 60.74 140.86L61 141L64.74 142.8L64.9 142.88C65.3746 143.125 65.7363 143.543 65.9096 144.048C66.0829 144.553 66.0544 145.106 65.83 145.59V145.59Z" fill="#0089DD"/>
<path d="M37.39 187.14L43.32 175.52C43.4438 175.277 43.6143 175.062 43.8216 174.885C44.0289 174.709 44.2691 174.575 44.5282 174.491C44.7874 174.407 45.0606 174.376 45.332 174.398C45.6034 174.42 45.8678 174.496 46.11 174.62C46.598 174.872 46.9665 175.307 47.1351 175.829C47.3037 176.352 47.2587 176.92 47.01 177.41L41.08 189C40.9562 189.243 40.7858 189.458 40.5784 189.635C40.3711 189.811 40.131 189.945 39.8718 190.029C39.6126 190.113 39.3395 190.144 39.068 190.122C38.7966 190.1 38.5322 190.024 38.29 189.9V189.9C37.8061 189.652 37.4398 189.223 37.2712 188.705C37.1026 188.188 37.1453 187.626 37.39 187.14V187.14Z" fill="#999999"/>
<path d="M25.77 209.89L31.7 198.27C31.952 197.782 32.3868 197.414 32.9095 197.245C33.4322 197.076 34.0003 197.121 34.49 197.37V197.37C34.7325 197.494 34.9483 197.664 35.1249 197.872C35.3014 198.079 35.4354 198.319 35.519 198.578C35.6026 198.837 35.6342 199.111 35.6121 199.382C35.59 199.653 35.5145 199.918 35.39 200.16L29.46 211.77C29.3362 212.013 29.1657 212.228 28.9584 212.405C28.7511 212.581 28.5109 212.715 28.2518 212.799C27.9926 212.883 27.7194 212.914 27.448 212.892C27.1766 212.87 26.9122 212.795 26.67 212.67V212.67C26.4278 212.547 26.2122 212.378 26.0358 212.171C25.8593 211.965 25.7254 211.726 25.6418 211.467C25.5581 211.209 25.5264 210.936 25.5484 210.666C25.5704 210.395 25.6457 210.131 25.77 209.89V209.89Z" fill="#999999"/>
<path d="M54.7 162.55H54.62L50.89 160.73L50.57 160.58C49.2583 159.951 47.7508 159.869 46.3783 160.351C45.0059 160.832 43.8808 161.839 43.25 163.15L40.41 169L39 171.87C38.9416 171.983 38.8915 172.1 38.85 172.22C38.7603 172.424 38.6868 172.635 38.63 172.85C38.4459 173.574 38.4095 174.328 38.5228 175.067C38.6362 175.806 38.8971 176.514 39.29 177.15C39.42 177.33 39.54 177.51 39.69 177.69C40.1694 178.292 40.7731 178.783 41.46 179.13L41.56 179.18L43.91 180.31L45.13 180.91L45.66 181.17C46.9744 181.791 48.4804 181.87 49.8522 181.389C51.224 180.908 52.3512 179.906 52.99 178.6L57 170.47L57.29 169.87C57.602 169.22 57.7825 168.514 57.8211 167.794C57.8597 167.073 57.7558 166.352 57.5151 165.672C57.2745 164.992 56.902 164.366 56.4189 163.83C55.9358 163.295 55.3517 162.86 54.7 162.55V162.55ZM50 177.13C49.885 177.377 49.7223 177.6 49.5212 177.784C49.32 177.968 49.0844 178.111 48.8279 178.204C48.5714 178.297 48.2991 178.338 48.0266 178.325C47.7541 178.313 47.4868 178.246 47.24 178.13L46.76 177.91L43.11 176.15H43.05C42.5671 175.903 42.1997 175.478 42.0259 174.964C41.8522 174.45 41.886 173.889 42.12 173.4L44.07 169.4L46.33 164.71C46.5662 164.209 46.9918 163.822 47.513 163.635C48.0343 163.447 48.6087 163.474 49.11 163.71L49.35 163.81L53.1 165.63L53.24 165.71C53.494 165.817 53.7231 165.976 53.9129 166.175C54.1028 166.375 54.2492 166.612 54.3431 166.871C54.437 167.131 54.4763 167.406 54.4586 167.682C54.4408 167.957 54.3664 168.225 54.24 168.47L53.4 170.22L50 177.13Z" fill="#0089DD"/>
<path d="M43.12 185.21H43.05L40.68 184L40.36 183.84L39.36 183.33L39.03 183.18C38.3815 182.868 37.6777 182.686 36.9589 182.646C36.2402 182.606 35.5206 182.709 34.8415 182.947C34.1624 183.186 33.5371 183.557 33.0014 184.038C32.4658 184.518 32.0303 185.1 31.72 185.75L30.84 187.55L29.52 190.34L29.21 190.96L27.51 194.49C27.0128 195.511 26.8551 196.663 27.06 197.78C27.1569 198.457 27.3918 199.107 27.75 199.69C28.1458 200.363 28.6853 200.94 29.33 201.38C29.5248 201.522 29.7323 201.646 29.95 201.75L30.08 201.82L32.79 203.13L33.55 203.49L33.68 203.55L34.21 203.8C34.4981 203.948 34.8039 204.059 35.12 204.13C35.7909 204.328 36.4949 204.39 37.19 204.31C38.375 204.187 39.4842 203.669 40.34 202.84C40.7441 202.489 41.0827 202.069 41.34 201.6C41.4263 201.488 41.5001 201.368 41.56 201.24L42.99 198.24L43.19 197.84L44.51 195L45.09 193.82L45.69 192.54C46.0056 191.89 46.1894 191.185 46.231 190.464C46.2725 189.743 46.1709 189.021 45.9319 188.34C45.693 187.658 45.3215 187.031 44.8389 186.494C44.3563 185.956 43.7721 185.52 43.12 185.21V185.21ZM33.62 189.59L34.62 187.59L34.78 187.24C34.9071 186.976 35.0875 186.741 35.31 186.55L35.55 186.37C35.8485 186.188 36.1873 186.083 36.5362 186.064C36.8851 186.045 37.2334 186.112 37.55 186.26L37.8 186.39L41.53 188.19L41.68 188.26C41.9305 188.373 42.1558 188.535 42.3425 188.736C42.5291 188.938 42.6734 189.175 42.7667 189.433C42.86 189.692 42.9003 189.966 42.8855 190.24C42.8706 190.515 42.8007 190.783 42.68 191.03V191.03L42.08 192.29L41.44 193.62L40 196.45L39.51 197.45L39.36 197.75L39.05 198.39L38.54 199.45L38.38 199.79C38.1437 200.288 37.72 200.673 37.2011 200.861C36.6822 201.048 36.1102 201.023 35.61 200.79L35.16 200.57L33.52 199.79L31.52 198.79C31.52 198.79 31.52 198.79 31.47 198.79C31.3061 198.714 31.1571 198.609 31.03 198.48C30.6976 198.18 30.4705 197.78 30.3822 197.341C30.294 196.902 30.3493 196.445 30.54 196.04L30.74 195.62L31.45 194.17L32.14 192.71L32.92 191.05L33.62 189.59Z" fill="#CCCCCC"/>
<path d="M51.94 198.13L38.94 197.75C38.3927 197.732 37.8749 197.497 37.5001 197.098C37.1252 196.699 36.9238 196.167 36.94 195.62V195.62C36.9609 195.074 37.1961 194.557 37.5947 194.183C37.9933 193.809 38.5233 193.606 39.07 193.62L52.07 194C52.6164 194.021 53.1327 194.256 53.507 194.655C53.8813 195.053 54.0835 195.583 54.07 196.13V196.13C54.0491 196.676 53.8139 197.193 53.4153 197.567C53.0167 197.941 52.4866 198.144 51.94 198.13Z" fill="#999999"/>
<path d="M77.47 198.87L64.47 198.49C64.1986 198.482 63.9314 198.421 63.6837 198.31C63.4361 198.198 63.2129 198.039 63.027 197.841C62.8412 197.643 62.6963 197.41 62.6007 197.156C62.5051 196.902 62.4607 196.631 62.47 196.36V196.36C62.4883 195.814 62.7213 195.298 63.1184 194.924C63.5154 194.549 64.0443 194.347 64.59 194.36L77.59 194.74C78.1373 194.758 78.6551 194.993 79.0299 195.392C79.4048 195.791 79.6062 196.323 79.59 196.87V196.87C79.5691 197.415 79.3353 197.929 78.9389 198.303C78.5424 198.677 78.0149 198.881 77.47 198.87V198.87Z" fill="#046EA3"/>
<path d="M42.58 191.1C42.3388 190.463 41.9714 189.882 41.5 189.39C41.3859 189.257 41.2586 189.137 41.12 189.03V189.03C40.1281 188.162 38.8577 187.68 37.54 187.67H37.23H34.61H30.82H27.82C26.3851 187.662 25.0037 188.214 23.9706 189.21C22.9374 190.206 22.3343 191.566 22.29 193V196.79V197.59C22.2678 198.825 22.6636 200.032 23.4133 201.014C24.163 201.996 25.2225 202.696 26.42 203C26.8479 203.11 27.2883 203.164 27.73 203.16H29.29H32.75H33.84H37.43C38.3211 203.165 39.1999 202.952 39.99 202.54C40.4559 202.288 40.8863 201.975 41.27 201.61C42.2031 200.727 42.7885 199.538 42.92 198.26V198.26C42.9294 198.127 42.9294 197.993 42.92 197.86V197.72V193.72V193.14C42.9475 192.444 42.8318 191.75 42.58 191.1V191.1ZM31 199.75H29.48H27.75C27.304 199.753 26.8716 199.597 26.53 199.31C26.2747 199.119 26.0689 198.869 25.9298 198.582C25.7906 198.295 25.7221 197.979 25.73 197.66V193.07C25.7293 192.867 25.7597 192.664 25.82 192.47C25.9504 192.044 26.2162 191.672 26.5771 191.41C26.938 191.148 27.3743 191.011 27.82 191.02H32.95H37.52C38.0692 191.027 38.5937 191.25 38.98 191.64V191.64L39.27 192.05C39.4406 192.356 39.5301 192.7 39.53 193.05V193.56V196.06V197.69C39.522 197.909 39.4781 198.125 39.4 198.33C39.2516 198.77 38.9546 199.145 38.56 199.39C38.2239 199.599 37.8359 199.71 37.44 199.71H33.54L31 199.75Z" fill="#CCCCCC"/>
<path d="M62.94 188.36H56.06H53.24C52.5195 188.356 51.8053 188.494 51.1383 188.767C50.4713 189.039 49.8645 189.44 49.3527 189.947C48.8409 190.455 48.4342 191.058 48.1557 191.722C47.8773 192.387 47.7326 193.1 47.73 193.82V193.91V198.04V198.41C47.7261 199.13 47.8642 199.845 48.1366 200.512C48.409 201.179 48.8102 201.786 49.3174 202.297C49.8245 202.809 50.4276 203.216 51.0921 203.494C51.7566 203.773 52.4695 203.917 53.19 203.92H55.74H62.89C64.3187 203.921 65.6914 203.364 66.7165 202.369C67.7416 201.374 68.3384 200.018 68.38 198.59C68.3897 198.544 68.3897 198.496 68.38 198.45V194.45V193.89C68.3866 193.17 68.251 192.455 67.9811 191.787C67.7112 191.119 67.3121 190.51 66.8068 189.997C66.3015 189.483 65.6999 189.074 65.0364 188.793C64.3729 188.513 63.6605 188.365 62.94 188.36V188.36ZM64.94 198.46C64.912 198.997 64.6801 199.503 64.2917 199.875C63.9033 200.246 63.3876 200.456 62.85 200.46H55.75H53.15C52.5992 200.457 52.0716 200.237 51.6821 199.848C51.2926 199.458 51.0726 198.931 51.07 198.38V198.11V193.98V193.8C51.0778 193.249 51.3008 192.723 51.6914 192.334C52.0819 191.946 52.609 191.725 53.16 191.72H55.93H62.86C63.1438 191.713 63.426 191.764 63.6894 191.87C63.9528 191.976 64.1919 192.134 64.3922 192.335C64.5924 192.536 64.7496 192.776 64.8541 193.04C64.9586 193.304 65.0082 193.586 65 193.87V194.36L64.94 198.46Z" fill="#CCCCCC"/>
<path d="M105.09 197.6C105.072 198.135 104.847 198.642 104.463 199.015C104.079 199.388 103.565 199.598 103.03 199.6H103H102.18L98.76 199.5L94 199.33L90.59 199.24H89.96C89.4371 199.204 88.9476 198.97 88.5901 198.587C88.2326 198.204 88.0338 197.699 88.0338 197.175C88.0338 196.651 88.2326 196.146 88.5901 195.763C88.9476 195.38 89.4371 195.146 89.96 195.11H90H90.54L93.95 195.2L98.71 195.34L102.12 195.45H103.03C103.308 195.451 103.583 195.508 103.838 195.618C104.093 195.727 104.324 195.887 104.516 196.088C104.708 196.289 104.858 196.526 104.957 196.786C105.055 197.045 105.101 197.322 105.09 197.6V197.6Z" fill="#046EA3"/>
<path d="M130.62 198.33C130.597 198.869 130.366 199.377 129.977 199.75C129.587 200.123 129.069 200.33 128.53 200.33V200.33H127.69L124.29 200.22L119.45 200.08L116 200H115.47C114.944 199.956 114.455 199.713 114.102 199.322C113.748 198.931 113.556 198.42 113.565 197.892C113.574 197.365 113.783 196.861 114.15 196.481C114.516 196.102 115.013 195.877 115.54 195.85V195.85H115.99L119.4 195.94L124.24 196.08L127.66 196.19H128.59C128.864 196.196 129.134 196.257 129.385 196.368C129.635 196.479 129.861 196.639 130.05 196.838C130.239 197.037 130.386 197.271 130.484 197.527C130.582 197.783 130.628 198.056 130.62 198.33V198.33Z" fill="#046EA3"/>
<path d="M88.53 189.1H78.83C77.9007 189.092 76.9849 189.323 76.17 189.77C75.3115 190.243 74.5942 190.936 74.0917 191.778C73.5891 192.62 73.3194 193.58 73.31 194.56V199.14C73.3018 200.074 73.5327 200.994 73.9808 201.813C74.4289 202.632 75.0793 203.323 75.87 203.82C76.7367 204.371 77.743 204.663 78.77 204.66H88.46C89.8974 204.674 91.2828 204.123 92.3186 203.127C93.3545 202.13 93.9582 200.767 94 199.33V199.2V195.2V194.62C94.0053 193.163 93.4323 191.764 92.4068 190.729C91.3812 189.694 89.987 189.108 88.53 189.1ZM90.53 199.18V199.24C90.5068 199.779 90.2764 200.287 89.8869 200.66C89.4975 201.033 88.9791 201.241 88.44 201.24L78.74 201.18C78.4668 201.179 78.1966 201.124 77.9448 201.018C77.6929 200.912 77.4644 200.758 77.2721 200.564C77.0799 200.37 76.9278 200.14 76.8245 199.887C76.7212 199.634 76.6687 199.363 76.67 199.09V198.84V194.69V194.51C76.67 194.237 76.7242 193.967 76.8296 193.715C76.935 193.463 77.0894 193.234 77.2839 193.043C77.4784 192.851 77.7091 192.7 77.9625 192.598C78.2159 192.496 78.487 192.446 78.76 192.45H88.46C88.7331 192.451 89.0034 192.506 89.2552 192.612C89.5071 192.718 89.7356 192.872 89.9279 193.066C90.1201 193.26 90.2722 193.49 90.3755 193.743C90.4788 193.996 90.5313 194.267 90.53 194.54V195.05V199.18Z" fill="#0089DD"/>
<path d="M114 189.83H104.3C103.578 189.823 102.862 189.96 102.194 190.231C101.525 190.502 100.916 190.903 100.403 191.411C99.8902 191.918 99.4826 192.522 99.204 193.188C98.9254 193.854 98.7813 194.568 98.78 195.29V195.38V199.52V199.88C98.7747 201.334 99.3466 202.731 100.37 203.764C101.394 204.797 102.786 205.382 104.24 205.39L113.94 205.45C115.373 205.453 116.752 204.899 117.784 203.904C118.816 202.91 119.421 201.553 119.47 200.12V200V196V195.43C119.483 194.702 119.352 193.978 119.083 193.301C118.815 192.625 118.414 192.008 117.905 191.487C117.397 190.966 116.789 190.551 116.119 190.267C115.448 189.982 114.728 189.834 114 189.83V189.83ZM116 199.93C115.977 200.47 115.745 200.981 115.353 201.353C114.962 201.726 114.441 201.933 113.9 201.93L104.2 201.87C103.931 201.87 103.665 201.816 103.418 201.711C103.171 201.606 102.947 201.453 102.76 201.26C102.574 201.066 102.428 200.838 102.332 200.587C102.235 200.336 102.191 200.068 102.2 199.8V199.52V195.39V195.21C102.201 194.937 102.256 194.667 102.362 194.415C102.468 194.163 102.622 193.934 102.816 193.742C103.01 193.55 103.24 193.398 103.493 193.294C103.746 193.191 104.017 193.139 104.29 193.14L113.99 193.19C114.263 193.191 114.533 193.246 114.785 193.352C115.037 193.458 115.266 193.612 115.458 193.806C115.65 194 115.802 194.23 115.906 194.483C116.009 194.736 116.061 195.007 116.06 195.28V195.78L116 199.93Z" fill="#0089DD"/>
<path d="M156 199.08C155.982 199.615 155.757 200.122 155.373 200.495C154.989 200.868 154.475 201.078 153.94 201.08H153.87H153.05L149.63 200.97L144.88 200.82L141.48 200.73H140.84C140.317 200.694 139.828 200.46 139.47 200.077C139.113 199.694 138.914 199.189 138.914 198.665C138.914 198.141 139.113 197.636 139.47 197.253C139.828 196.87 140.317 196.636 140.84 196.6H141H141.55L144.97 196.69L149.72 196.84L153.12 196.95H154.05C154.32 196.956 154.585 197.017 154.831 197.128C155.077 197.24 155.297 197.4 155.479 197.599C155.662 197.798 155.802 198.032 155.891 198.286C155.981 198.541 156.018 198.811 156 199.08Z" fill="#046EA3"/>
<path d="M179.45 201.81L166.45 201.44C165.904 201.419 165.387 201.184 165.013 200.785C164.639 200.387 164.436 199.857 164.45 199.31V199.31C164.471 198.764 164.706 198.247 165.105 197.873C165.503 197.499 166.033 197.296 166.58 197.31L179.58 197.69C180.126 197.708 180.642 197.941 181.016 198.338C181.391 198.735 181.593 199.264 181.58 199.81C181.562 200.357 181.327 200.875 180.928 201.25C180.529 201.625 179.997 201.826 179.45 201.81V201.81Z" fill="#046EA3"/>
<path d="M139.5 190.58L129.78 190.52C128.326 190.517 126.931 191.09 125.899 192.113C124.866 193.136 124.281 194.527 124.27 195.98V196.07V200.22V200.57C124.266 201.291 124.404 202.005 124.677 202.672C124.949 203.339 125.35 203.946 125.857 204.457C126.364 204.969 126.968 205.376 127.632 205.654C128.297 205.933 129.01 206.077 129.73 206.08L139.43 206.14C140.862 206.141 142.239 205.584 143.267 204.587C144.296 203.59 144.896 202.232 144.94 200.8V200.68V196.68V196.1C144.948 194.647 144.38 193.251 143.36 192.216C142.341 191.182 140.953 190.593 139.5 190.58V190.58ZM141.5 200.66V200.71C141.477 201.249 141.246 201.757 140.857 202.13C140.467 202.503 139.949 202.711 139.41 202.71H129.71C129.157 202.707 128.628 202.486 128.239 202.094C127.849 201.703 127.63 201.173 127.63 200.62V200.36V196.21V196C127.629 195.728 127.681 195.459 127.785 195.208C127.889 194.957 128.041 194.729 128.234 194.537C128.427 194.345 128.655 194.194 128.907 194.091C129.159 193.989 129.428 193.937 129.7 193.94H139.42C139.97 193.945 140.495 194.168 140.881 194.56C141.267 194.951 141.483 195.48 141.48 196.03V196.54L141.5 200.66Z" fill="#0089DD"/>
<path d="M167.16 191.8C166.458 191.474 165.694 191.303 164.92 191.3L155.22 191.25C153.764 191.25 152.367 191.826 151.334 192.853C150.302 193.88 149.718 195.274 149.71 196.73V196.82V200.95V201.31C149.71 202.767 150.286 204.165 151.313 205.199C152.339 206.233 153.733 206.819 155.19 206.83H164.89C165.573 206.831 166.25 206.709 166.89 206.47C167.905 206.078 168.78 205.393 169.405 204.503C170.03 203.613 170.376 202.557 170.4 201.47C170.411 201.421 170.411 201.369 170.4 201.32V197.32V196.76C170.391 195.71 170.081 194.685 169.506 193.805C168.932 192.926 168.118 192.23 167.16 191.8V191.8ZM164.87 203.46L155.15 203.41C154.599 203.402 154.074 203.177 153.688 202.784C153.302 202.391 153.087 201.861 153.09 201.31V201.06V196.93V196.75C153.098 196.199 153.321 195.673 153.711 195.284C154.102 194.896 154.629 194.675 155.18 194.67L164.88 194.73C165.433 194.733 165.962 194.954 166.351 195.346C166.741 195.737 166.96 196.267 166.96 196.82V197.31V201.39V201.46C166.944 202.001 166.716 202.514 166.325 202.889C165.934 203.263 165.411 203.468 164.87 203.46V203.46Z" fill="#0089DD"/>
<path d="M204.93 202.55L191.93 202.17C191.383 202.152 190.865 201.917 190.49 201.518C190.115 201.119 189.914 200.587 189.93 200.04V200.04C189.948 199.493 190.183 198.975 190.582 198.6C190.981 198.225 191.513 198.024 192.06 198.04L205.06 198.41C205.606 198.431 206.123 198.666 206.497 199.065C206.871 199.463 207.074 199.993 207.06 200.54V200.54C207.042 201.088 206.808 201.607 206.409 201.983C206.01 202.36 205.478 202.563 204.93 202.55V202.55Z" fill="#999999"/>
<path d="M229.07 199.11L217.55 198.77C217.001 198.754 216.468 198.957 216.069 199.334C215.669 199.711 215.436 200.231 215.42 200.78C215.404 201.329 215.607 201.862 215.984 202.261C216.361 202.661 216.881 202.894 217.43 202.91L228.65 203.24C228.79 201.86 228.92 200.48 229.07 199.11Z" fill="#999999"/>
<path d="M195.86 196.45C195.566 195.031 194.721 193.786 193.51 192.99C193.234 192.803 192.943 192.639 192.64 192.5C191.974 192.211 191.256 192.061 190.53 192.06L182.23 192.01H180.83C179.375 192.005 177.977 192.576 176.942 193.6C175.907 194.623 175.321 196.015 175.31 197.47V197.56V201.71V202C175.307 202.817 175.485 203.624 175.831 204.364C176.177 205.104 176.682 205.758 177.31 206.28C178.281 207.088 179.507 207.527 180.77 207.52H182.86H190.46C191.835 207.528 193.162 207.017 194.177 206.091C195.193 205.164 195.822 203.89 195.94 202.52C195.949 202.4 195.949 202.28 195.94 202.16V202.01V198.26V197.42C195.94 197.095 195.913 196.771 195.86 196.45V196.45ZM192.56 198.45V201.38V202.24C192.552 202.712 192.383 203.168 192.081 203.531C191.779 203.895 191.363 204.145 190.9 204.24C190.76 204.251 190.62 204.251 190.48 204.24H185.15H182.29H180.77C180.22 204.235 179.695 204.012 179.309 203.62C178.923 203.229 178.707 202.7 178.71 202.15V201.89V197.75V197.56C178.713 197.288 178.769 197.019 178.875 196.769C178.982 196.519 179.136 196.292 179.33 196.102C179.524 195.912 179.754 195.761 180.006 195.66C180.258 195.558 180.528 195.507 180.8 195.51H187.28H190.5C190.72 195.508 190.938 195.552 191.14 195.64C191.563 195.774 191.93 196.041 192.188 196.402C192.446 196.762 192.58 197.197 192.57 197.64L192.56 198.45Z" fill="#CCCCCC"/>
<path d="M219.62 194.23C218.624 193.3 217.313 192.782 215.95 192.78H215.13H212.56H206.25C205.938 192.777 205.627 192.804 205.32 192.86C205.201 192.869 205.083 192.892 204.97 192.93L204.65 193L204.48 193.06C204.278 193.123 204.084 193.206 203.9 193.31V193.31C203.296 193.567 202.752 193.945 202.3 194.42C201.301 195.432 200.74 196.797 200.74 198.22V198.31V202.44V202.81C200.73 204.225 201.272 205.588 202.25 206.61C202.762 207.143 203.375 207.569 204.053 207.863C204.731 208.156 205.461 208.312 206.2 208.32H212.26H215.39H215.9C217.175 208.32 218.409 207.875 219.39 207.06C220.006 206.571 220.504 205.951 220.85 205.246C221.196 204.54 221.381 203.766 221.39 202.98C221.4 202.934 221.4 202.886 221.39 202.84V198.84V198.28C221.397 197.518 221.242 196.764 220.937 196.066C220.632 195.368 220.183 194.742 219.62 194.23V194.23ZM217.73 203.79C217.564 204.14 217.299 204.434 216.969 204.636C216.639 204.838 216.257 204.94 215.87 204.93H212.29H206.18C205.631 204.927 205.105 204.709 204.716 204.321C204.326 203.934 204.105 203.409 204.1 202.86V202.58V198.52V198.27C204.09 198.197 204.09 198.123 204.1 198.05C204.11 197.835 204.165 197.624 204.26 197.43V197.43C204.431 197.073 204.699 196.771 205.033 196.559C205.367 196.346 205.754 196.233 206.15 196.23H206.95H212.41H215.85C216.023 196.227 216.195 196.251 216.36 196.3C216.803 196.415 217.196 196.674 217.476 197.036C217.757 197.397 217.909 197.842 217.91 198.3V200V202.84V202.91C217.92 203.213 217.858 203.515 217.73 203.79V203.79Z" fill="#CCCCCC"/>
<path d="M127.16 106.7C123.331 106.703 119.66 108.225 116.952 110.932C114.245 113.64 112.723 117.311 112.72 121.14V127.55C112.718 128.021 112.742 128.492 112.79 128.96C113.081 131.932 114.287 134.741 116.241 136.999C118.195 139.257 120.801 140.854 123.7 141.57C124.256 141.708 124.821 141.812 125.39 141.88C125.977 141.957 126.568 141.994 127.16 141.99C127.739 141.994 128.317 141.957 128.89 141.88C129.466 141.813 130.037 141.71 130.6 141.57C133.493 140.857 136.095 139.266 138.048 137.015C140.002 134.765 141.211 131.965 141.51 129C141.558 128.528 141.582 128.054 141.58 127.58V121.17C141.585 117.339 140.069 113.663 137.365 110.95C134.661 108.237 130.991 106.708 127.16 106.7ZM136.16 120.3C136.197 120.578 136.214 120.859 136.21 121.14V127.55C136.209 129.162 135.78 130.745 134.966 132.136C134.153 133.528 132.984 134.678 131.58 135.47C130.197 136.246 128.635 136.647 127.05 136.633C125.464 136.619 123.909 136.191 122.54 135.39C121.172 134.589 120.036 133.444 119.247 132.069C118.457 130.694 118.041 129.136 118.04 127.55V121.14C118.04 120.83 118.04 120.52 118.09 120.21C118.315 117.978 119.359 115.908 121.019 114.399C122.68 112.891 124.84 112.051 127.084 112.041C129.328 112.031 131.495 112.852 133.169 114.346C134.843 115.839 135.905 117.9 136.15 120.13C136.168 120.185 136.182 120.242 136.19 120.3H136.16Z" fill="#0089DD"/>
<path d="M141.58 121.71V127.55C141.582 128.024 141.558 128.498 141.51 128.97C141.217 131.94 140.01 134.747 138.056 137.003C136.103 139.259 133.498 140.855 130.6 141.57C130.037 141.71 129.466 141.813 128.89 141.88C128.317 141.957 127.739 141.994 127.16 141.99C126.568 141.994 125.977 141.957 125.39 141.88C124.821 141.812 124.256 141.708 123.7 141.57C120.807 140.857 118.205 139.266 116.252 137.015C114.298 134.765 113.089 131.965 112.79 129C112.742 128.532 112.718 128.061 112.72 127.59V121.82C114.48 121.149 116.284 120.601 118.12 120.18V120.25C118.12 120.56 118.07 120.87 118.07 121.18V127.59C118.03 128.808 118.235 130.023 118.673 131.16C119.111 132.298 119.774 133.335 120.622 134.212C121.469 135.088 122.485 135.785 123.607 136.26C124.729 136.736 125.936 136.981 127.155 136.981C128.374 136.981 129.581 136.736 130.703 136.26C131.825 135.785 132.841 135.088 133.688 134.212C134.536 133.335 135.199 132.298 135.637 131.16C136.075 130.023 136.28 128.808 136.24 127.59V121.18C136.244 120.899 136.227 120.618 136.19 120.34C136.195 120.283 136.195 120.227 136.19 120.17C138.02 120.56 139.82 121.075 141.58 121.71V121.71Z" fill="#0089DD"/>
<path d="M146.62 138.19V154.79C146.62 155.358 146.508 155.921 146.29 156.446C146.072 156.97 145.753 157.447 145.351 157.848C144.949 158.25 144.472 158.568 143.946 158.784C143.421 159.001 142.858 159.111 142.29 159.11H112C111.432 159.111 110.869 159.001 110.344 158.784C109.818 158.568 109.341 158.25 108.939 157.848C108.537 157.447 108.218 156.97 108 156.446C107.782 155.921 107.67 155.358 107.67 154.79V138.19C107.67 137.816 107.69 137.442 107.73 137.07C107.766 136.704 107.823 136.34 107.9 135.98C107.968 135.642 108.055 135.308 108.16 134.98C108.16 134.81 108.27 134.65 108.33 134.48C108.39 134.31 108.49 134.06 108.58 133.85C108.67 133.64 108.84 133.3 108.98 133.03C109.15 132.72 109.35 132.41 109.54 132.13C109.73 131.85 109.93 131.58 110.14 131.32C110.347 131.065 110.567 130.821 110.8 130.59V130.54C111.37 129.978 112 129.482 112.68 129.06C114.268 128.064 116.087 127.496 117.96 127.41H136.13C138.925 127.548 141.56 128.754 143.491 130.779C145.423 132.803 146.503 135.492 146.51 138.29L146.62 138.19Z" fill="#046EA3"/>
<path d="M146.62 147.38V154.79C146.62 155.358 146.508 155.921 146.29 156.445C146.072 156.97 145.753 157.447 145.351 157.848C144.949 158.25 144.472 158.568 143.946 158.784C143.421 159.001 142.858 159.111 142.29 159.11H112C111.432 159.111 110.869 159.001 110.344 158.784C109.818 158.568 109.341 158.25 108.939 157.848C108.537 157.447 108.218 156.97 108 156.445C107.782 155.921 107.67 155.358 107.67 154.79V138.19C107.67 137.816 107.69 137.442 107.73 137.07C107.766 136.704 107.823 136.34 107.9 135.98C107.968 135.642 108.055 135.308 108.16 134.98C108.16 134.81 108.27 134.65 108.33 134.48C108.39 134.31 108.49 134.06 108.58 133.85C108.67 133.64 108.84 133.3 108.98 133.03C109.15 132.72 109.35 132.41 109.54 132.13C109.73 131.85 109.93 131.58 110.14 131.32C110.347 131.065 110.567 130.821 110.8 130.59V130.54C110.31 139.54 114.91 149.26 123.2 151.73C124.38 152.082 125.6 152.281 126.83 152.32C128.203 152.373 129.578 152.356 130.95 152.27C136.503 151.99 141.894 150.307 146.62 147.38V147.38Z" fill="#0089DD"/>
<path d="M125.76 140.16L123.01 153.05H131.24L128.53 140.16H125.76Z" fill="white"/>
<path d="M127.15 142.93C129.945 142.93 132.21 140.665 132.21 137.87C132.21 135.075 129.945 132.81 127.15 132.81C124.355 132.81 122.09 135.075 122.09 137.87C122.09 140.665 124.355 142.93 127.15 142.93Z" fill="white"/>
<path d="M44.7 214.26H43.15V214.57H44.7V214.26Z" fill="#0089DD"/>
<path d="M205.72 214.25V214.56H208.87V214.25H205.72ZM199.41 214.25V214.56H202.55V214.25H199.41ZM193.09 214.25V214.56H196.24V214.25H193.09ZM186.78 214.25V214.56H189.93V214.25H186.78ZM180.46 214.25V214.56H183.61V214.25H180.46ZM174.15 214.25V214.56H177.3V214.25H174.15ZM167.83 214.25V214.56H171V214.25H167.83ZM161.52 214.25V214.56H164.67V214.25H161.52ZM155.2 214.25V214.56H158.35V214.25H155.2ZM148.89 214.25V214.56H152V214.25H148.89ZM142.57 214.25V214.56H145.72V214.25H142.57ZM136.26 214.25V214.56H139.43V214.25H136.26ZM129.95 214.25V214.56H133.11V214.25H129.95ZM123.63 214.25V214.56H126.8V214.25H123.63ZM117.32 214.25V214.56H120.48V214.25H117.32ZM111 214.25V214.56H114.17V214.25H111ZM104.69 214.25V214.56H107.85V214.25H104.69ZM98.37 214.25V214.56H101.54V214.25H98.37ZM92.06 214.25V214.56H95.22V214.25H92.06ZM85.74 214.25V214.56H88.91V214.25H85.74ZM79.43 214.25V214.56H82.59V214.25H79.43ZM73.11 214.25V214.56H76.28V214.25H73.11ZM66.8 214.25V214.56H70V214.25H66.8ZM60.48 214.25V214.56H63.65V214.25H60.48ZM54.17 214.25V214.56H57.34V214.25H54.17ZM47.85 214.25V214.56H51V214.25H47.85Z" fill="#0089DD"/>
<path d="M213.58 214.26H212.03V214.57H213.58V214.26Z" fill="#0089DD"/>
<path d="M107.761 34.8608L107.748 35.1705L109.297 35.2354L109.31 34.9257L107.761 34.8608Z" fill="#0089DD"/>
<path d="M103.74 34.69L101.3 34.6V34.77V34.91L103.78 35H104.54V34.69H103.74ZM94.86 34.33V34.49V34.64L98.08 34.77V34.62V34.46L94.86 34.33ZM88.4 34.06V34.22V34.37L91.64 34.49V34.18L88.4 34.06ZM82 33.78V33.95V34.09L85.22 34.24V34.08V33.91L82 33.78ZM75.54 33.51V33.82L78.76 33.97V33.66L75.54 33.51ZM69.1 33.24V33.4V33.55L72.32 33.69V33.53V33.38L69.1 33.24ZM62.59 33V33.32L65.82 33.45V33.14L62.59 33ZM56.15 32.74V32.89V33.05L59.38 33.18V32.87L56.15 32.74ZM49.69 32.47V32.78L52.91 32.9V32.74V32.59L49.69 32.47Z" fill="#0089DD"/>
<path d="M44.9322 32.2356L44.9193 32.5453L46.4679 32.6102L46.4809 32.3005L44.9322 32.2356Z" fill="#0089DD"/>
<path d="M27.0661 92.15L26.6272 93.6365L26.9245 93.7243L27.3634 92.2378L27.0661 92.15Z" fill="#0089DD"/>
<path d="M28.87 86L28 89.09L28.31 89.16L29.22 86.1L28.87 86ZM30.69 79.87L30.44 80.72L29.78 82.93L30.09 83.02L30.77 80.76L31 80L30.69 79.87ZM32.51 73.72L31.6 76.8L31.91 76.89L32.81 73.82L32.51 73.72ZM34.33 67.59L33.42 70.66L33.72 70.73L34.63 67.73L34.33 67.59ZM36.15 61.45L35.24 64.51L35.54 64.6L36.45 61.53L36.15 61.45ZM38 55.31L37.09 58.39L37.38 58.48L38.29 55.4L38 55.31ZM39.8 49.18L38.91 52.25L39.2 52.35L40.11 49.27L39.8 49.18ZM41.62 43.05L40.71 46.1L41.02 46.2L41.93 43.14L41.62 43.05ZM43.44 36.9L43.33 37.3L43 38.37L42.5 40L42.81 40.09L43.32 38.36L43.58 37.53L43.72 37.02L43.44 36.9Z" fill="#0089DD"/>
<path d="M44.7721 32.3482L44.3329 33.8347L44.6302 33.9226L45.0694 32.4361L44.7721 32.3482Z" fill="#0089DD"/>
<path d="M4.93794 144.508L4.68759 144.691L5.60172 145.943L5.85207 145.76L4.93794 144.508Z" fill="#0089DD"/>
<path d="M38.43 190.38L37.94 189.7L37.81 189.52L37.59 189.68L37.92 190.14L39 191.65L39.29 192.06L39.42 192.24L39.67 192.06L38.43 190.38ZM35.52 186.38L34.04 184.38L33.79 184.56L35.28 186.56L35.68 187.13L35.92 186.95L35.52 186.38ZM30.29 179.23L30.04 179.41L31.91 182L32.17 181.82L30.29 179.23ZM26.53 174.08L26.27 174.26L28.15 176.83L28.4 176.65L26.53 174.08ZM24.43 171.2L22.76 168.93L22.52 169.11L24.14 171.33L24.4 171.68L24.65 171.5L24.43 171.2ZM19 163.79L18.75 163.97L20.62 166.54L20.88 166.36L19 163.79ZM15.23 158.64L14.98 158.82L16.87 161.39L17.13 161.21L15.23 158.64ZM11.49 153.49L11.23 153.67L13.1 156.24L13.36 156.06L11.49 153.49ZM8.00001 148.74L7.71001 148.34L7.45001 148.52L7.69001 148.83L9.35001 151.09L9.58001 150.91L8.00001 148.74Z" fill="#0089DD"/>
<path d="M41.5647 194.677L41.3143 194.86L42.2282 196.112L42.4786 195.929L41.5647 194.677Z" fill="#0089DD"/>
<path d="M23.553 100.648L22.9411 102.072L23.226 102.194L23.8378 100.77L23.553 100.648Z" fill="#0089DD"/>
<path d="M7.64001 137.64L7.26001 138.51L6.45001 140.39L6.75001 140.5L7.60001 138.5L7.93001 137.74L7.64001 137.64ZM10 132.18L8.83001 134.91L9.10001 135.04L10.29 132.29L10 132.18ZM12.36 126.7L11.18 129.43L11.47 129.56L12.63 126.83L12.36 126.7ZM14.71 121.22L13.52 124L13.81 124.11L15 121.35L14.71 121.22ZM17.06 115.77L15.89 118.5L16.16 118.62L17.35 115.87L17.06 115.77ZM19.42 110.29L18.23 113L18.52 113.12L19.7 110.4L19.42 110.29ZM21.77 104.81V104.9V104.96L20.83 107L20.61 107.53L20.89 107.64L21.2 106.91L22.07 104.91L21.77 104.81Z" fill="#0089DD"/>
<path d="M5.27394 143.118L4.66183 144.542L4.94664 144.665L5.55874 143.241L5.27394 143.118Z" fill="#0089DD"/>
<path d="M123.71 243.26L122.25 242.73L122.36 242.44L123.82 242.97L123.71 243.26Z" fill="#0089DD"/>
<path d="M119.35 241.35L119.15 241.28C119.15 241.28 119.06 241.28 119.01 241.22L116.84 240.44L116.44 240.29L116.33 240.58L116.99 240.82L119.3 241.66L119.41 241.37L119.35 241.35ZM112.93 239L110.51 238.13L110.42 238.42L112.93 239.33L113.37 239.49L113.48 239.2L112.93 239ZM104.6 236L104.49 236.29L107.49 237.36L107.6 237.07L104.6 236ZM98.68 233.85L98.57 234.14L101.57 235.22L101.66 234.92L98.68 233.85ZM92.75 231.72L92.66 232.01L95.66 233.09L95.77 232.8L92.75 231.72ZM86.83 229.57L86.73 229.87L89.73 230.94L89.84 230.65L86.83 229.57ZM80.92 227.43L80.81 227.72L83.81 228.79L83.9 228.5L80.92 227.43ZM75 225.28L74.91 225.57L77.86 226.64L77.96 226.35L75 225.28ZM69.08 223.13L68.97 223.42L71.97 224.5L72.08 224.21L69.08 223.13ZM63.16 221L63.05 221.29L66.05 222.36L66.14 222.07L63.16 221ZM57.23 218.85L57.12 219.14L60.12 220.21L60.23 219.92L57.23 218.85ZM51.31 216.7L51.2 216.99L54.2 218.07L54.31 217.77L51.31 216.7ZM45.4 214.57L45.29 214.86L48.29 215.94L48.4 215.63L45.4 214.57ZM41.59 213.19L39.47 212.42L39.36 212.72L41.3 213.42L42.3 213.79L42.41 213.5L41.59 213.19ZM35.66 211L33.55 210.24L33.44 210.53L35.66 211.33L36.41 211.6L36.52 211.31L35.66 211Z" fill="#0089DD"/>
<path d="M29.1299 208.674L29.0242 208.965L30.4813 209.494L30.587 209.202L29.1299 208.674Z" fill="#0089DD"/>
<path d="M203.733 33.9134L202.183 33.9289L202.186 34.2389L203.736 34.2234L203.733 33.9134Z" fill="#0089DD"/>
<path d="M133.13 34.88H130.13V35.19H133.13V34.88ZM138.32 34.88H136.13V35.19H138.37H139.13V34.88H138.32ZM142.14 34.88V35.19H145.14V34.89L142.14 34.88ZM148.14 34.88V35.21H151.14V34.9L148.14 34.88ZM154.14 34.88V35H157.14V34.69L154.14 34.88ZM160.14 34.83V35.14H163.14V34.83H160.14ZM166.14 34.83V35.14H169.14V34.6L166.14 34.83ZM172.14 34.83V35.14H175.14V34.83H172.14ZM178.14 34.83V35.14H181.14V34.83H178.14ZM187.14 34.76H184.14V35.07H187.14V34.76ZM190.14 34.76V35.07H193.14V34.4L190.14 34.76ZM197.14 34.7H196.14V35.01H199.14V34.7H197.14Z" fill="#0089DD"/>
<path d="M127.14 34.9204L125.59 34.9326L125.593 35.2425L127.143 35.2304L127.14 34.9204Z" fill="#0089DD"/>
<path d="M218.925 93.8815L218.624 93.9579L219.006 95.4601L219.307 95.3836L218.925 93.8815Z" fill="#0089DD"/>
<path d="M217.37 87.78L217.08 87.87L217.84 90.87L218.15 90.79L217.37 87.78ZM215.82 81.68L215.51 81.75L216.29 84.81L216.6 84.74L215.82 81.68ZM214.27 75.58L213.96 75.66L214.75 78.66L215.04 78.59L214.27 75.58ZM213.27 71.58L212.75 69.45L212.44 69.52L212.95 71.52L213.22 72.52L213.51 72.45L213.27 71.58ZM211.18 63.35L210.89 63.42L211.65 66.48L211.96 66.41L211.18 63.35ZM209.63 57.26L209.34 57.33L210.11 60.39L210.42 60.29L209.63 57.26ZM208.09 51.16L207.78 51.23L208.56 54.29L208.87 54.2L208.09 51.16ZM206.54 45.06L206.23 45.14L207.01 48.14L207.31 48.06L206.54 45.06ZM205.07 39.29L205 39L204.7 39.07L204.79 39.4L205.48 42.11L205.77 42.04L205.07 39.29Z" fill="#0089DD"/>
<path d="M203.809 34.44L203.509 34.5164L203.891 36.0186L204.191 35.9422L203.809 34.44Z" fill="#0089DD"/>
<path d="M243.96 139.148L243.69 139.3L244.451 140.651L244.721 140.499L243.96 139.148Z" fill="#0089DD"/>
<path d="M241 133.82L240.8 133.47L240.53 133.62L240.62 133.78L242.13 136.46L242.4 136.29L241 133.82ZM239.11 130.47L237.62 127.81L237.34 127.98L238.8 130.54L238.94 130.8L239.22 130.65L239.11 130.47ZM234.43 122.15L234.16 122.32L235.76 125.14L236 125L234.43 122.15ZM231.25 116.49L230.97 116.66L232.56 119.48L232.83 119.33L231.25 116.49ZM229.25 113.04L228 110.85L227.75 111L229.22 113.64L229.33 113.82L229.6 113.67L229.25 113.04ZM224.83 105.19L224.56 105.34L226.16 108.16L226.43 108.01L224.83 105.19ZM222.06 100.28L221.64 99.53L221.37 99.68L221.93 100.68L222.93 102.52L223.21 102.35L222.06 100.28Z" fill="#0089DD"/>
<path d="M219.29 95.3475L219.02 95.4996L219.781 96.85L220.051 96.6978L219.29 95.3475Z" fill="#0089DD"/>
<path d="M204.826 192.07L203.881 193.299L204.127 193.488L205.072 192.259L204.826 192.07Z" fill="#0089DD"/>
<path d="M208.51 187.26L206.98 189.26L206.67 189.66L206.92 189.84L207.34 189.29L208.76 187.44L208.51 187.26ZM212.2 182.46L210.36 184.86L210.6 185.04L212.44 182.66L212.2 182.46ZM215.87 177.67L214 180.06L214.25 180.26L216.09 177.86L215.87 177.67ZM219.57 172.87L217.73 175.27L217.97 175.45L219.81 173.05L219.57 172.87ZM223.25 168.07L221.41 170.47L221.66 170.67L223.5 168.27L223.25 168.07ZM226.94 163.28L225.1 165.68L225.34 165.86L227.18 163.46L226.94 163.28ZM230.62 158.48L228.78 160.88L229.03 161.08L230.87 158.68L230.62 158.48ZM234.31 153.69L232.47 156.09L232.71 156.27L234.55 153.87L234.31 153.69ZM237.99 148.89L236.15 151.29L236.4 151.47L238.24 149.09L237.99 148.89ZM241.84 144.23L241.68 144.1L241.48 144.37L239.84 146.48L240.08 146.68L241.92 144.28L241.84 144.23Z" fill="#0089DD"/>
<path d="M244.464 140.475L243.519 141.704L243.765 141.893L244.71 140.664L244.464 140.475Z" fill="#0089DD"/>
<path d="M26.9201 93.7973L26.6132 93.8438L26.8457 95.3783L27.1526 95.3318L26.9201 93.7973Z" fill="#0089DD"/>
<path d="M41.5 189.39L41.36 188.48L41.05 188.53L41.12 188.99V189L41.5 191.47L41.81 191.42L41.5 189.39ZM40.68 184L40.45 182.38L40.14 182.44L40.36 183.84L40.59 185.44H40.9L40.68 184ZM39.68 177.65L39.48 176.38H39.17L39.28 177.07L39.64 179.4L39.94 179.34L39.68 177.65ZM38.84 172.18L38.57 170.36H38.26L38.62 172.76L38.72 173.36H39.03L38.84 172.18ZM37.66 164.35H37.35L37.81 167.35L38.12 167.29L37.66 164.35ZM36.73 158.35H36.42L36.9 161.35H37.19L36.73 158.35ZM35.82 152.35L35.51 152.41L35.97 155.41H36.28L35.82 152.35ZM34.91 146.35H34.6L35.06 149.35H35.37L34.91 146.35ZM33.98 140.35L33.68 140.41L34.15 143.41L34.44 143.36L33.98 140.35ZM33.07 134.35H32.77L33.22 137.35H33.53L33.07 134.35ZM32.16 128.35H31.86L32.31 131.35L32.62 131.3L32.16 128.35ZM31.24 122.35L30.93 122.41L31.4 125.41H31.69L31.24 122.35ZM30.33 116.35H30.02L30.47 119.35H30.78L30.33 116.35ZM29.42 110.35L29.11 110.41L29.56 113.41L29.87 113.36L29.42 110.35ZM28.49 104.35L28.18 104.4L28.65 107.4H28.94L28.49 104.35ZM27.58 98.35H27.27L27.72 101.35L28.03 101.3L27.58 98.35Z" fill="#0089DD"/>
<path d="M42.2 196.05L41.97 194.51L42.27 194.47L42.51 196L42.2 196.05Z" fill="#0089DD"/>
<path d="M218.033 94.8535L217.816 96.3882L218.123 96.4316L218.34 94.8969L218.033 94.8535Z" fill="#0089DD"/>
<path d="M205 190.83L204.86 191.83L204.8 192.07L204.71 192.69V192.89L204.58 193.8H204.89L205.03 192.8L205.13 192.25L205.34 190.8L205 190.83ZM205.9 184.83L205.53 187.25L205.44 187.85H205.75L205.86 187.05L206.19 184.83H205.9ZM206.79 178.77L206.5 180.66V180.88L206.37 181.77L206.68 181.83L206.77 181.15V180.92L207.08 178.81L206.79 178.77ZM207.66 172.71L207.22 175.71L207.53 175.77L207.97 172.77L207.66 172.71ZM208.55 166.65L208.12 169.65L208.43 169.71L208.86 166.71L208.55 166.65ZM209.45 160.59L209.01 163.59L209.32 163.65L209.75 160.65L209.45 160.59ZM210.34 154.53L209.9 157.53H210.21L210.65 154.53H210.34ZM211.23 148.47L210.79 151.47H211.1L211.54 148.47H211.23ZM212.12 142.41L211.68 145.41H211.99L212.43 142.41H212.12ZM213.01 136.35L212.57 139.35H212.88L213.32 136.35H213.01ZM213.9 130.29L213.47 133.29H213.76L214.21 130.29H213.9ZM214.8 124.23L214.36 127.23H214.65L215.1 124.23H214.8ZM215.69 118.23L215.25 121.23H215.54L216 118.23H215.69ZM216.58 112.17L216.12 115.17H216.43L216.89 112.17H216.58ZM217.47 106.11L217.02 109.11L217.32 109.17L217.78 106.17L217.47 106.11ZM218.36 100.05L217.91 103.05L218.22 103.11L218.67 100.11L218.36 100.05Z" fill="#0089DD"/>
<path d="M204.079 196.909L203.855 198.443L204.161 198.488L204.386 196.954L204.079 196.909Z" fill="#0089DD"/>
<path d="M117.498 34.9591L117.339 35.2257L118.673 36.0166L118.831 35.75L117.498 34.9591Z" fill="#0089DD"/>
<path d="M212.54 91.33L212.38 91.58L215.06 93.18L215.22 92.91L212.54 91.33ZM207.19 88.14L207.03 88.41L209.71 90L209.87 89.74L207.19 88.14ZM201.83 85L201.68 85.26L204.36 86.86L204.5 86.59L201.83 85ZM196.48 81.82L196.31 82.09L196.46 82.18L198.99 83.68L199.15 83.42L196.48 81.82ZM191.13 78.65L190.96 78.91L193.64 80.51L193.8 80.24L191.13 78.65ZM185.76 75.47L185.61 75.74L188.29 77.33L188.45 77.05L185.76 75.47ZM180.41 72.3L180.24 72.56L182.94 74.16L183.08 73.89L180.41 72.3ZM175.06 69.12L174.89 69.39L177.57 70.97L177.73 70.7L175.06 69.12ZM169.71 65.95L169.54 66.21L172.22 67.81L172.38 67.53L169.71 65.95ZM164.34 62.77L164.19 63.04L166.87 64.62L167.01 64.35L164.34 62.77ZM159 59.57L158.84 59.83L161.51 61.43L161.67 61.15L159 59.57ZM153.65 56.39L153.48 56.66L156.16 58.24L156.32 57.97L153.65 56.39ZM148.3 53.22L148.13 53.47L150.81 55.06L150.97 54.8L148.3 53.22ZM142.92 50L142.77 50.28L145.45 51.86L145.59 51.59L142.92 50ZM139.21 47.8L137.57 46.8L137.41 47.05L139.19 48.11L140.08 48.64L140.25 48.38L139.21 47.8ZM132.21 43.65L132.05 43.93L134.72 45.51L134.88 45.24L132.21 43.65ZM128.5 41.45L127.88 41.09L126.88 40.47L126.74 40.74L127.74 41.36L129.38 42.36L129.47 42.21L129.54 42.1L128.5 41.45ZM123.89 38.72L121.49 37.3L121.33 37.58L123.78 39L124.03 39.15L124.18 38.88L123.89 38.72Z" fill="#0089DD"/>
<path d="M219.07 95.56L217.74 94.77L217.9 94.5L219.23 95.29L219.07 95.56Z" fill="#0089DD"/>
<path d="M24.8804 99.6811L23.6116 100.571L23.7897 100.825L25.0585 99.9348L24.8804 99.6811Z" fill="#0089DD"/>
<path d="M30.09 96L29.17 96.65L27.49 97.84L27.66 98.09L29.15 97.09L30.28 96.3L30.09 96ZM35.3 92.4L32.7 94.22L32.88 94.47L35.48 92.65L35.3 92.4ZM40.5 88.76L37.9 90.58L38.08 90.83L40.68 89L40.5 88.76ZM45.73 85.1L43.1 86.92L43.29 87.18L45.89 85.36L45.73 85.1ZM50.93 81.46L50.66 81.64L48.33 83.28L48.51 83.54L50.66 82L51.11 81.67L50.93 81.46ZM56.13 77.8L53.53 79.62L53.71 79.88L56.32 78.06L56.13 77.8ZM61.34 74.17L58.74 76L58.92 76.26L61.52 74.44L61.34 74.17ZM66.56 70.51L64 72.33L64.16 72.58L66.78 70.76L66.56 70.51ZM71.77 66.87L69.16 68.69L69.35 68.94L72 67.12L71.77 66.87ZM77 63.21L74.37 65L74.55 65.25L77.15 63.43L77 63.21ZM82.22 59.57L79.6 61.39L79.79 61.65L82.39 59.83L82.22 59.57ZM87.43 55.91L84.83 57.73L85 58L87.6 56.18L87.43 55.91ZM92.63 52.27L90 54.09L90.18 54.35L92.79 52.53L92.63 52.27ZM97.84 48.62L95.24 50.44L95.42 50.69L98 48.87L97.84 48.62ZM103 45L100.4 46.82L100.56 47.07L103.18 45.25L103 45ZM108.2 41.34L106.57 42.48L105.57 43.16L105.75 43.41L106.75 42.72L108.37 41.59L108.2 41.34ZM113.41 37.7L112.75 38.15L111.75 38.9L110.86 39.52L111.04 39.77L111.91 39.15L113.06 38.35L113.64 37.95L113.41 37.7Z" fill="#0089DD"/>
<path d="M116.23 36.1L116.05 35.85L117.32 34.96L117.5 35.21L116.23 36.1Z" fill="#0089DD"/>
<path d="M125.21 242.521L123.725 242.967L123.814 243.264L125.299 242.818L125.21 242.521Z" fill="#0089DD"/>
<path d="M131 240.77L128.09 241.64L128.18 241.95L131.09 241.08L131 240.77ZM136.82 239.04L133.91 239.89L134 240.2L136.89 239.33L136.82 239.04ZM142.63 237.29L139.73 238.16L139.8 238.46L142.72 237.58L142.63 237.29ZM148.45 235.54L145.54 236.42L145.63 236.71L148.54 235.83L148.45 235.54ZM154.27 233.8L151.36 234.67L151.45 234.96L154.36 234.09L154.27 233.8ZM160.1 232.05L157.18 232.92L157.27 233.21L160.19 232.34L160.1 232.05ZM166 230.3L163.09 231.18L163.18 231.47L166.09 230.59L166 230.3ZM171.82 228.56L168.91 229.43L169 229.72L171.91 228.85L171.82 228.56ZM177.65 226.81L174.73 227.68L174.82 227.97L177.74 227.1L177.65 226.81ZM183.47 225.06L180.56 225.93L180.65 226.23L183.56 225.35L183.47 225.06ZM189.29 223.31L186.38 224.19L186.47 224.48L189.38 223.61L189.29 223.31ZM195.12 221.57L192.2 222.44L192.29 222.75L195.19 221.88L195.12 221.57ZM200.92 219.82L198.01 220.69L198.1 221L201.01 220.13L200.92 219.82ZM206.74 218.07L203.83 218.95L203.92 219.26L206.83 218.38L206.74 218.07ZM212.57 216.33L212.09 216.47L209.65 217.2L209.75 217.51L212.08 216.8L212.66 216.64L212.57 216.33Z" fill="#0089DD"/>
<path d="M215.53 215.76L215.44 215.46L216.93 215.02L217.02 215.31L215.53 215.76Z" fill="#0089DD"/>
<path d="M35.07 116.39L50.06 109.63L50.81 74.46L35.83 81.22L35.07 116.39Z" fill="#046EA3"/>
<path d="M35.83 81.22L50.81 74.46L17.42 71.46L2.42999 78.22L35.83 81.22Z" fill="#06A7F7"/>
<path d="M2.42999 78.22L1.67999 113.39L35.07 116.39L35.83 81.22L2.42999 78.22Z" fill="#0089DD"/>
<path d="M229.18 116.39L244.16 109.63L244.92 74.46L229.94 81.22L229.18 116.39Z" fill="#046EA3"/>
<path d="M229.94 81.22L244.92 74.46L211.53 71.46L196.54 78.22L229.94 81.22Z" fill="#06A7F7"/>
<path d="M196.54 78.22L195.78 113.39L229.18 116.39L229.94 81.22L196.54 78.22Z" fill="#0089DD"/>
<path d="M48.59 41.86L54.45 39.22L54.75 25.47L48.89 28.12L48.59 41.86Z" fill="#046EA3"/>
<path d="M48.89 28.12L54.75 25.47L41.7 24.3L35.84 26.94L48.89 28.12Z" fill="#06A7F7"/>
<path d="M35.84 26.94L35.54 40.69L48.59 41.86L48.89 28.12L35.84 26.94Z" fill="#0089DD"/>
<rect x="38" y="30" width="8" height="8" rx="4" fill="white"/>
<path d="M42.1758 37.1484C41.7695 37.1484 41.3893 37.0833 41.0352 36.9531C40.681 36.8203 40.3724 36.6289 40.1094 36.3789C39.8516 36.1341 39.6484 35.832 39.5 35.4727C39.3516 35.1107 39.2773 34.7135 39.2773 34.2812C39.2773 33.8516 39.3516 33.4544 39.5 33.0898C39.651 32.7227 39.862 32.4049 40.1328 32.1367C40.3984 31.8737 40.7174 31.6706 41.0898 31.5273C41.4622 31.3815 41.8607 31.3086 42.2852 31.3086C42.5924 31.3086 42.8724 31.3464 43.125 31.4219C43.3776 31.4948 43.5911 31.5781 43.7656 31.6719L44.0078 31.457H44.3477L44.3828 33.4805H44.0391C43.8438 32.8633 43.6094 32.4102 43.3359 32.1211C43.0625 31.832 42.7292 31.6875 42.3359 31.6875C41.8464 31.6875 41.474 31.9036 41.2188 32.3359C40.9635 32.7656 40.8359 33.3698 40.8359 34.1484C40.8359 34.5885 40.8789 34.9648 40.9648 35.2773C41.0534 35.5872 41.168 35.8372 41.3086 36.0273C41.4596 36.2253 41.638 36.3711 41.8438 36.4648C42.0495 36.556 42.2773 36.6016 42.5273 36.6016C42.8919 36.6016 43.2161 36.5026 43.5 36.3047C43.7865 36.1068 44.0469 35.8073 44.2812 35.4062L44.6172 35.6094C44.5052 35.8385 44.3776 36.0443 44.2344 36.2266C44.0911 36.4062 43.9258 36.5612 43.7383 36.6914C43.5326 36.8346 43.3047 36.9466 43.0547 37.0273C42.8073 37.1081 42.5143 37.1484 42.1758 37.1484Z" fill="#046EA3"/>
<path d="M210.04 42.56L215.89 39.92L216.19 26.18L210.33 28.82L210.04 42.56Z" fill="#046EA3"/>
<path d="M210.33 28.82L216.19 26.18L203.14 25.01L197.28 27.65L210.33 28.82Z" fill="#06A7F7"/>
<path d="M197.28 27.65L196.99 41.39L210.04 42.56L210.33 28.82L197.28 27.65Z" fill="#0089DD"/>
<path d="M245.85 148.02L251.7 145.37L252 131.63L246.14 134.27L245.85 148.02Z" fill="#046EA3"/>
<path d="M246.14 134.27L252 131.63L238.95 130.46L233.09 133.1L246.14 134.27Z" fill="#06A7F7"/>
<path d="M233.09 133.1L232.8 146.84L245.85 148.02L246.14 134.27L233.09 133.1Z" fill="#0089DD"/>
<path d="M13.05 152.79L18.91 150.15L19.2 136.41L13.35 139.05L13.05 152.79Z" fill="#046EA3"/>
<path d="M13.35 139.05L19.2 136.41L6.14999 135.24L0.299988 137.88L13.35 139.05Z" fill="#06A7F7"/>
<path d="M0.3 137.88L0 151.62L13.05 152.79L13.35 139.05L0.3 137.88Z" fill="#0089DD"/>
<path d="M138.92 60.99L159.26 51.81L160.29 4.07001L139.95 13.25L138.92 60.99Z" fill="#046EA3"/>
<path d="M139.95 13.25L160.29 4.07L114.96 0L94.61 9.18L139.95 13.25Z" fill="#06A7F7"/>
<path d="M139.95 13.26L139.59 29.76V29.78L139.37 39.92L139.32 42.57L139.26 45.38L139.21 47.83L139.19 48.18L139.17 49.27L139.13 51.2L139.01 56.46V56.59L138.92 60.99L137.44 60.86L114.09 58.75L110.47 58.42L101.16 57.59L97.53 57.26L93.59 56.91L94.08 34.46L94.62 9.17999L139.95 13.26Z" fill="#0089DD"/>
<path d="M76.55 172.23L76.17 189.72L76.06 194.69L75.97 198.84L75.86 203.77L75.64 214.25L75.63 214.56L75.52 219.98L55.17 229.16L55.48 214.56L55.5 214.25L55.72 203.9L55.79 200.48L55.99 191.74L56.06 188.34L56.21 181.42L76.55 172.23Z" fill="#046EA3"/>
<path d="M76.55 172.23L56.21 181.42L50.91 180.95L45.45 180.46L45.11 180.42L43.96 180.31H43.94L41.01 180.06L10.88 177.35L24.14 171.34L24.43 171.21L31.2 168.16L40.41 168.99L44.05 169.3L53.35 170.14L56.97 170.47L76.55 172.23Z" fill="#06A7F7"/>
<path d="M10.87 177.34L9.84 225.08L55.17 229.16L56.2 181.41L10.87 177.34Z" fill="#0089DD"/>
<path d="M211.77 229.16L232.12 219.98L233.15 172.24L212.8 181.41L211.77 229.16Z" fill="#046EA3"/>
<path d="M233.15 172.23L212.8 181.42L206.74 180.88L206.58 180.86H206.43L201.77 180.42L200.79 180.35L196.68 179.97L167.47 177.35L187.81 168.16L189.58 168.32L193.53 168.67L203.85 169.59L207.87 169.96L233.15 172.23Z" fill="#06A7F7"/>
<path d="M212.8 181.42L212.78 182.55L212.65 187.97V188.03L212.56 192.76L212.49 196.18L212.47 196.44V196.46L212.42 199.24L212.36 202.21V202.22L212.34 203.08L212.29 204.92L212.22 208.34L212.09 214.25V214.56L212.05 216.47L212.03 216.8L211.78 229.16L166.43 225.08L166.83 206.52L166.94 201.46V201.39L167.03 197.31L167.16 191.8L167.47 177.35L196.68 179.97L200.79 180.35L201.77 180.42L206.43 180.86H206.58L206.74 180.88L212.8 181.42Z" fill="#0089DD"/>
<path d="M125.83 247.58L131.68 244.94L131.98 231.2L126.12 233.84L125.83 247.58Z" fill="#046EA3"/>
<path d="M126.12 233.84L131.98 231.2L118.93 230.02L113.07 232.67L126.12 233.84Z" fill="#06A7F7"/>
<path d="M113.07 232.67L112.78 246.41L125.83 247.58L126.12 233.84L113.07 232.67Z" fill="#0089DD"/>
<rect x="104" y="21" width="26" height="26" rx="13" fill="white"/>
<path d="M116.939 41.3711C115.924 41.3711 114.973 41.2083 114.088 40.8828C113.202 40.5508 112.431 40.0723 111.773 39.4473C111.129 38.8353 110.621 38.0801 110.25 37.1816C109.879 36.2767 109.693 35.2839 109.693 34.2031C109.693 33.1289 109.879 32.1361 110.25 31.2246C110.628 30.3066 111.155 29.5124 111.832 28.8418C112.496 28.1842 113.294 27.6764 114.225 27.3184C115.156 26.9538 116.152 26.7715 117.213 26.7715C117.981 26.7715 118.681 26.8659 119.312 27.0547C119.944 27.237 120.478 27.4453 120.914 27.6797L121.52 27.1426H122.369L122.457 32.2012H121.598C121.109 30.6582 120.523 29.5254 119.84 28.8027C119.156 28.0801 118.323 27.7188 117.34 27.7188C116.116 27.7188 115.185 28.2591 114.547 29.3398C113.909 30.4141 113.59 31.9245 113.59 33.8711C113.59 34.9714 113.697 35.9121 113.912 36.6934C114.133 37.4681 114.42 38.0931 114.771 38.5684C115.149 39.0632 115.595 39.4277 116.109 39.6621C116.624 39.89 117.193 40.0039 117.818 40.0039C118.73 40.0039 119.54 39.7565 120.25 39.2617C120.966 38.7669 121.617 38.0182 122.203 37.0156L123.043 37.5234C122.763 38.0964 122.444 38.6107 122.086 39.0664C121.728 39.5156 121.314 39.903 120.846 40.2285C120.331 40.5866 119.762 40.8665 119.137 41.0684C118.518 41.2702 117.786 41.3711 116.939 41.3711Z" fill="#046EA3"/>
<rect x="178" y="189" width="26" height="26" rx="13" fill="white"/>
<path d="M190.939 209.371C189.924 209.371 188.973 209.208 188.088 208.883C187.202 208.551 186.431 208.072 185.773 207.447C185.129 206.835 184.621 206.08 184.25 205.182C183.879 204.277 183.693 203.284 183.693 202.203C183.693 201.129 183.879 200.136 184.25 199.225C184.628 198.307 185.155 197.512 185.832 196.842C186.496 196.184 187.294 195.676 188.225 195.318C189.156 194.954 190.152 194.771 191.213 194.771C191.981 194.771 192.681 194.866 193.312 195.055C193.944 195.237 194.478 195.445 194.914 195.68L195.52 195.143H196.369L196.457 200.201H195.598C195.109 198.658 194.523 197.525 193.84 196.803C193.156 196.08 192.323 195.719 191.34 195.719C190.116 195.719 189.185 196.259 188.547 197.34C187.909 198.414 187.59 199.924 187.59 201.871C187.59 202.971 187.697 203.912 187.912 204.693C188.133 205.468 188.42 206.093 188.771 206.568C189.149 207.063 189.595 207.428 190.109 207.662C190.624 207.89 191.193 208.004 191.818 208.004C192.73 208.004 193.54 207.757 194.25 207.262C194.966 206.767 195.617 206.018 196.203 205.016L197.043 205.523C196.763 206.096 196.444 206.611 196.086 207.066C195.728 207.516 195.314 207.903 194.846 208.229C194.331 208.587 193.762 208.867 193.137 209.068C192.518 209.27 191.786 209.371 190.939 209.371Z" fill="#046EA3"/>
<rect x="8" y="87" width="21" height="21" rx="10.5" fill="white"/>
<path d="M19.1455 104.334C18.2314 104.334 17.376 104.188 16.5791 103.895C15.7822 103.596 15.0879 103.165 14.4961 102.603C13.916 102.052 13.459 101.372 13.125 100.563C12.791 99.749 12.624 98.8555 12.624 97.8828C12.624 96.916 12.791 96.0225 13.125 95.2021C13.4648 94.376 13.9395 93.6611 14.5488 93.0576C15.1465 92.4658 15.8643 92.0088 16.7021 91.6865C17.54 91.3584 18.4365 91.1943 19.3916 91.1943C20.083 91.1943 20.7129 91.2793 21.2812 91.4492C21.8496 91.6133 22.3301 91.8008 22.7227 92.0117L23.2676 91.5283H24.0322L24.1113 96.0811H23.3379C22.8984 94.6924 22.3711 93.6729 21.7559 93.0225C21.1406 92.3721 20.3906 92.0469 19.5059 92.0469C18.4043 92.0469 17.5664 92.5332 16.9922 93.5059C16.418 94.4727 16.1309 95.832 16.1309 97.584C16.1309 98.5742 16.2275 99.4209 16.4209 100.124C16.6201 100.821 16.8779 101.384 17.1943 101.812C17.5342 102.257 17.9355 102.585 18.3984 102.796C18.8613 103.001 19.374 103.104 19.9365 103.104C20.7568 103.104 21.4863 102.881 22.125 102.436C22.7695 101.99 23.3555 101.316 23.8828 100.414L24.6387 100.871C24.3867 101.387 24.0996 101.85 23.7773 102.26C23.4551 102.664 23.083 103.013 22.6611 103.306C22.1982 103.628 21.6855 103.88 21.123 104.062C20.5664 104.243 19.9072 104.334 19.1455 104.334Z" fill="#046EA3"/>
<rect x="115" y="236" width="8" height="8" rx="4" fill="white"/>
<path d="M119.176 243.148C118.77 243.148 118.389 243.083 118.035 242.953C117.681 242.82 117.372 242.629 117.109 242.379C116.852 242.134 116.648 241.832 116.5 241.473C116.352 241.111 116.277 240.714 116.277 240.281C116.277 239.852 116.352 239.454 116.5 239.09C116.651 238.723 116.862 238.405 117.133 238.137C117.398 237.874 117.717 237.671 118.09 237.527C118.462 237.382 118.861 237.309 119.285 237.309C119.592 237.309 119.872 237.346 120.125 237.422C120.378 237.495 120.591 237.578 120.766 237.672L121.008 237.457H121.348L121.383 239.48H121.039C120.844 238.863 120.609 238.41 120.336 238.121C120.062 237.832 119.729 237.688 119.336 237.688C118.846 237.688 118.474 237.904 118.219 238.336C117.964 238.766 117.836 239.37 117.836 240.148C117.836 240.589 117.879 240.965 117.965 241.277C118.053 241.587 118.168 241.837 118.309 242.027C118.46 242.225 118.638 242.371 118.844 242.465C119.049 242.556 119.277 242.602 119.527 242.602C119.892 242.602 120.216 242.503 120.5 242.305C120.786 242.107 121.047 241.807 121.281 241.406L121.617 241.609C121.505 241.839 121.378 242.044 121.234 242.227C121.091 242.406 120.926 242.561 120.738 242.691C120.533 242.835 120.305 242.947 120.055 243.027C119.807 243.108 119.514 243.148 119.176 243.148Z" fill="#046EA3"/>
<rect x="3" y="141" width="8" height="8" rx="4" fill="white"/>
<path d="M7.17578 148.148C6.76953 148.148 6.38932 148.083 6.03516 147.953C5.68099 147.82 5.3724 147.629 5.10938 147.379C4.85156 147.134 4.64844 146.832 4.5 146.473C4.35156 146.111 4.27734 145.714 4.27734 145.281C4.27734 144.852 4.35156 144.454 4.5 144.09C4.65104 143.723 4.86198 143.405 5.13281 143.137C5.39844 142.874 5.71745 142.671 6.08984 142.527C6.46224 142.382 6.86068 142.309 7.28516 142.309C7.59245 142.309 7.8724 142.346 8.125 142.422C8.3776 142.495 8.59115 142.578 8.76562 142.672L9.00781 142.457H9.34766L9.38281 144.48H9.03906C8.84375 143.863 8.60938 143.41 8.33594 143.121C8.0625 142.832 7.72917 142.688 7.33594 142.688C6.84635 142.688 6.47396 142.904 6.21875 143.336C5.96354 143.766 5.83594 144.37 5.83594 145.148C5.83594 145.589 5.87891 145.965 5.96484 146.277C6.05339 146.587 6.16797 146.837 6.30859 147.027C6.45964 147.225 6.63802 147.371 6.84375 147.465C7.04948 147.556 7.27734 147.602 7.52734 147.602C7.89193 147.602 8.21615 147.503 8.5 147.305C8.78646 147.107 9.04688 146.807 9.28125 146.406L9.61719 146.609C9.50521 146.839 9.3776 147.044 9.23438 147.227C9.09115 147.406 8.92578 147.561 8.73828 147.691C8.53255 147.835 8.30469 147.947 8.05469 148.027C7.80729 148.108 7.51432 148.148 7.17578 148.148Z" fill="#046EA3"/>
<rect x="236" y="136" width="8" height="8" rx="4" fill="white"/>
<path d="M240.176 143.148C239.77 143.148 239.389 143.083 239.035 142.953C238.681 142.82 238.372 142.629 238.109 142.379C237.852 142.134 237.648 141.832 237.5 141.473C237.352 141.111 237.277 140.714 237.277 140.281C237.277 139.852 237.352 139.454 237.5 139.09C237.651 138.723 237.862 138.405 238.133 138.137C238.398 137.874 238.717 137.671 239.09 137.527C239.462 137.382 239.861 137.309 240.285 137.309C240.592 137.309 240.872 137.346 241.125 137.422C241.378 137.495 241.591 137.578 241.766 137.672L242.008 137.457H242.348L242.383 139.48H242.039C241.844 138.863 241.609 138.41 241.336 138.121C241.062 137.832 240.729 137.688 240.336 137.688C239.846 137.688 239.474 137.904 239.219 138.336C238.964 138.766 238.836 139.37 238.836 140.148C238.836 140.589 238.879 140.965 238.965 141.277C239.053 141.587 239.168 141.837 239.309 142.027C239.46 142.225 239.638 142.371 239.844 142.465C240.049 142.556 240.277 142.602 240.527 142.602C240.892 142.602 241.216 142.503 241.5 142.305C241.786 142.107 242.047 141.807 242.281 141.406L242.617 141.609C242.505 141.839 242.378 142.044 242.234 142.227C242.091 142.406 241.926 142.561 241.738 142.691C241.533 142.835 241.305 142.947 241.055 143.027C240.807 143.108 240.514 143.148 240.176 143.148Z" fill="#046EA3"/>
<rect x="202" y="86" width="21" height="21" rx="10.5" fill="white"/>
<path d="M213.146 103.334C212.231 103.334 211.376 103.188 210.579 102.895C209.782 102.596 209.088 102.165 208.496 101.603C207.916 101.052 207.459 100.372 207.125 99.5635C206.791 98.749 206.624 97.8555 206.624 96.8828C206.624 95.916 206.791 95.0225 207.125 94.2021C207.465 93.376 207.939 92.6611 208.549 92.0576C209.146 91.4658 209.864 91.0088 210.702 90.6865C211.54 90.3584 212.437 90.1943 213.392 90.1943C214.083 90.1943 214.713 90.2793 215.281 90.4492C215.85 90.6133 216.33 90.8008 216.723 91.0117L217.268 90.5283H218.032L218.111 95.0811H217.338C216.898 93.6924 216.371 92.6729 215.756 92.0225C215.141 91.3721 214.391 91.0469 213.506 91.0469C212.404 91.0469 211.566 91.5332 210.992 92.5059C210.418 93.4727 210.131 94.832 210.131 96.584C210.131 97.5742 210.228 98.4209 210.421 99.124C210.62 99.8213 210.878 100.384 211.194 100.812C211.534 101.257 211.936 101.585 212.398 101.796C212.861 102.001 213.374 102.104 213.937 102.104C214.757 102.104 215.486 101.881 216.125 101.436C216.77 100.99 217.355 100.316 217.883 99.4141L218.639 99.8711C218.387 100.387 218.1 100.85 217.777 101.26C217.455 101.664 217.083 102.013 216.661 102.306C216.198 102.628 215.686 102.88 215.123 103.062C214.566 103.243 213.907 103.334 213.146 103.334Z" fill="#046EA3"/>
<rect x="19" y="191" width="26" height="26" rx="13" fill="white"/>
<path d="M31.9395 211.371C30.9238 211.371 29.9733 211.208 29.0879 210.883C28.2025 210.551 27.431 210.072 26.7734 209.447C26.1289 208.835 25.6211 208.08 25.25 207.182C24.8789 206.277 24.6934 205.284 24.6934 204.203C24.6934 203.129 24.8789 202.136 25.25 201.225C25.6276 200.307 26.1549 199.512 26.832 198.842C27.4961 198.184 28.2936 197.676 29.2246 197.318C30.1556 196.954 31.1517 196.771 32.2129 196.771C32.9811 196.771 33.681 196.866 34.3125 197.055C34.944 197.237 35.4779 197.445 35.9141 197.68L36.5195 197.143H37.3691L37.457 202.201H36.5977C36.1094 200.658 35.5234 199.525 34.8398 198.803C34.1562 198.08 33.3229 197.719 32.3398 197.719C31.1159 197.719 30.1849 198.259 29.5469 199.34C28.9089 200.414 28.5898 201.924 28.5898 203.871C28.5898 204.971 28.6973 205.912 28.9121 206.693C29.1335 207.468 29.4199 208.093 29.7715 208.568C30.1491 209.063 30.5951 209.428 31.1094 209.662C31.6237 209.89 32.1934 210.004 32.8184 210.004C33.7298 210.004 34.5404 209.757 35.25 209.262C35.9661 208.767 36.6172 208.018 37.2031 207.016L38.043 207.523C37.763 208.096 37.444 208.611 37.0859 209.066C36.7279 209.516 36.3145 209.903 35.8457 210.229C35.3314 210.587 34.7617 210.867 34.1367 211.068C33.5182 211.27 32.7858 211.371 31.9395 211.371Z" fill="#046EA3"/>
<rect x="200" y="31" width="8" height="8" rx="4" fill="white"/>
<path d="M204.176 38.1484C203.77 38.1484 203.389 38.0833 203.035 37.9531C202.681 37.8203 202.372 37.6289 202.109 37.3789C201.852 37.1341 201.648 36.832 201.5 36.4727C201.352 36.1107 201.277 35.7135 201.277 35.2812C201.277 34.8516 201.352 34.4544 201.5 34.0898C201.651 33.7227 201.862 33.4049 202.133 33.1367C202.398 32.8737 202.717 32.6706 203.09 32.5273C203.462 32.3815 203.861 32.3086 204.285 32.3086C204.592 32.3086 204.872 32.3464 205.125 32.4219C205.378 32.4948 205.591 32.5781 205.766 32.6719L206.008 32.457H206.348L206.383 34.4805H206.039C205.844 33.8633 205.609 33.4102 205.336 33.1211C205.062 32.832 204.729 32.6875 204.336 32.6875C203.846 32.6875 203.474 32.9036 203.219 33.3359C202.964 33.7656 202.836 34.3698 202.836 35.1484C202.836 35.5885 202.879 35.9648 202.965 36.2773C203.053 36.5872 203.168 36.8372 203.309 37.0273C203.46 37.2253 203.638 37.3711 203.844 37.4648C204.049 37.556 204.277 37.6016 204.527 37.6016C204.892 37.6016 205.216 37.5026 205.5 37.3047C205.786 37.1068 206.047 36.8073 206.281 36.4062L206.617 36.6094C206.505 36.8385 206.378 37.0443 206.234 37.2266C206.091 37.4062 205.926 37.5612 205.738 37.6914C205.533 37.8346 205.305 37.9466 205.055 38.0273C204.807 38.1081 204.514 38.1484 204.176 38.1484Z" fill="#046EA3"/>
</g>
<defs>
<clipPath id="clip0">
<rect width="252" height="247.58" fill="white"/>
</clipPath>
</defs>
</svg>
