<svg width="328" height="205" viewBox="0 0 328 205" fill="none" xmlns="http://www.w3.org/2000/svg">
<rect x="56" width="200" height="200" rx="100" fill="#29C44D"/>
<path d="M195.516 52.3442L176.105 18.4587C190.681 21.0287 213.089 38.1062 222.471 46.3236L195.516 52.3442Z" fill="white" stroke="white"/>
<rect x="181.194" y="43.928" width="85" height="85" rx="42.5" fill="white" stroke="white" stroke-width="5"/>
<rect x="183.694" y="46.428" width="80" height="80" rx="40" fill="#C71D26"/>
<rect x="183.694" y="46.428" width="80" height="80" rx="40" stroke="white"/>
<path d="M232.071 97.9926C231.981 97.5486 231.532 97.2646 231.079 97.3652C230.343 97.5285 229.192 97.7277 227.953 97.7277C224.048 97.7277 220.94 95.398 219.597 92.0057H227.419C227.606 92.0057 227.788 91.9435 227.934 91.8295C228.081 91.7155 228.183 91.5563 228.224 91.3783L228.663 89.4792C228.779 88.9768 228.386 88.4994 227.857 88.4994H218.621C218.538 87.5399 218.524 86.6052 218.631 85.6705H228.717C228.905 85.6705 229.088 85.6079 229.234 85.493C229.381 85.3781 229.483 85.2178 229.523 85.0388L229.971 83.0462C230.084 82.5451 229.692 82.0708 229.165 82.0708H219.651C221.07 79.058 223.964 77.0465 227.743 77.0465C228.74 77.0465 229.709 77.1972 230.348 77.3241C230.775 77.409 231.197 77.1568 231.311 76.7466L232.136 73.7756C232.261 73.3242 231.966 72.8638 231.494 72.7767C230.662 72.623 229.319 72.428 227.869 72.428C221.183 72.428 215.787 76.4627 213.795 82.0708H211.519C211.063 82.0708 210.694 82.4306 210.694 82.8744V84.8669C210.694 85.3107 211.063 85.6705 211.519 85.6705H213.003C212.934 86.5817 212.922 87.6317 212.991 88.4994H211.519C211.063 88.4994 210.694 88.8592 210.694 89.303V91.2021C210.694 91.6459 211.063 92.0057 211.519 92.0057H213.591C215.313 98.0547 220.688 102.428 227.869 102.428C229.679 102.428 231.211 102.124 232.073 101.906C232.498 101.8 232.763 101.39 232.678 100.972L232.071 97.9926Z" fill="white"/>
<rect x="216.5" y="102.5" width="85" height="85" rx="42.5" fill="white" stroke="white" stroke-width="5"/>
<rect x="219" y="105" width="80" height="80" rx="40" fill="#283D3E"/>
<rect x="219" y="105" width="80" height="80" rx="40" stroke="white"/>
<path d="M255.118 130.511L262.882 159.489" stroke="white" stroke-width="4" stroke-linecap="round" stroke-linejoin="round"/>
<path d="M264.202 132.218L252.128 135.453C250.634 135.854 249.351 136.798 248.561 138.077C247.771 139.356 247.54 140.867 247.917 142.276C248.295 143.685 249.251 144.877 250.574 145.59C251.898 146.303 253.481 146.479 254.975 146.079L263.025 143.922C264.519 143.521 266.102 143.697 267.426 144.41C268.75 145.123 269.705 146.316 270.083 147.725C270.46 149.134 270.229 150.644 269.439 151.923C268.649 153.203 267.366 154.146 265.872 154.547L252.188 158.214" stroke="white" stroke-width="5" stroke-linecap="round" stroke-linejoin="round"/>
<rect x="240.5" y="42.5" width="85" height="85" rx="42.5" fill="white" stroke="white" stroke-width="5"/>
<rect x="243" y="45" width="80" height="80" rx="40" fill="#F6BD0E"/>
<rect x="243" y="45" width="80" height="80" rx="40" stroke="white"/>
<path d="M264.443 81.0185C262.11 69.6852 267.843 53.8185 309.443 81.0185" stroke="black" stroke-width="5"/>
<path d="M255.658 84.3828C254.872 84.3828 254.034 84.4601 253.144 84.6147C252.259 84.7632 251.514 84.9302 250.908 85.1157C250.302 85.3013 249.751 85.4714 249.256 85.626C248.762 85.7744 248.465 85.8486 248.366 85.8486C248.026 85.8486 247.855 85.7311 247.855 85.4961C247.855 85.2549 248.041 85.0106 248.412 84.7632C249.606 83.9653 250.957 83.3685 252.466 82.9727C253.982 82.5768 255.429 82.3789 256.808 82.3789C258.194 82.3789 259.325 82.4933 260.204 82.7222C261.088 82.951 261.818 83.2633 262.393 83.6592C262.968 84.055 263.441 84.5374 263.812 85.1064C264.505 86.1641 264.852 87.4845 264.852 89.0679C264.852 90.7378 264.394 92.2747 263.479 93.6787C262.47 95.2188 261.138 96.2887 259.48 96.8887C258.577 97.2103 257.609 97.3711 256.576 97.3711C254.931 97.3711 253.645 97.1113 252.717 96.5918C252.457 96.8454 252.142 97.0062 251.771 97.0742C251.399 97.1484 250.886 97.1855 250.23 97.1855C249.575 97.1855 248.947 97.133 248.347 97.0278C247.753 96.9227 247.234 96.7897 246.789 96.6289C246.343 96.4619 245.978 96.2795 245.694 96.0815C245.409 95.8774 245.267 95.695 245.267 95.5342C245.267 95.3734 245.332 95.2497 245.462 95.1631C245.586 95.0703 245.728 95.0239 245.889 95.0239C246.445 95.0239 246.854 94.9373 247.113 94.7642C247.379 94.5848 247.648 94.2508 247.92 93.7622C248.199 93.2736 248.455 92.717 248.69 92.0923C248.925 91.4676 249.145 90.8677 249.349 90.2925C249.559 89.7173 249.798 89.1359 250.063 88.5483C250.639 87.2557 251.359 86.4053 252.225 85.9971C252.652 85.7992 253.196 85.6476 253.858 85.5425C254.52 85.4312 255.185 85.3755 255.853 85.3755C256.521 85.3755 256.854 85.5301 256.854 85.8394C256.854 86.0744 256.712 86.4146 256.428 86.8599C256.149 87.3052 255.849 87.9948 255.528 88.9287C255.206 89.8626 254.847 90.9759 254.452 92.2686C254.062 93.5612 253.759 94.5075 253.542 95.1074L253.385 95.5156C253.576 95.5342 253.876 95.5435 254.285 95.5435C254.693 95.5435 255.147 95.4569 255.648 95.2837C256.156 95.1105 256.595 94.8755 256.966 94.5786C257.337 94.2756 257.671 93.9199 257.968 93.5117C258.271 93.1035 258.518 92.6706 258.71 92.2129C258.908 91.749 259.072 91.2604 259.202 90.7471C259.443 89.8008 259.563 88.7865 259.563 87.7041C259.563 85.4899 258.262 84.3828 255.658 84.3828ZM276.921 97.3711C275.109 97.3711 273.445 97.0495 271.93 96.4062C271.615 96.7217 271.222 96.9289 270.752 97.0278C270.288 97.133 269.667 97.1855 268.887 97.1855C268.114 97.1855 267.363 97.0959 266.633 96.9165C265.903 96.7371 265.325 96.5176 264.898 96.2578C264.465 95.998 264.249 95.7445 264.249 95.4971C264.249 95.3548 264.31 95.2404 264.434 95.1538C264.558 95.0672 264.7 95.0239 264.861 95.0239C265.43 95.0239 265.85 94.9342 266.123 94.7549C266.401 94.5693 266.667 94.2292 266.92 93.7344C267.18 93.2396 267.431 92.6706 267.672 92.0273C267.913 91.3779 268.136 90.7718 268.34 90.209C268.55 89.6462 268.785 89.0771 269.045 88.502C269.62 87.2464 270.341 86.4115 271.207 85.9971C271.621 85.7992 272.162 85.6476 272.83 85.5425C273.498 85.4312 274.021 85.3755 274.398 85.3755C274.781 85.3755 275.029 85.3817 275.14 85.394C275.258 85.4002 275.375 85.4188 275.493 85.4497C275.728 85.5116 275.845 85.6414 275.845 85.8394C275.845 85.9754 275.817 86.1022 275.762 86.2197C275.712 86.3311 275.573 86.5723 275.344 86.9434C275.115 87.3145 274.812 88.0907 274.435 89.272C275.944 89.1792 277.098 88.8669 277.896 88.335C278.693 87.7969 279.092 87.1104 279.092 86.2754C279.092 85.1436 278.134 84.5003 276.216 84.3457C275.827 84.3148 275.258 84.2993 274.509 84.2993C273.761 84.2993 272.929 84.389 272.014 84.5684C271.098 84.7415 270.381 84.9333 269.861 85.1436C269.348 85.3538 268.884 85.5487 268.47 85.728C268.055 85.9012 267.789 85.9878 267.672 85.9878C267.35 85.9878 267.189 85.8826 267.189 85.6724C267.189 85.4559 267.39 85.1992 267.792 84.9023C268.194 84.6055 268.748 84.3117 269.453 84.021C270.164 83.7303 270.95 83.4613 271.81 83.2139C273.752 82.6572 275.759 82.3789 277.831 82.3789C279.903 82.3789 281.473 82.7036 282.543 83.353C283.62 83.9963 284.158 84.8498 284.158 85.9136C284.158 86.9774 283.623 87.8618 282.553 88.5669C281.489 89.272 280.026 89.6616 278.165 89.7358C279.358 89.7482 280.456 90.0358 281.458 90.5986C281.94 90.8646 282.333 91.214 282.636 91.647C282.939 92.0799 283.091 92.5809 283.091 93.1499C283.091 93.7189 282.97 94.2539 282.729 94.7549C282.494 95.2497 282.179 95.6579 281.783 95.9795C281.393 96.3011 280.926 96.5671 280.382 96.7773C279.386 97.1732 278.233 97.3711 276.921 97.3711ZM274.175 90.0884C274.058 90.478 273.826 91.2666 273.479 92.4541C273.133 93.6354 272.892 94.4271 272.756 94.8291C272.62 95.2249 272.549 95.429 272.542 95.4414C272.74 95.4661 273.056 95.4785 273.489 95.4785C273.928 95.4785 274.417 95.4198 274.955 95.3022C275.499 95.1785 275.984 94.993 276.411 94.7456C276.844 94.4982 277.181 94.1642 277.422 93.7437C277.67 93.3231 277.793 92.8128 277.793 92.2129C277.793 91.613 277.444 91.1151 276.745 90.7192C276.046 90.3234 275.19 90.1131 274.175 90.0884ZM293.621 84.3828C292.835 84.3828 291.997 84.4601 291.106 84.6147C290.222 84.7632 289.477 84.9302 288.871 85.1157C288.264 85.3013 287.714 85.4714 287.219 85.626C286.724 85.7744 286.428 85.8486 286.329 85.8486C285.988 85.8486 285.818 85.7311 285.818 85.4961C285.818 85.2549 286.004 85.0106 286.375 84.7632C287.569 83.9653 288.92 83.3685 290.429 82.9727C291.944 82.5768 293.392 82.3789 294.771 82.3789C296.156 82.3789 297.288 82.4933 298.167 82.7222C299.051 82.951 299.781 83.2633 300.356 83.6592C300.931 84.055 301.404 84.5374 301.775 85.1064C302.468 86.1641 302.814 87.4845 302.814 89.0679C302.814 90.7378 302.357 92.2747 301.441 93.6787C300.433 95.2188 299.1 96.2887 297.443 96.8887C296.54 97.2103 295.572 97.3711 294.539 97.3711C292.894 97.3711 291.607 97.1113 290.68 96.5918C290.42 96.8454 290.104 97.0062 289.733 97.0742C289.362 97.1484 288.849 97.1855 288.193 97.1855C287.538 97.1855 286.91 97.133 286.31 97.0278C285.716 96.9227 285.197 96.7897 284.751 96.6289C284.306 96.4619 283.941 96.2795 283.657 96.0815C283.372 95.8774 283.23 95.695 283.23 95.5342C283.23 95.3734 283.295 95.2497 283.425 95.1631C283.549 95.0703 283.691 95.0239 283.852 95.0239C284.408 95.0239 284.816 94.9373 285.076 94.7642C285.342 94.5848 285.611 94.2508 285.883 93.7622C286.162 93.2736 286.418 92.717 286.653 92.0923C286.888 91.4676 287.108 90.8677 287.312 90.2925C287.522 89.7173 287.76 89.1359 288.026 88.5483C288.602 87.2557 289.322 86.4053 290.188 85.9971C290.615 85.7992 291.159 85.6476 291.821 85.5425C292.483 85.4312 293.147 85.3755 293.815 85.3755C294.483 85.3755 294.817 85.5301 294.817 85.8394C294.817 86.0744 294.675 86.4146 294.391 86.8599C294.112 87.3052 293.812 87.9948 293.491 88.9287C293.169 89.8626 292.81 90.9759 292.415 92.2686C292.025 93.5612 291.722 94.5075 291.505 95.1074L291.348 95.5156C291.539 95.5342 291.839 95.5435 292.248 95.5435C292.656 95.5435 293.11 95.4569 293.611 95.2837C294.118 95.1105 294.558 94.8755 294.929 94.5786C295.3 94.2756 295.634 93.9199 295.931 93.5117C296.234 93.1035 296.481 92.6706 296.673 92.2129C296.871 91.749 297.035 91.2604 297.165 90.7471C297.406 89.8008 297.526 88.7865 297.526 87.7041C297.526 85.4899 296.224 84.3828 293.621 84.3828ZM314.439 94.9961L316.313 94.8198C316.863 94.8198 317.139 94.9683 317.139 95.2651C317.139 95.5558 316.959 95.8094 316.601 96.0259C315.722 96.5516 314.782 96.9072 313.78 97.0928C312.778 97.2783 311.801 97.3711 310.849 97.3711C309.902 97.3711 309.225 97.3525 308.817 97.3154C308.415 97.2845 308.013 97.2165 307.611 97.1113C307.215 97.0062 306.89 96.8639 306.637 96.6846C306.086 96.2887 305.811 95.6795 305.811 94.8569C305.811 93.4282 306.674 91.6315 308.399 89.4668C309.704 87.834 310.812 86.8815 311.721 86.6094C312.197 86.4671 312.75 86.396 313.381 86.396C314.018 86.396 314.337 86.6372 314.337 87.1196C314.337 87.2804 314.291 87.4722 314.198 87.6948C313.845 88.4185 313.536 89.2751 313.27 90.2646C313.004 91.248 312.871 92.1325 312.871 92.918C312.871 94.3034 313.394 94.9961 314.439 94.9961ZM305.022 87.3608C304.707 87.3608 304.549 87.1784 304.549 86.8135C304.549 86.4115 304.67 85.861 304.911 85.1621C305.381 83.8324 305.885 83.0933 306.423 82.9448C306.572 82.8892 307.02 82.8613 307.769 82.8613L314.04 83.0098C314.349 83.0098 315.249 82.917 316.74 82.7314C318.236 82.5459 319.022 82.4531 319.096 82.4531C319.894 82.4531 320.293 82.7253 320.293 83.2695C320.293 83.5107 320.206 83.8942 320.033 84.4199C319.866 84.9395 319.644 85.4312 319.365 85.895C319.087 86.3589 318.83 86.5908 318.595 86.5908C318.453 86.5908 318.131 86.4764 317.63 86.2476C316.115 85.5549 314.894 85.2085 313.966 85.2085C313.038 85.2085 311.965 85.2982 310.747 85.4775C309.528 85.6569 308.622 85.8703 308.028 86.1177C307.435 86.3589 306.915 86.5815 306.47 86.7856C305.641 87.1691 305.159 87.3608 305.022 87.3608Z" fill="white"/>
<path d="M56.4264 134.666C5.81413 136.766 29.7109 130.646 45.8057 120.917C46.3952 120.561 46.7457 119.921 46.7457 119.232L46.7457 85.3364C46.7457 83.5534 44.4725 82.7938 43.2336 84.076C-54.846 185.588 93.3779 176.766 179.735 152.044C180.741 151.756 181.324 150.744 181.106 149.72L173.133 112.206C172.88 111.019 171.642 110.327 170.497 110.729C148.51 118.453 98.3023 132.928 56.4264 134.666Z" fill="#F7BB0B" stroke="white" stroke-width="4"/>
<path d="M228.425 119.051L164.55 93.6452C163.807 93.35 163.036 94.001 163.202 94.7823L179.058 169.379C179.224 170.16 180.194 170.441 180.752 169.869L228.771 120.679C229.269 120.169 229.088 119.315 228.425 119.051Z" fill="#F7BB0B" stroke="white" stroke-width="4"/>
<rect x="164.694" y="115.167" width="5" height="38.2" transform="rotate(-12 164.694 115.167)" fill="#F7BB0B"/>
<path d="M144.266 32.03C154.578 32.7165 171.55 39.1154 156.945 59.2193L144.266 32.03Z" fill="white" stroke="white" stroke-width="12"/>
<path d="M89.5 127.719L92 129.359L93 131L95.5 129.359L100.5 126.625L98.5 124.984L95.5 123.344L92.5 121.156L91 119.516L88 116.781L86.5 114.594L85.5 113.5L83.5 109.125L82.5 106.391V104.203V100.375V98.1875V97.0938L84.5 96H86.5H89H91L92.5 97.0938L94 98.1875L95 100.375L97.5 102.016H100L101.5 100.375L103 98.1875L105.5 95.4531L107.5 92.7188L108.5 89.9844L110.5 86.1562L115 80.1406L120 74.6719L123.5 73.5781L128.5 73.0312L130 71.3906V70.2969V68.6562L129 65.9219L127.5 64.8281L126 63.1875L125 62.0938L123 61.5469L120.5 60.4531H118.5C110.1 74.8906 108.333 61.7292 108.5 53.3438L114 48.4219L120.5 42.4062L121.5 41.3125V39.125L120.5 36.3906L118.5 33.6562L116 30.375L114 27.6406L112.5 26H111.5H107.5L104.5 27.0938L101.5 29.2812L95 33.6562L91.5 37.4844L88 41.3125L82.5 48.4219L79 53.3438L77.5 57.1719L75 62.0938L72 67.5625L71 71.3906L70 73.5781L69 80.1406L68 83.9688V86.1562V91.0781L69 95.4531L71 103.109L75.5 109.125L80 116.781L83.5 121.156L85.5 123.891L88 126.078L89.5 127.719Z" fill="white" stroke="white"/>
<path d="M107.4 168.876C117.762 176.899 143.318 185.352 162.651 154.981L107.4 168.876Z" fill="white" stroke="white"/>
</svg>
