<svg width="559" height="392" viewBox="0 0 559 392" fill="none" xmlns="http://www.w3.org/2000/svg">
<path d="M415.188 21.8905L413.484 23.1349C409.845 25.7928 409.049 30.8977 411.707 34.5372L541.79 212.665C544.448 216.304 549.553 217.1 553.193 214.442L554.897 213.198C558.536 210.54 559.332 205.435 556.674 201.795L426.591 23.6679C423.933 20.0285 418.828 19.2327 415.188 21.8905Z" fill="#AF5A35"/>
<path d="M440 54.25C469.96 32.2811 502.656 14.3098 537.26 0.790008C536.797 0.469506 536.252 0.28898 535.69 0.270008C503.37 -1.99999 463.35 10.41 427.26 36.77C391.17 63.13 367.14 97.46 359.49 129C359.336 129.539 359.336 130.111 359.49 130.65C382.895 101.795 409.959 76.1124 440 54.25V54.25Z" fill="#7577A7"/>
<path opacity="0.6" d="M432 43.26C459.33 23.26 489 10.26 518 4.12C488 7.65 457.14 19.42 429.4 39.68C401.66 59.94 381 85.77 368.54 113.27C383.22 87.54 404.66 63.23 432 43.26Z" fill="#AFAFD3"/>
<path d="M431.446 29.5045L415.779 40.9459C413.13 42.8806 412.551 46.5968 414.485 49.2461L432.945 74.5233C434.88 77.1726 438.596 77.7519 441.245 75.8171L456.912 64.3758C459.561 62.441 460.141 58.7249 458.206 56.0756L439.746 30.7984C437.812 28.1491 434.096 27.5698 431.446 29.5045Z" fill="#AFAFD3"/>
<path d="M456.519 64.6616L441.636 75.5309L446.755 82.5407L461.639 71.6714L456.519 64.6616Z" fill="#8E4830"/>
<path d="M428.743 25.1479L413.815 36.0216L417.178 40.6386L432.106 29.7649L428.743 25.1479Z" fill="#8E4830"/>
<path d="M456.573 84.6739L456.048 85.0572C454.915 85.8846 454.667 87.4736 455.494 88.6065L543.499 209.113C544.326 210.246 545.915 210.494 547.048 209.667L547.573 209.283C548.706 208.456 548.953 206.867 548.126 205.734L460.122 85.2271C459.295 84.0943 457.706 83.8466 456.573 84.6739Z" fill="#EFB173"/>
<path d="M427.21 36.8L417.71 43.74C417.442 43.9342 417.215 44.1796 417.042 44.462C416.869 44.7445 416.753 45.0583 416.702 45.3855C416.651 45.7127 416.665 46.0468 416.744 46.3685C416.822 46.6902 416.964 46.9932 417.16 47.26L424.1 56.77C424.198 56.9048 424.334 57.0074 424.491 57.0647C424.647 57.1219 424.817 57.1313 424.979 57.0917C425.141 57.052 425.287 56.965 425.4 56.8419C425.512 56.7187 425.585 56.5649 425.61 56.4L428.54 37.61C428.562 37.4463 428.536 37.2797 428.465 37.1305C428.394 36.9814 428.281 36.8562 428.14 36.7702C427.999 36.6843 427.836 36.6414 427.67 36.6466C427.505 36.6519 427.345 36.7052 427.21 36.8V36.8Z" fill="#D1D1E8"/>
<path opacity="0.63" d="M445.78 68.4L455.28 61.46C455.82 61.066 456.181 60.4739 456.284 59.8139C456.387 59.1538 456.224 58.4798 455.83 57.94L448.89 48.43C448.792 48.2952 448.656 48.1926 448.499 48.1354C448.343 48.0781 448.173 48.0687 448.011 48.1084C447.849 48.148 447.702 48.235 447.59 48.3582C447.478 48.4813 447.405 48.6351 447.38 48.8L444.45 67.59C444.423 67.7551 444.446 67.9245 444.516 68.0765C444.586 68.2285 444.699 68.3562 444.842 68.4432C444.985 68.5303 445.151 68.5726 445.318 68.5649C445.485 68.5572 445.646 68.4998 445.78 68.4V68.4Z" fill="#7577A7"/>
<path d="M350.92 132.8H350.85C350.178 132.782 349.541 132.498 349.078 132.01C348.615 131.523 348.364 130.872 348.38 130.2L349.81 70.65C349.863 70.0041 350.161 69.4028 350.643 68.9693C351.124 68.5358 351.754 68.3029 352.402 68.3182C353.05 68.3336 353.667 68.596 354.128 69.0518C354.589 69.5076 354.858 70.1223 354.88 70.77L353.45 130.32C353.434 130.981 353.161 131.611 352.689 132.074C352.216 132.537 351.582 132.798 350.92 132.8V132.8Z" fill="#FACC00"/>
<path d="M360 142.91C359.329 142.934 358.676 142.69 358.185 142.233C357.693 141.775 357.404 141.141 357.38 140.47C357.356 139.799 357.6 139.146 358.057 138.655C358.515 138.163 359.149 137.874 359.82 137.85L410.21 134.22C410.552 134.177 410.9 134.205 411.231 134.301C411.562 134.396 411.871 134.559 412.137 134.778C412.404 134.997 412.623 135.268 412.781 135.574C412.94 135.881 413.034 136.216 413.059 136.56C413.083 136.904 413.037 137.25 412.924 137.575C412.81 137.901 412.632 138.2 412.399 138.455C412.166 138.709 411.884 138.914 411.569 139.056C411.255 139.198 410.915 139.274 410.57 139.28L360.18 142.91H360Z" fill="#FACC00"/>
<path d="M390.58 156.2H390.31L367.87 153.81C367.514 153.811 367.162 153.737 366.837 153.593C366.512 153.449 366.22 153.237 365.982 152.973C365.744 152.709 365.565 152.397 365.455 152.059C365.346 151.72 365.309 151.362 365.347 151.008C365.385 150.655 365.498 150.313 365.677 150.006C365.856 149.698 366.098 149.432 366.387 149.225C366.676 149.017 367.006 148.873 367.354 148.802C367.703 148.73 368.063 148.733 368.41 148.81L390.84 151.19C391.477 151.269 392.06 151.587 392.473 152.078C392.885 152.57 393.096 153.2 393.063 153.841C393.03 154.482 392.756 155.087 392.295 155.534C391.834 155.981 391.222 156.236 390.58 156.25V156.2Z" fill="#FACC00"/>
<path d="M340.05 128.24C339.493 128.237 338.953 128.052 338.513 127.712C338.072 127.372 337.755 126.897 337.61 126.36L332.08 105.88C331.939 105.242 332.049 104.574 332.388 104.015C332.727 103.456 333.268 103.05 333.9 102.88C334.531 102.71 335.203 102.789 335.777 103.102C336.35 103.415 336.781 103.937 336.98 104.56L342.5 125C342.588 125.321 342.611 125.656 342.57 125.987C342.528 126.317 342.421 126.636 342.255 126.924C342.09 127.213 341.869 127.467 341.606 127.67C341.342 127.874 341.041 128.023 340.72 128.11C340.503 128.182 340.278 128.226 340.05 128.24V128.24Z" fill="#FACC00"/>
<path opacity="0.25" d="M547.43 391.37L409.82 377.07L541.45 334.46L403.88 349.08L523.77 280.04L392.24 322.94L495.16 230.49L375.42 299.8L456.87 187.96L354.16 280.65L410.57 154.33L329.38 266.35L358.3 131.06L302.17 257.51L302.33 119.16L273.72 254.52L245.1 119.16L245.26 257.51L189.13 131.06L218.05 266.35L136.86 154.33L193.27 280.65L90.56 187.96L172.01 299.8L52.27 230.49L155.19 322.94L23.66 280.04L143.56 349.08L5.98 334.46L137.61 377.07L0 391.37H547.43Z" fill="#F4E992"/>
<path d="M162.26 242.56V215.93H385.22V239.37L376.38 266.29L213.83 289.38L162.26 242.56Z" fill="#F99F00"/>
<path d="M371.84 186.38C364.891 173.526 355.486 162.162 344.16 152.93C343.54 152.42 342.92 151.93 342.29 151.44C323.577 136.802 300.66 128.554 276.91 127.91C275.85 127.91 274.79 127.91 273.71 127.91C259.067 127.91 244.567 130.794 231.038 136.398C217.51 142.002 205.218 150.216 194.864 160.571C184.51 170.926 176.297 183.219 170.695 196.748C165.092 210.277 162.209 224.777 162.21 239.42C162.21 240.48 162.21 241.55 162.21 242.61C162.866 266.369 171.132 289.29 185.79 308L187.28 309.86C196.512 321.186 207.876 330.591 220.73 337.54C241.857 348.956 266.105 353.247 289.867 349.775C313.63 346.303 335.636 335.254 352.614 318.27C369.592 301.287 380.634 279.277 384.098 255.513C387.562 231.75 383.263 207.504 371.84 186.38V186.38ZM273.71 328.27C252.524 328.288 232.031 320.722 215.94 306.94C211.309 302.975 207.094 298.549 203.36 293.73C191.078 277.839 184.539 258.258 184.806 238.176C185.074 218.094 192.132 198.694 204.833 183.136C217.533 167.578 235.127 156.778 254.749 152.495C274.371 148.212 294.865 150.699 312.893 159.55C330.921 168.402 345.421 183.096 354.032 201.24C362.643 219.385 364.857 239.91 360.314 259.473C355.77 279.036 344.737 296.485 329.012 308.977C313.286 321.469 293.794 328.27 273.71 328.27V328.27Z" fill="#F99F00"/>
<path d="M371.84 166.71C364.891 153.856 355.486 142.492 344.16 133.26C343.54 132.76 342.92 132.26 342.29 131.77C323.577 117.132 300.66 108.884 276.91 108.24C275.85 108.24 274.79 108.24 273.71 108.24C244.145 108.24 215.791 119.982 194.882 140.883C173.973 161.785 162.221 190.135 162.21 219.7C162.21 220.76 162.21 221.83 162.21 222.89C162.852 246.643 171.1 269.564 185.74 288.28L187.23 290.14C196.462 301.466 207.826 310.871 220.68 317.82C241.804 329.243 266.05 333.542 289.813 330.078C313.577 326.614 335.587 315.572 352.57 298.594C369.554 281.616 380.603 259.61 384.075 235.847C387.547 212.085 383.256 187.837 371.84 166.71V166.71ZM273.71 308.6C252.524 308.618 232.031 301.052 215.94 287.27C211.309 283.305 207.094 278.879 203.36 274.06C191.078 258.169 184.539 238.588 184.806 218.506C185.074 198.424 192.132 179.024 204.833 163.466C217.533 147.908 235.127 137.108 254.749 132.825C274.371 128.542 294.865 131.029 312.893 139.88C330.921 148.732 345.421 163.426 354.032 181.57C362.643 199.715 364.857 220.24 360.314 239.803C355.77 259.366 344.737 276.815 329.012 289.307C313.286 301.8 293.794 308.6 273.71 308.6V308.6Z" fill="#FACC00"/>
<path d="M273.72 308.6C322.824 308.6 362.63 268.794 362.63 219.69C362.63 170.586 322.824 130.78 273.72 130.78C224.616 130.78 184.81 170.586 184.81 219.69C184.81 268.794 224.616 308.6 273.72 308.6Z" fill="#F99F00"/>
<path d="M273.72 143.35C296.216 143.35 317.875 151.878 334.332 167.216C350.788 182.554 360.818 203.56 362.4 226C362.54 223.93 362.62 221.84 362.62 219.72C362.372 196.304 352.896 173.932 336.25 157.462C319.604 140.991 297.132 131.753 273.715 131.753C250.298 131.753 227.826 140.991 211.18 157.462C194.534 173.932 185.058 196.304 184.81 219.72C184.81 221.84 184.89 223.93 185.03 226C186.616 203.56 196.649 182.555 213.107 167.218C229.565 151.881 251.224 143.352 273.72 143.35V143.35Z" fill="#F78100"/>
<path d="M376.03 175.55C374.697 172.45 373.233 169.423 371.64 166.47C370.54 164.47 369.387 162.49 368.18 160.53C364.904 155.275 361.198 150.302 357.1 145.66C356.55 145.04 355.99 144.42 355.42 143.81C351.853 139.95 348.021 136.344 343.95 133.02C343.33 132.51 342.71 132.02 342.09 131.53C337.663 128.081 332.983 124.969 328.09 122.22C312.357 113.372 294.704 108.491 276.66 108C275.6 108 274.54 108 273.46 108C243.902 108.011 215.558 119.757 194.658 140.658C173.757 161.558 162.011 189.902 162 219.46C162 220.52 162 221.59 162 222.65C162.184 229.118 162.923 235.559 164.21 241.9C167.658 258.72 174.955 274.513 185.53 288.04L187.02 289.9C187.52 290.51 188.02 291.11 188.53 291.71C191.971 295.748 195.694 299.537 199.67 303.05L200.46 303.74C219.53 320.269 243.641 329.841 268.855 330.894C294.069 331.947 318.894 324.418 339.275 309.537C359.657 294.656 374.389 273.302 381.065 248.966C387.741 224.629 385.966 198.748 376.03 175.55V175.55ZM273.5 308.36C253.92 308.376 234.884 301.913 219.36 289.98C218.13 288.98 216.92 288.04 215.73 286.98C212.586 284.288 209.632 281.381 206.89 278.28C205.603 276.82 204.357 275.317 203.15 273.77C192.647 260.199 186.307 243.873 184.9 226.77C184.7 224.337 184.6 221.88 184.6 219.4C184.611 205.789 187.744 192.362 193.757 180.152C199.77 167.941 208.504 157.272 219.287 148.966C230.069 140.66 242.614 134.938 255.954 132.239C269.295 129.54 283.077 129.938 296.24 133.4C307.72 136.443 318.475 141.754 327.87 149.02C331.102 151.522 334.159 154.241 337.02 157.16C338.427 158.6 339.78 160.08 341.08 161.6C346.68 168.143 351.298 175.467 354.79 183.34C355.66 185.34 356.46 187.29 357.19 189.34C361.996 202.764 363.507 217.145 361.595 231.274C359.683 245.404 354.404 258.867 346.204 270.53C338.003 282.194 327.12 291.716 314.471 298.296C301.822 304.876 287.778 308.321 273.52 308.34L273.5 308.36Z" fill="#FACC00"/>
<path d="M187.75 242.43C189.473 248.976 191.946 255.301 195.12 261.28L176.71 274.72C170.948 264.568 166.818 253.574 164.47 242.14L185.11 227.07C185.537 232.258 186.42 237.398 187.75 242.43V242.43Z" fill="#FFE885"/>
<path d="M355.63 144.05L337.23 157.48C334.369 154.561 331.312 151.842 328.08 149.34C321.849 144.515 315.002 140.543 307.72 137.53L328.34 122.46C333.233 125.209 337.913 128.321 342.34 131.77C342.96 132.26 343.58 132.77 344.2 133.26C348.257 136.586 352.076 140.191 355.63 144.05V144.05Z" fill="#FFE885"/>
<path d="M215.94 287.27C217.13 288.27 218.34 289.27 219.57 290.27L200.72 304L199.93 303.31C195.955 299.807 192.232 296.028 188.79 292L207.1 278.62C209.844 281.703 212.798 284.594 215.94 287.27V287.27Z" fill="#FFE885"/>
<path d="M323.39 193.64C323.44 193.79 323.5 193.93 323.55 194.08H322.78L323.39 193.64Z" fill="#FFE885"/>
<path d="M376.24 175.79L357.38 189.57C356.65 187.57 355.85 185.57 354.98 183.57C353.535 180.329 351.899 177.177 350.08 174.13L368.39 160.76C369.603 162.7 370.757 164.68 371.85 166.7C373.443 169.66 374.907 172.69 376.24 175.79Z" fill="#FFE885"/>
<path d="M197.91 140.67L208.12 146.25C208.571 146.493 208.948 146.854 209.211 147.294C209.474 147.734 209.613 148.237 209.613 148.75C209.613 149.263 209.474 149.766 209.211 150.206C208.948 150.646 208.571 151.007 208.12 151.25L197.91 156.83C197.436 157.092 197.048 157.484 196.79 157.96L191.2 168.17C190.957 168.621 190.596 168.998 190.156 169.261C189.716 169.524 189.213 169.663 188.7 169.663C188.187 169.663 187.684 169.524 187.244 169.261C186.804 168.998 186.443 168.621 186.2 168.17L180.62 157.96C180.362 157.481 179.969 157.088 179.49 156.83L169.28 151.25C168.829 151.007 168.452 150.646 168.189 150.206C167.926 149.766 167.787 149.263 167.787 148.75C167.787 148.237 167.926 147.734 168.189 147.294C168.452 146.854 168.829 146.493 169.28 146.25L179.49 140.67C179.969 140.412 180.362 140.019 180.62 139.54L186.2 129.34C186.441 128.886 186.801 128.506 187.241 128.241C187.682 127.976 188.186 127.836 188.7 127.836C189.214 127.836 189.718 127.976 190.159 128.241C190.599 128.506 190.959 128.886 191.2 129.34L196.79 139.54C197.048 140.016 197.436 140.408 197.91 140.67Z" fill="white"/>
<path d="M213.09 93.61L217.62 96.08C217.818 96.1886 217.983 96.3485 218.099 96.5429C218.214 96.7373 218.275 96.9591 218.275 97.185C218.275 97.411 218.214 97.6328 218.099 97.8272C217.983 98.0216 217.818 98.1814 217.62 98.29L213.09 100.77C212.874 100.884 212.699 101.062 212.59 101.28L210.11 105.81C210.001 106.008 209.842 106.173 209.647 106.289C209.453 106.404 209.231 106.465 209.005 106.465C208.779 106.465 208.557 106.404 208.363 106.289C208.168 106.173 208.009 106.008 207.9 105.81L205.42 101.28C205.305 101.066 205.131 100.89 204.92 100.77L200.38 98.29C200.182 98.1814 200.017 98.0216 199.901 97.8272C199.786 97.6328 199.725 97.411 199.725 97.185C199.725 96.9591 199.786 96.7373 199.901 96.5429C200.017 96.3485 200.182 96.1886 200.38 96.08L204.92 93.61C205.131 93.4905 205.305 93.3137 205.42 93.1L207.9 88.57C208.009 88.3719 208.168 88.2065 208.363 88.0914C208.557 87.9762 208.779 87.9155 209.005 87.9155C209.231 87.9155 209.453 87.9762 209.647 88.0914C209.842 88.2065 210.001 88.3719 210.11 88.57L212.59 93.1C212.699 93.318 212.874 93.4963 213.09 93.61Z" fill="white"/>
<path d="M245.35 134L247.89 135.39C248 135.452 248.092 135.542 248.156 135.651C248.22 135.76 248.254 135.884 248.254 136.01C248.254 136.136 248.22 136.26 248.156 136.369C248.092 136.478 248 136.568 247.89 136.63L245.35 138C245.23 138.066 245.13 138.163 245.06 138.28L243.67 140.82C243.608 140.93 243.518 141.022 243.409 141.086C243.3 141.15 243.176 141.184 243.05 141.184C242.924 141.184 242.8 141.15 242.691 141.086C242.582 141.022 242.492 140.93 242.43 140.82L241 138.28C240.936 138.161 240.839 138.064 240.72 138L238.18 136.61C238.07 136.548 237.978 136.458 237.914 136.35C237.85 136.241 237.816 136.116 237.816 135.99C237.816 135.864 237.85 135.74 237.914 135.631C237.978 135.522 238.07 135.432 238.18 135.37L240.72 133.98C240.839 133.916 240.936 133.819 241 133.7L242.39 131.15C242.452 131.04 242.542 130.948 242.651 130.884C242.76 130.82 242.884 130.786 243.01 130.786C243.136 130.786 243.26 130.82 243.369 130.884C243.478 130.948 243.568 131.04 243.63 131.15L245.02 133.7C245.098 133.83 245.213 133.934 245.35 134V134Z" fill="white"/>
<path d="M379.48 391.77L377.27 372.61H361.79L353.27 334.25L352.95 334.42L351.57 322.42L298.28 301.34L277 322.94L257.5 297.12L230.5 315.06L214.37 300.65L198 335.73H180.27L167.95 391.73L379.48 391.77Z" fill="#AFAFD3"/>
<path d="M214.37 300.65L231.02 365.7L197.98 335.73L214.37 300.65Z" fill="#7577A7"/>
<path d="M231.02 365.7L167.95 391.77H287.96L231.02 365.7Z" fill="#606491"/>
<path d="M231.02 365.7L276.99 322.94L303.09 360.12L231.02 365.7Z" fill="#7577A7"/>
<path d="M351.57 322.46L303.09 360.12L361.79 372.61L351.57 322.46Z" fill="#7577A7"/>
<path d="M303.09 360.12L287.96 391.77H326.98L303.09 360.12Z" fill="#606491"/>
<path d="M361.79 372.61L348.08 391.77H379.48L361.79 372.61Z" fill="#606491"/>
<path d="M230.5 315.06L231.02 365.7L257.49 297.12L230.5 315.06Z" fill="#E4E4F2"/>
<path d="M298.28 301.38L303.09 360.12L351.57 322.46L298.28 301.38Z" fill="#E4E4F2"/>
<path d="M180.27 335.73L207.28 375.51L183.24 385.45L180.27 335.73Z" fill="#E4E4F2"/>
<path d="M276.728 252.67C272.157 252.67 267.88 251.938 263.896 250.473C259.911 248.979 256.439 246.825 253.48 244.013C250.58 241.259 248.295 237.86 246.625 233.817C244.955 229.745 244.12 225.277 244.12 220.414C244.12 215.58 244.955 211.112 246.625 207.011C248.324 202.88 250.697 199.306 253.744 196.288C256.732 193.329 260.321 191.044 264.511 189.433C268.7 187.792 273.183 186.972 277.958 186.972C281.415 186.972 284.564 187.396 287.406 188.246C290.248 189.066 292.65 190.004 294.613 191.059L297.338 188.642H301.161L301.557 211.405H297.689C295.492 204.462 292.855 199.364 289.779 196.112C286.703 192.86 282.953 191.234 278.529 191.234C273.021 191.234 268.832 193.666 265.961 198.529C263.09 203.363 261.654 210.16 261.654 218.92C261.654 223.871 262.138 228.104 263.104 231.62C264.101 235.106 265.39 237.919 266.972 240.058C268.671 242.284 270.678 243.925 272.992 244.979C275.307 246.005 277.87 246.518 280.683 246.518C284.784 246.518 288.432 245.404 291.625 243.178C294.848 240.951 297.777 237.582 300.414 233.07L304.193 235.355C302.934 237.934 301.498 240.248 299.887 242.299C298.275 244.32 296.415 246.063 294.306 247.528C291.991 249.14 289.428 250.399 286.615 251.308C283.832 252.216 280.536 252.67 276.728 252.67Z" fill="#FFE76E"/>
</svg>
