<svg width="375" height="288" viewBox="0 0 375 288" fill="none" xmlns="http://www.w3.org/2000/svg">
<g clip-path="url(#clip0_286_166)">
<path d="M338.58 0H36.18C21.3512 0 9.33002 12.0212 9.33002 26.85V243.86C9.33002 258.689 21.3512 270.71 36.18 270.71H338.58C353.409 270.71 365.43 258.689 365.43 243.86V26.85C365.43 12.0212 353.409 0 338.58 0Z" fill="#046EA3"/>
<path d="M30.43 9.33008H344.34C347.523 9.33008 350.575 10.5944 352.825 12.8448C355.076 15.0952 356.34 18.1475 356.34 21.3301V226.42H18.43V21.3301C18.43 18.1475 19.6943 15.0952 21.9447 12.8448C24.1952 10.5944 27.2474 9.33008 30.43 9.33008V9.33008Z" fill="#0090DD"/>
<path d="M357.48 288H17.29C12.7085 287.987 8.31838 286.161 5.07873 282.921C1.83908 279.682 0.0132225 275.291 3.05176e-05 270.71H3.05176e-05C0.0132225 266.128 1.83908 261.738 5.07873 258.499C8.31838 255.259 12.7085 253.433 17.29 253.42H357.48C362.062 253.433 366.452 255.259 369.691 258.499C372.931 261.738 374.757 266.128 374.77 270.71V270.71C374.757 275.291 372.931 279.682 369.691 282.921C366.452 286.161 362.062 287.987 357.48 288V288Z" fill="#00597C"/>
<path d="M346 49.8799C346 56.4046 344.066 62.7828 340.442 68.2085C336.818 73.6343 331.667 77.864 325.64 80.3631C319.613 82.8623 312.98 83.5187 306.58 82.2495C300.18 80.9802 294.3 77.8422 289.683 73.2321C285.066 68.6219 281.919 62.7466 280.64 56.3485C279.361 49.9504 280.008 43.3168 282.498 37.286C284.988 31.2551 289.21 26.0978 294.63 22.4657C300.05 18.8336 306.425 16.8898 312.95 16.8799C317.288 16.8733 321.584 17.7221 325.594 19.3775C329.603 21.033 333.247 23.4627 336.317 26.5277C339.387 29.5927 341.822 33.2328 343.483 37.2398C345.145 41.2468 346 45.5421 346 49.8799V49.8799Z" fill="white"/>
<path d="M330.65 49.4101C330.655 49.48 330.655 49.5502 330.65 49.6201C330.639 52.4091 329.953 55.154 328.65 57.6201L328.41 58.0601C326.228 61.8918 322.671 64.7514 318.46 66.0601C317.922 66.2305 317.374 66.3707 316.82 66.4801C316.061 66.6344 315.293 66.738 314.52 66.7901C314.2 66.7901 313.87 66.7901 313.52 66.7901H313.1C312.76 66.7901 312.44 66.7901 312.1 66.7901C311.324 66.7386 310.552 66.635 309.79 66.4801C309.239 66.372 308.695 66.2317 308.16 66.0601C303.948 64.7541 300.39 61.8938 298.21 58.0601C298.122 57.9177 298.042 57.7708 297.97 57.6201C296.663 55.1558 295.976 52.4097 295.97 49.6201C295.965 49.5502 295.965 49.48 295.97 49.4101C295.965 49.3402 295.965 49.27 295.97 49.2001C295.978 46.4107 296.665 43.6653 297.97 41.2001L298.2 40.8101C300.406 36.9195 304.033 34.0344 308.32 32.7601C308.74 32.6301 309.15 32.5301 309.58 32.4401C310.408 32.2489 311.251 32.1285 312.1 32.0801C312.42 32.0801 312.74 32.0801 313.1 32.0801H313.52C313.85 32.0801 314.18 32.0801 314.52 32.0801C315.365 32.1278 316.205 32.2482 317.03 32.4401C317.45 32.5301 317.87 32.6301 318.29 32.7601C322.578 34.0368 326.208 36.9209 328.42 40.8101C328.5 40.9401 328.57 41.0701 328.64 41.2001C329.963 43.6608 330.666 46.4066 330.69 49.2001C330.682 49.271 330.669 49.3412 330.65 49.4101V49.4101Z" fill="#0090DD"/>
<path d="M322.17 49.4098C322.17 58.9998 318.17 66.7798 313.28 66.7798C308.39 66.7798 304.39 58.9998 304.39 49.4098C304.39 39.8198 308.39 32.0298 313.28 32.0298C318.17 32.0298 322.17 39.8098 322.17 49.4098Z" stroke="white" stroke-width="0.5" stroke-miterlimit="10"/>
<path d="M328.59 41.2001H298L298.23 40.8101H328.41C328.45 40.9401 328.52 41.0701 328.59 41.2001Z" fill="white"/>
<path d="M330.65 49.4097C330.655 49.4796 330.655 49.5498 330.65 49.6197H295.91C295.905 49.5498 295.905 49.4796 295.91 49.4097C295.905 49.3398 295.905 49.2696 295.91 49.1997H330.64C330.649 49.2694 330.652 49.3396 330.65 49.4097V49.4097Z" fill="white"/>
<path d="M313.48 32.0298H313.06V66.7698H313.48V32.0298Z" fill="white"/>
<path d="M328.6 57.5898L328.36 58.0298H298.2C298.112 57.8875 298.032 57.7406 297.96 57.5898H328.6Z" fill="white"/>
<path d="M256.65 111.64L256.04 110.9L226.22 75.12L195.24 92.68L164.25 134.49L132.16 110.24L101.72 141.24V134.6L132.16 103.6L164.25 127.84L195.24 86.04L226.22 68.48L256.65 105V111.64Z" fill="#84A6C0"/>
<path d="M103.94 104.86H99.51V169.67H103.94V104.86Z" fill="#00597C"/>
<path d="M112.79 117.07H90.66V157.46H112.79V117.07Z" fill="#31C800"/>
<path d="M197.45 58.9399H193.02V123.75H197.45V58.9399Z" fill="#00597C"/>
<path d="M206.3 71.1499H184.17V111.54H206.3V71.1499Z" fill="#FF0000"/>
<path d="M258.87 79.6699H254.44V135.66H258.87V79.6699Z" fill="#00597C"/>
<path d="M267.72 91.3501H245.59V124H267.72V91.3501Z" fill="#FF0000"/>
<path d="M134.37 73.8599H129.94V138.67H134.37V73.8599Z" fill="#00597C"/>
<path d="M143.22 89.9399H121.09V122.59H143.22V89.9399Z" fill="#FF0000"/>
<path d="M166.47 90.1699H162.04V170.86H166.47V90.1699Z" fill="#00597C"/>
<path d="M175.31 102.15H153.18V158.87H175.31V102.15Z" fill="#31C800"/>
<path d="M228.44 30.7603H224.01V111.54H228.44V30.7603Z" fill="#00597C"/>
<path d="M237.28 42.79H215.15V99.51H237.28V42.79Z" fill="#31C800"/>
<path d="M85.49 209.19V26.3301H76.09V209.19V218.59H85.49H302.58V209.19H85.49Z" fill="#00597C"/>
<path d="M173.21 179.56H106.26V201.97H173.21V179.56Z" fill="#31C800"/>
<path d="M115.62 182C117.351 181.737 119.1 181.613 120.85 181.63C123.32 181.63 124.85 181.87 126.14 182.63C126.789 182.956 127.333 183.456 127.713 184.074C128.093 184.692 128.293 185.404 128.29 186.13C128.281 187.001 127.989 187.846 127.456 188.535C126.924 189.224 126.181 189.721 125.34 189.95V190C126.35 190.21 127.256 190.763 127.905 191.565C128.554 192.367 128.905 193.368 128.9 194.4C128.902 195.133 128.735 195.858 128.412 196.516C128.09 197.175 127.62 197.751 127.04 198.2C125.74 199.2 123.56 199.82 120.04 199.82C118.575 199.837 117.112 199.746 115.66 199.55L115.62 182ZM119.62 188.85H121C123.12 188.85 124.26 187.97 124.26 186.65C124.26 185.33 123.26 184.57 121.4 184.57C120.821 184.563 120.243 184.599 119.67 184.68L119.62 188.85ZM119.62 196.79C120.143 196.82 120.667 196.82 121.19 196.79C123.02 196.79 124.64 196.1 124.64 194.21C124.64 192.32 123.02 191.69 121 191.69H119.62V196.79Z" fill="white"/>
<path d="M135.7 181.74V192C135.7 195.08 136.87 196.65 138.94 196.65C141.01 196.65 142.23 195.16 142.23 192V181.7H146.23V191.7C146.23 197.22 143.45 199.84 138.78 199.84C134.11 199.84 131.61 197.35 131.61 191.64V181.64L135.7 181.74Z" fill="white"/>
<path d="M153.92 199.63V192.31L148.27 181.74H152.88L154.72 186.04C155.27 187.34 155.64 188.3 156.1 189.47H156.15C156.55 188.35 156.97 187.32 157.5 186.04L159.31 181.74H163.85L158 192.17V199.63H153.92Z" fill="white"/>
<path d="M283.23 179.56H216.28V201.97H283.23V179.56Z" fill="#FF0000"/>
<path d="M223.6 195.56C224.99 196.266 226.522 196.646 228.08 196.67C229.94 196.67 230.92 195.9 230.92 194.74C230.92 193.58 230.07 192.98 227.92 192.21C224.92 191.21 223.01 189.53 223.01 186.93C223.01 183.88 225.56 181.54 229.78 181.54C231.351 181.514 232.909 181.824 234.35 182.45L233.44 185.71C232.274 185.147 230.995 184.856 229.7 184.86C227.95 184.86 227.1 185.66 227.1 186.59C227.1 187.73 228.1 188.23 230.42 189.11C233.58 190.28 235.06 191.92 235.06 194.44C235.06 197.44 232.75 199.99 227.84 199.99C226.09 200.011 224.357 199.638 222.77 198.9L223.6 195.56Z" fill="white"/>
<path d="M248.45 192.16H241.87V196.41H249.22V199.73H237.8V181.83H248.8V185.15H241.8V188.87H248.38L248.45 192.16Z" fill="white"/>
<path d="M252 181.83H256.06V196.33H263.17V199.73H252V181.83Z" fill="white"/>
<path d="M265.56 181.83H269.62V196.33H276.73V199.73H265.56V181.83Z" fill="white"/>
<path d="M202.94 213.52L210.29 227.74C210.382 227.917 210.523 228.064 210.696 228.164C210.868 228.264 211.066 228.312 211.265 228.304C211.465 228.296 211.658 228.23 211.821 228.116C211.985 228.002 212.113 227.844 212.19 227.66L218.37 213L224.71 197.94C224.782 197.77 224.807 197.584 224.785 197.401C224.762 197.218 224.691 197.044 224.579 196.897C224.468 196.75 224.319 196.635 224.149 196.563C223.979 196.492 223.793 196.467 223.61 196.49L207.4 198.49L191.6 200.49C191.389 200.491 191.184 200.559 191.014 200.684C190.845 200.809 190.718 200.984 190.654 201.185C190.59 201.385 190.591 201.601 190.656 201.802C190.722 202.002 190.849 202.176 191.02 202.3L202.72 213.22C202.81 213.306 202.885 213.408 202.94 213.52V213.52Z" fill="white"/>
<path d="M211.197 211.178L207.839 206.747C207.402 206.171 206.58 206.057 206.003 206.494L187.203 220.744C186.627 221.181 186.514 222.002 186.951 222.579L190.309 227.01C190.746 227.587 191.568 227.7 192.144 227.263L210.945 213.013C211.521 212.576 211.634 211.755 211.197 211.178Z" fill="white"/>
<path d="M263.556 80.4985C267.368 76.687 267.368 70.5073 263.556 66.6958C259.745 62.8843 253.565 62.8843 249.754 66.6958C245.942 70.5073 245.942 76.687 249.754 80.4985C253.565 84.31 259.745 84.31 263.556 80.4985Z" fill="url(#paint0_linear_286_166)"/>
<path d="M262.58 79.5227C265.853 76.2501 265.853 70.9442 262.58 67.6716C259.308 64.399 254.002 64.399 250.729 67.6716C247.457 70.9442 247.457 76.2501 250.729 79.5227C254.002 82.7953 259.308 82.7953 262.58 79.5227Z" fill="url(#paint1_linear_286_166)"/>
<path fill-rule="evenodd" clip-rule="evenodd" d="M256.65 65.62C258.831 65.6271 260.924 66.4846 262.483 68.0102C264.043 69.5358 264.945 71.6092 265 73.79V73.59C265 71.3674 264.117 69.236 262.546 67.6644C260.974 66.0929 258.843 65.21 256.62 65.21C254.398 65.21 252.266 66.0929 250.694 67.6644C249.123 69.236 248.24 71.3674 248.24 73.59C248.24 73.66 248.24 73.72 248.24 73.79C248.292 71.598 249.203 69.5141 250.775 67.9863C252.348 66.4585 254.457 65.6089 256.65 65.62Z" fill="url(#paint2_linear_286_166)"/>
<path d="M256.65 81.5601C258.831 81.553 260.924 80.6955 262.483 79.1699C264.043 77.6443 264.945 75.5709 265 73.3901V73.5901C265 75.8126 264.117 77.9441 262.546 79.5157C260.974 81.0872 258.843 81.9701 256.62 81.9701C254.398 81.9701 252.266 81.0872 250.694 79.5157C249.123 77.9441 248.24 75.8126 248.24 73.5901C248.24 73.5201 248.24 73.4501 248.24 73.3901C248.292 75.5821 249.203 77.666 250.775 79.1938C252.348 80.7216 254.457 81.5712 256.65 81.5601Z" fill="url(#paint3_linear_286_166)"/>
<path d="M260.85 75.24C260.856 75.1668 260.856 75.0932 260.85 75.02C260.855 74.9801 260.855 74.9399 260.85 74.9C260.858 74.8638 260.858 74.8262 260.85 74.79C260.854 74.7501 260.854 74.7099 260.85 74.67V74.67C260.854 74.6502 260.854 74.6298 260.85 74.61C260.835 74.5757 260.819 74.5423 260.8 74.51V74.43C260.798 74.4034 260.798 74.3766 260.8 74.35C260.78 74.3257 260.763 74.2988 260.75 74.27C260.659 74.1302 260.559 73.9966 260.45 73.87V73.87C259.998 73.3906 259.378 73.104 258.72 73.07H258C257.72 73.0669 257.445 73.1385 257.203 73.2774C256.96 73.4162 256.759 73.6174 256.62 73.86V73.86C256.476 74.1058 256.4 74.3853 256.4 74.67H258.22C258.393 74.6938 258.555 74.7712 258.682 74.8913C258.81 75.0114 258.896 75.1683 258.93 75.34C258.935 75.3631 258.935 75.3869 258.93 75.41C258.93 75.5943 258.869 75.7735 258.757 75.9199C258.645 76.0663 258.488 76.1717 258.31 76.22H255.24C255.18 76.2295 255.12 76.2295 255.06 76.22V76.22C254.778 76.1664 254.524 76.0162 254.342 75.7953C254.159 75.5743 254.06 75.2966 254.06 75.01V72.58C254.061 72.3829 254.11 72.189 254.202 72.0148C254.294 71.8407 254.427 71.6915 254.59 71.58C254.792 71.4374 255.033 71.3605 255.28 71.36H261C260.838 70.9107 260.549 70.5187 260.166 70.2325C259.784 69.9464 259.327 69.7786 258.85 69.75V68H258.56C258.446 68 258.334 68.0226 258.229 68.0664C258.124 68.1102 258.028 68.1745 257.948 68.2554C257.868 68.3363 257.805 68.4323 257.763 68.5378C257.72 68.6433 257.699 68.7562 257.7 68.87V69.8H256.43V68H256.14C255.923 68.001 255.714 68.0872 255.56 68.24C255.471 68.3192 255.401 68.4163 255.352 68.5249C255.304 68.6335 255.279 68.7512 255.28 68.87V69.8H254.92C254.252 69.8157 253.616 70.0923 253.148 70.5707C252.681 71.0491 252.42 71.6913 252.42 72.36V75.36C252.415 75.7028 252.48 76.043 252.61 76.36C252.785 76.752 253.052 77.0953 253.39 77.36H253.45C253.88 77.6992 254.412 77.8825 254.96 77.88H255.28V78.68C255.28 78.909 255.37 79.1288 255.531 79.2917C255.692 79.4545 255.911 79.5474 256.14 79.55H256.43V77.94H257.7V78.72C257.699 78.9126 257.762 79.1 257.88 79.2523C257.998 79.4046 258.163 79.513 258.35 79.56C258.42 79.5697 258.49 79.5697 258.56 79.56H258.85V77.9H258.92H258.99C259.512 77.7485 259.971 77.4329 260.3 77C260.336 76.9591 260.37 76.9157 260.4 76.87C260.422 76.8473 260.439 76.82 260.45 76.79C260.569 76.6279 260.663 76.4493 260.73 76.26C260.809 76.0381 260.853 75.8053 260.86 75.57C260.87 75.487 260.87 75.403 260.86 75.32C260.859 75.2931 260.856 75.2663 260.85 75.24V75.24Z" fill="#FFA200"/>
<path d="M260.85 74.8699C260.854 74.7966 260.854 74.7231 260.85 74.6498C260.853 74.6133 260.853 74.5764 260.85 74.5398C260.859 74.5037 260.859 74.466 260.85 74.4298C260.854 74.39 260.854 74.3497 260.85 74.3098V74.3098L260.8 74.2098V74.1398C260.8 74.1398 260.8 74.0898 260.8 74.0598C260.78 74.0321 260.763 74.0018 260.75 73.9698C260.661 73.8315 260.561 73.7011 260.45 73.5798V73.5798C259.999 73.0976 259.379 72.8075 258.72 72.7698H258C257.721 72.7728 257.447 72.848 257.205 72.9882C256.963 73.1284 256.761 73.3288 256.62 73.5698C256.475 73.8151 256.399 74.0949 256.4 74.3798H258.22C258.394 74.4022 258.556 74.4791 258.684 74.5994C258.812 74.7198 258.898 74.8775 258.93 75.0499C258.935 75.0729 258.935 75.0968 258.93 75.1199V75.1798C258.929 75.3629 258.868 75.5406 258.756 75.6853C258.644 75.83 258.487 75.9335 258.31 75.9799H258.25H255.25H255.07C254.788 75.9263 254.534 75.776 254.352 75.5551C254.169 75.3342 254.07 75.0564 254.07 74.7698V72.2198C254.072 71.9088 254.192 71.6099 254.405 71.3836C254.618 71.1572 254.91 71.0201 255.22 70.9998H260.94C260.779 70.5494 260.49 70.156 260.107 69.8681C259.725 69.5802 259.267 69.4105 258.79 69.3798V69.3798V67.5898H258.5C258.386 67.5898 258.274 67.6124 258.169 67.6563C258.064 67.7001 257.968 67.7643 257.888 67.8453C257.808 67.9262 257.745 68.0222 257.703 68.1277C257.66 68.2332 257.639 68.3461 257.64 68.4598V69.3798H256.37V67.5898H256.08C255.865 67.5912 255.658 67.6733 255.5 67.8198C255.412 67.9018 255.342 68.0008 255.294 68.1109C255.246 68.2209 255.221 68.3397 255.22 68.4598V69.3798H254.86C254.192 69.3929 253.557 69.6674 253.089 70.1442C252.622 70.621 252.36 71.2621 252.36 71.9298V74.9298C252.356 75.2725 252.421 75.6125 252.55 75.9298C252.724 76.3225 252.991 76.666 253.33 76.9298L253.39 76.9799C253.822 77.3149 254.353 77.4978 254.9 77.4998H255.22V78.2999C255.22 78.5279 255.311 78.7467 255.472 78.908C255.633 79.0692 255.852 79.1599 256.08 79.1599H256.37V77.5698H257.64V78.3598C257.639 78.5524 257.702 78.7399 257.82 78.8922C257.938 79.0445 258.103 79.1528 258.29 79.1998C258.36 79.2097 258.43 79.2097 258.5 79.1998H258.79V77.5398H258.86H258.93C259.464 77.4109 259.943 77.117 260.3 76.6998L260.4 76.5798C260.42 76.5556 260.437 76.5286 260.45 76.4998C260.567 76.333 260.661 76.1514 260.73 75.9598C260.81 75.7416 260.854 75.512 260.86 75.2798C260.87 75.1968 260.87 75.1129 260.86 75.0298C260.864 74.9763 260.861 74.9224 260.85 74.8699Z" fill="white"/>
<path d="M260.85 75.24C260.856 75.1668 260.856 75.0932 260.85 75.02C260.855 74.9801 260.855 74.9399 260.85 74.9C260.858 74.8638 260.858 74.8262 260.85 74.79C260.854 74.7501 260.854 74.7099 260.85 74.67V74.67C260.854 74.6502 260.854 74.6298 260.85 74.61C260.835 74.5757 260.819 74.5423 260.8 74.51V74.43C260.798 74.4034 260.798 74.3766 260.8 74.35C260.78 74.3257 260.763 74.2988 260.75 74.27C260.659 74.1302 260.559 73.9966 260.45 73.87V73.87C259.998 73.3906 259.378 73.104 258.72 73.07H258C257.72 73.0669 257.445 73.1385 257.203 73.2774C256.96 73.4162 256.759 73.6174 256.62 73.86V73.86C256.476 74.1058 256.4 74.3853 256.4 74.67H258.22C258.393 74.6938 258.555 74.7712 258.682 74.8913C258.81 75.0114 258.896 75.1683 258.93 75.34C258.935 75.3631 258.935 75.3869 258.93 75.41C258.93 75.5943 258.869 75.7735 258.757 75.9199C258.645 76.0663 258.488 76.1717 258.31 76.22H255.24C255.18 76.2295 255.12 76.2295 255.06 76.22V76.22C254.778 76.1664 254.524 76.0162 254.342 75.7953C254.159 75.5743 254.06 75.2966 254.06 75.01V72.58C254.061 72.3829 254.11 72.189 254.202 72.0148C254.294 71.8407 254.427 71.6915 254.59 71.58C254.792 71.4374 255.033 71.3605 255.28 71.36H261C260.838 70.9107 260.549 70.5187 260.166 70.2325C259.784 69.9464 259.327 69.7786 258.85 69.75V68H258.56C258.446 68 258.334 68.0226 258.229 68.0664C258.124 68.1102 258.028 68.1745 257.948 68.2554C257.868 68.3363 257.805 68.4323 257.763 68.5378C257.72 68.6433 257.699 68.7562 257.7 68.87V69.8H256.43V68H256.14C255.923 68.001 255.714 68.0872 255.56 68.24C255.471 68.3192 255.401 68.4163 255.352 68.5249C255.304 68.6335 255.279 68.7512 255.28 68.87V69.8H254.92C254.252 69.8157 253.616 70.0923 253.148 70.5707C252.681 71.0491 252.42 71.6913 252.42 72.36V75.36C252.415 75.7028 252.48 76.043 252.61 76.36C252.785 76.752 253.052 77.0953 253.39 77.36H253.45C253.88 77.6992 254.412 77.8825 254.96 77.88H255.28V78.68C255.28 78.909 255.37 79.1288 255.531 79.2917C255.692 79.4545 255.911 79.5474 256.14 79.55H256.43V77.94H257.7V78.72C257.699 78.9126 257.762 79.1 257.88 79.2523C257.998 79.4046 258.163 79.513 258.35 79.56C258.42 79.5697 258.49 79.5697 258.56 79.56H258.85V77.9H258.92H258.99C259.512 77.7485 259.971 77.4329 260.3 77C260.336 76.9591 260.37 76.9157 260.4 76.87C260.422 76.8473 260.439 76.82 260.45 76.79C260.569 76.6279 260.663 76.4493 260.73 76.26C260.809 76.0381 260.853 75.8053 260.86 75.57C260.87 75.487 260.87 75.403 260.86 75.32C260.859 75.2931 260.856 75.2663 260.85 75.24V75.24Z" fill="url(#paint4_linear_286_166)"/>
<path d="M233.121 33.228C236.933 29.4165 236.933 23.2368 233.121 19.4253C229.31 15.6138 223.13 15.6138 219.318 19.4253C215.507 23.2368 215.507 29.4165 219.318 33.228C223.13 37.0395 229.31 37.0395 233.121 33.228Z" fill="url(#paint5_linear_286_166)"/>
<path d="M232.145 32.2522C235.418 28.9796 235.418 23.6737 232.145 20.4011C228.873 17.1285 223.567 17.1285 220.294 20.4011C217.022 23.6737 217.022 28.9796 220.294 32.2522C223.567 35.5248 228.873 35.5248 232.145 32.2522Z" fill="url(#paint6_linear_286_166)"/>
<path fill-rule="evenodd" clip-rule="evenodd" d="M226.22 18.3602C228.406 18.3596 230.505 19.2139 232.069 20.7406C233.633 22.2673 234.538 24.3452 234.59 26.5302C234.595 26.4636 234.595 26.3968 234.59 26.3302C234.59 24.1077 233.707 21.9762 232.136 20.4046C230.564 18.8331 228.433 17.9502 226.21 17.9502C223.988 17.9502 221.856 18.8331 220.284 20.4046C218.713 21.9762 217.83 24.1077 217.83 26.3302C217.825 26.3968 217.825 26.4636 217.83 26.5302C217.882 24.3417 218.79 22.2608 220.358 20.7336C221.927 19.2064 224.031 18.3543 226.22 18.3602V18.3602Z" fill="url(#paint7_linear_286_166)"/>
<path d="M226.22 34.3099C228.407 34.3104 230.508 33.4547 232.072 31.9259C233.637 30.3971 234.54 28.3167 234.59 26.1299C234.595 26.1965 234.595 26.2633 234.59 26.3299C234.59 28.5524 233.707 30.6839 232.136 32.2554C230.564 33.827 228.433 34.7099 226.21 34.7099C223.988 34.7099 221.856 33.827 220.284 32.2554C218.713 30.6839 217.83 28.5524 217.83 26.3299C217.825 26.2633 217.825 26.1965 217.83 26.1299C217.88 28.3201 218.786 30.4036 220.355 31.9329C221.924 33.4623 224.029 34.3157 226.22 34.3099Z" fill="url(#paint8_linear_286_166)"/>
<path d="M230.42 27.9998V27.7798V27.6698V27.5598C230.42 27.5098 230.42 27.4698 230.42 27.4298C230.42 27.4298 230.42 27.4298 230.42 27.3698C230.424 27.3366 230.424 27.303 230.42 27.2698V27.1998C230.406 27.1717 230.389 27.145 230.37 27.1198C230.373 27.0899 230.373 27.0597 230.37 27.0298C230.288 26.8894 230.191 26.7586 230.08 26.6398V26.6398C229.628 26.1592 229.009 25.8695 228.35 25.8298H227.83C227.613 25.8273 227.398 25.8717 227.2 25.9598C226.885 26.0969 226.62 26.3273 226.44 26.6198V26.6198C226.295 26.8615 226.219 27.1381 226.22 27.4198H228.03C228.205 27.443 228.368 27.52 228.497 27.6401C228.626 27.7601 228.714 27.9172 228.75 28.0898C228.75 28.0898 228.75 28.1398 228.75 28.1698C228.754 28.1862 228.754 28.2033 228.75 28.2198C228.748 28.4037 228.687 28.5821 228.575 28.7281C228.463 28.8742 228.307 28.98 228.13 29.0298H225.06C224.997 29.0402 224.933 29.0402 224.87 29.0298C224.588 28.9801 224.334 28.8324 224.15 28.6127C223.967 28.3931 223.868 28.1157 223.87 27.8298V25.3298C223.869 25.1692 223.899 25.0099 223.96 24.8613C224.021 24.7127 224.111 24.5777 224.224 24.4641C224.338 24.3506 224.473 24.2608 224.622 24.1999C224.77 24.1391 224.929 24.1084 225.09 24.1098H230.81C230.647 23.6612 230.357 23.2699 229.975 22.9839C229.593 22.6979 229.136 22.5296 228.66 22.4998V20.6998H228.38C228.266 20.6984 228.153 20.7197 228.048 20.7623C227.942 20.805 227.846 20.8681 227.765 20.9481C227.685 21.0281 227.62 21.1233 227.576 21.2283C227.533 21.3333 227.51 21.446 227.51 21.5598V22.4898H226.25V20.6998H225.96C225.742 20.7015 225.532 20.7834 225.37 20.9298C225.284 21.0103 225.215 21.1079 225.169 21.2163C225.122 21.3248 225.099 21.4418 225.1 21.5598V22.4898H224.73C224.063 22.508 223.43 22.7857 222.965 23.2639C222.5 23.742 222.24 24.3828 222.24 25.0498V28.0498C222.237 28.3923 222.302 28.7321 222.43 29.0498C222.6 29.4444 222.869 29.7887 223.21 30.0498H223.27C223.7 30.3812 224.227 30.5606 224.77 30.5598H225.1V31.3698C225.1 31.5979 225.191 31.8166 225.352 31.9779C225.513 32.1392 225.732 32.2298 225.96 32.2298H226.25V30.6798H227.51V31.4698C227.513 31.6628 227.579 31.8496 227.698 32.0014C227.817 32.1532 227.983 32.2615 228.17 32.3098H228.38H228.66V30.6398H228.74H228.8C229.338 30.5215 229.823 30.2299 230.18 29.8098C230.216 29.7683 230.249 29.7249 230.28 29.6798L230.33 29.6098C230.443 29.4406 230.537 29.2595 230.61 29.0698C230.684 28.8466 230.728 28.6145 230.74 28.3798C230.751 28.2968 230.751 28.2128 230.74 28.1298L230.42 27.9998Z" fill="#FFA200"/>
<path d="M230.42 27.6201V27.4001V27.2801V27.1701V27.0501C230.42 27.0501 230.42 27.0501 230.42 27.0001C230.426 26.967 230.426 26.9332 230.42 26.9001V26.8201C230.401 26.7949 230.384 26.7681 230.37 26.7401C230.375 26.7137 230.375 26.6866 230.37 26.6601C230.288 26.5166 230.191 26.3825 230.08 26.2601V26.2601C229.627 25.7824 229.008 25.4962 228.35 25.4601H227.83C227.614 25.4593 227.4 25.5 227.2 25.5801C226.885 25.721 226.619 25.9547 226.44 26.2501V26.2501C226.296 26.4959 226.22 26.7754 226.22 27.0601H228.03C228.205 27.0834 228.368 27.1604 228.497 27.2804C228.626 27.4004 228.714 27.5576 228.75 27.7301C228.75 27.7301 228.75 27.7801 228.75 27.8001C228.755 27.8198 228.755 27.8404 228.75 27.8601C228.749 28.0432 228.688 28.2209 228.576 28.3656C228.464 28.5102 228.307 28.6138 228.13 28.6601H228.07H225.07C225.007 28.6706 224.943 28.6706 224.88 28.6601V28.6601C224.598 28.6083 224.343 28.4586 224.16 28.2373C223.977 28.016 223.878 27.7372 223.88 27.4501V25.0001C223.881 24.803 223.93 24.6091 224.022 24.4349C224.114 24.2608 224.248 24.1116 224.41 24.0001C224.611 23.855 224.852 23.7779 225.1 23.7801H230.82C230.659 23.3308 230.369 22.9388 229.987 22.6527C229.604 22.3665 229.147 22.1987 228.67 22.1701V22.1701V20.3701H228.39C228.159 20.3701 227.938 20.4618 227.775 20.6249C227.612 20.7881 227.52 21.0094 227.52 21.2401V22.1701H226.26V20.3701H225.97C225.75 20.3706 225.538 20.4567 225.38 20.6101C225.293 20.6902 225.224 20.7878 225.178 20.8963C225.131 21.0049 225.108 21.122 225.11 21.2401V22.1701H224.74C224.073 22.1884 223.44 22.4661 222.975 22.9442C222.51 23.4224 222.25 24.0631 222.25 24.7301V27.7301C222.246 28.0728 222.311 28.4128 222.44 28.7301C222.61 29.1247 222.879 29.469 223.22 29.7301L223.28 29.7801C223.706 30.1193 224.235 30.3028 224.78 30.3001H225.11V31.1001C225.109 31.2139 225.13 31.3268 225.173 31.4323C225.215 31.5378 225.278 31.6338 225.358 31.7147C225.438 31.7956 225.534 31.8599 225.639 31.9037C225.744 31.9476 225.856 31.9701 225.97 31.9701H226.26V30.3201H227.52V31.1001C227.519 31.294 227.584 31.4825 227.704 31.635C227.824 31.7875 227.991 31.895 228.18 31.9401C228.25 31.9498 228.32 31.9498 228.39 31.9401H228.67V30.2801H228.75H228.81C229.351 30.162 229.837 29.8663 230.19 29.4401L230.29 29.3201C230.309 29.2949 230.326 29.2681 230.34 29.2401C230.457 29.0733 230.551 28.8917 230.62 28.7001C230.695 28.4806 230.739 28.2517 230.75 28.0201C230.761 27.9371 230.761 27.8531 230.75 27.7701C230.75 27.7701 230.42 27.6601 230.42 27.6201Z" fill="white"/>
<path d="M230.42 27.9998V27.7798V27.6698V27.5598C230.42 27.5098 230.42 27.4698 230.42 27.4298C230.42 27.4298 230.42 27.4298 230.42 27.3698C230.424 27.3366 230.424 27.303 230.42 27.2698V27.1998C230.406 27.1717 230.389 27.145 230.37 27.1198C230.373 27.0899 230.373 27.0597 230.37 27.0298C230.288 26.8894 230.191 26.7586 230.08 26.6398V26.6398C229.628 26.1592 229.009 25.8695 228.35 25.8298H227.83C227.613 25.8273 227.398 25.8717 227.2 25.9598C226.885 26.0969 226.62 26.3273 226.44 26.6198V26.6198C226.295 26.8615 226.219 27.1381 226.22 27.4198H228.03C228.205 27.443 228.368 27.52 228.497 27.6401C228.626 27.7601 228.714 27.9172 228.75 28.0898C228.75 28.0898 228.75 28.1398 228.75 28.1698C228.754 28.1862 228.754 28.2033 228.75 28.2198C228.748 28.4037 228.687 28.5821 228.575 28.7281C228.463 28.8742 228.307 28.98 228.13 29.0298H225.06C224.997 29.0402 224.933 29.0402 224.87 29.0298C224.588 28.9801 224.334 28.8324 224.15 28.6127C223.967 28.3931 223.868 28.1157 223.87 27.8298V25.3298C223.869 25.1692 223.899 25.0099 223.96 24.8613C224.021 24.7127 224.111 24.5777 224.224 24.4641C224.338 24.3506 224.473 24.2608 224.622 24.1999C224.77 24.1391 224.929 24.1084 225.09 24.1098H230.81C230.647 23.6612 230.357 23.2699 229.975 22.9839C229.593 22.6979 229.136 22.5296 228.66 22.4998V20.6998H228.38C228.266 20.6984 228.153 20.7197 228.048 20.7623C227.942 20.805 227.846 20.8681 227.765 20.9481C227.685 21.0281 227.62 21.1233 227.576 21.2283C227.533 21.3333 227.51 21.446 227.51 21.5598V22.4898H226.25V20.6998H225.96C225.742 20.7015 225.532 20.7834 225.37 20.9298C225.284 21.0103 225.215 21.1079 225.169 21.2163C225.122 21.3248 225.099 21.4418 225.1 21.5598V22.4898H224.73C224.063 22.508 223.43 22.7857 222.965 23.2639C222.5 23.742 222.24 24.3828 222.24 25.0498V28.0498C222.237 28.3923 222.302 28.7321 222.43 29.0498C222.6 29.4444 222.869 29.7887 223.21 30.0498H223.27C223.7 30.3812 224.227 30.5606 224.77 30.5598H225.1V31.3698C225.1 31.5979 225.191 31.8166 225.352 31.9779C225.513 32.1392 225.732 32.2298 225.96 32.2298H226.25V30.6798H227.51V31.4698C227.513 31.6628 227.579 31.8496 227.698 32.0014C227.817 32.1532 227.983 32.2615 228.17 32.3098H228.38H228.66V30.6398H228.74H228.8C229.338 30.5215 229.823 30.2299 230.18 29.8098C230.216 29.7683 230.249 29.7249 230.28 29.6798L230.33 29.6098C230.443 29.4406 230.537 29.2595 230.61 29.0698C230.684 28.8466 230.728 28.6145 230.74 28.3798C230.751 28.2968 230.751 28.2128 230.74 28.1298L230.42 27.9998Z" fill="url(#paint9_linear_286_166)"/>
<path d="M202.207 58.1074C206.019 54.2959 206.019 48.1162 202.207 44.3047C198.396 40.4932 192.216 40.4932 188.405 44.3047C184.593 48.1162 184.593 54.2959 188.405 58.1074C192.216 61.9189 198.396 61.9189 202.207 58.1074Z" fill="url(#paint10_linear_286_166)"/>
<path d="M201.232 57.1316C204.504 53.859 204.504 48.5531 201.232 45.2805C197.959 42.0079 192.653 42.0079 189.38 45.2805C186.108 48.5531 186.108 53.859 189.38 57.1316C192.653 60.4042 197.959 60.4042 201.232 57.1316Z" fill="url(#paint11_linear_286_166)"/>
<path fill-rule="evenodd" clip-rule="evenodd" d="M195.31 43.2401C197.496 43.2395 199.595 44.0938 201.159 45.6205C202.723 47.1471 203.628 49.2251 203.68 51.4101C203.68 51.3501 203.68 51.2801 203.68 51.2101C203.68 48.9876 202.797 46.8561 201.226 45.2845C199.654 43.713 197.523 42.8301 195.3 42.8301C193.078 42.8301 190.946 43.713 189.374 45.2845C187.803 46.8561 186.92 48.9876 186.92 51.2101V51.4101C186.975 49.2224 187.883 47.143 189.451 45.6163C191.019 44.0896 193.122 43.2368 195.31 43.2401V43.2401Z" fill="url(#paint12_linear_286_166)"/>
<path d="M195.31 59.18C197.497 59.1806 199.598 58.3249 201.162 56.796C202.727 55.2672 203.63 53.1868 203.68 51C203.68 51.06 203.68 51.13 203.68 51.2C203.68 53.4225 202.797 55.554 201.226 57.1256C199.654 58.6971 197.523 59.58 195.3 59.58C193.078 59.58 190.946 58.6971 189.374 57.1256C187.803 55.554 186.92 53.4225 186.92 51.2V51C186.972 53.1894 187.88 55.2713 189.448 56.8002C191.016 58.329 193.12 59.1832 195.31 59.18V59.18Z" fill="url(#paint13_linear_286_166)"/>
<path d="M199.51 52.8601V52.6401V52.5301V52.4101C199.51 52.4101 199.51 52.3301 199.51 52.2901C199.506 52.2704 199.506 52.2499 199.51 52.2301V52.2301C199.512 52.1968 199.512 52.1634 199.51 52.1301C199.514 52.1036 199.514 52.0767 199.51 52.0501C199.512 52.0235 199.512 51.9968 199.51 51.9701C199.497 51.9413 199.48 51.9144 199.46 51.8901C199.378 51.7474 199.277 51.6162 199.16 51.5001V51.5001C198.716 51.0142 198.098 50.7231 197.44 50.6901H196.92C196.639 50.6852 196.361 50.756 196.117 50.8949C195.872 51.0339 195.67 51.236 195.53 51.4801V51.4801C195.393 51.7245 195.321 51.9999 195.32 52.2801H197.13C197.305 52.3034 197.468 52.3804 197.597 52.5004C197.726 52.6205 197.814 52.7776 197.85 52.9501C197.845 52.9731 197.845 52.9971 197.85 53.0201V53.1201C197.851 53.3032 197.791 53.4813 197.681 53.6276C197.571 53.7738 197.416 53.88 197.24 53.9301H194.16C194.1 53.9397 194.04 53.9397 193.98 53.9301V53.9301C193.698 53.8784 193.443 53.7286 193.26 53.5073C193.077 53.286 192.978 53.0073 192.98 52.7201V50.2101C192.982 50.0142 193.029 49.8215 193.12 49.6476C193.21 49.4738 193.341 49.3239 193.5 49.2101C193.705 49.0661 193.95 48.9892 194.2 48.9901H199.92C199.757 48.5416 199.467 48.1503 199.085 47.8642C198.703 47.5782 198.246 47.41 197.77 47.3801V47.3801V45.5801H197.49C197.376 45.5788 197.263 45.6001 197.158 45.6427C197.052 45.6853 196.956 45.7485 196.875 45.8285C196.795 45.9084 196.73 46.0037 196.686 46.1087C196.643 46.2137 196.62 46.3263 196.62 46.4401V47.3701H195V45.5801H194.71C194.481 45.5801 194.261 45.6704 194.098 45.8314C193.936 45.9924 193.843 46.2111 193.84 46.4401V47.3701H193.48C192.815 47.3909 192.184 47.6698 191.721 48.1476C191.258 48.6255 191 49.2648 191 49.9301V52.9301C190.992 53.2722 191.053 53.6125 191.18 53.9301C191.355 54.3245 191.627 54.6684 191.97 54.9301H192.03C192.455 55.2708 192.985 55.4544 193.53 55.4501H193.85V56.2501C193.85 56.4809 193.942 56.7022 194.105 56.8653C194.268 57.0285 194.489 57.1201 194.72 57.1201H195V55.5601H196.26V56.3401C196.259 56.5341 196.324 56.7226 196.444 56.875C196.564 57.0275 196.731 57.135 196.92 57.1801C196.99 57.1905 197.06 57.1905 197.13 57.1801H197.41V55.5201H197.48H197.55C198.087 55.3991 198.571 55.108 198.93 54.6901L199.02 54.5601L199.08 54.4901C199.19 54.3207 199.28 54.1396 199.35 53.9501C199.432 53.7287 199.479 53.496 199.49 53.2601V53.0001C199.49 52.9527 199.497 52.9056 199.51 52.8601V52.8601Z" fill="#FFA200"/>
<path d="M199.51 52.5002V52.2702V52.1602V52.0502C199.51 52.0502 199.51 51.9702 199.51 51.9302C199.508 51.8969 199.508 51.8635 199.51 51.8302V51.7602C199.514 51.7336 199.514 51.7067 199.51 51.6802C199.499 51.6502 199.482 51.6229 199.46 51.6002C199.381 51.4526 199.279 51.3178 199.16 51.2002V51.2002C198.713 50.7177 198.097 50.4274 197.44 50.3902H196.92C196.639 50.3914 196.363 50.4658 196.119 50.6061C195.875 50.7464 195.672 50.9477 195.53 51.1902V51.1902C195.394 51.4386 195.322 51.717 195.32 52.0002H197.13C197.305 52.022 197.469 52.0985 197.598 52.2188C197.728 52.3391 197.816 52.497 197.85 52.6702C197.845 52.6933 197.845 52.7171 197.85 52.7402V52.8402C197.85 53.0219 197.79 53.1986 197.68 53.3431C197.57 53.4877 197.415 53.592 197.24 53.6402H197.18H194.18C194.12 53.645 194.06 53.645 194 53.6402V53.6402C193.718 53.5884 193.462 53.4387 193.28 53.2174C193.097 52.9961 192.998 52.7173 193 52.4302V49.8402C193.002 49.6443 193.049 49.4515 193.14 49.2777C193.23 49.1039 193.361 48.9539 193.52 48.8402C193.725 48.6962 193.97 48.6193 194.22 48.6202H199.94C199.761 48.1138 199.42 47.6805 198.97 47.3876C198.52 47.0947 197.985 46.9585 197.45 47.0002V45.2002H197.17C197.056 45.2002 196.943 45.2227 196.837 45.2664C196.732 45.3101 196.636 45.3742 196.555 45.455C196.474 45.5358 196.41 45.6317 196.366 45.7373C196.323 45.8428 196.3 45.9559 196.3 46.0702V47.0002H195V45.2002H194.71C194.479 45.2002 194.258 45.2919 194.095 45.455C193.932 45.6182 193.84 45.8395 193.84 46.0702V47.0002H193.48C192.814 47.0185 192.182 47.2965 191.718 47.775C191.255 48.2534 190.997 48.8941 191 49.5602V52.5602C190.998 52.9486 191.088 53.3319 191.262 53.6793C191.436 54.0267 191.688 54.3284 192 54.5602H192.06C192.485 54.9008 193.015 55.0845 193.56 55.0802H193.88V56.0002C193.88 56.2309 193.972 56.4522 194.135 56.6154C194.298 56.7785 194.519 56.8702 194.75 56.8702H195V55.2002H196.26V56.0002C196.259 56.1941 196.324 56.3826 196.444 56.5351C196.564 56.6876 196.731 56.7951 196.92 56.8402C196.99 56.8506 197.06 56.8506 197.13 56.8402H197.41V55.1602H197.48H197.55C198.088 55.0352 198.572 54.7407 198.93 54.3202L199.02 54.2002L199.08 54.1202C199.194 53.953 199.284 53.7714 199.35 53.5802C199.433 53.3625 199.48 53.1329 199.49 52.9002V52.6502C199.489 52.5995 199.496 52.5489 199.51 52.5002V52.5002Z" fill="white"/>
<path d="M199.51 52.8601V52.6401V52.5301V52.4101C199.51 52.4101 199.51 52.3301 199.51 52.2901C199.506 52.2704 199.506 52.2499 199.51 52.2301V52.2301C199.512 52.1968 199.512 52.1634 199.51 52.1301C199.514 52.1036 199.514 52.0767 199.51 52.0501C199.512 52.0235 199.512 51.9968 199.51 51.9701C199.497 51.9413 199.48 51.9144 199.46 51.8901C199.378 51.7474 199.277 51.6162 199.16 51.5001V51.5001C198.716 51.0142 198.098 50.7231 197.44 50.6901H196.92C196.639 50.6852 196.361 50.756 196.117 50.8949C195.872 51.0339 195.67 51.236 195.53 51.4801V51.4801C195.393 51.7245 195.321 51.9999 195.32 52.2801H197.13C197.305 52.3034 197.468 52.3804 197.597 52.5004C197.726 52.6205 197.814 52.7776 197.85 52.9501C197.845 52.9731 197.845 52.9971 197.85 53.0201V53.1201C197.851 53.3032 197.791 53.4813 197.681 53.6276C197.571 53.7738 197.416 53.88 197.24 53.9301H194.16C194.1 53.9397 194.04 53.9397 193.98 53.9301V53.9301C193.698 53.8784 193.443 53.7286 193.26 53.5073C193.077 53.286 192.978 53.0073 192.98 52.7201V50.2101C192.982 50.0142 193.029 49.8215 193.12 49.6476C193.21 49.4738 193.341 49.3239 193.5 49.2101C193.705 49.0661 193.95 48.9892 194.2 48.9901H199.92C199.757 48.5416 199.467 48.1503 199.085 47.8642C198.703 47.5782 198.246 47.41 197.77 47.3801V47.3801V45.5801H197.49C197.376 45.5788 197.263 45.6001 197.158 45.6427C197.052 45.6853 196.956 45.7485 196.875 45.8285C196.795 45.9084 196.73 46.0037 196.686 46.1087C196.643 46.2137 196.62 46.3263 196.62 46.4401V47.3701H195V45.5801H194.71C194.481 45.5801 194.261 45.6704 194.098 45.8314C193.936 45.9924 193.843 46.2111 193.84 46.4401V47.3701H193.48C192.815 47.3909 192.184 47.6698 191.721 48.1476C191.258 48.6255 191 49.2648 191 49.9301V52.9301C190.992 53.2722 191.053 53.6125 191.18 53.9301C191.355 54.3245 191.627 54.6684 191.97 54.9301H192.03C192.455 55.2708 192.985 55.4544 193.53 55.4501H193.85V56.2501C193.85 56.4809 193.942 56.7022 194.105 56.8653C194.268 57.0285 194.489 57.1201 194.72 57.1201H195V55.5601H196.26V56.3401C196.259 56.5341 196.324 56.7226 196.444 56.875C196.564 57.0275 196.731 57.135 196.92 57.1801C196.99 57.1905 197.06 57.1905 197.13 57.1801H197.41V55.5201H197.48H197.55C198.087 55.3991 198.571 55.108 198.93 54.6901L199.02 54.5601L199.08 54.4901C199.19 54.3207 199.28 54.1396 199.35 53.9501C199.432 53.7287 199.479 53.496 199.49 53.2601V53.0001C199.49 52.9527 199.497 52.9056 199.51 52.8601V52.8601Z" fill="url(#paint14_linear_286_166)"/>
<path d="M171.147 89.8223C174.958 86.0107 174.958 79.8311 171.147 76.0195C167.335 72.208 161.156 72.208 157.344 76.0195C153.533 79.8311 153.533 86.0107 157.344 89.8223C161.156 93.6338 167.335 93.6338 171.147 89.8223Z" fill="url(#paint15_linear_286_166)"/>
<path d="M170.171 88.8465C173.444 85.5739 173.444 80.2679 170.171 76.9953C166.899 73.7227 161.593 73.7227 158.32 76.9953C155.047 80.2679 155.047 85.5739 158.32 88.8465C161.593 92.119 166.899 92.119 170.171 88.8465Z" fill="url(#paint16_linear_286_166)"/>
<path fill-rule="evenodd" clip-rule="evenodd" d="M164.25 74.9998C166.436 74.9992 168.535 75.8536 170.099 77.3802C171.663 78.9069 172.568 80.9848 172.62 83.1698C172.62 83.1098 172.62 83.0398 172.62 82.9698C172.62 80.7473 171.737 78.6159 170.166 77.0443C168.594 75.4727 166.463 74.5898 164.24 74.5898C162.018 74.5898 159.886 75.4727 158.314 77.0443C156.743 78.6159 155.86 80.7473 155.86 82.9698V83.1698C155.915 80.9822 156.823 78.9028 158.391 77.3761C159.959 75.8494 162.062 74.9965 164.25 74.9998V74.9998Z" fill="url(#paint17_linear_286_166)"/>
<path d="M164.25 90.9002C166.437 90.9008 168.538 90.0451 170.102 88.5163C171.667 86.9874 172.57 84.907 172.62 82.7202C172.62 82.7902 172.62 82.8502 172.62 82.9202C172.62 85.1427 171.737 87.2742 170.166 88.8458C168.594 90.4173 166.463 91.3002 164.24 91.3002C162.018 91.3002 159.886 90.4173 158.314 88.8458C156.743 87.2742 155.86 85.1427 155.86 82.9202V82.7202C155.915 84.9088 156.823 86.9893 158.39 88.5175C159.958 90.0458 162.061 90.9009 164.25 90.9002Z" fill="url(#paint18_linear_286_166)"/>
<path d="M168.45 84.5701V84.3501V84.2401V84.1301C168.45 84.1301 168.45 84.0401 168.45 84.0001C168.45 84.0001 168.45 84.0001 168.45 83.9401C168.454 83.9069 168.454 83.8733 168.45 83.8401C168.455 83.817 168.455 83.7931 168.45 83.7701C168.455 83.7437 168.455 83.7165 168.45 83.6901C168.453 83.6602 168.453 83.63 168.45 83.6001C168.368 83.4573 168.267 83.3262 168.15 83.2101V83.2101C167.703 82.7276 167.087 82.4373 166.43 82.4001H165.91C165.693 82.3977 165.478 82.442 165.28 82.5301C164.963 82.6644 164.697 82.8954 164.52 83.1901C164.383 83.4344 164.311 83.7099 164.31 83.9901H166.12C166.295 84.0134 166.458 84.0904 166.587 84.2104C166.716 84.3304 166.804 84.4876 166.84 84.6601C166.84 84.6601 166.84 84.6601 166.84 84.7301V84.8301C166.84 85.0131 166.781 85.1913 166.671 85.3375C166.561 85.4837 166.406 85.59 166.23 85.6401H163.16C163.097 85.6505 163.033 85.6505 162.97 85.6401C162.688 85.5905 162.434 85.4427 162.25 85.2231C162.067 85.0034 161.968 84.726 161.97 84.4401V81.9201C161.969 81.7595 161.999 81.6003 162.06 81.4517C162.121 81.303 162.211 81.168 162.324 81.0545C162.438 80.9409 162.573 80.8511 162.722 80.7903C162.87 80.7294 163.029 80.6988 163.19 80.7001H168.91C168.747 80.2515 168.457 79.8602 168.075 79.5742C167.693 79.2882 167.236 79.1199 166.76 79.0901V79.0901V77.2901H166.48C166.366 77.2888 166.253 77.31 166.148 77.3527C166.042 77.3953 165.946 77.4584 165.865 77.5384C165.785 77.6184 165.72 77.7137 165.676 77.8187C165.633 77.9237 165.61 78.0363 165.61 78.1501V79.0801H164V77.2901H163.71C163.597 77.2888 163.484 77.3101 163.379 77.3528C163.274 77.3956 163.179 77.4589 163.099 77.539C163.019 77.6191 162.956 77.7145 162.913 77.8194C162.87 77.9244 162.849 78.0368 162.85 78.1501V79.0801H162.48C161.815 79.1009 161.184 79.3798 160.721 79.8576C160.258 80.3355 160 80.9748 160 81.6401V84.6401C159.99 84.9833 160.054 85.3246 160.19 85.6401C160.356 86.0373 160.625 86.3827 160.97 86.6401H161.03C161.455 86.9807 161.985 87.1644 162.53 87.1601H162.86V87.9601C162.859 88.0739 162.88 88.1868 162.923 88.2923C162.965 88.3978 163.028 88.4938 163.108 88.5747C163.188 88.6556 163.284 88.7198 163.389 88.7637C163.494 88.8075 163.606 88.8301 163.72 88.8301H164V87.2701H165.26V88.0501C165.259 88.244 165.324 88.4325 165.444 88.585C165.564 88.7375 165.731 88.845 165.92 88.8901C165.99 88.8998 166.06 88.8998 166.13 88.8901H166.41V87.2301H166.48H166.55C167.088 87.1118 167.573 86.8203 167.93 86.4001L168.02 86.2701L168.08 86.2001C168.19 86.0306 168.28 85.8495 168.35 85.6601C168.432 85.4387 168.479 85.2059 168.49 84.9701V84.7201C168.49 84.7201 168.45 84.6101 168.45 84.5701Z" fill="#FFA200"/>
<path d="M168.45 84.2099V83.9899V83.8699V83.7599V83.6399C168.456 83.6068 168.456 83.573 168.45 83.5399V83.4599C168.452 83.4333 168.452 83.4066 168.45 83.3799C168.455 83.3535 168.455 83.3264 168.45 83.2999C168.368 83.154 168.267 83.0195 168.15 82.8999V82.8999C167.703 82.4174 167.087 82.1271 166.43 82.0899H165.91C165.694 82.0925 165.48 82.1367 165.28 82.2199C164.963 82.358 164.697 82.5924 164.52 82.8899C164.384 83.1384 164.312 83.4167 164.31 83.6999H166.12C166.295 83.7232 166.458 83.8002 166.587 83.9202C166.716 84.0402 166.804 84.1974 166.84 84.3699C166.84 84.3699 166.84 84.3699 166.84 84.4399V84.5399C166.842 84.7221 166.783 84.8996 166.672 85.0445C166.562 85.1893 166.406 85.2933 166.23 85.3399H166.17H163.17C163.107 85.3504 163.043 85.3504 162.98 85.3399V85.3399C162.698 85.2882 162.442 85.1384 162.26 84.9171C162.077 84.6958 161.978 84.417 161.98 84.1299V81.5499C161.981 81.3528 162.03 81.1589 162.122 80.9847C162.214 80.8106 162.347 80.6614 162.51 80.5499C162.711 80.4048 162.952 80.3277 163.2 80.3299H168.92C168.758 79.8806 168.469 79.4886 168.087 79.2025C167.704 78.9163 167.247 78.7485 166.77 78.7199V78.7199V76.9199H166.49C166.259 76.9199 166.038 77.0116 165.875 77.1747C165.712 77.3379 165.62 77.5592 165.62 77.7899V78.7199H164V76.9199H163.71C163.492 76.9217 163.282 77.0035 163.12 77.1499C163.034 77.2327 162.966 77.3321 162.919 77.4422C162.873 77.5522 162.849 77.6705 162.85 77.7899V78.7199H162.48C161.814 78.7382 161.182 79.0163 160.718 79.4947C160.255 79.9731 159.997 80.6138 160 81.2799V84.2799C159.991 84.6231 160.055 84.9642 160.19 85.2799C160.357 85.6764 160.626 86.0215 160.97 86.2799L161.03 86.3299C161.455 86.6706 161.985 86.8542 162.53 86.8499H162.86V87.6499C162.859 87.7637 162.88 87.8766 162.923 87.9821C162.965 88.0876 163.028 88.1836 163.108 88.2645C163.188 88.3454 163.284 88.4097 163.389 88.4535C163.494 88.4974 163.606 88.5199 163.72 88.5199H164V86.9099H165.26V87.6899C165.259 87.8838 165.324 88.0723 165.444 88.2248C165.564 88.3773 165.731 88.4848 165.92 88.5299C165.99 88.5396 166.06 88.5396 166.13 88.5299H166.41V86.8699H166.48H166.55C167.082 86.7336 167.556 86.4283 167.9 85.9999L167.99 85.8799L168.05 85.7999C168.164 85.6328 168.254 85.4511 168.32 85.2599C168.403 85.0422 168.45 84.8126 168.46 84.5799V84.3299C168.46 84.3299 168.45 84.2499 168.45 84.2099Z" fill="white"/>
<path d="M168.45 84.5701V84.3501V84.2401V84.1301C168.45 84.1301 168.45 84.0401 168.45 84.0001C168.45 84.0001 168.45 84.0001 168.45 83.9401C168.454 83.9069 168.454 83.8733 168.45 83.8401C168.455 83.817 168.455 83.7931 168.45 83.7701C168.455 83.7437 168.455 83.7165 168.45 83.6901C168.453 83.6602 168.453 83.63 168.45 83.6001C168.368 83.4573 168.267 83.3262 168.15 83.2101V83.2101C167.703 82.7276 167.087 82.4373 166.43 82.4001H165.91C165.693 82.3977 165.478 82.442 165.28 82.5301C164.963 82.6644 164.697 82.8954 164.52 83.1901C164.383 83.4344 164.311 83.7099 164.31 83.9901H166.12C166.295 84.0134 166.458 84.0904 166.587 84.2104C166.716 84.3304 166.804 84.4876 166.84 84.6601C166.84 84.6601 166.84 84.6601 166.84 84.7301V84.8301C166.84 85.0131 166.781 85.1913 166.671 85.3375C166.561 85.4837 166.406 85.59 166.23 85.6401H163.16C163.097 85.6505 163.033 85.6505 162.97 85.6401C162.688 85.5905 162.434 85.4427 162.25 85.2231C162.067 85.0034 161.968 84.726 161.97 84.4401V81.9201C161.969 81.7595 161.999 81.6003 162.06 81.4517C162.121 81.303 162.211 81.168 162.324 81.0545C162.438 80.9409 162.573 80.8511 162.722 80.7903C162.87 80.7294 163.029 80.6988 163.19 80.7001H168.91C168.747 80.2515 168.457 79.8602 168.075 79.5742C167.693 79.2882 167.236 79.1199 166.76 79.0901V79.0901V77.2901H166.48C166.366 77.2888 166.253 77.31 166.148 77.3527C166.042 77.3953 165.946 77.4584 165.865 77.5384C165.785 77.6184 165.72 77.7137 165.676 77.8187C165.633 77.9237 165.61 78.0363 165.61 78.1501V79.0801H164V77.2901H163.71C163.597 77.2888 163.484 77.3101 163.379 77.3528C163.274 77.3956 163.179 77.4589 163.099 77.539C163.019 77.6191 162.956 77.7145 162.913 77.8194C162.87 77.9244 162.849 78.0368 162.85 78.1501V79.0801H162.48C161.815 79.1009 161.184 79.3798 160.721 79.8576C160.258 80.3355 160 80.9748 160 81.6401V84.6401C159.99 84.9833 160.054 85.3246 160.19 85.6401C160.356 86.0373 160.625 86.3827 160.97 86.6401H161.03C161.455 86.9807 161.985 87.1644 162.53 87.1601H162.86V87.9601C162.859 88.0739 162.88 88.1868 162.923 88.2923C162.965 88.3978 163.028 88.4938 163.108 88.5747C163.188 88.6556 163.284 88.7198 163.389 88.7637C163.494 88.8075 163.606 88.8301 163.72 88.8301H164V87.2701H165.26V88.0501C165.259 88.244 165.324 88.4325 165.444 88.585C165.564 88.7375 165.731 88.845 165.92 88.8901C165.99 88.8998 166.06 88.8998 166.13 88.8901H166.41V87.2301H166.48H166.55C167.088 87.1118 167.573 86.8203 167.93 86.4001L168.02 86.2701L168.08 86.2001C168.19 86.0306 168.28 85.8495 168.35 85.6601C168.432 85.4387 168.479 85.2059 168.49 84.9701V84.7201C168.49 84.7201 168.45 84.6101 168.45 84.5701Z" fill="url(#paint19_linear_286_166)"/>
<path d="M138.539 76.4018C142.35 72.5903 142.35 66.4106 138.539 62.5991C134.727 58.7876 128.548 58.7876 124.736 62.5991C120.925 66.4106 120.925 72.5903 124.736 76.4018C128.548 80.2134 134.727 80.2134 138.539 76.4018Z" fill="url(#paint20_linear_286_166)"/>
<path d="M137.563 75.426C140.836 72.1535 140.836 66.8475 137.563 63.5749C134.29 60.3023 128.985 60.3023 125.712 63.5749C122.439 66.8475 122.439 72.1535 125.712 75.426C128.985 78.6986 134.29 78.6986 137.563 75.426Z" fill="url(#paint21_linear_286_166)"/>
<path fill-rule="evenodd" clip-rule="evenodd" d="M131.64 61.5301C133.824 61.5321 135.921 62.3876 137.482 63.914C139.044 65.4404 139.948 67.5168 140 69.7001C140.005 69.6336 140.005 69.5667 140 69.5001C140 67.2776 139.117 65.1461 137.546 63.5746C135.974 62.003 133.843 61.1201 131.62 61.1201C129.398 61.1201 127.266 62.003 125.694 63.5746C124.123 65.1461 123.24 67.2776 123.24 69.5001C123.235 69.5667 123.235 69.6336 123.24 69.7001C123.292 67.5099 124.201 65.4275 125.772 63.9C127.342 62.3725 129.449 61.5216 131.64 61.5301Z" fill="url(#paint22_linear_286_166)"/>
<path d="M131.64 77.4698C133.824 77.4678 135.921 76.6123 137.482 75.0859C139.044 73.5595 139.948 71.4831 140 69.2998C140.005 69.3664 140.005 69.4332 140 69.4998C140 71.7223 139.117 73.8538 137.546 75.4254C135.974 76.9969 133.843 77.8798 131.62 77.8798C129.398 77.8798 127.266 76.9969 125.694 75.4254C124.123 73.8538 123.24 71.7223 123.24 69.4998C123.235 69.4332 123.235 69.3664 123.24 69.2998C123.292 71.49 124.201 73.5724 125.772 75.0999C127.342 76.6274 129.449 77.4783 131.64 77.4698Z" fill="url(#paint23_linear_286_166)"/>
<path d="M135.84 71.1502V70.9302V70.8202V70.7102C135.84 70.7102 135.84 70.6202 135.84 70.5802C135.84 70.5802 135.84 70.5802 135.84 70.5202C135.844 70.487 135.844 70.4534 135.84 70.4202C135.845 70.3971 135.845 70.3732 135.84 70.3502C135.844 70.3203 135.844 70.2901 135.84 70.2602L135.79 70.1802C135.708 70.0374 135.607 69.9062 135.49 69.7902V69.7902C135.043 69.3077 134.427 69.0173 133.77 68.9802H133C132.783 68.9778 132.568 69.0221 132.37 69.1102C132.053 69.2445 131.787 69.4755 131.61 69.7702C131.473 70.0145 131.401 70.2899 131.4 70.5702H133.21C133.385 70.5935 133.548 70.6704 133.677 70.7905C133.806 70.9105 133.894 71.0676 133.93 71.2402C133.93 71.2402 133.93 71.2402 133.93 71.3102V71.4102C133.93 71.5932 133.871 71.7714 133.761 71.9176C133.651 72.0638 133.496 72.1701 133.32 72.2202H130.25C130.187 72.2306 130.123 72.2306 130.06 72.2202C129.779 72.1687 129.526 72.0205 129.343 71.8012C129.16 71.582 129.06 71.3056 129.06 71.0202V68.5002C129.061 68.3031 129.11 68.1092 129.202 67.935C129.294 67.7608 129.427 67.6117 129.59 67.5002C129.792 67.358 130.033 67.2844 130.28 67.2902H130.48H135.97C135.807 66.8416 135.517 66.4503 135.135 66.1643C134.753 65.8783 134.296 65.71 133.82 65.6802V63.8702H133.54C133.426 63.8689 133.313 63.8901 133.208 63.9327C133.102 63.9754 133.006 64.0385 132.925 64.1185C132.845 64.1985 132.78 64.2937 132.736 64.3987C132.693 64.5037 132.67 64.6164 132.67 64.7302V65.6602H131.41V63.8702H131.12C131.007 63.8688 130.894 63.8902 130.789 63.9329C130.684 63.9757 130.589 64.0389 130.509 64.1191C130.429 64.1992 130.366 64.2945 130.323 64.3995C130.28 64.5044 130.259 64.6169 130.26 64.7302V65.6602H129.89C129.223 65.6784 128.59 65.9562 128.125 66.4343C127.66 66.9124 127.4 67.5532 127.4 68.2202V71.2202C127.39 71.5634 127.454 71.9047 127.59 72.2202C127.756 72.6174 128.025 72.9628 128.37 73.2202H128.43C128.855 73.5608 129.385 73.7444 129.93 73.7402H130.26V74.5402C130.259 74.654 130.28 74.7669 130.323 74.8724C130.365 74.9779 130.428 75.0738 130.508 75.1548C130.588 75.2357 130.684 75.2999 130.789 75.3438C130.894 75.3876 131.006 75.4102 131.12 75.4102H131.41V73.8502H132.67V74.6302C132.669 74.8241 132.734 75.0126 132.854 75.1651C132.974 75.3176 133.141 75.4251 133.33 75.4702C133.4 75.4799 133.47 75.4799 133.54 75.4702H133.82V73.8102H133.89H133.96C134.498 73.6919 134.983 73.4003 135.34 72.9802C135.37 72.9345 135.404 72.891 135.44 72.8502L135.49 72.7802C135.6 72.6107 135.69 72.4296 135.76 72.2402C135.842 72.0188 135.889 71.786 135.9 71.5502V71.3002C135.9 71.3002 135.84 71.1902 135.84 71.1502Z" fill="#FFA200"/>
<path d="M135.84 70.79V70.57V70.45V70.34C135.84 70.34 135.84 70.26 135.84 70.22C135.844 70.1901 135.844 70.1599 135.84 70.13C135.844 70.1035 135.844 70.0766 135.84 70.05C135.844 70.0235 135.844 69.9965 135.84 69.97C135.829 69.94 135.812 69.9127 135.79 69.89C135.708 69.744 135.607 69.6095 135.49 69.49V69.49C135.043 69.0075 134.427 68.7172 133.77 68.68H133C132.784 68.6826 132.57 68.7267 132.37 68.81C132.053 68.9481 131.787 69.1825 131.61 69.48V69.48C131.474 69.7284 131.402 70.0068 131.4 70.29H133.21C133.385 70.3118 133.549 70.3883 133.678 70.5086C133.808 70.6289 133.896 70.7868 133.93 70.96C133.93 70.96 133.93 70.96 133.93 71.03V71C133.932 71.1822 133.873 71.3597 133.762 71.5045C133.652 71.6494 133.496 71.7534 133.32 71.8H133.26H130.26C130.197 71.8104 130.133 71.8104 130.07 71.8C129.788 71.7482 129.532 71.5985 129.35 71.3772C129.167 71.1559 129.068 70.8771 129.07 70.59V68.13C129.071 67.9329 129.12 67.739 129.212 67.5648C129.304 67.3907 129.437 67.2415 129.6 67.13C129.801 66.9849 130.042 66.9078 130.29 66.91H136.01C135.848 66.4607 135.559 66.0687 135.176 65.7825C134.794 65.4964 134.337 65.3286 133.86 65.3V63.5H133.58C133.349 63.5 133.128 63.5917 132.965 63.7548C132.802 63.918 132.71 64.1393 132.71 64.37V65.3H131.45V63.5H131.16C130.942 63.5017 130.732 63.5836 130.57 63.73C130.484 63.8128 130.416 63.9122 130.369 64.0222C130.323 64.1323 130.299 64.2506 130.3 64.37V65.3H129.93C129.262 65.3157 128.628 65.5927 128.162 66.0713C127.696 66.55 127.437 67.1922 127.44 67.86V70.86C127.431 71.2031 127.495 71.5443 127.63 71.86C127.797 72.2565 128.066 72.6016 128.41 72.86H128.47C128.895 73.2006 129.425 73.3843 129.97 73.38H130.3V74.18C130.299 74.2938 130.32 74.4067 130.363 74.5122C130.405 74.6177 130.468 74.7137 130.548 74.7946C130.628 74.8755 130.724 74.9398 130.829 74.9836C130.934 75.0274 131.046 75.05 131.16 75.05H131.45V73.49H132.71V74.27C132.709 74.4639 132.774 74.6524 132.894 74.8049C133.014 74.9574 133.181 75.0649 133.37 75.11C133.44 75.1197 133.51 75.1197 133.58 75.11H133.86V73.45H133.93H134C134.539 73.3276 135.024 73.0327 135.38 72.61L135.48 72.49C135.493 72.4612 135.51 72.4343 135.53 72.41C135.644 72.2428 135.734 72.0612 135.8 71.87C135.883 71.6523 135.93 71.4227 135.94 71.19V70.94C135.94 70.94 135.84 70.83 135.84 70.79Z" fill="white"/>
<path d="M135.84 71.1502V70.9302V70.8202V70.7102C135.84 70.7102 135.84 70.6202 135.84 70.5802C135.84 70.5802 135.84 70.5802 135.84 70.5202C135.844 70.487 135.844 70.4534 135.84 70.4202C135.845 70.3971 135.845 70.3732 135.84 70.3502C135.844 70.3203 135.844 70.2901 135.84 70.2602L135.79 70.1802C135.708 70.0374 135.607 69.9062 135.49 69.7902V69.7902C135.043 69.3077 134.427 69.0173 133.77 68.9802H133C132.783 68.9778 132.568 69.0221 132.37 69.1102C132.053 69.2445 131.787 69.4755 131.61 69.7702C131.473 70.0145 131.401 70.2899 131.4 70.5702H133.21C133.385 70.5935 133.548 70.6704 133.677 70.7905C133.806 70.9105 133.894 71.0676 133.93 71.2402C133.93 71.2402 133.93 71.2402 133.93 71.3102V71.4102C133.93 71.5932 133.871 71.7714 133.761 71.9176C133.651 72.0638 133.496 72.1701 133.32 72.2202H130.25C130.187 72.2306 130.123 72.2306 130.06 72.2202C129.779 72.1687 129.526 72.0205 129.343 71.8012C129.16 71.582 129.06 71.3056 129.06 71.0202V68.5002C129.061 68.3031 129.11 68.1092 129.202 67.935C129.294 67.7608 129.427 67.6117 129.59 67.5002C129.792 67.358 130.033 67.2844 130.28 67.2902H130.48H135.97C135.807 66.8416 135.517 66.4503 135.135 66.1643C134.753 65.8783 134.296 65.71 133.82 65.6802V63.8702H133.54C133.426 63.8689 133.313 63.8901 133.208 63.9327C133.102 63.9754 133.006 64.0385 132.925 64.1185C132.845 64.1985 132.78 64.2937 132.736 64.3987C132.693 64.5037 132.67 64.6164 132.67 64.7302V65.6602H131.41V63.8702H131.12C131.007 63.8688 130.894 63.8902 130.789 63.9329C130.684 63.9757 130.589 64.0389 130.509 64.1191C130.429 64.1992 130.366 64.2945 130.323 64.3995C130.28 64.5044 130.259 64.6169 130.26 64.7302V65.6602H129.89C129.223 65.6784 128.59 65.9562 128.125 66.4343C127.66 66.9124 127.4 67.5532 127.4 68.2202V71.2202C127.39 71.5634 127.454 71.9047 127.59 72.2202C127.756 72.6174 128.025 72.9628 128.37 73.2202H128.43C128.855 73.5608 129.385 73.7444 129.93 73.7402H130.26V74.5402C130.259 74.654 130.28 74.7669 130.323 74.8724C130.365 74.9779 130.428 75.0738 130.508 75.1548C130.588 75.2357 130.684 75.2999 130.789 75.3438C130.894 75.3876 131.006 75.4102 131.12 75.4102H131.41V73.8502H132.67V74.6302C132.669 74.8241 132.734 75.0126 132.854 75.1651C132.974 75.3176 133.141 75.4251 133.33 75.4702C133.4 75.4799 133.47 75.4799 133.54 75.4702H133.82V73.8102H133.89H133.96C134.498 73.6919 134.983 73.4003 135.34 72.9802C135.37 72.9345 135.404 72.891 135.44 72.8502L135.49 72.7802C135.6 72.6107 135.69 72.4296 135.76 72.2402C135.842 72.0188 135.889 71.786 135.9 71.5502V71.3002C135.9 71.3002 135.84 71.1902 135.84 71.1502Z" fill="url(#paint24_linear_286_166)"/>
<path d="M108.629 106.325C112.44 102.514 112.44 96.334 108.629 92.5225C104.817 88.7109 98.6377 88.7109 94.8261 92.5225C91.0146 96.334 91.0146 102.514 94.8261 106.325C98.6376 110.137 104.817 110.137 108.629 106.325Z" fill="url(#paint25_linear_286_166)"/>
<path d="M107.653 105.349C110.926 102.077 110.926 96.7709 107.653 93.4983C104.38 90.2257 99.0745 90.2257 95.8019 93.4983C92.5293 96.7709 92.5293 102.077 95.8019 105.349C99.0745 108.622 104.38 108.622 107.653 105.349Z" fill="url(#paint26_linear_286_166)"/>
<path fill-rule="evenodd" clip-rule="evenodd" d="M101.72 91.44C103.908 91.442 106.008 92.2982 107.573 93.8262C109.139 95.3542 110.045 97.4332 110.1 99.62V99.42C110.1 97.1975 109.217 95.066 107.646 93.4945C106.074 91.9229 103.943 91.04 101.72 91.04C99.4975 91.04 97.366 91.9229 95.7945 93.4945C94.2229 95.066 93.34 97.1975 93.34 99.42C93.34 99.48 93.34 99.55 93.34 99.62C93.3923 97.4324 94.2982 95.3519 95.8641 93.8234C97.43 92.2948 99.5317 91.4394 101.72 91.44V91.44Z" fill="url(#paint27_linear_286_166)"/>
<path d="M101.72 107.39C103.908 107.391 106.01 106.535 107.576 105.007C109.142 103.478 110.048 101.398 110.1 99.21V99.42C110.1 101.642 109.217 103.774 107.646 105.346C106.074 106.917 103.943 107.8 101.72 107.8C99.4975 107.8 97.366 106.917 95.7945 105.346C94.2229 103.774 93.34 101.642 93.34 99.42C93.34 99.35 93.34 99.28 93.34 99.21C93.3897 101.398 94.2948 103.48 95.8613 105.009C97.4278 106.539 99.531 107.393 101.72 107.39Z" fill="url(#paint28_linear_286_166)"/>
<path d="M105.92 101.07C105.93 100.993 105.93 100.916 105.92 100.84C105.92 100.84 105.92 100.77 105.92 100.73V100.62V100.5C105.901 100.467 105.885 100.434 105.87 100.4V100.33V100.25V100.17C105.784 100.027 105.683 99.8926 105.57 99.7698V99.7698C105.119 99.2875 104.499 98.9975 103.84 98.9598H103.33C103.049 98.961 102.773 99.0354 102.529 99.1757C102.285 99.316 102.082 99.5173 101.94 99.7598V99.7598C101.796 100.006 101.72 100.285 101.72 100.57H103.54C103.715 100.591 103.878 100.667 104.006 100.788C104.133 100.908 104.219 101.067 104.25 101.24C104.255 101.263 104.255 101.287 104.25 101.31C104.25 101.31 104.25 101.31 104.25 101.31V101.37C104.249 101.553 104.188 101.731 104.076 101.875C103.964 102.02 103.807 102.123 103.63 102.17H103.57H100.57H100.39C100.108 102.116 99.8545 101.966 99.6719 101.745C99.4893 101.524 99.3896 101.246 99.39 100.96V98.4098C99.391 98.2127 99.4397 98.0188 99.532 97.8446C99.6243 97.6705 99.7575 97.5213 99.92 97.4098C100.122 97.2671 100.363 97.1903 100.61 97.1898H106C105.837 96.7397 105.545 96.3474 105.161 96.0612C104.777 95.7751 104.318 95.6077 103.84 95.5798V93.7798H103.55C103.436 93.7798 103.324 93.8023 103.219 93.8462C103.114 93.89 103.018 93.9543 102.938 94.0352C102.858 94.1161 102.795 94.2121 102.753 94.3176C102.71 94.4231 102.689 94.536 102.69 94.6498V95.5798H101.42V93.7798H101.14C100.921 93.7796 100.711 93.8617 100.55 94.0098C100.462 94.0917 100.392 94.1907 100.344 94.3008C100.296 94.4109 100.271 94.5296 100.27 94.6498V95.5798H99.91C99.2424 95.5929 98.6066 95.8673 98.1391 96.3441C97.6717 96.8209 97.4099 97.4621 97.41 98.1298V101.18C97.4061 101.522 97.4706 101.862 97.6 102.18C97.7735 102.572 98.0415 102.916 98.38 103.18H98.44C98.87 103.519 99.4023 103.702 99.95 103.7H100.27V104.5C100.27 104.614 100.293 104.727 100.336 104.833C100.38 104.938 100.444 105.034 100.525 105.115C100.606 105.196 100.702 105.26 100.807 105.304C100.913 105.347 101.026 105.37 101.14 105.37H101.42V103.72H102.69V104.5C102.689 104.694 102.754 104.882 102.874 105.035C102.994 105.187 103.161 105.295 103.35 105.34C103.416 105.35 103.484 105.35 103.55 105.34H103.84V103.65H103.91H104C104.535 103.525 105.016 103.23 105.37 102.81L105.47 102.69C105.473 102.663 105.473 102.636 105.47 102.61C105.59 102.445 105.685 102.263 105.75 102.07C105.828 101.851 105.875 101.622 105.89 101.39C105.895 101.307 105.895 101.223 105.89 101.14C105.902 101.117 105.912 101.094 105.92 101.07V101.07Z" fill="#FFA200"/>
<path d="M105.92 100.7C105.93 100.627 105.93 100.553 105.92 100.48C105.92 100.48 105.92 100.41 105.92 100.37V100.26C105.92 100.21 105.92 100.17 105.92 100.13V100.07C105.92 100.07 105.92 99.9999 105.87 99.9699V99.8999V99.8199C105.867 99.79 105.867 99.7598 105.87 99.7299C105.781 99.5916 105.681 99.4611 105.57 99.3399V99.3399C105.119 98.8577 104.499 98.5676 103.84 98.5299H103.33C103.113 98.5304 102.899 98.5747 102.7 98.6599C102.382 98.7912 102.115 99.023 101.94 99.3199V99.3199C101.795 99.5652 101.719 99.845 101.72 100.13H103.54C103.715 100.149 103.879 100.225 104.007 100.346C104.135 100.467 104.221 100.626 104.25 100.8C104.256 100.823 104.256 100.847 104.25 100.87V101C104.249 101.183 104.188 101.361 104.076 101.505C103.964 101.65 103.807 101.754 103.63 101.8H100.56H100.38C100.099 101.748 99.8455 101.6 99.6628 101.381C99.4801 101.162 99.38 100.885 99.38 100.6V98.0499C99.381 97.8528 99.4298 97.6589 99.5221 97.4847C99.6144 97.3106 99.7475 97.1614 99.91 97.0499C100.115 96.9147 100.355 96.8418 100.6 96.8399H106C105.834 96.3913 105.542 96.0003 105.159 95.7145C104.775 95.4287 104.317 95.2604 103.84 95.2299V95.2299V93.4199H103.55C103.322 93.4199 103.103 93.5105 102.942 93.6718C102.781 93.8331 102.69 94.0518 102.69 94.2799V95.2099H101.42V93.4199H101.14C100.911 93.4199 100.691 93.5102 100.528 93.6712C100.365 93.8322 100.273 94.0509 100.27 94.2799V95.2099H99.91C99.2424 95.2281 98.608 95.5055 98.1413 95.9834C97.6747 96.4612 97.4124 97.102 97.41 97.7699V100.77C97.4153 101.157 97.508 101.538 97.6811 101.884C97.8543 102.231 98.1035 102.533 98.41 102.77L98.47 102.82C98.9023 103.155 99.4331 103.338 99.98 103.34H100.3V104.14C100.303 104.369 100.395 104.588 100.558 104.749C100.721 104.91 100.941 105 101.17 105H101.45V103.4H102.72V104.19C102.721 104.383 102.786 104.571 102.906 104.723C103.025 104.875 103.192 104.983 103.38 105.03H103.58H103.87V103.34H103.94H104.01C104.545 103.219 105.025 102.928 105.38 102.51C105.419 102.471 105.452 102.427 105.48 102.38V102.31C105.597 102.143 105.691 101.961 105.76 101.77C105.837 101.547 105.884 101.315 105.9 101.08C105.905 100.997 105.905 100.913 105.9 100.83C105.913 100.788 105.919 100.744 105.92 100.7V100.7Z" fill="white"/>
<path d="M105.92 101.07C105.93 100.993 105.93 100.916 105.92 100.84C105.92 100.84 105.92 100.77 105.92 100.73V100.62V100.5C105.901 100.467 105.885 100.434 105.87 100.4V100.33V100.25V100.17C105.784 100.027 105.683 99.8926 105.57 99.7698V99.7698C105.119 99.2875 104.499 98.9975 103.84 98.9598H103.33C103.049 98.961 102.773 99.0354 102.529 99.1757C102.285 99.316 102.082 99.5173 101.94 99.7598V99.7598C101.796 100.006 101.72 100.285 101.72 100.57H103.54C103.715 100.591 103.878 100.667 104.006 100.788C104.133 100.908 104.219 101.067 104.25 101.24C104.255 101.263 104.255 101.287 104.25 101.31C104.25 101.31 104.25 101.31 104.25 101.31V101.37C104.249 101.553 104.188 101.731 104.076 101.875C103.964 102.02 103.807 102.123 103.63 102.17H103.57H100.57H100.39C100.108 102.116 99.8545 101.966 99.6719 101.745C99.4893 101.524 99.3896 101.246 99.39 100.96V98.4098C99.391 98.2127 99.4397 98.0188 99.532 97.8446C99.6243 97.6705 99.7575 97.5213 99.92 97.4098C100.122 97.2671 100.363 97.1903 100.61 97.1898H106C105.837 96.7397 105.545 96.3474 105.161 96.0612C104.777 95.7751 104.318 95.6077 103.84 95.5798V93.7798H103.55C103.436 93.7798 103.324 93.8023 103.219 93.8462C103.114 93.89 103.018 93.9543 102.938 94.0352C102.858 94.1161 102.795 94.2121 102.753 94.3176C102.71 94.4231 102.689 94.536 102.69 94.6498V95.5798H101.42V93.7798H101.14C100.921 93.7796 100.711 93.8617 100.55 94.0098C100.462 94.0917 100.392 94.1907 100.344 94.3008C100.296 94.4109 100.271 94.5296 100.27 94.6498V95.5798H99.91C99.2424 95.5929 98.6066 95.8673 98.1391 96.3441C97.6717 96.8209 97.4099 97.4621 97.41 98.1298V101.18C97.4061 101.522 97.4706 101.862 97.6 102.18C97.7735 102.572 98.0415 102.916 98.38 103.18H98.44C98.87 103.519 99.4023 103.702 99.95 103.7H100.27V104.5C100.27 104.614 100.293 104.727 100.336 104.833C100.38 104.938 100.444 105.034 100.525 105.115C100.606 105.196 100.702 105.26 100.807 105.304C100.913 105.347 101.026 105.37 101.14 105.37H101.42V103.72H102.69V104.5C102.689 104.694 102.754 104.882 102.874 105.035C102.994 105.187 103.161 105.295 103.35 105.34C103.416 105.35 103.484 105.35 103.55 105.34H103.84V103.65H103.91H104C104.535 103.525 105.016 103.23 105.37 102.81L105.47 102.69C105.473 102.663 105.473 102.636 105.47 102.61C105.59 102.445 105.685 102.263 105.75 102.07C105.828 101.851 105.875 101.622 105.89 101.39C105.895 101.307 105.895 101.223 105.89 101.14C105.902 101.117 105.912 101.094 105.92 101.07V101.07Z" fill="url(#paint29_linear_286_166)"/>
<rect x="265.5" y="15.5" width="85" height="85" rx="42.5" fill="white" stroke="white" stroke-width="5"/>
<rect x="268" y="18" width="80" height="80" rx="40" fill="#F6BD0E"/>
<rect x="268" y="18" width="80" height="80" rx="40" stroke="white"/>
<path d="M289.443 54.0185C287.11 42.6852 292.843 26.8185 334.443 54.0185" stroke="black" stroke-width="5"/>
<path d="M280.658 57.3828C279.872 57.3828 279.034 57.4601 278.144 57.6147C277.259 57.7632 276.514 57.9302 275.908 58.1157C275.302 58.3013 274.751 58.4714 274.256 58.626C273.762 58.7744 273.465 58.8486 273.366 58.8486C273.026 58.8486 272.855 58.7311 272.855 58.4961C272.855 58.2549 273.041 58.0106 273.412 57.7632C274.606 56.9653 275.957 56.3685 277.466 55.9727C278.982 55.5768 280.429 55.3789 281.808 55.3789C283.194 55.3789 284.325 55.4933 285.204 55.7222C286.088 55.951 286.818 56.2633 287.393 56.6592C287.968 57.055 288.441 57.5374 288.812 58.1064C289.505 59.1641 289.852 60.4845 289.852 62.0679C289.852 63.7378 289.394 65.2747 288.479 66.6787C287.47 68.2188 286.138 69.2887 284.48 69.8887C283.577 70.2103 282.609 70.3711 281.576 70.3711C279.931 70.3711 278.645 70.1113 277.717 69.5918C277.457 69.8454 277.142 70.0062 276.771 70.0742C276.399 70.1484 275.886 70.1855 275.23 70.1855C274.575 70.1855 273.947 70.133 273.347 70.0278C272.753 69.9227 272.234 69.7897 271.789 69.6289C271.343 69.4619 270.978 69.2795 270.694 69.0815C270.409 68.8774 270.267 68.695 270.267 68.5342C270.267 68.3734 270.332 68.2497 270.462 68.1631C270.586 68.0703 270.728 68.0239 270.889 68.0239C271.445 68.0239 271.854 67.9373 272.113 67.7642C272.379 67.5848 272.648 67.2508 272.92 66.7622C273.199 66.2736 273.455 65.717 273.69 65.0923C273.925 64.4676 274.145 63.8677 274.349 63.2925C274.559 62.7173 274.798 62.1359 275.063 61.5483C275.639 60.2557 276.359 59.4053 277.225 58.9971C277.652 58.7992 278.196 58.6476 278.858 58.5425C279.52 58.4312 280.185 58.3755 280.853 58.3755C281.521 58.3755 281.854 58.5301 281.854 58.8394C281.854 59.0744 281.712 59.4146 281.428 59.8599C281.149 60.3052 280.849 60.9948 280.528 61.9287C280.206 62.8626 279.847 63.9759 279.452 65.2686C279.062 66.5612 278.759 67.5075 278.542 68.1074L278.385 68.5156C278.576 68.5342 278.876 68.5435 279.285 68.5435C279.693 68.5435 280.147 68.4569 280.648 68.2837C281.156 68.1105 281.595 67.8755 281.966 67.5786C282.337 67.2756 282.671 66.9199 282.968 66.5117C283.271 66.1035 283.518 65.6706 283.71 65.2129C283.908 64.749 284.072 64.2604 284.202 63.7471C284.443 62.8008 284.563 61.7865 284.563 60.7041C284.563 58.4899 283.262 57.3828 280.658 57.3828ZM301.921 70.3711C300.109 70.3711 298.445 70.0495 296.93 69.4062C296.615 69.7217 296.222 69.9289 295.752 70.0278C295.288 70.133 294.667 70.1855 293.887 70.1855C293.114 70.1855 292.363 70.0959 291.633 69.9165C290.903 69.7371 290.325 69.5176 289.898 69.2578C289.465 68.998 289.249 68.7445 289.249 68.4971C289.249 68.3548 289.31 68.2404 289.434 68.1538C289.558 68.0672 289.7 68.0239 289.861 68.0239C290.43 68.0239 290.85 67.9342 291.123 67.7549C291.401 67.5693 291.667 67.2292 291.92 66.7344C292.18 66.2396 292.431 65.6706 292.672 65.0273C292.913 64.3779 293.136 63.7718 293.34 63.209C293.55 62.6462 293.785 62.0771 294.045 61.502C294.62 60.2464 295.341 59.4115 296.207 58.9971C296.621 58.7992 297.162 58.6476 297.83 58.5425C298.498 58.4312 299.021 58.3755 299.398 58.3755C299.781 58.3755 300.029 58.3817 300.14 58.394C300.258 58.4002 300.375 58.4188 300.493 58.4497C300.728 58.5116 300.845 58.6414 300.845 58.8394C300.845 58.9754 300.817 59.1022 300.762 59.2197C300.712 59.3311 300.573 59.5723 300.344 59.9434C300.115 60.3145 299.812 61.0907 299.435 62.272C300.944 62.1792 302.098 61.8669 302.896 61.335C303.693 60.7969 304.092 60.1104 304.092 59.2754C304.092 58.1436 303.134 57.5003 301.216 57.3457C300.827 57.3148 300.258 57.2993 299.509 57.2993C298.761 57.2993 297.929 57.389 297.014 57.5684C296.098 57.7415 295.381 57.9333 294.861 58.1436C294.348 58.3538 293.884 58.5487 293.47 58.728C293.055 58.9012 292.789 58.9878 292.672 58.9878C292.35 58.9878 292.189 58.8826 292.189 58.6724C292.189 58.4559 292.39 58.1992 292.792 57.9023C293.194 57.6055 293.748 57.3117 294.453 57.021C295.164 56.7303 295.95 56.4613 296.81 56.2139C298.752 55.6572 300.759 55.3789 302.831 55.3789C304.903 55.3789 306.473 55.7036 307.543 56.353C308.62 56.9963 309.158 57.8498 309.158 58.9136C309.158 59.9774 308.623 60.8618 307.553 61.5669C306.489 62.272 305.026 62.6616 303.165 62.7358C304.358 62.7482 305.456 63.0358 306.458 63.5986C306.94 63.8646 307.333 64.214 307.636 64.647C307.939 65.0799 308.091 65.5809 308.091 66.1499C308.091 66.7189 307.97 67.2539 307.729 67.7549C307.494 68.2497 307.179 68.6579 306.783 68.9795C306.393 69.3011 305.926 69.5671 305.382 69.7773C304.386 70.1732 303.233 70.3711 301.921 70.3711ZM299.175 63.0884C299.058 63.478 298.826 64.2666 298.479 65.4541C298.133 66.6354 297.892 67.4271 297.756 67.8291C297.62 68.2249 297.549 68.429 297.542 68.4414C297.74 68.4661 298.056 68.4785 298.489 68.4785C298.928 68.4785 299.417 68.4198 299.955 68.3022C300.499 68.1785 300.984 67.993 301.411 67.7456C301.844 67.4982 302.181 67.1642 302.422 66.7437C302.67 66.3231 302.793 65.8128 302.793 65.2129C302.793 64.613 302.444 64.1151 301.745 63.7192C301.046 63.3234 300.19 63.1131 299.175 63.0884ZM318.621 57.3828C317.835 57.3828 316.997 57.4601 316.106 57.6147C315.222 57.7632 314.477 57.9302 313.871 58.1157C313.264 58.3013 312.714 58.4714 312.219 58.626C311.724 58.7744 311.428 58.8486 311.329 58.8486C310.988 58.8486 310.818 58.7311 310.818 58.4961C310.818 58.2549 311.004 58.0106 311.375 57.7632C312.569 56.9653 313.92 56.3685 315.429 55.9727C316.944 55.5768 318.392 55.3789 319.771 55.3789C321.156 55.3789 322.288 55.4933 323.167 55.7222C324.051 55.951 324.781 56.2633 325.356 56.6592C325.931 57.055 326.404 57.5374 326.775 58.1064C327.468 59.1641 327.814 60.4845 327.814 62.0679C327.814 63.7378 327.357 65.2747 326.441 66.6787C325.433 68.2188 324.1 69.2887 322.443 69.8887C321.54 70.2103 320.572 70.3711 319.539 70.3711C317.894 70.3711 316.607 70.1113 315.68 69.5918C315.42 69.8454 315.104 70.0062 314.733 70.0742C314.362 70.1484 313.849 70.1855 313.193 70.1855C312.538 70.1855 311.91 70.133 311.31 70.0278C310.716 69.9227 310.197 69.7897 309.751 69.6289C309.306 69.4619 308.941 69.2795 308.657 69.0815C308.372 68.8774 308.23 68.695 308.23 68.5342C308.23 68.3734 308.295 68.2497 308.425 68.1631C308.549 68.0703 308.691 68.0239 308.852 68.0239C309.408 68.0239 309.816 67.9373 310.076 67.7642C310.342 67.5848 310.611 67.2508 310.883 66.7622C311.162 66.2736 311.418 65.717 311.653 65.0923C311.888 64.4676 312.108 63.8677 312.312 63.2925C312.522 62.7173 312.76 62.1359 313.026 61.5483C313.602 60.2557 314.322 59.4053 315.188 58.9971C315.615 58.7992 316.159 58.6476 316.821 58.5425C317.483 58.4312 318.147 58.3755 318.815 58.3755C319.483 58.3755 319.817 58.5301 319.817 58.8394C319.817 59.0744 319.675 59.4146 319.391 59.8599C319.112 60.3052 318.812 60.9948 318.491 61.9287C318.169 62.8626 317.81 63.9759 317.415 65.2686C317.025 66.5612 316.722 67.5075 316.505 68.1074L316.348 68.5156C316.539 68.5342 316.839 68.5435 317.248 68.5435C317.656 68.5435 318.11 68.4569 318.611 68.2837C319.118 68.1105 319.558 67.8755 319.929 67.5786C320.3 67.2756 320.634 66.9199 320.931 66.5117C321.234 66.1035 321.481 65.6706 321.673 65.2129C321.871 64.749 322.035 64.2604 322.165 63.7471C322.406 62.8008 322.526 61.7865 322.526 60.7041C322.526 58.4899 321.224 57.3828 318.621 57.3828ZM339.439 67.9961L341.313 67.8198C341.863 67.8198 342.139 67.9683 342.139 68.2651C342.139 68.5558 341.959 68.8094 341.601 69.0259C340.722 69.5516 339.782 69.9072 338.78 70.0928C337.778 70.2783 336.801 70.3711 335.849 70.3711C334.902 70.3711 334.225 70.3525 333.817 70.3154C333.415 70.2845 333.013 70.2165 332.611 70.1113C332.215 70.0062 331.89 69.8639 331.637 69.6846C331.086 69.2887 330.811 68.6795 330.811 67.8569C330.811 66.4282 331.674 64.6315 333.399 62.4668C334.704 60.834 335.812 59.8815 336.721 59.6094C337.197 59.4671 337.75 59.396 338.381 59.396C339.018 59.396 339.337 59.6372 339.337 60.1196C339.337 60.2804 339.291 60.4722 339.198 60.6948C338.845 61.4185 338.536 62.2751 338.27 63.2646C338.004 64.248 337.871 65.1325 337.871 65.918C337.871 67.3034 338.394 67.9961 339.439 67.9961ZM330.022 60.3608C329.707 60.3608 329.549 60.1784 329.549 59.8135C329.549 59.4115 329.67 58.861 329.911 58.1621C330.381 56.8324 330.885 56.0933 331.423 55.9448C331.572 55.8892 332.02 55.8613 332.769 55.8613L339.04 56.0098C339.349 56.0098 340.249 55.917 341.74 55.7314C343.236 55.5459 344.022 55.4531 344.096 55.4531C344.894 55.4531 345.293 55.7253 345.293 56.2695C345.293 56.5107 345.206 56.8942 345.033 57.4199C344.866 57.9395 344.644 58.4312 344.365 58.895C344.087 59.3589 343.83 59.5908 343.595 59.5908C343.453 59.5908 343.131 59.4764 342.63 59.2476C341.115 58.5549 339.894 58.2085 338.966 58.2085C338.038 58.2085 336.965 58.2982 335.747 58.4775C334.528 58.6569 333.622 58.8703 333.028 59.1177C332.435 59.3589 331.915 59.5815 331.47 59.7856C330.641 60.1691 330.159 60.3608 330.022 60.3608Z" fill="white"/>
</g>
<defs>
<linearGradient id="paint0_linear_286_166" x1="256.653" y1="64.6015" x2="256.653" y2="79.2915" gradientUnits="userSpaceOnUse">
<stop stop-color="#F4BE2B"/>
<stop offset="0.02" stop-color="#E9B227"/>
<stop offset="0.08" stop-color="#BE8319"/>
<stop offset="0.15" stop-color="#9F610F"/>
<stop offset="0.2" stop-color="#8C4D08"/>
<stop offset="0.23" stop-color="#854506"/>
<stop offset="0.32" stop-color="#814106"/>
<stop offset="0.41" stop-color="#743408"/>
<stop offset="0.5" stop-color="#5F1F0A"/>
<stop offset="0.53" stop-color="#57170B"/>
<stop offset="0.64" stop-color="#5B1A0A"/>
<stop offset="0.76" stop-color="#682508"/>
<stop offset="0.88" stop-color="#7D3605"/>
<stop offset="1" stop-color="#9A4E01"/>
</linearGradient>
<linearGradient id="paint1_linear_286_166" x1="256.653" y1="65.2515" x2="256.653" y2="81.6515" gradientUnits="userSpaceOnUse">
<stop stop-color="#FFCA10"/>
<stop offset="1" stop-color="#FFA200"/>
</linearGradient>
<linearGradient id="paint2_linear_286_166" x1="256.65" y1="73.04" x2="256.65" y2="64.99" gradientUnits="userSpaceOnUse">
<stop stop-color="#FFA200"/>
<stop offset="1" stop-color="#DB6205"/>
</linearGradient>
<linearGradient id="paint3_linear_286_166" x1="256.65" y1="81.8401" x2="256.65" y2="74.2101" gradientUnits="userSpaceOnUse">
<stop stop-color="white"/>
<stop offset="1" stop-color="white"/>
</linearGradient>
<linearGradient id="paint4_linear_286_166" x1="252.36" y1="73.77" x2="260.94" y2="73.77" gradientUnits="userSpaceOnUse">
<stop stop-color="#925C02"/>
<stop offset="0.2" stop-color="#642701"/>
<stop offset="0.66" stop-color="#330900"/>
<stop offset="0.73" stop-color="#390D00"/>
<stop offset="0.83" stop-color="#4A1A00"/>
<stop offset="0.95" stop-color="#672F01"/>
<stop offset="1" stop-color="#773B01"/>
</linearGradient>
<linearGradient id="paint5_linear_286_166" x1="4632.28" y1="355.237" x2="4632.28" y2="641.791" gradientUnits="userSpaceOnUse">
<stop stop-color="#F4BE2B"/>
<stop offset="0.02" stop-color="#E9B227"/>
<stop offset="0.08" stop-color="#BE8319"/>
<stop offset="0.15" stop-color="#9F610F"/>
<stop offset="0.2" stop-color="#8C4D08"/>
<stop offset="0.23" stop-color="#854506"/>
<stop offset="0.32" stop-color="#814106"/>
<stop offset="0.41" stop-color="#743408"/>
<stop offset="0.5" stop-color="#5F1F0A"/>
<stop offset="0.53" stop-color="#57170B"/>
<stop offset="0.64" stop-color="#5B1A0A"/>
<stop offset="0.76" stop-color="#682508"/>
<stop offset="0.88" stop-color="#7D3605"/>
<stop offset="1" stop-color="#9A4E01"/>
</linearGradient>
<linearGradient id="paint6_linear_286_166" x1="4009.29" y1="319.623" x2="4009.29" y2="594.319" gradientUnits="userSpaceOnUse">
<stop stop-color="#FFCA10"/>
<stop offset="1" stop-color="#FFA200"/>
</linearGradient>
<linearGradient id="paint7_linear_286_166" x1="4011.06" y1="239.143" x2="4011.06" y2="170.074" gradientUnits="userSpaceOnUse">
<stop stop-color="#FFA200"/>
<stop offset="1" stop-color="#DB6205"/>
</linearGradient>
<linearGradient id="paint8_linear_286_166" x1="4010.96" y1="322.826" x2="4010.96" y2="257.361" gradientUnits="userSpaceOnUse">
<stop stop-color="white"/>
<stop offset="1" stop-color="white"/>
</linearGradient>
<linearGradient id="paint9_linear_286_166" x1="2124.2" y1="328.482" x2="2197.73" y2="328.482" gradientUnits="userSpaceOnUse">
<stop stop-color="#925C02"/>
<stop offset="0.2" stop-color="#642701"/>
<stop offset="0.66" stop-color="#330900"/>
<stop offset="0.73" stop-color="#390D00"/>
<stop offset="0.83" stop-color="#4A1A00"/>
<stop offset="0.95" stop-color="#672F01"/>
<stop offset="1" stop-color="#773B01"/>
</linearGradient>
<linearGradient id="paint10_linear_286_166" x1="3998" y1="865.777" x2="3998" y2="1152.33" gradientUnits="userSpaceOnUse">
<stop stop-color="#F4BE2B"/>
<stop offset="0.02" stop-color="#E9B227"/>
<stop offset="0.08" stop-color="#BE8319"/>
<stop offset="0.15" stop-color="#9F610F"/>
<stop offset="0.2" stop-color="#8C4D08"/>
<stop offset="0.23" stop-color="#854506"/>
<stop offset="0.32" stop-color="#814106"/>
<stop offset="0.41" stop-color="#743408"/>
<stop offset="0.5" stop-color="#5F1F0A"/>
<stop offset="0.53" stop-color="#57170B"/>
<stop offset="0.64" stop-color="#5B1A0A"/>
<stop offset="0.76" stop-color="#682508"/>
<stop offset="0.88" stop-color="#7D3605"/>
<stop offset="1" stop-color="#9A4E01"/>
</linearGradient>
<linearGradient id="paint11_linear_286_166" x1="3460.33" y1="761.495" x2="3460.33" y2="1036.19" gradientUnits="userSpaceOnUse">
<stop stop-color="#FFCA10"/>
<stop offset="1" stop-color="#FFA200"/>
</linearGradient>
<linearGradient id="paint12_linear_286_166" x1="3460.31" y1="477.493" x2="3460.31" y2="408.424" gradientUnits="userSpaceOnUse">
<stop stop-color="#FFA200"/>
<stop offset="1" stop-color="#DB6205"/>
</linearGradient>
<linearGradient id="paint13_linear_286_166" x1="3460.31" y1="561.167" x2="3460.31" y2="495.701" gradientUnits="userSpaceOnUse">
<stop stop-color="white"/>
<stop offset="1" stop-color="white"/>
</linearGradient>
<linearGradient id="paint14_linear_286_166" x1="1895.05" y1="642.108" x2="1971.59" y2="642.108" gradientUnits="userSpaceOnUse">
<stop stop-color="#925C02"/>
<stop offset="0.2" stop-color="#642701"/>
<stop offset="0.66" stop-color="#330900"/>
<stop offset="0.73" stop-color="#390D00"/>
<stop offset="0.83" stop-color="#4A1A00"/>
<stop offset="0.95" stop-color="#672F01"/>
<stop offset="1" stop-color="#773B01"/>
</linearGradient>
<linearGradient id="paint15_linear_286_166" x1="3360.65" y1="1516.47" x2="3360.65" y2="1803.03" gradientUnits="userSpaceOnUse">
<stop stop-color="#F4BE2B"/>
<stop offset="0.02" stop-color="#E9B227"/>
<stop offset="0.08" stop-color="#BE8319"/>
<stop offset="0.15" stop-color="#9F610F"/>
<stop offset="0.2" stop-color="#8C4D08"/>
<stop offset="0.23" stop-color="#854506"/>
<stop offset="0.32" stop-color="#814106"/>
<stop offset="0.41" stop-color="#743408"/>
<stop offset="0.5" stop-color="#5F1F0A"/>
<stop offset="0.53" stop-color="#57170B"/>
<stop offset="0.64" stop-color="#5B1A0A"/>
<stop offset="0.76" stop-color="#682508"/>
<stop offset="0.88" stop-color="#7D3605"/>
<stop offset="1" stop-color="#9A4E01"/>
</linearGradient>
<linearGradient id="paint16_linear_286_166" x1="2908.7" y1="1324.67" x2="2908.7" y2="1599.37" gradientUnits="userSpaceOnUse">
<stop stop-color="#FFCA10"/>
<stop offset="1" stop-color="#FFA200"/>
</linearGradient>
<linearGradient id="paint17_linear_286_166" x1="2908.69" y1="781.325" x2="2908.69" y2="712.256" gradientUnits="userSpaceOnUse">
<stop stop-color="#FFA200"/>
<stop offset="1" stop-color="#DB6205"/>
</linearGradient>
<linearGradient id="paint18_linear_286_166" x1="2908.69" y1="864.959" x2="2908.69" y2="799.494" gradientUnits="userSpaceOnUse">
<stop stop-color="white"/>
<stop offset="1" stop-color="white"/>
</linearGradient>
<linearGradient id="paint19_linear_286_166" x1="1585.42" y1="1041.86" x2="1661.88" y2="1041.86" gradientUnits="userSpaceOnUse">
<stop stop-color="#925C02"/>
<stop offset="0.2" stop-color="#642701"/>
<stop offset="0.66" stop-color="#330900"/>
<stop offset="0.73" stop-color="#390D00"/>
<stop offset="0.83" stop-color="#4A1A00"/>
<stop offset="0.95" stop-color="#672F01"/>
<stop offset="1" stop-color="#773B01"/>
</linearGradient>
<linearGradient id="paint20_linear_286_166" x1="2691.49" y1="1241.09" x2="2691.49" y2="1527.64" gradientUnits="userSpaceOnUse">
<stop stop-color="#F4BE2B"/>
<stop offset="0.02" stop-color="#E9B227"/>
<stop offset="0.08" stop-color="#BE8319"/>
<stop offset="0.15" stop-color="#9F610F"/>
<stop offset="0.2" stop-color="#8C4D08"/>
<stop offset="0.23" stop-color="#854506"/>
<stop offset="0.32" stop-color="#814106"/>
<stop offset="0.41" stop-color="#743408"/>
<stop offset="0.5" stop-color="#5F1F0A"/>
<stop offset="0.53" stop-color="#57170B"/>
<stop offset="0.64" stop-color="#5B1A0A"/>
<stop offset="0.76" stop-color="#682508"/>
<stop offset="0.88" stop-color="#7D3605"/>
<stop offset="1" stop-color="#9A4E01"/>
</linearGradient>
<linearGradient id="paint21_linear_286_166" x1="2329.54" y1="1086.33" x2="2329.54" y2="1361.02" gradientUnits="userSpaceOnUse">
<stop stop-color="#FFCA10"/>
<stop offset="1" stop-color="#FFA200"/>
</linearGradient>
<linearGradient id="paint22_linear_286_166" x1="2330.56" y1="652.711" x2="2330.56" y2="583.642" gradientUnits="userSpaceOnUse">
<stop stop-color="#FFA200"/>
<stop offset="1" stop-color="#DB6205"/>
</linearGradient>
<linearGradient id="paint23_linear_286_166" x1="2330.51" y1="736.394" x2="2330.51" y2="670.929" gradientUnits="userSpaceOnUse">
<stop stop-color="white"/>
<stop offset="1" stop-color="white"/>
</linearGradient>
<linearGradient id="paint24_linear_286_166" x1="1218.93" y1="872.67" x2="1292.47" y2="872.67" gradientUnits="userSpaceOnUse">
<stop stop-color="#925C02"/>
<stop offset="0.2" stop-color="#642701"/>
<stop offset="0.66" stop-color="#330900"/>
<stop offset="0.73" stop-color="#390D00"/>
<stop offset="0.83" stop-color="#4A1A00"/>
<stop offset="0.95" stop-color="#672F01"/>
<stop offset="1" stop-color="#773B01"/>
</linearGradient>
<linearGradient id="paint25_linear_286_166" x1="2077.54" y1="1854.86" x2="2077.54" y2="2141.41" gradientUnits="userSpaceOnUse">
<stop stop-color="#F4BE2B"/>
<stop offset="0.02" stop-color="#E9B227"/>
<stop offset="0.08" stop-color="#BE8319"/>
<stop offset="0.15" stop-color="#9F610F"/>
<stop offset="0.2" stop-color="#8C4D08"/>
<stop offset="0.23" stop-color="#854506"/>
<stop offset="0.32" stop-color="#814106"/>
<stop offset="0.41" stop-color="#743408"/>
<stop offset="0.5" stop-color="#5F1F0A"/>
<stop offset="0.53" stop-color="#57170B"/>
<stop offset="0.64" stop-color="#5B1A0A"/>
<stop offset="0.76" stop-color="#682508"/>
<stop offset="0.88" stop-color="#7D3605"/>
<stop offset="1" stop-color="#9A4E01"/>
</linearGradient>
<linearGradient id="paint26_linear_286_166" x1="1798.17" y1="1617.55" x2="1798.17" y2="1892.41" gradientUnits="userSpaceOnUse">
<stop stop-color="#FFCA10"/>
<stop offset="1" stop-color="#FFA200"/>
</linearGradient>
<linearGradient id="paint27_linear_286_166" x1="1798.17" y1="939.345" x2="1798.17" y2="870.19" gradientUnits="userSpaceOnUse">
<stop stop-color="#FFA200"/>
<stop offset="1" stop-color="#DB6205"/>
</linearGradient>
<linearGradient id="paint28_linear_286_166" x1="1798.17" y1="1024.01" x2="1798.17" y2="958.554" gradientUnits="userSpaceOnUse">
<stop stop-color="white"/>
<stop offset="1" stop-color="white"/>
</linearGradient>
<linearGradient id="paint29_linear_286_166" x1="934.35" y1="1248.14" x2="1008.14" y2="1248.14" gradientUnits="userSpaceOnUse">
<stop stop-color="#925C02"/>
<stop offset="0.2" stop-color="#642701"/>
<stop offset="0.66" stop-color="#330900"/>
<stop offset="0.73" stop-color="#390D00"/>
<stop offset="0.83" stop-color="#4A1A00"/>
<stop offset="0.95" stop-color="#672F01"/>
<stop offset="1" stop-color="#773B01"/>
</linearGradient>
<clipPath id="clip0_286_166">
<rect width="374.77" height="288" fill="white"/>
</clipPath>
</defs>
</svg>
