<svg width="166" height="133" viewBox="0 0 166 133" fill="none" xmlns="http://www.w3.org/2000/svg">
<g clip-path="url(#clip0)">
<path d="M36.7 124.28L35.94 123.35L36.6 122.83L37.35 123.75L36.7 124.28Z" fill="#0089DD"/>
<path d="M34.5 121.45C34.03 120.81 33.56 120.16 33.12 119.45L33.81 118.98C34.25 119.63 34.71 120.28 35.17 120.91L34.5 121.45ZM31.82 117.45C31.4 116.78 30.99 116.09 30.6 115.45L31.33 115.04C31.71 115.71 32.12 116.39 32.53 117.04L31.82 117.45ZM29.46 113.31C29.09 112.6 28.73 111.89 28.39 111.17L29.15 110.81C29.48 111.52 29.84 112.23 30.2 112.92L29.46 113.31ZM27.41 109C27.1 108.28 26.8 107.53 26.52 106.79L27.3 106.49C27.58 107.22 27.87 107.96 28.18 108.67L27.41 109ZM25.71 104.55C25.45 103.8 25.21 103.03 24.98 102.27L25.78 102.04C26.01 102.78 26.25 103.54 26.5 104.28L25.71 104.55ZM24.35 100C24.15 99.24 23.97 98.46 23.8 97.68L24.62 97.51C24.78 98.27 24.96 99.04 25.16 99.8L24.35 100ZM23.35 95.34C23.21 94.56 23.09 93.77 22.98 92.98L23.81 92.87C23.92 93.64 24.04 94.43 24.17 95.2L23.35 95.34ZM22.7 90.61C22.63 89.83 22.56 89.03 22.52 88.23H23.35C23.4 89.01 23.46 89.8 23.54 90.58L22.7 90.61ZM22.42 85.85C22.42 85.37 22.42 84.85 22.42 84.41C22.42 84.1 22.42 83.78 22.42 83.47H23.25V84.4C23.25 84.87 23.25 85.4 23.25 85.82L22.42 85.85ZM23.32 81.13H22.49C22.49 80.34 22.59 79.54 22.66 78.75L23.49 78.83C23.41 79.57 23.35 80.36 23.31 81.14L23.32 81.13ZM23.75 76.44L22.92 76.33C23.02 75.55 23.14 74.75 23.27 73.97L24.09 74.11C24 74.89 23.84 75.67 23.74 76.45L23.75 76.44ZM24.53 71.8L23.71 71.63C23.87 70.85 24.05 70.07 24.24 69.3L25.05 69.5C24.85 70.27 24.67 71 24.52 71.81L24.53 71.8ZM25.66 67.23L24.84 67C25.06 66.24 25.3 65.47 25.55 64.72L26.34 64.98C26.1 65.73 25.86 66.49 25.65 67.24L25.66 67.23ZM27.14 62.75L26.35 62.46C26.63 61.72 26.93 60.97 27.24 60.24L28.01 60.56C27.69 61.29 27.4 62 27.13 62.76L27.14 62.75ZM29 58.41L28.24 58.06C28.58 57.34 28.93 56.62 29.24 55.91L29.98 56.29C29.63 57 29.28 57.7 29 58.41ZM31.15 54.21L30.42 53.8C30.81 53.11 31.21 52.42 31.63 51.74L32.34 52.18C31.88 52.85 31.48 53.53 31.1 54.21H31.15ZM33.61 50.21L32.91 49.75C33.35 49.09 33.81 48.43 34.27 47.75L34.95 48.24C34.44 48.89 34 49.54 33.56 50.19L33.61 50.21ZM36.37 46.39L35.71 45.88C36.2 45.26 36.71 44.63 37.21 44.03L37.85 44.57C37.3 45.14 36.8 45.76 36.32 46.37L36.37 46.39ZM39.37 42.8L38.75 42.23C39.28 41.65 39.83 41.07 40.39 40.5L40.99 41.09C40.43 41.62 39.88 42.2 39.36 42.78L39.37 42.8ZM42.67 39.44L42.09 38.83C42.67 38.29 43.27 37.75 43.86 37.23L44.41 37.86C43.81 38.35 43.23 38.89 42.66 39.42L42.67 39.44ZM46.21 36.35L45.69 35.7C46.3 35.2 46.93 34.7 47.57 34.23L48.07 34.9C47.43 35.35 46.81 35.83 46.2 36.33L46.21 36.35ZM50 33.51L49.52 32.82C50.17 32.37 50.84 31.93 51.52 31.5L51.97 32.21C51.27 32.63 50.61 33.07 50 33.51ZM54 30.99L53.57 30.26L55.65 29.1L56.05 29.84C55.3 30.21 54.61 30.59 53.94 31L54 30.99ZM58.14 28.77L57.71 28C58.42 27.66 59.15 27.32 59.88 27L60.21 27.77C59.5 28.1 58.78 28.43 58.08 28.77H58.14ZM62.44 26.89L62.13 26.11C62.87 25.82 63.62 25.54 64.37 25.28L64.64 26.06C63.85 26.32 63.1 26.6 62.38 26.89H62.44ZM66.88 25.33L66.63 24.53C67.39 24.3 68.16 24.07 68.93 23.87L69.14 24.68C68.33 24.88 67.57 25.1 66.82 25.33H66.88ZM71.43 24.12L71.24 23.3C72.02 23.13 72.8 22.96 73.58 22.82L73.73 23.64C72.9 23.78 72.13 23.94 71.37 24.12H71.43ZM76 23.25L75.88 22.43C76.6666 22.31 77.4567 22.21 78.25 22.13L78.34 22.96C77.55 23 76.77 23.14 76 23.25ZM80.68 22.75V21.91C81.47 21.86 82.27 21.82 83.06 21.79V22.63C82.25 22.65 81.45 22.69 80.67 22.75H80.68Z" fill="#0089DD"/>
<path d="M86.6 22.61H85.41V21.77H86.61L86.6 22.61Z" fill="#0089DD"/>
<path d="M7.71 83.77H68.78C73.04 83.77 76.49 86.77 76.49 90.58V125.65C76.49 129.41 73.04 132.46 68.78 132.46H7.71C3.45 132.46 0 129.41 0 125.65V90.58C0 86.82 3.45 83.77 7.71 83.77Z" fill="#046EA3"/>
<path d="M55.45 88.05H6.21C2.78031 88.05 0 90.8303 0 94.26V126.26C0 129.69 2.78031 132.47 6.21 132.47H55.45C58.8797 132.47 61.66 129.69 61.66 126.26V94.26C61.66 90.8303 58.8797 88.05 55.45 88.05Z" fill="#0089DD"/>
<path d="M69.43 103.36H53.88C52.9524 103.325 52.0273 103.477 51.1599 103.807C50.2925 104.138 49.5008 104.64 48.8321 105.284C48.1633 105.928 47.6314 106.7 47.268 107.554C46.9046 108.408 46.7173 109.327 46.7173 110.255C46.7173 111.183 46.9046 112.102 47.268 112.956C47.6314 113.81 48.1633 114.582 48.8321 115.226C49.5008 115.87 50.2925 116.372 51.1599 116.703C52.0273 117.033 52.9524 117.185 53.88 117.15H76.49V103.36H69.43Z" fill="#00597C"/>
<path d="M54.31 113.24C55.9613 113.24 57.3 111.901 57.3 110.25C57.3 108.599 55.9613 107.26 54.31 107.26C52.6587 107.26 51.32 108.599 51.32 110.25C51.32 111.901 52.6587 113.24 54.31 113.24Z" fill="white"/>
<path d="M158.43 2.78965e-05H90C88.0984 2.78965e-05 86.2747 0.755437 84.9301 2.10007C83.5854 3.44471 82.83 5.26843 82.83 7.17003V125.29C82.83 127.192 83.5854 129.015 84.9301 130.36C86.2747 131.705 88.0984 132.46 90 132.46H158.45C160.352 132.46 162.175 131.705 163.52 130.36C164.865 129.015 165.62 127.192 165.62 125.29V7.17003C165.62 6.22677 165.434 5.29277 165.072 4.42156C164.711 3.55035 164.181 2.75905 163.513 2.09299C162.845 1.42693 162.052 0.899209 161.18 0.540061C160.308 0.180913 159.373 -0.00260324 158.43 2.78965e-05V2.78965e-05ZM162 125.29C162 126.242 161.622 127.155 160.949 127.829C160.275 128.502 159.362 128.88 158.41 128.88H90C89.529 128.88 89.0627 128.787 88.6277 128.607C88.1927 128.426 87.7976 128.161 87.465 127.828C87.1325 127.494 86.869 127.099 86.6897 126.663C86.5103 126.228 86.4187 125.761 86.42 125.29V7.17003C86.4187 6.69906 86.5103 6.23245 86.6897 5.79695C86.869 5.36145 87.1325 4.96561 87.465 4.63212C87.7976 4.29862 88.1927 4.03403 88.6277 3.85349C89.0627 3.67296 89.529 3.58003 90 3.58003H158.45C159.395 3.59056 160.298 3.97344 160.963 4.64555C161.627 5.31767 162 6.22479 162 7.17003V125.29Z" fill="#050F64"/>
<path d="M158.44 3.58002H89.98C88.0028 3.58002 86.4 5.18284 86.4 7.16002V125.29C86.4 127.267 88.0028 128.87 89.98 128.87H158.44C160.417 128.87 162.02 127.267 162.02 125.29V7.16002C162.02 5.18284 160.417 3.58002 158.44 3.58002Z" fill="#0089DD"/>
<path d="M158.43 2.78965e-05H90C88.0984 2.78965e-05 86.2747 0.755437 84.9301 2.10007C83.5854 3.44471 82.83 5.26843 82.83 7.17003V125.29C82.83 127.192 83.5854 129.015 84.9301 130.36C86.2747 131.705 88.0984 132.46 90 132.46H158.45C160.352 132.46 162.175 131.705 163.52 130.36C164.865 129.015 165.62 127.192 165.62 125.29V7.17003C165.62 6.22677 165.434 5.29277 165.072 4.42156C164.711 3.55035 164.181 2.75905 163.513 2.09299C162.845 1.42693 162.052 0.899209 161.18 0.540061C160.308 0.180913 159.373 -0.00260324 158.43 2.78965e-05V2.78965e-05ZM162 125.29C162 126.242 161.622 127.155 160.949 127.829C160.275 128.502 159.362 128.88 158.41 128.88H90C89.529 128.88 89.0627 128.787 88.6277 128.607C88.1927 128.426 87.7976 128.161 87.465 127.828C87.1325 127.494 86.869 127.099 86.6897 126.663C86.5103 126.228 86.4187 125.761 86.42 125.29V7.17003C86.4187 6.69906 86.5103 6.23245 86.6897 5.79695C86.869 5.36145 87.1325 4.96561 87.465 4.63212C87.7976 4.29862 88.1927 4.03403 88.6277 3.85349C89.0627 3.67296 89.529 3.58003 90 3.58003H118.41C119.02 3.57963 119.606 3.81215 120.05 4.23003L123 7.00003C123.331 7.31373 123.769 7.4886 124.225 7.4886C124.681 7.4886 125.119 7.31373 125.45 7.00003L128.4 4.24003C128.832 3.82786 129.403 3.59241 130 3.58003H158.41C159.362 3.58003 160.275 3.95826 160.949 4.63152C161.622 5.30477 162 6.2179 162 7.17003V125.29Z" fill="#00597C"/>
<path d="M141.52 24.23C141.65 54.23 124.21 58.47 124.21 58.47C122.961 58.1004 121.767 57.5656 120.66 56.88C119.543 56.2133 118.489 55.4469 117.51 54.59C114.825 52.2041 112.651 49.299 111.12 46.05C110.374 44.5105 109.739 42.9198 109.22 41.29C108.98 40.55 108.76 39.78 108.55 38.99C108.28 37.92 108.03 36.8 107.82 35.62C107.161 31.86 106.849 28.0472 106.89 24.23C106.89 24.23 112.33 22.79 112.07 18.23C113.778 17.5869 115.537 17.0918 117.33 16.75C118.14 16.59 119.03 16.45 119.97 16.33C120.59 16.25 121.22 16.19 121.89 16.14C122.56 16.09 123.41 16.06 124.21 16.06C125.01 16.06 125.55 16.06 126.21 16.12C129.513 16.3055 132.776 16.9379 135.91 18C136.19 18.1 136.34 18.17 136.34 18.17C136.294 18.9409 136.425 19.7121 136.723 20.4245C137.021 21.1369 137.479 21.7716 138.06 22.28C139.058 23.1736 140.239 23.8391 141.52 24.23V24.23Z" fill="#00597C"/>
<path d="M141.52 22.49C141.65 52.49 124.21 56.73 124.21 56.73C122.959 56.3659 121.765 55.8309 120.66 55.14C119.543 54.4733 118.489 53.7069 117.51 52.85C114.825 50.4641 112.651 47.559 111.12 44.31C110.373 42.7712 109.738 41.1804 109.22 39.55C108.98 38.81 108.76 38.05 108.55 37.25C108.28 36.19 108.03 35.06 107.82 33.89C107.161 30.1266 106.85 26.3105 106.89 22.49C106.89 22.49 112.33 21.05 112.07 16.49C113.777 15.8411 115.537 15.3425 117.33 15C118.14 14.84 119.03 14.69 119.97 14.57C120.59 14.49 121.22 14.43 121.89 14.39C122.56 14.35 123.41 14.3 124.21 14.3C125.01 14.3 125.55 14.3 126.21 14.37C129.521 14.5636 132.789 15.2165 135.92 16.31L136.35 16.47C136.304 17.2409 136.435 18.0121 136.733 18.7245C137.031 19.4369 137.489 20.0716 138.07 20.58C139.069 21.458 140.246 22.1096 141.52 22.49V22.49Z" fill="#E5E6EB"/>
<path d="M124.21 54C121.5 52.8655 119.1 51.0998 117.21 48.85C112.37 43.33 109.73 34.85 109.51 24.19C110.735 23.6479 111.821 22.8354 112.687 21.8136C113.553 20.7918 114.176 19.5871 114.51 18.29C120.843 16.3166 127.627 16.3166 133.96 18.29C134.294 19.5871 134.917 20.7918 135.783 21.8136C136.649 22.8354 137.735 23.6479 138.96 24.19C138.75 34.83 136.1 43.33 131.26 48.85C129.354 51.1042 126.937 52.87 124.21 54V54Z" fill="#00597C"/>
<path d="M121.57 30.92V31.92H126.84V30.92H121.57ZM124.21 26.81C123.121 26.8126 122.077 27.2465 121.307 28.0167C120.536 28.7869 120.103 29.8308 120.1 30.92V33.42H123.33C123.582 33.227 123.892 33.1248 124.21 33.13C124.527 33.1263 124.837 33.2283 125.09 33.42H128.31V30.92C128.31 29.8317 127.878 28.7878 127.11 28.0173C126.341 27.2468 125.298 26.8126 124.21 26.81ZM121.57 30.92C121.611 30.2492 121.907 29.6194 122.397 29.1591C122.886 28.6987 123.533 28.4424 124.205 28.4424C124.877 28.4424 125.524 28.6987 126.013 29.1591C126.503 29.6194 126.799 30.2492 126.84 30.92H121.57Z" fill="white"/>
<path d="M128.31 31C128.142 30.9476 127.966 30.9206 127.79 30.92H120.62C120.444 30.9206 120.268 30.9476 120.1 31C119.726 31.1121 119.398 31.3421 119.166 31.6557C118.934 31.9693 118.809 32.3496 118.81 32.74V38.06C118.81 38.541 119 39.0024 119.34 39.3434C119.679 39.6844 120.139 39.8773 120.62 39.88H127.79C128.271 39.8773 128.731 39.6844 129.07 39.3434C129.41 39.0024 129.6 38.541 129.6 38.06V32.74C129.601 32.3496 129.476 31.9693 129.244 31.6557C129.012 31.3421 128.684 31.1121 128.31 31V31ZM124.86 35.94V37.67H123.55V35.94C123.302 35.8173 123.093 35.6279 122.946 35.393C122.799 35.158 122.721 34.8869 122.72 34.61C122.72 34.3775 122.776 34.1485 122.882 33.9416C122.988 33.7347 123.141 33.556 123.33 33.42C123.582 33.2269 123.892 33.1248 124.21 33.13C124.527 33.1263 124.837 33.2283 125.09 33.42C125.295 33.5711 125.457 33.7724 125.561 34.0045C125.665 34.2365 125.707 34.4915 125.684 34.7447C125.661 34.998 125.573 35.241 125.429 35.4504C125.284 35.6597 125.089 35.8283 124.86 35.94V35.94Z" fill="white"/>
<path d="M124.21 54C122.834 53.5082 121.529 52.8356 120.33 52C119.74 51.57 119.16 51.1 118.61 50.61C118.062 50.1017 117.541 49.5642 117.05 49C116.065 47.8972 115.175 46.713 114.39 45.46C113.633 44.1946 112.965 42.8781 112.39 41.52C111.24 38.7835 110.404 35.9252 109.9 33C109.382 30.0934 109.088 27.1515 109.02 24.2V24L109.27 23.88C110.404 23.3058 111.421 22.5259 112.27 21.58C113.12 20.6491 113.71 19.511 113.98 18.28L114.04 18L114.3 17.92C115.898 17.4324 117.529 17.0582 119.18 16.8C122.492 16.2646 125.868 16.2646 129.18 16.8C130.827 17.0593 132.455 17.4335 134.05 17.92L134.32 18L134.38 18.28C134.647 19.5103 135.233 20.6486 136.08 21.58C136.942 22.5322 137.977 23.3127 139.13 23.88L139.38 24V24.28C139.315 27.2312 139.024 30.1732 138.51 33.08C138 35.992 137.172 38.8391 136.04 41.57C135.465 42.928 134.797 44.2445 134.04 45.51C133.246 46.7439 132.353 47.9111 131.37 49C130.874 49.5472 130.35 50.0679 129.8 50.56C129.256 51.0734 128.681 51.5543 128.08 52C126.883 52.8336 125.582 53.506 124.21 54ZM124.21 54C125.562 53.4345 126.835 52.6985 128 51.81C128.575 51.3632 129.126 50.8858 129.65 50.38C130.18 49.88 130.65 49.38 131.15 48.8C132.076 47.6802 132.909 46.4862 133.64 45.23C134.358 43.9676 134.989 42.6579 135.53 41.31C136.581 38.5987 137.339 35.7826 137.79 32.91C138.25 30.0353 138.501 27.131 138.54 24.22L138.78 24.63C137.522 24.0221 136.39 23.1844 135.44 22.16C134.962 21.6369 134.552 21.0556 134.22 20.43C133.886 19.801 133.644 19.1275 133.5 18.43L133.82 18.79C132.268 18.319 130.684 17.9614 129.08 17.72C125.87 17.2134 122.6 17.2134 119.39 17.72C117.786 17.9614 116.202 18.319 114.65 18.79L114.98 18.43C114.829 19.1267 114.583 19.7995 114.25 20.43C113.908 21.0573 113.488 21.6386 113 22.16C112.048 23.1814 110.916 24.0187 109.66 24.63L109.9 24.22C109.94 27.131 110.19 30.0353 110.65 32.91C111.101 35.7826 111.859 38.5987 112.91 41.31C113.455 42.6561 114.086 43.9655 114.8 45.23C115.534 46.4864 116.37 47.6804 117.3 48.8C117.77 49.35 118.3 49.88 118.79 50.39C119.28 50.9 119.87 51.39 120.44 51.81C121.597 52.6988 122.865 53.4348 124.21 54V54Z" fill="#0089DD"/>
<path d="M98.63 97.47L98.35 96C98.24 95.4491 98.0015 94.932 97.654 94.4907C97.3065 94.0493 96.8597 93.6962 96.35 93.46L95 92.84L96.47 92.56C97.0209 92.45 97.538 92.2115 97.9794 91.864C98.4207 91.5165 98.7738 91.0697 99.01 90.56L99.64 89.2L99.92 90.67C100.03 91.2209 100.268 91.738 100.616 92.1794C100.964 92.6207 101.41 92.9738 101.92 93.21L103.27 93.84L101.81 94.12C101.259 94.2285 100.741 94.4664 100.299 94.8141C99.8575 95.1618 99.5048 95.6094 99.27 96.12L98.63 97.47Z" fill="white"/>
<rect x="12" y="100" width="22" height="22" rx="11" fill="white"/>
<path d="M23.1455 117.334C22.2314 117.334 21.376 117.188 20.5791 116.895C19.7822 116.596 19.0879 116.165 18.4961 115.603C17.916 115.052 17.459 114.372 17.125 113.563C16.791 112.749 16.624 111.855 16.624 110.883C16.624 109.916 16.791 109.022 17.125 108.202C17.4648 107.376 17.9395 106.661 18.5488 106.058C19.1465 105.466 19.8643 105.009 20.7021 104.687C21.54 104.358 22.4365 104.194 23.3916 104.194C24.083 104.194 24.7129 104.279 25.2812 104.449C25.8496 104.613 26.3301 104.801 26.7227 105.012L27.2676 104.528H28.0322L28.1113 109.081H27.3379C26.8984 107.692 26.3711 106.673 25.7559 106.022C25.1406 105.372 24.3906 105.047 23.5059 105.047C22.4043 105.047 21.5664 105.533 20.9922 106.506C20.418 107.473 20.1309 108.832 20.1309 110.584C20.1309 111.574 20.2275 112.421 20.4209 113.124C20.6201 113.821 20.8779 114.384 21.1943 114.812C21.5342 115.257 21.9355 115.585 22.3984 115.796C22.8613 116.001 23.374 116.104 23.9365 116.104C24.7568 116.104 25.4863 115.881 26.125 115.436C26.7695 114.99 27.3555 114.316 27.8828 113.414L28.6387 113.871C28.3867 114.387 28.0996 114.85 27.7773 115.26C27.4551 115.664 27.083 116.013 26.6611 116.306C26.1982 116.628 25.6855 116.88 25.123 117.062C24.5664 117.243 23.9072 117.334 23.1455 117.334Z" fill="#046EA3"/>
<path opacity="0.5" d="M104.11 70.48C104.026 70.2911 103.981 70.0868 103.98 69.88C103.98 69.4875 104.136 69.1111 104.413 68.8335C104.691 68.5559 105.067 68.4 105.46 68.4H142.91C143.303 68.4 143.679 68.5559 143.956 68.8335C144.234 69.1111 144.39 69.4875 144.39 69.88C144.393 70.0873 144.349 70.2927 144.26 70.48C144.145 70.2178 143.956 69.9949 143.716 69.8385C143.476 69.6822 143.196 69.5993 142.91 69.6H105.46C105.174 69.6006 104.894 69.684 104.655 69.8402C104.415 69.9963 104.226 70.2186 104.11 70.48V70.48Z" fill="#00597C"/>
<path d="M142.91 71.36H105.46C105.174 71.3594 104.894 71.276 104.655 71.1198C104.415 70.9637 104.226 70.7414 104.11 70.48C104.226 70.2186 104.415 69.9963 104.655 69.8401C104.894 69.684 105.174 69.6005 105.46 69.6H142.91C143.196 69.5993 143.476 69.6822 143.716 69.8385C143.956 69.9948 144.145 70.2178 144.26 70.48C144.193 70.6468 144.091 70.797 143.96 70.92C143.823 71.059 143.659 71.1695 143.479 71.245C143.299 71.3205 143.105 71.3596 142.91 71.36V71.36Z" fill="#00597C"/>
<path fill-rule="evenodd" clip-rule="evenodd" d="M141.47 84.41C141.472 87.2767 140.763 90.0991 139.406 92.6244C138.049 95.1497 136.087 97.299 133.696 98.8797C131.304 100.46 128.558 101.423 125.703 101.682C122.848 101.94 119.974 101.487 117.337 100.361C114.7 99.2359 112.384 97.4741 110.596 95.2337C108.807 92.9932 107.603 90.3441 107.09 87.5237C106.577 84.7033 106.771 81.7997 107.656 79.073C108.541 76.3463 110.089 73.8817 112.16 71.9H136.16C137.845 73.5177 139.185 75.4605 140.097 77.6107C141.01 79.761 141.477 82.0741 141.47 84.41V84.41Z" fill="url(#paint0_linear)"/>
<path fill-rule="evenodd" clip-rule="evenodd" d="M139 84.41C139.003 86.9935 138.333 89.5332 137.057 91.7793C135.78 94.0253 133.941 95.9004 131.72 97.2199C129.499 98.5395 126.973 99.258 124.39 99.3049C121.807 99.3517 119.256 98.7253 116.989 97.4871C114.721 96.249 112.815 94.4419 111.458 92.2436C110.101 90.0452 109.34 87.5315 109.249 84.9496C109.158 82.3678 109.742 79.8068 110.941 77.5187C112.14 75.2306 113.915 73.2942 116.09 71.9H132.2C134.29 73.2494 136.008 75.1018 137.196 77.2875C138.384 79.4733 139.004 81.9223 139 84.41V84.41Z" fill="url(#paint1_linear)"/>
<path d="M139.03 83.4301H109.27V84.7701H139.03V83.4301Z" fill="#FFA200"/>
<path d="M139.03 83.21H109.27V83.43H139.03V83.21Z" fill="#FFA200"/>
<path d="M139.03 82.9901H109.27V83.2101H139.03V82.9901Z" fill="#FEA100"/>
<path d="M139.03 82.76H109.27V82.98H139.03V82.76Z" fill="#FEA000"/>
<path d="M139.03 82.54H109.27V82.76H139.03V82.54Z" fill="#FD9F00"/>
<path d="M139.03 82.32H109.27V82.54H139.03V82.32Z" fill="#FD9E00"/>
<path d="M139.03 82.09H109.27V82.31H139.03V82.09Z" fill="#FC9D00"/>
<path d="M139.03 81.8701H109.27V82.09H139.03V81.8701Z" fill="#FC9C00"/>
<path d="M139.03 81.65H109.27V81.87H139.03V81.65Z" fill="#FB9B01"/>
<path d="M139.03 81.42H109.27V81.64H139.03V81.42Z" fill="#FA9A01"/>
<path d="M139.03 81.2H109.27V81.42H139.03V81.2Z" fill="#FA9901"/>
<path d="M139.03 80.98H109.27V81.2H139.03V80.98Z" fill="#F99801"/>
<path d="M139.03 80.75H109.27V80.97H139.03V80.75Z" fill="#F99701"/>
<path d="M139.03 80.53H109.27V80.75H139.03V80.53Z" fill="#F89601"/>
<path d="M139.03 80.3101H109.27V80.5301H139.03V80.3101Z" fill="#F89501"/>
<path d="M139.03 80.08H109.27V80.3H139.03V80.08Z" fill="#F79401"/>
<path d="M139.03 79.86H109.27V80.08H139.03V79.86Z" fill="#F69301"/>
<path d="M139.03 79.63H109.27V79.85H139.03V79.63Z" fill="#F69201"/>
<path d="M139.03 79.41H109.27V79.63H139.03V79.41Z" fill="#F59101"/>
<path d="M139.03 79.1901H109.27V79.4101H139.03V79.1901Z" fill="#F59001"/>
<path d="M139.03 78.96H109.27V79.18H139.03V78.96Z" fill="#F48F02"/>
<path d="M139.03 78.7401H109.27V78.9601H139.03V78.7401Z" fill="#F48E02"/>
<path d="M139.03 78.52H109.27V78.74H139.03V78.52Z" fill="#F38D02"/>
<path d="M139.03 78.29H109.27V78.51H139.03V78.29Z" fill="#F28C02"/>
<path d="M139.03 78.07H109.27V78.29H139.03V78.07Z" fill="#F28B02"/>
<path d="M139.03 77.85H109.27V78.07H139.03V77.85Z" fill="#F18A02"/>
<path d="M139.03 77.6201H109.27V77.84H139.03V77.6201Z" fill="#F18902"/>
<path d="M139.03 77.4H109.27V77.62H139.03V77.4Z" fill="#F08802"/>
<path d="M139.03 77.1801H109.27V77.4001H139.03V77.1801Z" fill="#F08702"/>
<path d="M139.03 76.95H109.27V77.17H139.03V76.95Z" fill="#EF8602"/>
<path d="M139.03 76.73H109.27V76.95H139.03V76.73Z" fill="#EE8502"/>
<path d="M139.03 76.51H109.27V76.73H139.03V76.51Z" fill="#EE8402"/>
<path d="M139.03 76.28H109.27V76.5H139.03V76.28Z" fill="#ED8302"/>
<path d="M139.03 76.0601H109.27V76.2801H139.03V76.0601Z" fill="#ED8103"/>
<path d="M139.03 75.84H109.27V76.06H139.03V75.84Z" fill="#EC8003"/>
<path d="M139.03 75.61H109.27V75.83H139.03V75.61Z" fill="#EC7F03"/>
<path d="M139.03 75.39H109.27V75.61H139.03V75.39Z" fill="#EB7E03"/>
<path d="M139.03 75.17H109.27V75.39H139.03V75.17Z" fill="#EA7D03"/>
<path d="M139.03 74.9401H109.27V75.1601H139.03V74.9401Z" fill="#EA7C03"/>
<path d="M139.03 74.72H109.27V74.94H139.03V74.72Z" fill="#E97B03"/>
<path d="M139.03 74.5H109.27V74.72H139.03V74.5Z" fill="#E97A03"/>
<path d="M139.03 74.27H109.27V74.49H139.03V74.27Z" fill="#E87903"/>
<path d="M139.03 74.05H109.27V74.27H139.03V74.05Z" fill="#E87803"/>
<path d="M139.03 73.83H109.27V74.05H139.03V73.83Z" fill="#E77703"/>
<path d="M139.03 73.6H109.27V73.82H139.03V73.6Z" fill="#E67603"/>
<path d="M139.03 73.38H109.27V73.6H139.03V73.38Z" fill="#E67503"/>
<path d="M139.03 73.16H109.27V73.38H139.03V73.16Z" fill="#E57404"/>
<path d="M139.03 72.9301H109.27V73.1501H139.03V72.9301Z" fill="#E57304"/>
<path d="M139.03 72.71H109.27V72.93H139.03V72.71Z" fill="#E47204"/>
<path d="M139.03 72.4901H109.27V72.7101H139.03V72.4901Z" fill="#E47104"/>
<path d="M139.03 72.26H109.27V72.48H139.03V72.26Z" fill="#E37004"/>
<path d="M139.03 72.04H109.27V72.26H139.03V72.04Z" fill="#E26F04"/>
<path d="M139.03 71.8101H109.27V72.0301H139.03V71.8101Z" fill="#E26E04"/>
<path d="M139.03 71.59H109.27V71.81H139.03V71.59Z" fill="#E16D04"/>
<path d="M139.03 71.3701H109.27V71.59H139.03V71.3701Z" fill="#E16C04"/>
<path d="M139.03 71.14H109.27V71.36H139.03V71.14Z" fill="#E06B04"/>
<path d="M139.03 70.92H109.27V71.14H139.03V70.92Z" fill="#E06A04"/>
<path d="M139.03 70.7H109.27V70.92H139.03V70.7Z" fill="#DF6904"/>
<path d="M139.03 70.47H109.27V70.69H139.03V70.47Z" fill="#DE6805"/>
<path d="M139.03 70.25H109.27V70.47H139.03V70.25Z" fill="#DE6705"/>
<path d="M139.03 70.03H109.27V70.25H139.03V70.03Z" fill="#DD6605"/>
<path d="M139.03 69.8H109.27V70.02H139.03V69.8Z" fill="#DD6505"/>
<path d="M139.03 69.58H109.27V69.8H139.03V69.58Z" fill="#DC6405"/>
<path d="M139.03 69.53H109.27V69.58H139.03V69.53Z" fill="#DC6305"/>
<path d="M124.15 98.57C128.029 98.5608 131.751 97.0383 134.524 94.3265C137.298 91.6147 138.904 87.9277 139 84.05C139 84.17 139 84.29 139 84.41C139 86.3641 138.615 88.2991 137.867 90.1044C137.12 91.9097 136.023 93.5501 134.642 94.9318C133.26 96.3135 131.62 97.4096 129.814 98.1574C128.009 98.9052 126.074 99.29 124.12 99.29C122.166 99.29 120.231 98.9052 118.426 98.1574C116.62 97.4096 114.98 96.3135 113.598 94.9318C112.217 93.5501 111.12 91.9097 110.373 90.1044C109.625 88.2991 109.24 86.3641 109.24 84.41C109.24 84.29 109.24 84.17 109.24 84.05C109.332 87.9398 110.944 91.6387 113.731 94.3532C116.519 97.0677 120.259 98.5816 124.15 98.57V98.57Z" fill="url(#paint2_linear)"/>
<path d="M124.939 93.3711C123.924 93.3711 122.973 93.2083 122.088 92.8828C121.202 92.5508 120.431 92.0723 119.773 91.4473C119.129 90.8353 118.621 90.0801 118.25 89.1816C117.879 88.2767 117.693 87.2839 117.693 86.2031C117.693 85.1289 117.879 84.1361 118.25 83.2246C118.628 82.3066 119.155 81.5124 119.832 80.8418C120.496 80.1842 121.294 79.6764 122.225 79.3184C123.156 78.9538 124.152 78.7715 125.213 78.7715C125.981 78.7715 126.681 78.8659 127.312 79.0547C127.944 79.237 128.478 79.4453 128.914 79.6797L129.52 79.1426H130.369L130.457 84.2012H129.598C129.109 82.6582 128.523 81.5254 127.84 80.8027C127.156 80.0801 126.323 79.7188 125.34 79.7188C124.116 79.7188 123.185 80.2591 122.547 81.3398C121.909 82.4141 121.59 83.9245 121.59 85.8711C121.59 86.9714 121.697 87.9121 121.912 88.6934C122.133 89.4681 122.42 90.0931 122.771 90.5684C123.149 91.0632 123.595 91.4277 124.109 91.6621C124.624 91.89 125.193 92.0039 125.818 92.0039C126.73 92.0039 127.54 91.7565 128.25 91.2617C128.966 90.7669 129.617 90.0182 130.203 89.0156L131.043 89.5234C130.763 90.0964 130.444 90.6107 130.086 91.0664C129.728 91.5156 129.314 91.903 128.846 92.2285C128.331 92.5866 127.762 92.8665 127.137 93.0684C126.518 93.2702 125.786 93.3711 124.939 93.3711Z" fill="url(#paint3_linear)"/>
<path d="M106.79 105.35L107.21 102.83C107.362 101.889 107.295 100.926 107.014 100.015C106.733 99.1048 106.246 98.2713 105.59 97.58L103.84 95.73L106.31 96.19C107.231 96.362 108.179 96.3081 109.075 96.0329C109.97 95.7577 110.785 95.2694 111.45 94.61L113.24 92.85L112.82 95.36C112.663 96.3015 112.727 97.2666 113.006 98.1793C113.286 99.092 113.773 99.9275 114.43 100.62L116.19 102.46L113.71 102.01C112.792 101.838 111.845 101.892 110.952 102.165C110.059 102.438 109.245 102.924 108.58 103.58L106.79 105.35Z" fill="white"/>
<path d="M108.53 93.35L108.03 92.35C107.84 91.9569 107.56 91.6144 107.212 91.3502C106.865 91.0861 106.46 90.9078 106.03 90.83L104.89 90.62L105.89 90.12C106.283 89.9307 106.624 89.6506 106.887 89.3027C107.15 88.9549 107.326 88.5494 107.4 88.12L107.61 86.98L108.11 87.98C108.299 88.374 108.579 88.7174 108.926 88.9817C109.274 89.246 109.68 89.4237 110.11 89.5L111.25 89.71L110.25 90.21C109.857 90.3992 109.516 90.6794 109.253 91.0272C108.99 91.3751 108.814 91.7805 108.74 92.21L108.53 93.35Z" fill="white"/>
<path d="M136.52 76.1L137.6 74.81C138.002 74.3279 138.284 73.7582 138.425 73.1467C138.566 72.5352 138.561 71.8992 138.41 71.29L138 69.66L139.29 70.74C139.771 71.1401 140.339 71.4218 140.949 71.5625C141.558 71.7032 142.192 71.6989 142.8 71.55L144.43 71.15L143.35 72.43C142.948 72.9121 142.666 73.4819 142.525 74.0934C142.384 74.7049 142.389 75.3409 142.54 75.95L142.95 77.58L141.66 76.5C141.179 76.0999 140.611 75.8182 140.001 75.6776C139.392 75.5369 138.758 75.5412 138.15 75.69L136.52 76.1Z" fill="white"/>
</g>
<defs>
<linearGradient id="paint0_linear" x1="124.15" y1="73.08" x2="124.15" y2="95.52" gradientUnits="userSpaceOnUse">
<stop stop-color="#FFCA10"/>
<stop offset="1" stop-color="#FFA200"/>
</linearGradient>
<linearGradient id="paint1_linear" x1="124.15" y1="71.97" x2="124.15" y2="98.77" gradientUnits="userSpaceOnUse">
<stop stop-color="#FFCA10"/>
<stop offset="1" stop-color="#FFD412"/>
</linearGradient>
<linearGradient id="paint2_linear" x1="124.15" y1="99.05" x2="124.15" y2="85.51" gradientUnits="userSpaceOnUse">
<stop stop-color="white"/>
<stop offset="1" stop-color="white"/>
</linearGradient>
<linearGradient id="paint3_linear" x1="124.5" y1="76" x2="124.5" y2="96" gradientUnits="userSpaceOnUse">
<stop offset="0.395833" stop-color="#FFB800"/>
<stop offset="1" stop-color="#FFA200"/>
</linearGradient>
<clipPath id="clip0">
<rect width="165.6" height="132.46" fill="white"/>
</clipPath>
</defs>
</svg>
