<svg xmlns="http://www.w3.org/2000/svg" xmlns:xlink="http://www.w3.org/1999/xlink" viewBox="0 0 368.13 286.37"><defs><style>.cls-1{isolation:isolate;}.cls-2,.cls-22{fill:#0089dd;}.cls-3{fill:#046ea3;}.cls-4{fill:url(#Áåçûìÿííûé_ãðàäèåíò_59);}.cls-5,.cls-7{mix-blend-mode:lighten;opacity:0.7;}.cls-5{fill:url(#Áåçûìÿííûé_ãðàäèåíò_3);}.cls-6{fill:#a9ebff;}.cls-7{fill:url(#Áåçûìÿííûé_ãðàäèåíò_3-2);}.cls-8{fill:url(#Áåçûìÿííûé_ãðàäèåíò_11);}.cls-9{fill:url(#Áåçûìÿííûé_ãðàäèåíò_17);}.cls-10{fill:url(#Áåçûìÿííûé_ãðàäèåíò_14);}.cls-11,.cls-13,.cls-34{fill:#fff;}.cls-12{fill:url(#Áåçûìÿííûé_ãðàäèåíò_11-2);}.cls-13{opacity:0.2;}.cls-14{fill:url(#Áåçûìÿííûé_ãðàäèåíò_11-3);}.cls-15{fill:url(#Áåçûìÿííûé_ãðàäèåíò_17-2);}.cls-16{fill:url(#Áåçûìÿííûé_ãðàäèåíò_14-2);}.cls-17{fill:url(#Áåçûìÿííûé_ãðàäèåíò_11-4);}.cls-18{fill:url(#Áåçûìÿííûé_ãðàäèåíò_11-5);}.cls-19{fill:url(#Áåçûìÿííûé_ãðàäèåíò_17-3);}.cls-20{fill:url(#Áåçûìÿííûé_ãðàäèåíò_14-3);}.cls-21{fill:url(#Áåçûìÿííûé_ãðàäèåíò_11-6);}.cls-22,.cls-30,.cls-34{opacity:0.5;}.cls-23{fill:url(#Áåçûìÿííûé_ãðàäèåíò_17-4);}.cls-24{fill:#06a7f7;}.cls-25{fill:#2573ba;}.cls-26{fill:url(#Áåçûìÿííûé_ãðàäèåíò_14-4);}.cls-27{fill:url(#Áåçûìÿííûé_ãðàäèåíò_14-5);}.cls-28{fill:url(#Áåçûìÿííûé_ãðàäèåíò_17-5);}.cls-29{fill:url(#Áåçûìÿííûé_ãðàäèåíò_17-6);}.cls-30{fill:#7bdaff;}.cls-31{fill:url(#Áåçûìÿííûé_ãðàäèåíò_14-6);}.cls-32{fill:url(#Áåçûìÿííûé_ãðàäèåíò_17-7);}.cls-33{fill:url(#Áåçûìÿííûé_ãðàäèåíò_17-8);}.cls-35{fill:url(#Áåçûìÿííûé_ãðàäèåíò_14-7);}.cls-36{fill:url(#Áåçûìÿííûé_ãðàäèåíò_14-8);}.cls-37{fill:url(#Áåçûìÿííûé_ãðàäèåíò_17-9);}.cls-38{fill:url(#Áåçûìÿííûé_ãðàäèåíò_17-10);}.cls-39{fill:url(#Áåçûìÿííûé_ãðàäèåíò_14-9);}.cls-40{fill:url(#Áåçûìÿííûé_ãðàäèåíò_17-11);}.cls-41{fill:url(#Áåçûìÿííûé_ãðàäèåíò_17-12);}.cls-42{fill:url(#Áåçûìÿííûé_ãðàäèåíò_14-10);}.cls-43{fill:url(#Áåçûìÿííûé_ãðàäèåíò_14-11);}.cls-44{fill:url(#Áåçûìÿííûé_ãðàäèåíò_14-12);}</style><linearGradient id="Áåçûìÿííûé_ãðàäèåíò_59" x1="-182.14" y1="-660" x2="-71.73" y2="-660" gradientTransform="matrix(0.87, -0.5, 0, 1.15, 176.27, 740.94)" gradientUnits="userSpaceOnUse"><stop offset="0" stop-color="#2b237c"/><stop offset="1" stop-color="#180d5b"/></linearGradient><linearGradient id="Áåçûìÿííûé_ãðàäèåíò_3" x1="-28.56" y1="-570.86" x2="-163.77" y2="-682.39" gradientTransform="matrix(0.87, -0.5, 0, 1.15, 176.27, 740.94)" gradientUnits="userSpaceOnUse"><stop offset="0" stop-color="#180d5b"/><stop offset="0.09" stop-color="#1a1660"/><stop offset="0.25" stop-color="#1e2d6e"/><stop offset="0.44" stop-color="#255385"/><stop offset="0.66" stop-color="#2f87a5"/><stop offset="0.9" stop-color="#3ccace"/><stop offset="1" stop-color="#42e8e0"/></linearGradient><linearGradient id="Áåçûìÿííûé_ãðàäèåíò_3-2" x1="116.13" y1="29.22" x2="96.79" y2="13.26" gradientTransform="matrix(1, 0, 0, 1, 0, 0)" xlink:href="#Áåçûìÿííûé_ãðàäèåíò_3"/><linearGradient id="Áåçûìÿííûé_ãðàäèåíò_11" x1="-773.15" y1="72.46" x2="-751.26" y2="87.55" gradientTransform="matrix(-1, 0, 0, 1, -706.56, 0)" gradientUnits="userSpaceOnUse"><stop offset="0" stop-color="#3a9bd5"/><stop offset="1" stop-color="#2573ba"/></linearGradient><linearGradient id="Áåçûìÿííûé_ãðàäèåíò_17" x1="-767.25" y1="65" x2="-742.61" y2="75.59" gradientTransform="matrix(-1, 0, 0, 1, -706.56, 0)" gradientUnits="userSpaceOnUse"><stop offset="0" stop-color="#7bdaff"/><stop offset="1" stop-color="#59bdef"/></linearGradient><linearGradient id="Áåçûìÿííûé_ãðàäèåíò_14" x1="-756.4" y1="76.23" x2="-733.03" y2="83.27" gradientTransform="matrix(-1, 0, 0, 1, -706.56, 0)" gradientUnits="userSpaceOnUse"><stop offset="0" stop-color="#2573ba"/><stop offset="1" stop-color="#0063ad"/></linearGradient><linearGradient id="Áåçûìÿííûé_ãðàäèåíò_11-2" x1="-888.22" y1="135.29" x2="-858.58" y2="135.29" xlink:href="#Áåçûìÿííûé_ãðàäèåíò_11"/><linearGradient id="Áåçûìÿííûé_ãðàäèåíò_11-3" x1="-801.19" y1="56.2" x2="-779.3" y2="71.29" xlink:href="#Áåçûìÿííûé_ãðàäèåíò_11"/><linearGradient id="Áåçûìÿííûé_ãðàäèåíò_17-2" x1="-795.28" y1="48.75" x2="-770.65" y2="59.33" xlink:href="#Áåçûìÿííûé_ãðàäèåíò_17"/><linearGradient id="Áåçûìÿííûé_ãðàäèåíò_14-2" x1="-784.44" y1="59.97" x2="-761.07" y2="67.02" xlink:href="#Áåçûìÿííûé_ãðàäèåíò_14"/><linearGradient id="Áåçûìÿííûé_ãðàäèåíò_11-4" x1="-916.26" y1="119.04" x2="-886.62" y2="119.04" xlink:href="#Áåçûìÿííûé_ãðàäèåíò_11"/><linearGradient id="Áåçûìÿííûé_ãðàäèåíò_11-5" x1="-829.23" y1="39.95" x2="-807.34" y2="55.04" xlink:href="#Áåçûìÿííûé_ãðàäèåíò_11"/><linearGradient id="Áåçûìÿííûé_ãðàäèåíò_17-3" x1="-823.32" y1="32.5" x2="-798.69" y2="43.08" xlink:href="#Áåçûìÿííûé_ãðàäèåíò_17"/><linearGradient id="Áåçûìÿííûé_ãðàäèåíò_14-3" x1="-812.48" y1="43.72" x2="-789.11" y2="50.76" xlink:href="#Áåçûìÿííûé_ãðàäèåíò_14"/><linearGradient id="Áåçûìÿííûé_ãðàäèåíò_11-6" x1="-944.3" y1="102.79" x2="-914.66" y2="102.79" xlink:href="#Áåçûìÿííûé_ãðàäèåíò_11"/><linearGradient id="Áåçûìÿííûé_ãðàäèåíò_17-4" x1="-966.38" y1="111.32" x2="-865.84" y2="154.52" xlink:href="#Áåçûìÿííûé_ãðàäèåíò_17"/><linearGradient id="Áåçûìÿííûé_ãðàäèåíò_14-4" x1="-911.85" y1="154.12" x2="-802.25" y2="187.16" xlink:href="#Áåçûìÿííûé_ãðàäèåíò_14"/><linearGradient id="Áåçûìÿííûé_ãðàäèåíò_14-5" x1="-903.82" y1="166.24" x2="-790.86" y2="184.76" xlink:href="#Áåçûìÿííûé_ãðàäèåíò_14"/><linearGradient id="Áåçûìÿííûé_ãðàäèåíò_17-5" x1="-843.66" y1="150.55" x2="-817.61" y2="164.58" xlink:href="#Áåçûìÿííûé_ãðàäèåíò_17"/><linearGradient id="Áåçûìÿííûé_ãðàäèåíò_17-6" x1="-876.75" y1="201.63" x2="-825.83" y2="201.63" xlink:href="#Áåçûìÿííûé_ãðàäèåíò_17"/><linearGradient id="Áåçûìÿííûé_ãðàäèåíò_14-6" x1="-890.02" y1="166.7" x2="-780.43" y2="199.74" xlink:href="#Áåçûìÿííûé_ãðàäèåíò_14"/><linearGradient id="Áåçûìÿííûé_ãðàäèåíò_17-7" x1="-821.83" y1="163.14" x2="-795.79" y2="177.16" xlink:href="#Áåçûìÿííûé_ãðàäèåíò_17"/><linearGradient id="Áåçûìÿííûé_ãðàäèåíò_17-8" x1="-854.93" y1="214.21" x2="-804.01" y2="214.21" xlink:href="#Áåçûìÿííûé_ãðàäèåíò_17"/><linearGradient id="Áåçûìÿííûé_ãðàäèåíò_14-7" x1="-7106.57" y1="154.12" x2="-6996.97" y2="187.16" gradientTransform="translate(7313.96)" xlink:href="#Áåçûìÿííûé_ãðàäèåíò_14"/><linearGradient id="Áåçûìÿííûé_ãðàäèåíò_14-8" x1="-7098.54" y1="166.24" x2="-6985.58" y2="184.76" gradientTransform="translate(7313.96)" xlink:href="#Áåçûìÿííûé_ãðàäèåíò_14"/><linearGradient id="Áåçûìÿííûé_ãðàäèåíò_17-9" x1="-7038.38" y1="150.55" x2="-7012.33" y2="164.58" gradientTransform="translate(7313.96)" xlink:href="#Áåçûìÿííûé_ãðàäèåíò_17"/><linearGradient id="Áåçûìÿííûé_ãðàäèåíò_17-10" x1="-7071.48" y1="201.63" x2="-7020.55" y2="201.63" gradientTransform="translate(7313.96)" xlink:href="#Áåçûìÿííûé_ãðàäèåíò_17"/><linearGradient id="Áåçûìÿííûé_ãðàäèåíò_14-9" x1="-7084.75" y1="166.7" x2="-6975.15" y2="199.74" gradientTransform="translate(7313.96)" xlink:href="#Áåçûìÿííûé_ãðàäèåíò_14"/><linearGradient id="Áåçûìÿííûé_ãðàäèåíò_17-11" x1="-7016.55" y1="163.14" x2="-6990.51" y2="177.16" gradientTransform="translate(7313.96)" xlink:href="#Áåçûìÿííûé_ãðàäèåíò_17"/><linearGradient id="Áåçûìÿííûé_ãðàäèåíò_17-12" x1="-7049.65" y1="214.21" x2="-6998.73" y2="214.21" gradientTransform="translate(7313.96)" xlink:href="#Áåçûìÿííûé_ãðàäèåíò_17"/><linearGradient id="Áåçûìÿííûé_ãðàäèåíò_14-10" x1="299.57" y1="20.29" x2="312.25" y2="20.29" gradientTransform="matrix(1, 0, 0, 1, 0, 0)" xlink:href="#Áåçûìÿííûé_ãðàäèåíò_14"/><linearGradient id="Áåçûìÿííûé_ãðàäèåíò_14-11" x1="307.62" y1="24.93" x2="320.29" y2="24.93" gradientTransform="matrix(1, 0, 0, 1, 0, 0)" xlink:href="#Áåçûìÿííûé_ãðàäèåíò_14"/><linearGradient id="Áåçûìÿííûé_ãðàäèåíò_14-12" x1="315.67" y1="29.58" x2="328.35" y2="29.58" gradientTransform="matrix(1, 0, 0, 1, 0, 0)" xlink:href="#Áåçûìÿííûé_ãðàäèåíò_14"/></defs><g class="cls-1"><g id="Layer_2" data-name="Layer 2"><g id="Layer_1-2" data-name="Layer 1"><path class="cls-2" d="M109.91,13.26,91.19,2.38h0c-2.79-1.66-6.67-1.45-11,1a24.42,24.42,0,0,0-4,3L68.62,2h0C64.48-.89,58.48-.76,51.81,3.09,43.36,8,36,17.56,32.11,27.72a9.13,9.13,0,0,0-4.25,1.34c-5.51,3.18-10,10.92-10,17.28,0,.14,0,.27,0,.4a12.05,12.05,0,0,0-5.14,1.72C5.71,52.53,0,62.42,0,70.56c0,4,1.41,6.88,3.68,8.22h0l.06,0h0L22.22,89.55l4-19.41L80.22,39C87.11,35,93,26.4,94.91,18.05Z"/><path class="cls-3" d="M.51,71c0-8.14,5.71-18,12.76-22.1a12,12,0,0,1,5.14-1.72c0-.13,0-.26,0-.4,0-6.36,4.47-14.1,10-17.28a9.13,9.13,0,0,1,4.25-1.34C36.51,18,43.87,8.41,52.31,3.53,59-.32,65-.45,69.13,2.46h0l7.54,4.36a24.49,24.49,0,0,1,4.06-3c4.29-2.48,8.18-2.69,11-1h0l18,10.49.16-.05L91.19,2.38h0c-2.79-1.66-6.67-1.45-11,1a24.42,24.42,0,0,0-4,3L68.62,2h0C64.48-.89,58.48-.76,51.81,3.09,43.36,8,36,17.56,32.11,27.72a9.13,9.13,0,0,0-4.25,1.34c-5.51,3.18-10,10.92-10,17.28,0,.14,0,.27,0,.4a12.05,12.05,0,0,0-5.14,1.72C5.71,52.53,0,62.42,0,70.56c0,3.67,1.17,6.33,3.08,7.8C1.47,76.83.51,74.33.51,71Z"/><path class="cls-4" d="M98.75,14.17A27.34,27.34,0,0,0,92,19.86c-2.82-9.08-11.45-11.9-21.66-6-8.44,4.88-15.8,14.47-19.7,24.63a9.16,9.16,0,0,0-4.25,1.34c-5.51,3.18-10,10.92-10,17.28,0,.14,0,.26,0,.4a12,12,0,0,0-5.13,1.72c-7,4.07-12.76,14-12.76,22.1s5.71,11.44,12.76,7.37L98.75,49.74c8.51-4.91,15.41-16.85,15.41-26.68S107.26,9.26,98.75,14.17Z"/><path class="cls-5" d="M98.75,14.17A27.34,27.34,0,0,0,92,19.86c-2.82-9.08-11.45-11.9-21.66-6-8.44,4.88-15.8,14.47-19.7,24.63a9.16,9.16,0,0,0-4.25,1.34c-5.51,3.18-10,10.92-10,17.28,0,.14,0,.26,0,.4a12,12,0,0,0-5.13,1.72c-7,4.07-12.76,14-12.76,22.1s5.71,11.44,12.76,7.37L98.75,49.74c8.51-4.91,15.41-16.85,15.41-26.68S107.26,9.26,98.75,14.17Z"/><path class="cls-6" d="M98.75,14.17A27.34,27.34,0,0,0,92,19.86c-2.82-9.08-11.45-11.9-21.66-6-8.44,4.88-15.8,14.47-19.7,24.63a9.16,9.16,0,0,0-4.25,1.34c-5.51,3.18-10,10.92-10,17.28,0,.14,0,.26,0,.4a12,12,0,0,0-5.13,1.72c-7,4.07-12.76,14-12.76,22.1s5.71,11.44,12.76,7.37L98.75,49.74c8.51-4.91,15.41-16.85,15.41-26.68S107.26,9.26,98.75,14.17Z"/><path class="cls-7" d="M92.82,20.89a27.38,27.38,0,0,1,6.75-5.7c5.22-3,9.83-2.66,12.62.32-2.64-3.9-7.67-4.67-13.44-1.34a27.16,27.16,0,0,0-6.43,5.35C92.5,20,92.67,20.41,92.82,20.89Z"/><polygon class="cls-8" points="47.61 88.43 65.05 78.36 65.05 70.62 47.61 80.7 47.61 88.43"/><polygon class="cls-9" points="47.61 80.7 65.05 70.62 47.61 60.55 30.16 70.62 47.61 80.7"/><polygon class="cls-10" points="30.16 78.36 47.61 88.43 47.61 80.7 30.16 70.62 30.16 78.36"/><polygon class="cls-6" points="47.61 80.31 64.72 70.43 65.05 70.62 47.61 80.7 30.16 70.62 30.5 70.43 47.61 80.31"/><polygon class="cls-6" points="50.97 82.07 61.09 76.16 69.62 82.99 70.34 88.88 70.34 94.25 149.94 141.19 158.37 146.17 157.08 150.02 151.23 152.34 103.46 127.05 82.97 114.23 65.05 104.28 60.04 100.43 59.72 92.25 59.07 87.28 50.97 82.07"/><path class="cls-11" d="M150.8,153.7a9.7,9.7,0,0,0,4.84-1.31,9.58,9.58,0,0,0,4.85-8.39V116.76a1.33,1.33,0,1,0-2.65,0V144a7,7,0,0,1-10.56,6.09l-83.6-48.28a5,5,0,0,1-2.5-4.32V91.43a7.66,7.66,0,0,0-3.82-6.62L52.44,82a1.32,1.32,0,1,0-1.32,2.29L56,87.1a5,5,0,0,1,2.5,4.33v6.06a7.66,7.66,0,0,0,3.81,6.61L146,152.39A9.73,9.73,0,0,0,150.8,153.7Z"/><path class="cls-6" d="M60.6,76.64a1.32,1.32,0,0,1,1.81-.48L67.33,79a7.66,7.66,0,0,1,3.82,6.62v6.06A5,5,0,0,0,73.65,96l85.5,49.38a7,7,0,0,0,2.87.92c-.09.88-.05,1.77-.13,2.65a9.6,9.6,0,0,1-4.06-1.28L72.33,98.29a7.64,7.64,0,0,1-3.82-6.61V85.62A5,5,0,0,0,66,81.29l-4.92-2.84A1.32,1.32,0,0,1,60.6,76.64Z"/><path class="cls-12" d="M154.61,152.91l4-5,.57-6V127.48l0-5.37,10.54,1.8V119a1.33,1.33,0,0,1,2.65,0v20.28a9.58,9.58,0,0,1-4.85,8.39,9.92,9.92,0,0,1-1.69.78h0Z"/><path class="cls-2" d="M150.8,153.7a9.7,9.7,0,0,0,4.84-1.31,9.58,9.58,0,0,0,4.85-8.39V116.76a1.33,1.33,0,1,0-2.65,0V144a7,7,0,0,1-10.56,6.09l-83.6-48.28a5,5,0,0,1-2.5-4.32V91.43a7.66,7.66,0,0,0-3.82-6.62L52.44,82a1.32,1.32,0,1,0-1.32,2.29L56,87.1a5,5,0,0,1,2.5,4.33v6.06a7.66,7.66,0,0,0,3.81,6.61L146,152.39A9.73,9.73,0,0,0,150.8,153.7Z"/><polygon class="cls-13" points="43.93 84.72 45.71 85.75 45.71 82.17 43.93 81.15 43.93 84.72"/><polygon class="cls-13" points="40.96 83.01 42.74 84.04 42.74 80.46 40.96 79.43 40.96 83.01"/><polygon class="cls-13" points="37.99 81.3 39.78 82.33 39.78 78.75 37.99 77.72 37.99 81.3"/><polygon class="cls-11" points="35.03 79.59 36.81 80.61 36.81 77.04 35.03 76.01 35.03 79.59"/><polygon class="cls-11" points="32.06 77.87 33.84 78.9 33.84 75.33 32.06 74.3 32.06 77.87"/><polygon class="cls-14" points="75.65 72.18 93.09 62.11 93.09 54.37 75.65 64.44 75.65 72.18"/><polygon class="cls-15" points="75.65 64.44 93.09 54.37 75.65 44.3 58.2 54.37 75.65 64.44"/><polygon class="cls-16" points="58.2 62.11 75.65 72.18 75.65 64.44 58.2 54.37 58.2 62.11"/><polygon class="cls-6" points="75.65 64.06 92.76 54.18 93.09 54.37 75.65 64.44 58.2 54.37 58.54 54.18 75.65 64.06"/><polygon class="cls-6" points="79.01 65.81 89.13 59.9 97.66 66.73 98.38 72.63 98.38 78 177.98 124.94 186.4 129.91 185.12 133.76 179.27 136.09 171.16 133.68 150.68 120.86 93.09 88.03 88.08 84.18 87.75 76 87.11 71.02 79.01 65.81"/><path class="cls-11" d="M178.84,137.45a9.75,9.75,0,0,0,9.69-9.71V100.5a1.33,1.33,0,0,0-2.65,0v27.24a7,7,0,0,1-10.56,6.1L91.72,85.56a5,5,0,0,1-2.5-4.32V75.18a7.65,7.65,0,0,0-3.82-6.62l-4.92-2.84A1.32,1.32,0,1,0,79.15,68l4.93,2.84a5,5,0,0,1,2.49,4.33v6.06a7.66,7.66,0,0,0,3.82,6.61L174,136.13A9.64,9.64,0,0,0,178.84,137.45Z"/><path class="cls-6" d="M88.64,60.39a1.32,1.32,0,0,1,1.81-.48l4.92,2.84a7.64,7.64,0,0,1,3.82,6.61v6.07a5,5,0,0,0,2.5,4.32l85.5,49.38a7.16,7.16,0,0,0,2.87.92c-.09.87-.05,1.77-.13,2.65a9.83,9.83,0,0,1-4.07-1.28L100.37,82a7.64,7.64,0,0,1-3.82-6.61V69.36A5,5,0,0,0,94.05,65L89.13,62.2A1.33,1.33,0,0,1,88.64,60.39Z"/><path class="cls-17" d="M182.65,136.65l4-5,.58-6V111.23l0-5.37,10.54,1.8v-4.91a1.33,1.33,0,0,1,2.65,0V123a9.58,9.58,0,0,1-4.85,8.39,9.87,9.87,0,0,1-1.69.77h0Z"/><path class="cls-2" d="M178.84,137.45a9.75,9.75,0,0,0,9.69-9.71V100.5a1.33,1.33,0,0,0-2.65,0v27.24a7,7,0,0,1-10.56,6.1L91.72,85.56a5,5,0,0,1-2.5-4.32V75.18a7.65,7.65,0,0,0-3.82-6.62l-4.92-2.84A1.32,1.32,0,1,0,79.15,68l4.93,2.84a5,5,0,0,1,2.49,4.33v6.06a7.66,7.66,0,0,0,3.82,6.61L174,136.13A9.64,9.64,0,0,0,178.84,137.45Z"/><polygon class="cls-13" points="71.97 68.47 73.75 69.5 73.75 65.92 71.97 64.89 71.97 68.47"/><polygon class="cls-13" points="69 66.76 70.78 67.79 70.78 64.21 69 63.18 69 66.76"/><polygon class="cls-11" points="66.03 65.05 67.81 66.07 67.81 62.5 66.03 61.47 66.03 65.05"/><polygon class="cls-11" points="63.07 63.33 64.85 64.36 64.85 60.78 63.07 59.76 63.07 63.33"/><polygon class="cls-11" points="60.1 61.62 61.88 62.65 61.88 59.07 60.1 58.04 60.1 61.62"/><polygon class="cls-18" points="103.69 55.93 121.13 45.85 121.13 38.12 103.69 48.19 103.69 55.93"/><polygon class="cls-19" points="103.69 48.19 121.13 38.12 103.69 28.05 86.24 38.12 103.69 48.19"/><polygon class="cls-20" points="86.24 45.85 103.69 55.93 103.69 48.19 86.24 38.12 86.24 45.85"/><polygon class="cls-6" points="103.69 47.8 120.8 37.92 121.13 38.12 103.69 48.19 86.24 38.12 86.58 37.92 103.69 47.8"/><polygon class="cls-6" points="107.05 49.56 117.17 43.65 125.7 50.48 126.42 56.38 126.42 61.75 206.02 108.69 214.44 113.66 213.16 117.51 207.31 119.84 199.2 117.43 178.72 104.61 121.13 71.78 116.11 67.92 115.79 59.74 115.15 54.77 107.05 49.56"/><path class="cls-11" d="M206.88,121.19a9.71,9.71,0,0,0,9.68-9.7V84.25a1.32,1.32,0,0,0-2.64,0v27.24a7,7,0,0,1-10.56,6.1l-83.6-48.28a5,5,0,0,1-2.5-4.33V58.92a7.64,7.64,0,0,0-3.82-6.61l-4.92-2.85a1.33,1.33,0,0,0-1.33,2.3l4.93,2.84a5,5,0,0,1,2.49,4.32V65a7.68,7.68,0,0,0,3.82,6.62L202,119.88A9.63,9.63,0,0,0,206.88,121.19Z"/><path class="cls-6" d="M116.68,44.14a1.33,1.33,0,0,1,1.81-.49l4.92,2.85a7.64,7.64,0,0,1,3.82,6.61v6.06a5,5,0,0,0,2.5,4.33l85.5,49.37a6.86,6.86,0,0,0,2.87.92c-.09.88-.06,1.77-.13,2.65a9.63,9.63,0,0,1-4.07-1.27L128.4,65.79a7.67,7.67,0,0,1-3.81-6.62V53.11a5,5,0,0,0-2.5-4.32l-4.92-2.85A1.31,1.31,0,0,1,116.68,44.14Z"/><path class="cls-21" d="M210.69,120.4l4-5,.58-6V95l0-5.36,10.54,1.79V86.5a1.33,1.33,0,1,1,2.65,0v20.28a9.58,9.58,0,0,1-4.85,8.39,9.87,9.87,0,0,1-1.69.77h0Z"/><path class="cls-2" d="M206.88,121.19a9.71,9.71,0,0,0,9.68-9.7V84.25a1.32,1.32,0,0,0-2.64,0v27.24a7,7,0,0,1-10.56,6.1l-83.6-48.28a5,5,0,0,1-2.5-4.33V58.92a7.64,7.64,0,0,0-3.82-6.61l-4.92-2.85a1.33,1.33,0,0,0-1.33,2.3l4.93,2.84a5,5,0,0,1,2.49,4.32V65a7.68,7.68,0,0,0,3.82,6.62L202,119.88A9.63,9.63,0,0,0,206.88,121.19Z"/><polygon class="cls-13" points="100 52.22 101.79 53.25 101.79 49.67 100 48.64 100 52.22"/><polygon class="cls-11" points="97.04 50.51 98.82 51.53 98.82 47.96 97.04 46.93 97.04 50.51"/><polygon class="cls-11" points="94.07 48.79 95.85 49.82 95.85 46.24 94.07 45.22 94.07 48.79"/><polygon class="cls-11" points="91.11 47.08 92.89 48.11 92.89 44.53 91.11 43.5 91.11 47.08"/><polygon class="cls-11" points="88.14 45.37 89.92 46.4 89.92 42.82 88.14 41.79 88.14 45.37"/><polygon class="cls-6" points="266.84 144.6 266.37 143.79 366.27 86.12 341.09 71.59 341.56 70.78 368.13 86.12 266.84 144.6"/><polygon class="cls-22" points="206.43 252.98 277.24 212.1 206.43 171.22 135.63 212.1 206.43 252.98"/><polygon class="cls-3" points="206.43 206.96 277.64 165.84 277.64 134.26 206.43 175.38 206.43 206.96"/><polygon class="cls-23" points="206.43 175.38 277.64 134.26 206.43 93.15 135.22 134.26 206.43 175.38"/><polygon class="cls-11" points="206.43 165.56 260.65 134.26 206.43 102.96 152.22 134.26 206.43 165.56"/><polygon class="cls-2" points="135.22 165.84 206.43 206.96 206.43 175.38 135.22 134.26 135.22 165.84"/><polygon class="cls-3" points="206.43 156.18 277.64 115.06 277.64 83.48 206.43 124.6 206.43 156.18"/><polygon class="cls-24" points="206.43 124.6 277.64 83.48 206.43 42.37 135.22 83.48 206.43 124.6"/><polygon class="cls-6" points="206.43 123.02 276.28 82.69 277.64 83.48 206.43 124.6 135.22 83.48 136.59 82.69 206.43 123.02"/><polygon class="cls-6" points="206.43 173.79 276.28 133.47 277.64 134.26 206.43 175.38 135.22 134.26 136.59 133.47 206.43 173.79"/><polygon class="cls-6" points="206.43 58.1 256.34 86.91 206.43 115.72 156.53 86.91 206.43 58.1"/><polygon class="cls-25" points="206.43 58.1 156.53 86.91 150.59 83.48 206.43 51.24 262.27 83.48 256.34 86.91 206.43 58.1"/><polygon class="cls-2" points="135.22 115.06 206.43 156.18 206.43 124.6 135.22 83.48 135.22 115.06"/><path class="cls-11" d="M181.58,126a9,9,0,0,0,4.07,7c2.25,1.3,4.07.25,4.07-2.35a9,9,0,0,0-4.07-7.05C183.4,122.39,181.58,123.44,181.58,126Z"/><path class="cls-11" d="M166.76,117.48a9,9,0,0,0,4.07,7c2.25,1.3,4.07.25,4.07-2.35a9,9,0,0,0-4.07-7.05C168.58,113.83,166.76,114.88,166.76,117.48Z"/><ellipse class="cls-11" cx="156" cy="111.27" rx="3.32" ry="5.76" transform="matrix(0.87, -0.5, 0.5, 0.87, -34.74, 92.91)"/><path class="cls-6" d="M183.64,123.16a4.06,4.06,0,0,0-.3,1.61,9,9,0,0,0,4.07,7,3.46,3.46,0,0,0,2,.52c-.61,1.36-2.06,1.73-3.77.75a9,9,0,0,1-4.07-7C181.58,124.29,182.42,123.27,183.64,123.16Z"/><path class="cls-6" d="M168.82,114.61a3.8,3.8,0,0,0-.31,1.6,9,9,0,0,0,4.07,7.05,3.49,3.49,0,0,0,2,.52c-.61,1.36-2.06,1.73-3.76.75a9,9,0,0,1-4.07-7C166.76,115.73,167.59,114.71,168.82,114.61Z"/><path class="cls-6" d="M154,106.05a4,4,0,0,0-.3,1.6,9,9,0,0,0,4.07,7,3.46,3.46,0,0,0,2,.52c-.61,1.36-2.07,1.73-3.77.75a9,9,0,0,1-4.07-7C151.93,107.17,152.77,106.15,154,106.05Z"/><ellipse class="cls-11" cx="185.65" cy="179.17" rx="3.32" ry="5.76" transform="matrix(0.87, -0.5, 0.5, 0.87, -64.71, 116.84)"/><path class="cls-11" d="M166.76,168.26a9,9,0,0,0,4.07,7.05c2.25,1.3,4.07.24,4.07-2.35a9,9,0,0,0-4.07-7.05C168.58,164.61,166.76,165.66,166.76,168.26Z"/><path class="cls-11" d="M151.93,159.7a9,9,0,0,0,4.07,7.05c2.25,1.3,4.07.24,4.07-2.35a9,9,0,0,0-4.07-7.05C153.75,156.05,151.93,157.1,151.93,159.7Z"/><path class="cls-6" d="M183.64,173.94a4,4,0,0,0-.3,1.6,9,9,0,0,0,4.07,7.05,3.4,3.4,0,0,0,2,.53c-.61,1.36-2.06,1.73-3.77.75a9,9,0,0,1-4.07-7.05C181.58,175.07,182.42,174,183.64,173.94Z"/><path class="cls-6" d="M168.82,165.38a3.83,3.83,0,0,0-.31,1.6,9,9,0,0,0,4.07,7.05,3.43,3.43,0,0,0,2,.53c-.61,1.36-2.06,1.73-3.76.75a9,9,0,0,1-4.07-7.05C166.76,166.51,167.59,165.49,168.82,165.38Z"/><path class="cls-6" d="M154,156.82a4,4,0,0,0-.3,1.6,9,9,0,0,0,4.07,7.06,3.46,3.46,0,0,0,2,.52c-.61,1.36-2.07,1.73-3.77.75a9,9,0,0,1-4.07-7.05C151.93,158,152.77,156.93,154,156.82Z"/><path class="cls-11" d="M231.31,126.32a9,9,0,0,1-4.07,7.05c-2.24,1.3-4.07.25-4.07-2.35a9,9,0,0,1,4.07-7.05C229.49,122.67,231.31,123.73,231.31,126.32Z"/><path class="cls-11" d="M246.14,117.76a9,9,0,0,1-4.07,7c-2.25,1.3-4.07.25-4.07-2.35a9,9,0,0,1,4.07-7C244.32,114.11,246.14,115.17,246.14,117.76Z"/><ellipse class="cls-11" cx="256.9" cy="111.55" rx="5.76" ry="3.32" transform="translate(31.84 278.25) rotate(-60)"/><path class="cls-6" d="M229.25,123.45a3.8,3.8,0,0,1,.31,1.6,9,9,0,0,1-4.07,7,3.49,3.49,0,0,1-2,.52c.61,1.37,2.06,1.74,3.76.75a9,9,0,0,0,4.07-7.05C231.31,124.57,230.48,123.55,229.25,123.45Z"/><path class="cls-6" d="M244.08,114.89a4,4,0,0,1,.3,1.6,9,9,0,0,1-4.07,7.05,3.46,3.46,0,0,1-2,.52c.61,1.37,2.07,1.74,3.77.75a9,9,0,0,0,4.07-7C246.14,116,245.3,115,244.08,114.89Z"/><path class="cls-6" d="M258.9,106.33a3.83,3.83,0,0,1,.31,1.6,9,9,0,0,1-4.07,7,3.47,3.47,0,0,1-2,.52c.61,1.37,2.06,1.74,3.77.75a9,9,0,0,0,4.07-7C261,107.45,260.13,106.43,258.9,106.33Z"/><ellipse class="cls-11" cx="227.24" cy="179.45" rx="5.76" ry="3.32" transform="translate(-41.79 286.52) rotate(-60)"/><path class="cls-11" d="M246.14,168.54a9,9,0,0,1-4.07,7.05c-2.25,1.3-4.07.25-4.07-2.35a9,9,0,0,1,4.07-7.05C244.32,164.89,246.14,166,246.14,168.54Z"/><path class="cls-11" d="M261,160A9,9,0,0,1,256.9,167c-2.25,1.3-4.08.25-4.08-2.35a9,9,0,0,1,4.08-7.05C259.14,156.33,261,157.39,261,160Z"/><path class="cls-6" d="M229.25,174.23a3.8,3.8,0,0,1,.31,1.6,9,9,0,0,1-4.07,7,3.49,3.49,0,0,1-2,.52c.61,1.37,2.06,1.73,3.76.75a9,9,0,0,0,4.07-7.05C231.31,175.35,230.48,174.33,229.25,174.23Z"/><path class="cls-6" d="M244.08,165.67a4,4,0,0,1,.3,1.6,9,9,0,0,1-4.07,7,3.46,3.46,0,0,1-2,.52c.61,1.37,2.07,1.73,3.77.75a9,9,0,0,0,4.07-7.05C246.14,166.79,245.3,165.77,244.08,165.67Z"/><path class="cls-6" d="M258.9,157.11a3.8,3.8,0,0,1,.31,1.6,9,9,0,0,1-4.07,7,3.47,3.47,0,0,1-2,.52c.61,1.37,2.06,1.74,3.77.75A9,9,0,0,0,261,160C261,158.23,260.13,157.21,258.9,157.11Z"/><polygon class="cls-3" points="206.43 103.64 277.64 62.53 277.64 49.65 206.43 90.76 206.43 103.64"/><polygon class="cls-24" points="206.43 90.76 277.64 49.65 206.43 8.53 135.22 49.65 206.43 90.76"/><polygon class="cls-6" points="206.43 89.18 276.28 48.85 277.64 49.65 206.43 90.76 135.22 49.65 136.59 48.86 206.43 89.18"/><polygon class="cls-2" points="135.22 62.53 206.43 103.64 206.43 90.76 135.22 49.65 135.22 62.53"/><polygon class="cls-6" points="277.64 115.06 277.64 134.26 206.43 175.38 206.43 156.18 277.64 115.06"/><polygon class="cls-6" points="135.22 115.06 135.22 134.26 206.43 175.38 206.43 156.18 135.22 115.06"/><path class="cls-6" d="M156.35,286.37l-.23-.14-67.59-39,31.92-18.36.23.14,67.59,39ZM90.4,247.22l65.95,38.07L186.4,268l-65.95-38.08Z"/><path class="cls-26" d="M120.45,111.69v77.23l66.88,38.61V150.3Zm8,13.83,50.92,29.39v58.8l-50.92-29.4Z"/><path class="cls-27" d="M111.29,116.93v77.23l66.89,38.61V155.54Zm8,13.82,50.92,29.4V219l-50.92-29.4Z"/><polygon class="cls-24" points="111.29 116.93 120.45 111.69 187.34 150.3 178.18 155.54 111.29 116.93"/><polygon class="cls-3" points="187.34 150.3 178.18 155.54 178.18 232.77 187.34 227.53 187.34 150.3"/><polygon class="cls-28" points="128.43 184.31 119.27 189.55 119.27 130.75 128.43 136.04 128.43 184.31"/><polygon class="cls-29" points="128.43 184.31 119.27 189.55 170.19 218.95 170.2 208.42 128.43 184.31"/><polygon class="cls-30" points="124.18 186.74 124.18 133.62 170.19 160.15 170.19 212.87 124.18 186.74"/><path class="cls-31" d="M98.63,124.27V201.5l66.88,38.62V162.89Zm8,13.83,50.92,29.4v58.79l-50.92-29.4Z"/><path class="cls-2" d="M89.47,129.51v77.23l66.88,38.62V168.13Zm8,13.83,50.92,29.4v58.79l-50.92-29.4Z"/><polygon class="cls-24" points="89.47 129.51 98.63 124.27 165.51 162.89 156.35 168.13 89.47 129.51"/><polygon class="cls-3" points="165.51 162.89 156.35 168.13 156.35 245.36 165.51 240.12 165.51 162.89"/><polygon class="cls-32" points="106.61 196.89 97.45 202.13 97.45 143.34 106.6 148.62 106.61 196.89"/><polygon class="cls-33" points="106.61 196.89 97.45 202.13 148.37 231.53 148.37 221 106.61 196.89"/><polygon class="cls-30" points="102.35 199.33 102.35 146.2 148.37 172.74 148.37 225.45 102.35 199.33"/><polygon class="cls-6" points="156.35 168.13 89.47 129.51 91.04 128.65 157.93 167.26 157.93 244.49 156.35 245.36 156.35 168.13"/><polygon class="cls-6" points="178.18 155.54 111.29 116.93 112.87 116.06 179.75 154.68 179.75 231.91 178.18 232.77 178.18 155.54"/><polygon class="cls-6" points="97.45 143.34 99.03 144.25 99.03 201.27 148.37 229.75 148.37 231.53 97.45 202.13 97.45 143.34"/><polygon class="cls-34" points="98.63 124.27 111.29 116.93 178.18 155.54 178.18 232.77 165.51 240.12 165.51 162.89 98.63 124.27"/><polygon class="cls-34" points="178.18 155.54 165.51 162.89 98.63 124.27 111.29 116.93 178.18 155.54"/><path class="cls-6" d="M256.33,286.37,224.41,268l.7-.41,67.12-38.75,31.91,18.36ZM226.27,268l30.06,17.28,65.95-38.07-30-17.29Z"/><path class="cls-35" d="M225.34,150.3v77.23l66.89-38.61V111.69Zm58.91,34-50.92,29.4v-58.8l50.92-29.39Z"/><path class="cls-36" d="M234.5,155.54v77.23l66.89-38.61V116.93Zm58.9,34L242.49,219v-58.8l50.91-29.4Z"/><polygon class="cls-24" points="301.39 116.93 292.23 111.69 225.34 150.3 234.5 155.54 301.39 116.93"/><polygon class="cls-3" points="225.34 150.3 234.5 155.54 234.5 232.77 225.34 227.53 225.34 150.3"/><polygon class="cls-37" points="284.25 184.31 293.4 189.55 293.4 130.75 284.25 136.04 284.25 184.31"/><polygon class="cls-38" points="284.25 184.31 293.4 189.55 242.49 218.95 242.48 208.42 284.25 184.31"/><polygon class="cls-30" points="288.5 186.74 288.5 133.62 242.49 160.15 242.49 212.87 288.5 186.74"/><path class="cls-39" d="M247.17,162.89v77.23l66.88-38.62V124.27Zm58.9,34-50.92,29.4V167.5l50.92-29.4Z"/><path class="cls-2" d="M256.33,168.13v77.23l66.88-38.62V129.51Zm58.9,34-50.92,29.4V172.74l50.92-29.4Z"/><polygon class="cls-24" points="323.21 129.51 314.05 124.27 247.17 162.89 256.33 168.13 323.21 129.51"/><polygon class="cls-3" points="247.17 162.89 256.33 168.13 256.33 245.36 247.17 240.12 247.17 162.89"/><polygon class="cls-40" points="306.07 196.89 315.23 202.13 315.23 143.34 306.08 148.62 306.07 196.89"/><polygon class="cls-41" points="306.07 196.89 315.23 202.13 264.31 231.53 264.31 221 306.07 196.89"/><polygon class="cls-30" points="310.33 199.33 310.33 146.2 264.31 172.74 264.31 225.45 310.33 199.33"/><polygon class="cls-6" points="256.33 168.13 323.21 129.51 321.63 128.65 254.75 167.26 254.75 244.49 256.33 245.36 256.33 168.13"/><polygon class="cls-6" points="234.5 155.54 301.39 116.93 299.81 116.06 232.92 154.68 232.92 231.91 234.5 232.77 234.5 155.54"/><polygon class="cls-6" points="315.23 143.34 313.65 144.25 313.65 201.27 264.31 229.75 264.31 231.53 315.23 202.13 315.23 143.34"/><polygon class="cls-34" points="314.05 124.27 301.39 116.93 234.5 155.54 234.5 232.77 247.17 240.12 247.17 162.89 314.05 124.27"/><polygon class="cls-34" points="234.5 155.54 247.17 162.89 314.05 124.27 301.39 116.93 234.5 155.54"/><polygon class="cls-22" points="323.51 74.86 294.25 57.97 317.5 44.54 346.75 61.43 323.51 74.86"/><path class="cls-6" d="M324.65,81.21l-41.4-23.9,33.1-19.12,41.41,23.9Zm-39.4-23.9,39.4,22.74,31.11-18L316.35,39.35Z"/><polygon class="cls-24" points="323.51 35.8 294.25 18.91 317.5 5.49 346.75 22.38 323.51 35.8"/><polygon class="cls-3" points="346.75 40.49 346.75 22.38 323.51 35.8 323.51 53.92 346.75 40.49"/><polygon class="cls-2" points="294.25 18.91 294.25 37.03 323.51 53.92 323.51 35.8 294.25 18.91"/><polygon class="cls-11" points="312.24 14.67 299.57 21.98 299.57 25.9 303.33 28.07 303.33 24.15 316 16.84 312.24 14.67"/><polygon class="cls-11" points="320.29 19.31 307.62 26.63 307.62 30.55 311.38 32.72 311.38 28.8 324.04 21.48 320.29 19.31"/><polygon class="cls-11" points="328.34 23.96 315.67 31.27 315.67 35.2 319.43 37.37 319.43 33.45 332.1 26.13 328.34 23.96"/><polygon class="cls-6" points="312.24 14.67 312.24 16.25 314.65 17.62 316 16.84 312.24 14.67"/><polygon class="cls-6" points="300.94 25.09 299.57 25.9 303.33 28.07 303.33 26.44 300.94 25.09"/><polygon class="cls-42" points="312.24 14.67 299.57 21.98 299.57 25.9 300.94 25.09 300.94 22.78 312.25 16.25 312.24 14.67"/><polygon class="cls-6" points="320.29 19.31 320.29 20.89 322.7 22.26 324.04 21.48 320.29 19.31"/><polygon class="cls-6" points="308.98 29.73 307.62 30.55 311.38 32.72 311.38 31.08 308.98 29.73"/><polygon class="cls-43" points="320.29 19.31 307.62 26.63 307.62 30.55 308.98 29.73 308.98 27.42 320.29 20.89 320.29 19.31"/><polygon class="cls-6" points="328.34 23.96 328.34 25.54 330.75 26.91 332.1 26.13 328.34 23.96"/><polygon class="cls-6" points="317.04 34.38 315.67 35.2 319.43 37.37 319.43 35.73 317.04 34.38"/><polygon class="cls-44" points="328.34 23.96 315.67 31.27 315.67 35.2 317.04 34.38 317.04 32.07 328.35 25.54 328.34 23.96"/></g></g></g></svg>