<svg width="581" height="498" viewBox="0 0 581 498" fill="none" xmlns="http://www.w3.org/2000/svg">
<g clip-path="url(#clip0)">
<path d="M259.55 314.32C260.778 314.164 261.983 313.862 263.14 313.42L266.74 311.99C267.66 311.63 268.14 311.09 268.03 310.53C267.85 309.65 266.32 308.94 264.39 308.85L259.27 308.58C256.682 308.403 254.085 308.743 251.63 309.58L244.07 312.45L249.68 315.91L259.55 314.32Z" fill="#FF9985"/>
<path d="M165.69 258.37C172.04 282.54 177.97 320.37 191.76 332.51C212.37 331.96 229.6 316.71 249.37 310.31C265.45 314.12 251.53 326.83 243.52 331.78C165.29 398.51 151.19 331.55 124.39 267.71C118.42 238 159.82 231.76 165.69 258.37Z" fill="#FF9985"/>
<path d="M165.42 257.27C170.69 277.27 180.89 310.55 190.29 326.95C192.23 330.33 160.96 350.82 157.94 346.83C144.3 328.83 132.12 296.7 124.39 267.71C116.58 238.43 159.56 230.67 165.42 257.27Z" fill="#00597C"/>
<path d="M280.76 320.69C280.514 319.79 280.061 318.96 279.438 318.266C278.815 317.571 278.038 317.032 277.17 316.69L265.57 313.69C263.598 312.913 261.489 312.546 259.37 312.61L247.14 312.44C244.65 312.401 242.184 312.931 239.93 313.99L245.43 328.2L253.66 331.27C263.46 333.16 277.55 327.67 277.55 327.67C278.817 327.066 279.832 326.037 280.419 324.761C281.005 323.486 281.126 322.045 280.76 320.69Z" fill="#FF9985"/>
<path d="M68.88 302.26C75.88 338.26 68.98 411.46 68.98 411.46C68.78 431.46 158.11 430.46 174.59 419.99C180.93 415.99 166.96 343.05 170.26 321.51C172.39 307.62 173.05 270.59 163.58 249.42C155.32 230.93 118.23 227.54 97.72 230.33C62.44 235.12 62.7 266.37 68.88 302.26Z" fill="#296789"/>
<path d="M120.21 248.93C123.015 249.117 125.825 248.677 128.439 247.642C131.052 246.607 133.401 245.002 135.317 242.945C137.232 240.888 138.665 238.43 139.512 235.75C140.358 233.069 140.597 230.234 140.21 227.45L136.66 201.92L107.77 199.92L103.06 227.09C102.608 229.67 102.704 232.316 103.342 234.857C103.98 237.397 105.146 239.775 106.764 241.835C108.382 243.895 110.415 245.592 112.732 246.814C115.048 248.036 117.596 248.757 120.21 248.93Z" fill="#FF9985"/>
<path d="M151.26 159.49C151.26 159.49 153.4 185.49 159.13 189.65C164.86 193.81 174.93 157.99 157.65 157.65C153.07 157.52 151.26 159.49 151.26 159.49Z" fill="#343455"/>
<path d="M163.75 190.7C162.75 212.84 158.34 230.21 139.08 229.33C119.82 228.45 94.76 195.49 96 183.89C98.3 161.89 117 148.38 136.31 149.27C155.62 150.16 164.78 168.57 163.75 190.7Z" fill="#FF9985"/>
<path d="M151.26 143.6C166.59 146.69 176.26 150.97 164.53 164.6C159.97 169.9 140.32 165.34 132.8 169.37C125.66 173.2 125.58 182.08 124.54 184.48C121 192.6 116.29 187.15 109.54 207.31C103.72 224.66 104.54 217.62 95.71 197.73C80.47 163.57 101.12 136.07 122.46 136.97C136 137.58 140.3 141.4 151.26 143.6Z" fill="#343455"/>
<path d="M123.68 194.42C123.44 199.8 122.37 204.02 117.68 203.8C112.99 203.58 106.48 199.02 106.68 193.64C106.88 188.26 112.27 184.14 116.95 184.35C121.63 184.56 123.93 189 123.68 194.42Z" fill="#FF9985"/>
<path d="M142.42 229.51C158.23 228.81 162.58 214.92 163.23 198.39C147.99 201.18 130.29 195.17 130.29 195.17C120.29 228.36 140.62 229.43 140.78 229.54C141.33 229.54 141.88 229.53 142.42 229.51Z" fill="#343455"/>
<path d="M131.17 196.14L122.44 187.35" stroke="#000644" stroke-width="1.15" stroke-linecap="round" stroke-linejoin="round"/>
<path d="M111.22 201.83L128.69 217.72" stroke="#000644" stroke-width="1.15" stroke-linecap="round" stroke-linejoin="round"/>
<path d="M103.89 298.44H136.28V279.22H103.89V298.44Z" fill="white"/>
<path d="M111.31 287.15H128.88V283.79H111.31V287.15Z" fill="#0089DD"/>
<path d="M114.68 293.77H125.5V290.41H114.68V293.77Z" fill="#0089DD"/>
<path d="M101.28 273.65C86.7001 294 61.3301 322.61 60.7501 341C74.3001 356.54 96.2501 361.2 113.75 372.36C121.06 387.18 103.19 383.45 94.27 380.43C-6.99995 362.64 35.64 309.1 67.77 247.77C86.87 224.24 118.05 252.18 101.28 273.65Z" fill="#FF9985"/>
<path d="M102 272.74C89.91 289.57 73.12 316.47 66.47 334.16C65.06 337.82 27 328.91 28.16 324C33.38 302 50.35 272.16 67.77 247.73C85.36 223.09 118.73 251.27 102 272.74Z" fill="#00597C"/>
<path d="M135 387.59C134.467 388.349 133.765 388.975 132.95 389.417C132.134 389.86 131.227 390.107 130.3 390.14L118.38 389.08C116.26 389.169 114.145 388.829 112.16 388.08L100.58 384.18C98.2208 383.38 96.0713 382.061 94.29 380.32L104.2 368.74L112.98 368.59C122.86 370.06 134.32 379.91 134.32 379.91C135.318 380.906 135.932 382.222 136.057 383.626C136.181 385.031 135.807 386.434 135 387.59V387.59Z" fill="#FF9985"/>
<path d="M509.6 497.14H11.02V396.61H508.86L509.6 497.14Z" fill="#343455"/>
<path d="M378.65 396.61H347.49V497.14H378.65V396.61Z" fill="#000644"/>
<path d="M516.36 383.11H4.27C1.91174 383.11 0 385.022 0 387.38V394.21C0 396.568 1.91174 398.48 4.27 398.48H516.36C518.718 398.48 520.63 396.568 520.63 394.21V387.38C520.63 385.022 518.718 383.11 516.36 383.11Z" fill="#00597C"/>
<path d="M163.01 337.69V376.98H178.04V337.69H163.01Z" fill="#000644"/>
<path d="M133.77 371.89H278.38C279.083 371.89 279.778 372.028 280.427 372.297C281.076 372.566 281.666 372.96 282.163 373.457C282.66 373.954 283.054 374.544 283.323 375.193C283.592 375.842 283.73 376.537 283.73 377.24V383.11H128.43V377.24C128.429 376.538 128.566 375.842 128.834 375.193C129.101 374.544 129.495 373.955 129.991 373.458C130.487 372.961 131.076 372.566 131.724 372.297C132.373 372.028 133.068 371.89 133.77 371.89V371.89Z" fill="#000644"/>
<path d="M218 365.68H273.2C274.619 365.68 275.98 366.244 276.983 367.247C277.986 368.25 278.55 369.611 278.55 371.03V371.9H212.61V371C212.614 370.297 212.757 369.601 213.03 368.953C213.303 368.304 213.701 367.716 214.202 367.222C214.702 366.728 215.296 366.337 215.947 366.073C216.599 365.808 217.297 365.675 218 365.68V365.68Z" fill="#230768"/>
<path d="M310.5 358.62V383.11H322.88V358.62H310.5Z" fill="#000644"/>
<path d="M327.15 320.79H306.22C303.47 320.79 301.24 323.02 301.24 325.77V371.92C301.24 374.67 303.47 376.9 306.22 376.9H327.15C329.9 376.9 332.13 374.67 332.13 371.92V325.77C332.13 323.02 329.9 320.79 327.15 320.79Z" fill="#230768"/>
<path d="M329.05 325.85H304.32V344.14H329.05V325.85Z" fill="#EADEFF"/>
<path d="M308.37 348.84H306.45C305.274 348.84 304.32 349.794 304.32 350.97V351.07C304.32 352.246 305.274 353.2 306.45 353.2H308.37C309.546 353.2 310.5 352.246 310.5 351.07V350.97C310.5 349.794 309.546 348.84 308.37 348.84Z" fill="#EADEFF"/>
<path d="M317.65 348.84H315.73C314.554 348.84 313.6 349.794 313.6 350.97V351.07C313.6 352.246 314.554 353.2 315.73 353.2H317.65C318.826 353.2 319.78 352.246 319.78 351.07V350.97C319.78 349.794 318.826 348.84 317.65 348.84Z" fill="#EADEFF"/>
<path d="M326.92 348.84H325C323.824 348.84 322.87 349.794 322.87 350.97V351.07C322.87 352.246 323.824 353.2 325 353.2H326.92C328.096 353.2 329.05 352.246 329.05 351.07V350.97C329.05 349.794 328.096 348.84 326.92 348.84Z" fill="#EADEFF"/>
<path d="M308.37 355.46H306.45C305.274 355.46 304.32 356.414 304.32 357.59V357.69C304.32 358.866 305.274 359.82 306.45 359.82H308.37C309.546 359.82 310.5 358.866 310.5 357.69V357.59C310.5 356.414 309.546 355.46 308.37 355.46Z" fill="#EADEFF"/>
<path d="M317.65 355.46H315.73C314.554 355.46 313.6 356.414 313.6 357.59V357.69C313.6 358.866 314.554 359.82 315.73 359.82H317.65C318.826 359.82 319.78 358.866 319.78 357.69V357.59C319.78 356.414 318.826 355.46 317.65 355.46Z" fill="#EADEFF"/>
<path d="M326.92 355.46H325C323.824 355.46 322.87 356.414 322.87 357.59V357.69C322.87 358.866 323.824 359.82 325 359.82H326.92C328.096 359.82 329.05 358.866 329.05 357.69V357.59C329.05 356.414 328.096 355.46 326.92 355.46Z" fill="#EADEFF"/>
<path d="M308.37 362.08H306.45C305.274 362.08 304.32 363.034 304.32 364.21V364.31C304.32 365.486 305.274 366.44 306.45 366.44H308.37C309.546 366.44 310.5 365.486 310.5 364.31V364.21C310.5 363.034 309.546 362.08 308.37 362.08Z" fill="#EADEFF"/>
<path d="M317.65 362.08H315.73C314.554 362.08 313.6 363.034 313.6 364.21V364.31C313.6 365.486 314.554 366.44 315.73 366.44H317.65C318.826 366.44 319.78 365.486 319.78 364.31V364.21C319.78 363.034 318.826 362.08 317.65 362.08Z" fill="#EADEFF"/>
<path d="M326.92 362.08H325C323.824 362.08 322.87 363.034 322.87 364.21V364.31C322.87 365.486 323.824 366.44 325 366.44H326.92C328.096 366.44 329.05 365.486 329.05 364.31V364.21C329.05 363.034 328.096 362.08 326.92 362.08Z" fill="#EADEFF"/>
<path d="M308.37 368.7H306.45C305.274 368.7 304.32 369.654 304.32 370.83V370.93C304.32 372.106 305.274 373.06 306.45 373.06H308.37C309.546 373.06 310.5 372.106 310.5 370.93V370.83C310.5 369.654 309.546 368.7 308.37 368.7Z" fill="#EADEFF"/>
<path d="M317.65 368.7H315.73C314.554 368.7 313.6 369.654 313.6 370.83V370.93C313.6 372.106 314.554 373.06 315.73 373.06H317.65C318.826 373.06 319.78 372.106 319.78 370.93V370.83C319.78 369.654 318.826 368.7 317.65 368.7Z" fill="#EADEFF"/>
<path d="M326.92 368.7H325C323.824 368.7 322.87 369.654 322.87 370.83V370.93C322.87 372.106 323.824 373.06 325 373.06H326.92C328.096 373.06 329.05 372.106 329.05 370.93V370.83C329.05 369.654 328.096 368.7 326.92 368.7Z" fill="#EADEFF"/>
<path d="M317.15 336.29H316.22V337.3H317.15V336.29Z" fill="#525CD8"/>
<path d="M311.05 332.91H308.44V337.09H311.05V332.91Z" stroke="#525CD8" stroke-width="0.44" stroke-miterlimit="10"/>
<path d="M315.26 332.91H312.65V337.09H315.26V332.91Z" stroke="#525CD8" stroke-width="0.44" stroke-miterlimit="10"/>
<path d="M320.72 332.91H318.11V337.09H320.72V332.91Z" stroke="#525CD8" stroke-width="0.44" stroke-miterlimit="10"/>
<path d="M324.92 332.91H322.31V337.09H324.92V332.91Z" stroke="#525CD8" stroke-width="0.44" stroke-miterlimit="10"/>
<path d="M308.44 335H311.05" stroke="#525CD8" stroke-width="0.44" stroke-miterlimit="10"/>
<path d="M133.77 325.17H207.26C208.676 325.17 210.035 325.733 211.036 326.734C212.037 327.736 212.6 329.094 212.6 330.51V356.13C212.6 357.549 212.036 358.91 211.033 359.913C210.03 360.916 208.669 361.48 207.25 361.48H133.77C132.354 361.48 130.996 360.917 129.994 359.916C128.993 358.915 128.43 357.556 128.43 356.14V330.52C128.429 329.818 128.566 329.122 128.834 328.473C129.101 327.824 129.495 327.235 129.991 326.738C130.487 326.241 131.076 325.846 131.724 325.577C132.373 325.308 133.068 325.17 133.77 325.17V325.17Z" fill="#230768"/>
<path d="M206.08 329.8H134.97V356.86H206.08V329.8Z" fill="#EADEFF"/>
<path d="M171.64 346.39H169.4V348.82H171.64V346.39Z" fill="#525CD8"/>
<path d="M157.03 338.33H150.76V348.33H157.03V338.33Z" stroke="#525CD8" stroke-width="1.05" stroke-miterlimit="10"/>
<path d="M167.11 338.33H160.84V348.33H167.11V338.33Z" stroke="#525CD8" stroke-width="1.05" stroke-miterlimit="10"/>
<path d="M180.21 338.33H173.94V348.33H180.21V338.33Z" stroke="#525CD8" stroke-width="1.05" stroke-miterlimit="10"/>
<path d="M190.29 338.33H184.02V348.33H190.29V338.33Z" stroke="#525CD8" stroke-width="1.05" stroke-miterlimit="10"/>
<path d="M150.76 343.33H157.02" stroke="#525CD8" stroke-width="1.05" stroke-miterlimit="10"/>
<path d="M352.29 286.46C353.161 286.147 354.093 286.041 355.013 286.148C355.932 286.256 356.814 286.575 357.59 287.08L366.72 294.79C368.499 295.947 370.023 297.454 371.2 299.22L378.42 309.06C379.891 311.068 380.889 313.382 381.34 315.83L366.6 319.59L359.33 314.67C352.11 307.8 348.4 293.16 348.4 293.16C348.152 291.764 348.407 290.324 349.119 289.098C349.831 287.871 350.954 286.937 352.29 286.46V286.46Z" fill="#FF9985"/>
<path d="M369.76 300C369.177 298.907 368.723 297.749 368.41 296.55L367.48 292.8C367.25 291.8 367.41 291.14 367.93 290.9C368.74 290.54 370.21 291.37 371.41 292.9L374.59 296.9C376.224 298.911 377.444 301.225 378.18 303.71L380.23 311.52L374.17 309L369.76 300Z" fill="#FF9985"/>
<path d="M458.59 262.58C449.07 285.66 436.76 320.67 421.48 330.85C401.16 327.56 386.14 310.16 367.43 301.19C351.01 302.81 363.09 317.25 370.35 323.19C438.87 399.69 461.21 336.25 496.26 276.65C506.13 248.06 467.94 237 458.59 262.58Z" fill="#FF9985"/>
<path d="M457.6 259.9C449.71 279.03 436.41 304.72 424.91 319.69C422.54 322.78 447.85 352.1 451.38 348.55C467.29 332.55 485.3 303.38 496.83 275.72C508.47 247.78 467 234.36 457.6 259.9Z" fill="#00597C"/>
<path d="M495.47 497.14C498.65 459.78 501.93 413.39 499.8 402.14C494.73 375.53 470.8 391.98 463.99 391.81C452.21 396.11 442.34 453.81 437.42 497.1L495.47 497.14Z" fill="#000644"/>
<path d="M543.37 497.14C547.02 457.96 549.05 422.89 542.46 402.21C534.94 378.62 520.06 379.07 497.88 383.85C476.23 390.58 485.27 450.26 490.12 497.14H543.37Z" fill="#230768"/>
<path d="M533 203.19C533 203.19 551.53 211.63 539 229.01C531.71 239.1 512.08 234.17 517.66 216.78C523.24 199.39 528.31 201.09 533 203.19Z" fill="#343455"/>
<path d="M548.57 300.42C548.05 304.28 537.99 306.79 537.69 310.79C536.376 326.768 536.836 342.843 539.06 358.72C539.51 362.66 544.87 402.72 544.87 402.72C550.41 428.72 469.55 424.42 453.17 413.8C446.87 409.71 458.85 331.8 456.12 326.54C453.26 321.05 446.66 312.54 451.39 294.91C454.39 283.91 452.19 268.99 459.15 257.27C469.51 239.83 503.01 236.48 518.84 239.27C560.9 246.6 555.18 264.56 548.57 300.42Z" fill="#296789"/>
<path d="M501.77 259.15C504.481 259.333 507.198 258.91 509.725 257.911C512.251 256.912 514.523 255.363 516.376 253.375C518.228 251.388 519.614 249.012 520.433 246.422C521.252 243.831 521.483 241.091 521.11 238.4L517.69 213.74L489.78 211.84L485.23 238.08C484.794 240.569 484.886 243.121 485.501 245.572C486.116 248.023 487.241 250.316 488.801 252.304C490.361 254.291 492.322 255.928 494.557 257.108C496.791 258.287 499.249 258.983 501.77 259.15V259.15Z" fill="#FF9985"/>
<path d="M473 164.07C473 164.07 469.25 187.32 463.33 191.27C457.41 195.22 456.41 158.68 471.33 159.46C475.94 159.7 473 164.07 473 164.07Z" fill="#343455"/>
<path d="M461.4 194.67C461.4 216.86 465.03 234.44 484.34 234.41C503.65 234.38 531.34 216.77 531.34 194.59C531.34 172.41 510.08 154.43 490.77 154.46C471.46 154.49 461.37 172.48 461.4 194.67Z" fill="#FF9985"/>
<path d="M467.71 168C467.71 168 495.18 165 499.96 180.45C506.86 202.86 513.32 199.45 515.4 209.61C520 232.26 522.15 228.17 534 205C548.92 175.72 532.5 147.25 503.87 146.66C481.79 146.23 467.59 154.46 467.71 168Z" fill="#343455"/>
<path d="M504.94 202.11C504.94 207.5 505.82 211.77 510.51 211.76C515.2 211.75 521.93 207.48 521.92 202.09C521.91 196.7 516.76 192.33 512.07 192.34C507.38 192.35 504.93 196.72 504.94 202.11Z" fill="#FF9985"/>
<path d="M482.56 234.38C466.75 233.68 462.28 220.06 461.64 203.52C476.88 206.31 494.7 200.05 494.7 200.05C504.7 233.23 487.19 234.3 487.03 234.41C486.48 234.41 483.1 234.41 482.56 234.38Z" fill="#343455"/>
<path d="M493.81 201.01L506.27 195" stroke="#000644" stroke-width="1.15" stroke-linecap="round" stroke-linejoin="round"/>
<path d="M516.25 210.49L496.29 222.6" stroke="#000644" stroke-width="1.15" stroke-linecap="round" stroke-linejoin="round"/>
<path d="M364.08 314.39L380.08 310.89C380.219 310.86 380.349 310.798 380.46 310.71C380.572 310.621 380.661 310.508 380.721 310.379C380.781 310.25 380.81 310.109 380.807 309.967C380.803 309.825 380.767 309.686 380.7 309.56L358.33 267.48C358.237 267.304 358.089 267.163 357.908 267.078C357.728 266.993 357.525 266.969 357.33 267.01L340.83 270.62L364.08 314.39Z" fill="#230768"/>
<path d="M363.84 312.49L379.64 309.03L358.23 268.76L342.43 272.22L363.84 312.49Z" fill="white"/>
<path d="M364.08 314.39L361.08 315.05L337.81 271.28L340.81 270.62L364.08 314.39Z" fill="#000644"/>
<path d="M357.77 272.81L346.87 275.06" stroke="#525CD8" stroke-width="0.67" stroke-linecap="round" stroke-linejoin="round"/>
<path d="M359.81 276.62L348.91 278.88" stroke="#525CD8" stroke-width="0.67" stroke-linecap="round" stroke-linejoin="round"/>
<path d="M361.35 280.44L350.45 282.7" stroke="#525CD8" stroke-width="0.67" stroke-linecap="round" stroke-linejoin="round"/>
<path d="M366.49 289.05L355.59 291.31" stroke="#525CD8" stroke-width="0.67" stroke-linecap="round" stroke-linejoin="round"/>
<path d="M368.67 292.84L357.77 295.09" stroke="#525CD8" stroke-width="0.67" stroke-linecap="round" stroke-linejoin="round"/>
<path d="M372.68 300.69L361.78 302.94" stroke="#525CD8" stroke-width="0.67" stroke-linecap="round" stroke-linejoin="round"/>
<path d="M537.11 392.44V376C537.11 371.786 535.436 367.744 532.456 364.764C529.476 361.784 525.434 360.11 521.22 360.11V360.11" stroke="#EADEFF" stroke-width="3.67" stroke-miterlimit="10"/>
<path d="M466 384.23C467.614 387.101 470.006 389.458 472.9 391.03C473.794 391.594 474.795 391.965 475.84 392.12C476.361 392.198 476.892 392.148 477.389 391.974C477.886 391.799 478.332 391.506 478.69 391.12C479.31 390.35 479.45 389.23 480.23 388.61C480.843 388.216 481.562 388.021 482.29 388.05C485.982 387.807 489.655 387.339 493.29 386.65C495.734 386.188 498.041 385.18 500.04 383.7L492.5 370.7C489.29 370.137 486.039 369.836 482.78 369.8C478.298 369.97 473.925 371.229 470.04 373.47C468.16 374.56 465.47 376.33 465.04 378.59C464.73 380.524 465.067 382.507 466 384.23Z" fill="#FF9985"/>
<path d="M476.51 487.9H568.09V392.44H481.89L476.51 487.9Z" fill="#00597C"/>
<path opacity="0.3" d="M487.28 487.9H568.09V392.45H487.28V487.9Z" fill="black"/>
<path d="M543.57 404.8V375.2C543.567 370.988 541.892 366.948 538.912 363.971C535.933 360.993 531.893 359.32 527.68 359.32V359.32" stroke="#EADEFF" stroke-width="3.67" stroke-linecap="round" stroke-linejoin="round"/>
<path d="M520.38 278.32C530.83 300.99 548.14 333.82 545.22 351.95C529 364.61 506 363.8 486.72 371.42C476.72 384.56 495.55 385.52 504.86 384.26C607.55 386.02 576.21 326.5 556.33 260.26C542.06 233.58 508 254.09 520.38 278.32Z" fill="#FF9985"/>
<path d="M517.75 277.22C526.41 296.01 540.4 328.49 543.57 347.1C544.22 350.94 580.57 346.5 580.39 341.51C579.45 318.93 568.46 286.46 556.01 259.21C543.43 231.68 505.37 253 517.75 277.22Z" fill="#00597C"/>
<path d="M521.22 360.1C519.133 360.101 517.067 360.514 515.14 361.313C513.213 362.113 511.462 363.285 509.987 364.761C508.512 366.238 507.343 367.99 506.546 369.918C505.748 371.847 505.339 373.913 505.34 376V392.45" stroke="#EADEFF" stroke-width="3.67" stroke-miterlimit="10"/>
<path d="M527.68 359.32C523.467 359.32 519.427 360.993 516.448 363.971C513.468 366.948 511.793 370.988 511.79 375.2V404.8" stroke="#EADEFF" stroke-width="3.67" stroke-linecap="round" stroke-linejoin="round"/>
<path d="M407.04 0H225.44C219.917 0 215.44 4.47715 215.44 10V191.6C215.44 197.123 219.917 201.6 225.44 201.6H407.04C412.563 201.6 417.04 197.123 417.04 191.6V10C417.04 4.47715 412.563 0 407.04 0Z" fill="#343455"/>
<path d="M260.09 125.29H262.45L262.99 134.86L268.68 125.26H270.6L271.23 134.86L276.87 125.29H279.45L271.45 138.29H269.36L268.7 129.13L263.13 138.29H261.13L260.09 125.29Z" fill="#FCB316"/>
<path d="M281.64 125.29H291.12L290.56 127.29H283.36L282.45 130.67H288.85L288.3 132.67H281.9L280.98 136.13H288.3L287.74 138.13H278.17L281.64 125.29Z" fill="#FCB316"/>
<path d="M303.76 125.2H305.94L308.13 138.2H305.81L305.31 135.08H299.21L297.05 138.2H294.6L303.76 125.2ZM305.03 133.07L304.2 127.86L300.59 133.07H305.03Z" fill="#FCB316"/>
<path d="M310 132.93C310.035 130.867 310.867 128.897 312.32 127.432C313.774 125.968 315.737 125.121 317.8 125.07C318.809 125.021 319.811 125.254 320.694 125.744C321.577 126.233 322.307 126.959 322.8 127.84L320.92 129.11C320.596 128.491 320.105 127.975 319.502 127.621C318.899 127.267 318.209 127.09 317.51 127.11C314.74 127.11 312.33 129.76 312.33 132.78C312.304 133.247 312.377 133.714 312.543 134.151C312.71 134.588 312.967 134.985 313.297 135.316C313.627 135.647 314.023 135.905 314.46 136.073C314.896 136.241 315.363 136.315 315.83 136.29C316.471 136.282 317.104 136.147 317.693 135.893C318.282 135.639 318.814 135.271 319.26 134.81L320.76 136.32C320.108 136.979 319.328 137.496 318.468 137.84C317.608 138.184 316.686 138.348 315.76 138.32C312.5 138.42 310 136.32 310 132.93Z" fill="#FCB316"/>
<path d="M323 132.93C323.035 130.867 323.867 128.897 325.32 127.432C326.774 125.968 328.737 125.121 330.8 125.07C331.809 125.021 332.811 125.254 333.694 125.744C334.577 126.233 335.307 126.959 335.8 127.84L334 129.11C333.676 128.491 333.185 127.975 332.582 127.621C331.979 127.267 331.289 127.09 330.59 127.11C327.83 127.11 325.41 129.76 325.41 132.78C325.384 133.247 325.457 133.714 325.623 134.151C325.79 134.588 326.047 134.985 326.377 135.316C326.707 135.647 327.103 135.905 327.54 136.073C327.976 136.241 328.443 136.315 328.91 136.29C329.551 136.282 330.184 136.147 330.773 135.893C331.362 135.639 331.894 135.271 332.34 134.81L333.84 136.32C333.188 136.979 332.408 137.496 331.548 137.84C330.688 138.184 329.766 138.348 328.84 138.32C325.55 138.42 323 136.32 323 132.93Z" fill="#FCB316"/>
<path d="M338.93 125.29H348.41L347.85 127.29H340.64L339.74 130.67H346.14L345.59 132.67H339.19L338.27 136.13H345.59L345.03 138.13H335.46L338.93 125.29Z" fill="#FCB316"/>
<path d="M351.1 125.29H355.17C355.875 125.223 356.586 125.302 357.258 125.523C357.931 125.743 358.551 126.099 359.08 126.57C359.412 126.902 359.672 127.299 359.844 127.736C360.016 128.173 360.097 128.641 360.08 129.11C360.08 132.23 357.42 134.01 353.77 134.01H351L349.88 138.2H347.59L351.1 125.29ZM353.84 132C356.2 132 357.68 131 357.68 129.29C357.687 129.055 357.646 128.822 357.561 128.604C357.475 128.385 357.345 128.187 357.18 128.02C356.894 127.777 356.564 127.594 356.206 127.481C355.849 127.367 355.473 127.326 355.1 127.36H352.81L351.58 132H353.84Z" fill="#FCB316"/>
<path d="M365.46 127.4H361.34L361.92 125.29H372.39L371.82 127.4H367.72L364.81 138.2H362.54L365.46 127.4Z" fill="#FCB316"/>
<path d="M291.03 149.4C292.074 149.4 292.925 149.709 293.582 150.328C294.239 150.947 294.568 151.759 294.568 152.764C294.568 153.769 294.239 154.581 293.582 155.2C292.925 155.78 292.074 156.07 291.03 156.07H281.924V186.462C281.924 187.467 281.557 188.318 280.822 189.014C280.087 189.671 279.179 190 278.096 190C277.013 190 276.124 189.671 275.428 189.014C274.732 188.318 274.384 187.467 274.384 186.462V156.07H265.278C264.234 156.07 263.383 155.761 262.726 155.142C262.069 154.523 261.74 153.711 261.74 152.706C261.74 151.739 262.069 150.947 262.726 150.328C263.422 149.709 264.273 149.4 265.278 149.4H291.03ZM313.707 190.58C310.923 190.58 308.448 190.232 306.283 189.536C304.117 188.84 302.087 187.661 300.193 185.998C299.149 185.07 298.627 184.045 298.627 182.924C298.627 182.035 298.955 181.261 299.613 180.604C300.27 179.908 301.063 179.56 301.991 179.56C302.725 179.56 303.383 179.792 303.963 180.256C305.509 181.532 307.017 182.46 308.487 183.04C309.956 183.62 311.696 183.91 313.707 183.91C315.872 183.91 317.728 183.427 319.275 182.46C320.86 181.493 321.653 180.295 321.653 178.864C321.653 177.124 320.879 175.771 319.333 174.804C317.786 173.799 315.331 173.045 311.967 172.542C303.499 171.305 299.265 167.361 299.265 160.71C299.265 158.274 299.903 156.167 301.179 154.388C302.455 152.571 304.195 151.198 306.399 150.27C308.603 149.303 311.058 148.82 313.765 148.82C316.201 148.82 318.482 149.187 320.609 149.922C322.774 150.657 324.572 151.623 326.003 152.822C327.124 153.711 327.685 154.736 327.685 155.896C327.685 156.785 327.356 157.578 326.699 158.274C326.041 158.931 325.268 159.26 324.379 159.26C323.799 159.26 323.277 159.086 322.813 158.738C321.807 157.926 320.396 157.191 318.579 156.534C316.8 155.838 315.195 155.49 313.765 155.49C311.329 155.49 309.434 155.954 308.081 156.882C306.766 157.771 306.109 158.951 306.109 160.42C306.109 162.083 306.785 163.339 308.139 164.19C309.531 165.041 311.696 165.737 314.635 166.278C317.96 166.858 320.609 167.612 322.581 168.54C324.591 169.429 326.099 170.667 327.105 172.252C328.11 173.799 328.613 175.867 328.613 178.458C328.613 180.894 327.917 183.04 326.525 184.896C325.171 186.713 323.354 188.125 321.073 189.13C318.791 190.097 316.336 190.58 313.707 190.58ZM361.944 149.4C362.988 149.4 363.839 149.709 364.496 150.328C365.153 150.947 365.482 151.759 365.482 152.764C365.482 153.769 365.153 154.581 364.496 155.2C363.839 155.78 362.988 156.07 361.944 156.07H352.838V186.462C352.838 187.467 352.471 188.318 351.736 189.014C351.001 189.671 350.093 190 349.01 190C347.927 190 347.038 189.671 346.342 189.014C345.646 188.318 345.298 187.467 345.298 186.462V156.07H336.192C335.148 156.07 334.297 155.761 333.64 155.142C332.983 154.523 332.654 153.711 332.654 152.706C332.654 151.739 332.983 150.947 333.64 150.328C334.336 149.709 335.187 149.4 336.192 149.4H361.944Z" fill="white"/>
<rect x="266" y="11" width="100" height="100" rx="50" fill="#FCB316"/>
<path d="M314.788 86.2988C311.233 86.2988 307.907 85.7292 304.808 84.5898C301.709 83.4277 299.008 81.7529 296.707 79.5654C294.451 77.4235 292.674 74.7803 291.375 71.6357C290.076 68.4684 289.427 64.9935 289.427 61.2109C289.427 57.4512 290.076 53.9762 291.375 50.7861C292.697 47.5732 294.542 44.7933 296.912 42.4463C299.236 40.1449 302.028 38.3675 305.286 37.1143C308.545 35.8382 312.031 35.2002 315.745 35.2002C318.434 35.2002 320.883 35.5306 323.094 36.1914C325.304 36.8294 327.173 37.5586 328.699 38.3789L330.818 36.499H333.792L334.1 54.2041H331.092C329.383 48.8037 327.332 44.8389 324.939 42.3096C322.547 39.7803 319.63 38.5156 316.189 38.5156C311.906 38.5156 308.647 40.4069 306.414 44.1895C304.181 47.9492 303.064 53.2357 303.064 60.0488C303.064 63.8997 303.44 67.1924 304.192 69.9268C304.967 72.6383 305.97 74.8258 307.2 76.4893C308.522 78.221 310.083 79.4971 311.883 80.3174C313.683 81.1149 315.677 81.5137 317.864 81.5137C321.054 81.5137 323.891 80.6478 326.375 78.916C328.882 77.1842 331.16 74.5638 333.211 71.0547L336.15 72.832C335.171 74.8372 334.054 76.6374 332.801 78.2324C331.548 79.8047 330.101 81.1605 328.46 82.2998C326.66 83.5531 324.666 84.5329 322.479 85.2393C320.314 85.9456 317.75 86.2988 314.788 86.2988Z" fill="#343455"/>
</g>
<defs>
<clipPath id="clip0">
<rect width="580.39" height="497.14" fill="white"/>
</clipPath>
</defs>
</svg>
