<?xml version="1.0" encoding="UTF-8"?> <svg xmlns="http://www.w3.org/2000/svg" xmlns:xlink="http://www.w3.org/1999/xlink" data-name="Layer 1" viewBox="0 0 319.4 261.21"><defs><linearGradient id="a" x1="215.02" y1="262.56" x2="227.54" y2="210.7" gradientUnits="userSpaceOnUse"><stop offset=".03" stop-color="#7c1dc9"></stop><stop offset=".21" stop-color="#6e41d2"></stop><stop offset=".62" stop-color="#4c9be8"></stop><stop offset="1" stop-color="#2af6ff"></stop></linearGradient><linearGradient id="b" x1="238.46" y1="266.18" x2="248.96" y2="222.68" xlink:href="#a"></linearGradient><linearGradient id="c" x1="300.72" y1="148.91" x2="227.72" y2="160.91" xlink:href="#a"></linearGradient><linearGradient id="d" x1="307.98" y1="122.3" x2="234.98" y2="134.3" xlink:href="#a"></linearGradient><linearGradient id="e" x1="305.96" y1="107.65" x2="186.46" y2="190.64" xlink:href="#a"></linearGradient><linearGradient id="f" x1="288.06" y1="92.7" x2="168.56" y2="175.7" xlink:href="#a"></linearGradient><linearGradient id="g" x1="323.23" y1="46.87" x2="203.73" y2="129.87" xlink:href="#a"></linearGradient><linearGradient id="h" x1="84.59" y1="231.55" x2="152.57" y2="181.13" xlink:href="#a"></linearGradient><linearGradient id="i" x1="83.17" y1="234.29" x2="158.67" y2="178.29" xlink:href="#a"></linearGradient><linearGradient id="j" x1="25.98" y1="182.53" x2="103.68" y2="140.2" xlink:href="#a"></linearGradient><linearGradient id="k" x1="23.1" y1="177.36" x2="101.1" y2="134.86" xlink:href="#a"></linearGradient><linearGradient id="l" x1="274.28" y1="260.57" x2="223.75" y2="209.34" xlink:href="#a"></linearGradient><linearGradient id="m" x1="281.52" y1="255.4" x2="246.02" y2="219.4" xlink:href="#a"></linearGradient><linearGradient id="n" x1="266.85" y1="234.12" x2="231.35" y2="198.12" xlink:href="#a"></linearGradient><linearGradient id="o" x1="264.52" y1="236.41" x2="229.02" y2="200.41" xlink:href="#a"></linearGradient><linearGradient id="p" x1="325.95" y1="176.71" x2="252.95" y2="188.71" xlink:href="#a"></linearGradient><linearGradient id="q" x1="327.62" y1="168.17" x2="240.72" y2="182.46" xlink:href="#a"></linearGradient><linearGradient id="r" x1="282.02" y1="206.32" x2="185.52" y2="145.32" xlink:href="#a"></linearGradient><linearGradient id="s" x1="279.01" y1="202.43" x2="246.82" y2="182.08" xlink:href="#a"></linearGradient><linearGradient id="t" x1="308.81" y1="246.65" x2="212.31" y2="185.65" xlink:href="#a"></linearGradient><linearGradient id="u" x1="304.33" y1="239.28" x2="237.27" y2="196.89" xlink:href="#a"></linearGradient><linearGradient id="v" x1="59.95" y1="259.61" x2="135.45" y2="203.61" xlink:href="#a"></linearGradient><linearGradient id="w" x1="62.33" y1="263.78" x2="158.54" y2="192.43" xlink:href="#a"></linearGradient><linearGradient id="x" x1="290.96" y1="91.36" x2="224.24" y2="137.71" xlink:href="#a"></linearGradient><linearGradient id="y" x1="250.15" y1="12.05" x2="130.65" y2="95.05" xlink:href="#a"></linearGradient><linearGradient id="z" x1="250.1" y1="12.93" x2="121.48" y2="102.26" xlink:href="#a"></linearGradient><linearGradient id="A" x1="67.12" y1="223.71" x2="142.62" y2="167.71" xlink:href="#a"></linearGradient><linearGradient id="B" x1="309.81" y1="133.9" x2="236" y2="146.04" xlink:href="#a"></linearGradient><linearGradient id="C" x1="61.05" y1="215.52" x2="136.55" y2="159.52" xlink:href="#a"></linearGradient><linearGradient id="D" x1="40.03" y1="208.95" x2="118.03" y2="166.45" xlink:href="#a"></linearGradient><linearGradient id="E" x1="7.58" y1="191.42" x2="85.58" y2="148.92" xlink:href="#a"></linearGradient><linearGradient id="F" x1="43.64" y1="215.59" x2="121.64" y2="173.09" xlink:href="#a"></linearGradient><linearGradient id="G" x1="293.4" y1="106.52" x2="222.79" y2="155.56" xlink:href="#a"></linearGradient><linearGradient id="H" x1="284.5" y1="49.99" x2="218.5" y2="93.33" xlink:href="#a"></linearGradient><linearGradient id="I" x1="281.86" y1="46.6" x2="207.04" y2="95.72" xlink:href="#a"></linearGradient><linearGradient id="J" x1="286.09" y1="60.39" x2="221.09" y2="102.05" xlink:href="#a"></linearGradient><linearGradient id="K" x1="283.66" y1="57.58" x2="218.66" y2="99.25" xlink:href="#a"></linearGradient><linearGradient id="L" x1="250.86" y1="1.28" x2="185.86" y2="42.95" xlink:href="#a"></linearGradient><linearGradient id="M" x1="248.43" y1="-1.53" x2="183.43" y2="40.14" xlink:href="#a"></linearGradient><linearGradient id="N" x1="118.19" y1="244.16" x2="177.69" y2="192.66" xlink:href="#a"></linearGradient><linearGradient id="O" x1="120.55" y1="246.44" x2="178.34" y2="196.42" xlink:href="#a"></linearGradient><linearGradient id="P" x1="33.52" y1="185.16" x2="111.52" y2="142.66" xlink:href="#a"></linearGradient><linearGradient id="Q" x1="39.33" y1="191.68" x2="110.71" y2="152.79" xlink:href="#a"></linearGradient><linearGradient id="R" x1="299.94" y1="153.77" x2="239.51" y2="163.71" xlink:href="#a"></linearGradient><linearGradient id="S" x1="31.59" y1="40.14" x2="100.59" y2="91.89" xlink:href="#a"></linearGradient><linearGradient id="T" x1="-20.14" y1="72.14" x2="68.43" y2="122.2" xlink:href="#a"></linearGradient><linearGradient id="U" x1="33.33" y1="63.13" x2="85.08" y2="92.38" xlink:href="#a"></linearGradient><linearGradient id="V" x1="24.77" y1="82.85" x2="68.85" y2="107.77" xlink:href="#a"></linearGradient><linearGradient id="W" x1="47.31" y1="14.37" x2="99.06" y2="43.62" xlink:href="#a"></linearGradient><linearGradient id="X" x1="53.95" y1="32.91" x2="106.31" y2="62.5" xlink:href="#a"></linearGradient><linearGradient id="Y" x1="3.79" y1="133.72" x2="61.41" y2="123.29" xlink:href="#a"></linearGradient><linearGradient id="Z" x1="15.89" y1="207.46" x2="110.52" y2="155.91" xlink:href="#a"></linearGradient><linearGradient id="aa" x1="23.98" y1="150.7" x2="67.98" y2="151.7" xlink:href="#a"></linearGradient><linearGradient id="ab" x1="25.36" y1="144.42" x2="75.04" y2="145.55" xlink:href="#a"></linearGradient><linearGradient id="ac" x1="121.07" y1="257.98" x2="180.57" y2="206.48" xlink:href="#a"></linearGradient><linearGradient id="ad" x1="122.48" y1="260.34" x2="185.75" y2="205.58" xlink:href="#a"></linearGradient><linearGradient id="ae" x1="323" y1="49.79" x2="214.48" y2="125.17" xlink:href="#a"></linearGradient><linearGradient id="af" x1="303.73" y1="-2.27" x2="184.23" y2="80.73" xlink:href="#a"></linearGradient><linearGradient id="ag" x1="300.47" y1="4" x2="217.98" y2="61.29" xlink:href="#a"></linearGradient><linearGradient id="ah" x1="175.22" y1="234.78" x2="185.72" y2="191.28" xlink:href="#a"></linearGradient><linearGradient id="ai" x1="183.35" y1="236.16" x2="191.57" y2="202.12" xlink:href="#a"></linearGradient></defs><path d="M207.82 206.24c-8 0-15.24-1.73-20.93-5L81.15 140c-7.36-4.25-11.58-10.93-11.58-18.32 0-8.18 5.16-15.84 14.15-21a52 52 0 0125.63-6.5c8 0 15.24 1.74 20.92 5L236 160.39c7.36 4.25 11.58 10.92 11.58 18.32 0 8.17-5.16 15.84-14.15 21a51.86 51.86 0 01-25.61 6.53zM109.35 95.76A50.33 50.33 0 0084.54 102c-8.48 4.9-13.34 12-13.34 19.63 0 6.79 3.92 13 10.76 16.91l105.75 61.23c5.43 3.14 12.39 4.8 20.11 4.8a50.29 50.29 0 0024.8-6.28c8.48-4.89 13.34-12.05 13.34-19.62 0-6.8-3.92-13-10.76-16.91l-105.74-61.2c-5.46-3.14-12.4-4.8-20.11-4.8z" fill="#2af6ff"></path><path d="M239.17 255.74l-39.38-22.15a.48.48 0 01-.25-.43.5.5 0 01.25-.44l13.56-7.86-7.35-4.52a.54.54 0 01-.23-.43v-13.55h1v13.27l7.79 4.81a.49.49 0 01.23.44.48.48 0 01-.24.42L201 233.15l38.63 21.72z" fill="url(#a)"></path><path d="M240.89 258.08a4 4 0 01-2-.48 1.71 1.71 0 01-1-1.44 1.69 1.69 0 011-1.42 4.43 4.43 0 014 0 1.71 1.71 0 011 1.44 1.66 1.66 0 01-1 1.42 4 4 0 01-2 .48zm0-2.82a3.13 3.13 0 00-1.47.34c-.29.17-.46.38-.46.56s.17.4.47.57a3.46 3.46 0 002.95 0c.29-.17.46-.37.46-.56s-.17-.4-.47-.57a3.05 3.05 0 00-1.51-.34z" fill="url(#b)"></path><path d="M292.63 152.15a4.07 4.07 0 01-2-.48 1.71 1.71 0 01-1-1.44 1.69 1.69 0 011-1.42 4.43 4.43 0 013.95 0 1.71 1.71 0 011 1.44 1.66 1.66 0 01-1 1.42 4 4 0 01-1.95.48zm0-2.82a3 3 0 00-1.47.34c-.29.17-.46.37-.46.56s.17.4.47.57a3.46 3.46 0 002.95 0c.3-.17.46-.38.46-.56s-.17-.4-.47-.57a3.05 3.05 0 00-1.51-.34z" fill="url(#c)"></path><path d="M316.47 122.82a4 4 0 01-2-.49 1.7 1.7 0 01-1-1.43 1.68 1.68 0 011-1.43 4.43 4.43 0 013.95 0 1.7 1.7 0 011 1.43 1.68 1.68 0 01-1 1.43 4 4 0 01-1.95.49zm0-2.83a3 3 0 00-1.46.35c-.29.17-.46.37-.46.56s.17.39.47.57a3.46 3.46 0 002.95 0c.29-.17.46-.37.46-.56s-.17-.39-.47-.57a3.1 3.1 0 00-1.52-.34z" fill="url(#d)"></path><path d="M288.44 121.73a4.07 4.07 0 01-2-.48 1.73 1.73 0 01-1-1.44 1.69 1.69 0 011-1.42 4.45 4.45 0 014 0 1.73 1.73 0 011 1.44 1.66 1.66 0 01-1 1.42 4 4 0 01-2 .48zm0-2.82a3.16 3.16 0 00-1.47.34c-.29.17-.46.38-.46.56s.17.4.47.57a3.48 3.48 0 003 0c.29-.17.46-.37.46-.56s-.17-.4-.47-.57a3.12 3.12 0 00-1.56-.34z" fill="url(#e)"></path><path d="M295.37 89.54a4 4 0 01-2-.48 1.71 1.71 0 01-1-1.44 1.66 1.66 0 011-1.42 4.43 4.43 0 013.95 0 1.71 1.71 0 011 1.44 1.69 1.69 0 01-1 1.42 4 4 0 01-1.95.48zm0-2.82a3 3 0 00-1.46.34c-.29.17-.46.37-.46.56s.17.4.47.57a3.5 3.5 0 002.95 0c.29-.17.46-.38.46-.56s-.17-.4-.47-.57a3.1 3.1 0 00-1.52-.34z" fill="url(#f)"></path><path d="M307.84 59.48a4.07 4.07 0 01-2-.48 1.73 1.73 0 01-1-1.44 1.67 1.67 0 011-1.42 4.45 4.45 0 014 0 1.54 1.54 0 010 2.86 4.13 4.13 0 01-2 .48zm0-2.82a3 3 0 00-1.47.35c-.29.17-.46.37-.46.55s.17.4.47.58a3.48 3.48 0 003 0c.29-.17.46-.37.46-.56s-.17-.39-.47-.57a3.12 3.12 0 00-1.56-.35z" fill="url(#g)"></path><path d="M104.78 219.23l-.49-.87 17.55-10 5-13.7a.51.51 0 01.22-.26l24.73-14.19.5.86-24.58 14.11-5 13.7a.51.51 0 01-.22.26z" fill="url(#h)"></path><path d="M103.12 221.42a4.07 4.07 0 01-2-.49 1.54 1.54 0 010-2.86 4.48 4.48 0 014 0 1.73 1.73 0 011 1.43 1.7 1.7 0 01-1 1.43 4 4 0 01-2 .49zm0-2.82a3 3 0 00-1.47.34c-.29.17-.46.37-.46.56s.18.39.47.57a3.48 3.48 0 003 0c.29-.17.46-.37.46-.56s-.17-.39-.47-.56a3 3 0 00-1.56-.35z" fill="url(#i)"></path><path d="M36.61 170.58l-.49-.87 23.38-13.47a.36.36 0 01.27-.06l25.17 1.12 13.86-8.12.5.86-14 8.2a.47.47 0 01-.28.07l-25.17-1.13z" fill="url(#j)"></path><path d="M35.13 172.72a4.1 4.1 0 01-2-.48 1.54 1.54 0 010-2.86 4.45 4.45 0 014 0 1.72 1.72 0 011 1.43 1.7 1.7 0 01-1 1.43 4 4 0 01-2 .48zm0-2.82a3 3 0 00-1.47.35c-.29.17-.45.37-.46.56s.18.39.47.57a3.52 3.52 0 003 0c.29-.17.46-.37.46-.56s-.17-.39-.47-.56a3 3 0 00-1.56-.36z" fill="url(#k)"></path><path d="M283.22 258.4l-50.45-27.34a.47.47 0 01-.22-.26l-7.21-19-10.4-5.9.49-.87L226 211a.49.49 0 01.23.26l7.21 19 50.28 27.25z" fill="url(#l)"></path><path d="M284.7 260.55a4 4 0 01-2-.48 1.66 1.66 0 01-1-1.42 1.71 1.71 0 011-1.44 4.43 4.43 0 013.95 0 1.69 1.69 0 011 1.42 1.71 1.71 0 01-1 1.44 4.07 4.07 0 01-1.95.48zm0-2.82a3.05 3.05 0 00-1.48.35c-.3.17-.47.38-.47.57s.16.39.46.56a3 3 0 001.46.34 3.12 3.12 0 001.49-.35c.3-.17.47-.38.47-.57s-.17-.39-.46-.56a3.13 3.13 0 00-1.44-.34z" fill="url(#m)"></path><path d="M260.18 229.25a4 4 0 01-2-.48 1.71 1.71 0 01-1-1.44 1.69 1.69 0 011-1.42 4.4 4.4 0 013.95 0 1.53 1.53 0 010 2.85 4 4 0 01-1.95.49zm0-2.82a3.13 3.13 0 00-1.47.34c-.29.17-.46.38-.46.56s.17.4.47.57a3.43 3.43 0 002.95 0c.3-.17.46-.37.46-.56s-.17-.4-.47-.57a3.05 3.05 0 00-1.51-.34z" fill="url(#n)"></path><path fill="url(#o)" d="M258.12 227.44l-12.22-7.23-3.63-8.87-15.48-9.18.52-.85 15.76 9.34 3.63 8.87 11.93 7.05-.51.87z"></path><path d="M312.2 180.88a3.93 3.93 0 01-2-.49 1.54 1.54 0 010-2.86 4.46 4.46 0 014 0 1.71 1.71 0 011 1.44 1.69 1.69 0 01-1 1.42 4 4 0 01-2 .49zm0-2.82a3 3 0 00-1.46.34c-.3.17-.46.37-.46.56s.17.4.47.57a3.46 3.46 0 002.95 0c.29-.16.46-.37.46-.55s-.17-.4-.47-.57a3 3 0 00-1.52-.35z" fill="url(#p)"></path><path fill="url(#q)" d="M310.07 179.29h-30.52l-8.78-5.06H246.8v-1h24.24l8.77 5.06h30.26v1z"></path><path d="M277.59 205.42a4.07 4.07 0 01-2-.48 1.71 1.71 0 01-1-1.44 1.69 1.69 0 011-1.42 4.43 4.43 0 014 0 1.71 1.71 0 011 1.44 1.66 1.66 0 01-1 1.42 4 4 0 01-2 .48zm0-2.82a3.13 3.13 0 00-1.47.34c-.29.17-.46.38-.46.56s.17.4.47.57a3.46 3.46 0 002.95 0c.3-.17.46-.37.46-.56s-.17-.4-.47-.57a3.05 3.05 0 00-1.51-.34z" fill="url(#r)"></path><path fill="url(#s)" d="M275.53 203.6l-12.48-7.73.29-5.7-16.55-10.01.51-.87 16.76 10.15-.29 5.7 12.27 7.6-.51.86z"></path><path d="M288.84 235.92a4.07 4.07 0 01-2-.48 1.71 1.71 0 01-1-1.44 1.67 1.67 0 011-1.42 4.4 4.4 0 014 0 1.53 1.53 0 010 2.85 4 4 0 01-2 .49zm0-2.82a3.13 3.13 0 00-1.47.34c-.29.17-.46.38-.46.56s.17.4.47.57a3.46 3.46 0 002.95 0c.3-.17.46-.37.46-.56s-.17-.4-.47-.57a3.05 3.05 0 00-1.51-.34z" fill="url(#t)"></path><path fill="url(#u)" d="M286.79 234.11l-13.48-7.65-8.89-17.99-24.79-14.31.5-.87 25.05 14.46 8.9 17.99 13.21 7.5-.5.87z"></path><path d="M60.35 261.21a4.07 4.07 0 01-2-.47 1.54 1.54 0 010-2.86 4.43 4.43 0 014 0 1.69 1.69 0 011 1.42 1.71 1.71 0 01-1 1.44 4 4 0 01-2 .47zm0-2.82a3.1 3.1 0 00-1.49.35c-.3.18-.47.38-.47.57s.17.39.46.56a3 3 0 001.47.34 3 3 0 001.48-.35c.3-.17.47-.38.47-.57s-.16-.38-.46-.55a3 3 0 00-1.43-.35z" fill="url(#v)"></path><path fill="url(#w)" d="M62.4 259.4l-.5-.87 60.11-34.72 6.02-12.69.14-.08 38.63-22.61.5.86-38.49 22.53-6.03 12.69L62.4 259.4z"></path><path fill="url(#x)" d="M232.44 134.24l-.5-.87 20.99-11.96 6.02-12.69 34.66-20.53.5.87-34.39 20.37-6.01 12.69-.14.07-21.13 12.05z"></path><path d="M257.47 8.89a4.07 4.07 0 01-2-.48 1.71 1.71 0 01-1-1.44 1.66 1.66 0 011-1.42 4.43 4.43 0 014 0 1.71 1.71 0 011 1.44 1.69 1.69 0 01-1 1.42 4 4 0 01-2 .48zm0-2.82a3 3 0 00-1.47.34c-.29.17-.46.37-.46.56s.17.4.47.57a3.5 3.5 0 003 0c.3-.17.46-.38.46-.56s-.17-.4-.47-.57a3.05 3.05 0 00-1.56-.34z" fill="url(#y)"></path><path fill="url(#z)" d="M132.8 89.1l-.5-.87 106.48-62.17 6.02-12.69 10.9-5.83.5.87-10.63 5.67-6.02 12.69-.14.08L132.8 89.1z"></path><path d="M65.37 213.38l-.5-.87 13.87-8a.88.88 0 01.26-.06l18.74.37 48.33-28 .5.86-48.45 28.1a.51.51 0 01-.26.07l-18.74-.37z" fill="url(#A)"></path><path d="M235.66 158l-.5-.86 26.19-15.27a.54.54 0 01.26-.07l18.74.37 34.55-20.97.5.86-34.67 21a.62.62 0 01-.26.06l-18.74-.37z" fill="url(#B)"></path><path d="M63.56 215.55a4.06 4.06 0 01-2-.47 1.72 1.72 0 01-1-1.43 1.7 1.7 0 011-1.43 4.43 4.43 0 014 0 1.69 1.69 0 011 1.42 1.71 1.71 0 01-1 1.44 4 4 0 01-2 .47zm0-2.82a3.07 3.07 0 00-1.49.35c-.3.17-.47.38-.47.57s.17.39.46.56a3 3 0 001.46.34 3 3 0 001.49-.35c.3-.17.47-.38.47-.57s-.17-.39-.46-.55a3 3 0 00-1.42-.35z" fill="url(#C)"></path><path d="M31.34 215.58a4.07 4.07 0 01-2-.47 1.54 1.54 0 010-2.86 4.43 4.43 0 013.95 0 1.54 1.54 0 010 2.86 4 4 0 01-1.95.47zm0-2.82a3.1 3.1 0 00-1.49.35c-.3.18-.47.38-.47.57s.17.39.46.56a3 3 0 001.47.34 3 3 0 001.48-.35c.3-.17.47-.38.47-.56s-.16-.39-.46-.56a3 3 0 00-1.43-.35z" fill="url(#D)"></path><path d="M9.68 192.18a4 4 0 01-2-.48 1.66 1.66 0 01-1-1.42 1.71 1.71 0 011-1.44 4.43 4.43 0 014 0 1.66 1.66 0 011 1.42 1.71 1.71 0 01-1 1.44 4 4 0 01-2 .48zm0-2.82a3.1 3.1 0 00-1.49.35c-.3.17-.47.38-.47.57s.17.39.46.56a3.5 3.5 0 002.95 0c.3-.17.47-.38.47-.57s-.17-.39-.46-.56a3 3 0 00-1.43-.35z" fill="url(#E)"></path><path fill="url(#F)" d="M33.39 213.77l-.51-.86 28.15-16.8 36.12-.82 40.81-23.77.5.86-41.03 23.9-36.11.82-27.93 16.67z"></path><path fill="url(#G)" d="M219.4 148.62l-.5-.87 24.82-14.69 20.67 1.17 22.47-13.87.49.88-22.72 14h-.15l-20.52-1.16-24.56 14.54z"></path><path d="M283.28 52.72a4.07 4.07 0 01-2-.48 1.71 1.71 0 01-1-1.44 1.66 1.66 0 011-1.42 4.43 4.43 0 014 0 1.71 1.71 0 011 1.44 1.69 1.69 0 01-1 1.42 4 4 0 01-2 .48zm0-2.82a3 3 0 00-1.47.34c-.29.17-.46.37-.46.56s.17.4.47.57a3.5 3.5 0 002.95 0c.3-.17.46-.38.46-.56s-.17-.4-.47-.57a3.05 3.05 0 00-1.51-.34z" fill="url(#H)"></path><path fill="url(#I)" d="M226.78 78.19l-.5-.86 36.52-21.49 9.07.52 9.61-4.94.5.87-9.88 5.08-9.05-.51-36.27 21.33z"></path><path d="M263.55 76.76a4.07 4.07 0 01-2-.48 1.71 1.71 0 01-1-1.44 1.66 1.66 0 011-1.42 4.43 4.43 0 013.95 0 1.71 1.71 0 011 1.44 1.69 1.69 0 01-1 1.42 4 4 0 01-1.95.48zm0-2.82a3 3 0 00-1.47.34c-.29.17-.46.37-.46.56s.17.4.47.57a3.5 3.5 0 002.95 0c.3-.17.46-.38.46-.56s-.17-.4-.47-.57a3.05 3.05 0 00-1.51-.34z" fill="url(#J)"></path><path fill="url(#K)" d="M213.52 98.81l-.51-.87 29.05-17.09 9.07.51 10.72-6.06.49.87-10.98 6.21-9.05-.51-28.79 16.94z"></path><path d="M228.32 17.65a4.07 4.07 0 01-2-.48 1.71 1.71 0 01-1-1.44 1.66 1.66 0 011-1.42 4.4 4.4 0 014 0 1.69 1.69 0 011 1.43 1.69 1.69 0 01-1 1.42 4 4 0 01-2 .49zm0-2.82a3.13 3.13 0 00-1.47.34c-.29.17-.46.38-.46.56s.17.4.47.57a3.46 3.46 0 002.95 0c.3-.17.46-.37.46-.56s-.17-.4-.47-.57a3.05 3.05 0 00-1.51-.34z" fill="url(#L)"></path><path fill="url(#M)" d="M178.29 39.7l-.51-.86 29.05-17.09 9.07.51 10.72-6.07.49.87-10.98 6.21-9.05-.51-28.79 16.94z"></path><path d="M124.55 240.55a4 4 0 01-2-.48 1.66 1.66 0 01-1-1.42 1.71 1.71 0 011-1.44 4.43 4.43 0 014 0 1.67 1.67 0 011 1.42 1.71 1.71 0 01-1 1.44 4 4 0 01-2 .48zm0-2.82a3.1 3.1 0 00-1.49.35c-.3.17-.47.38-.47.57s.17.39.46.56a3.46 3.46 0 003 0c.3-.17.47-.38.47-.57s-.16-.39-.46-.56a3.09 3.09 0 00-1.48-.35z" fill="url(#N)"></path><path fill="url(#O)" d="M126.6 238.74l-.51-.87 24.04-15.51 10.8-14.02 20.05-11.73.51.86-19.96 11.68-10.81 14.02-24.12 15.57z"></path><path d="M52.54 176.7a4.07 4.07 0 01-2-.47 1.54 1.54 0 010-2.86 4.43 4.43 0 014 0 1.68 1.68 0 011 1.43 1.71 1.71 0 01-1 1.43 4 4 0 01-2 .47zm0-2.82a3.1 3.1 0 00-1.49.35c-.3.18-.47.38-.47.57s.17.39.46.56a3.46 3.46 0 003 0c.3-.18.47-.38.47-.57s-.17-.39-.46-.56a3 3 0 00-1.48-.35z" fill="url(#P)"></path><path fill="url(#Q)" d="M54.59 174.89l-.5-.87 7.92-4.73.16.01 29.36 2.83 23.23-14.3.52.85-23.51 14.48-.17-.02-29.37-2.83-7.64 4.58z"></path><path fill="url(#R)" d="M243.78 168.67l-.5-.87 24.97-14.48 10.04 5.71 13.25-8.1.52.86-13.75 8.4-10.06-5.72-24.47 14.2z"></path><path d="M76.83 76.23L71.49 65 32.75 42.55a1.39 1.39 0 00.37-.88 1.57 1.57 0 00-.88-1.31 4 4 0 00-3.57 0 1.58 1.58 0 00-.89 1.32 1.55 1.55 0 00.88 1.32 3.58 3.58 0 001.78.43 4 4 0 001.4-.25l38.88 22.5 5.34 11.26 32.49 19 .5-.86zM29.16 42.14c-.24-.14-.38-.31-.38-.45s.15-.32.39-.46a2.67 2.67 0 011.29-.3 2.63 2.63 0 011.28.3c.23.13.38.3.38.44s-.15.32-.39.46a3 3 0 01-2.57.01z" fill="url(#S)"></path><path d="M45.41 103.13l-13.52 1.76L5.44 89.81a1.45 1.45 0 00.44-1 1.69 1.69 0 00-1-1.43 4.46 4.46 0 00-3.95 0 1.71 1.71 0 00-1 1.43 1.68 1.68 0 001 1.43 4 4 0 002 .48 4.23 4.23 0 001.58-.3l27 15.41a.47.47 0 00.31.06l13.52-1.76 24.46 14.75.5-.87-24.57-14.82a.45.45 0 00-.32-.06zM4.53 89.3v.06a3.46 3.46 0 01-2.95 0C1.17 89.21 1 89 1 88.82s.17-.39.47-.57A3.1 3.1 0 013 87.91a3 3 0 011.46.34c.3.17.46.37.46.56a.69.69 0 01-.39.49z" fill="url(#T)"></path><path d="M75.61 90.68L71 81.63a.55.55 0 00-.2-.2l-11.52-6.59a1.49 1.49 0 00.45-1 1.67 1.67 0 00-1-1.42 4.42 4.42 0 00-4 0 1.53 1.53 0 000 2.85 4 4 0 002 .48 4.29 4.29 0 001.59-.29l11.81 6.76 4.61 9a.61.61 0 00.19.2l13.37 7.87.5-.86zM55.3 74.41c-.29-.17-.46-.37-.46-.56s.17-.4.47-.57a3.35 3.35 0 013 0c.29.17.46.38.46.56a.68.68 0 01-.35.49v.07a3.48 3.48 0 01-3.12.01z" fill="url(#U)"></path><path d="M56.9 93.45l-23.31-.53-7.48-4.32a1.59 1.59 0 00.68-1.23 1.67 1.67 0 00-1-1.42 4.43 4.43 0 00-3.95 0 1.7 1.7 0 00-1 1.43 1.72 1.72 0 001 1.43 4.07 4.07 0 002 .47 4.56 4.56 0 001.16-.15l8.16 4.72.12.07 23.32.52 21 11.82.49-.87L57 93.51zM22.37 88c-.29-.17-.46-.37-.46-.56s.17-.39.47-.57a3.12 3.12 0 011.49-.35 3 3 0 011.46.35c.3.16.46.37.46.55s-.17.4-.47.57a3.46 3.46 0 01-2.95.01z" fill="url(#V)"></path><path d="M89.59 41.92l-4.61-9a.58.58 0 00-.2-.21l-11.51-6.63a1.52 1.52 0 00.44-1 1.67 1.67 0 00-1-1.42 4.42 4.42 0 00-4 0 1.53 1.53 0 000 2.85 4 4 0 002 .48 4.29 4.29 0 001.59-.29l11.81 6.76 4.61 9a.55.55 0 00.2.2l13.32 7.82.5-.86zM69.28 25.65c-.29-.17-.46-.37-.46-.56s.18-.4.47-.57a3.35 3.35 0 013 0c.29.17.46.38.46.56a.68.68 0 01-.35.49v.07h-.05a3.48 3.48 0 01-3.07.01z" fill="url(#W)"></path><path d="M95.4 49l-23.31-.53-16.92-10a1.59 1.59 0 00.68-1.23 1.69 1.69 0 00-1-1.43 4.43 4.43 0 00-4 0 1.73 1.73 0 00-1 1.44 1.69 1.69 0 001 1.42 4 4 0 002 .48 4.3 4.3 0 001.2-.17l17.6 10.43.12.07 23.32.52 21 11.82.49-.87L95.51 49zm-44-11.21c-.29-.17-.46-.37-.46-.55s.18-.4.48-.57a3 3 0 011.48-.35 3 3 0 011.47.34c.29.17.46.37.46.56s-.17.4-.47.57a3.48 3.48 0 01-2.94-.05z" fill="url(#X)"></path><path d="M70.56 123.77l-.5-.86-30.14 16.52-30.24-16.52a1.66 1.66 0 00.8-1.32 1.69 1.69 0 00-1-1.42 4.43 4.43 0 00-3.95 0 1.71 1.71 0 00-1 1.44 1.66 1.66 0 001 1.42 4 4 0 002 .48 4.55 4.55 0 001-.11l31.4 17.19zm-64.5-1.6c-.29-.17-.46-.38-.46-.56s.17-.4.47-.57a3.1 3.1 0 011.49-.35A3 3 0 019 121c.3.17.46.37.46.56s-.17.4-.47.57a2.29 2.29 0 01-.35.16h-.06v.06a3.49 3.49 0 01-1 .16 3 3 0 01-1.52-.34z" fill="url(#Y)"></path><path fill="url(#Z)" d="M11.49 190.77l-.01-1 49.14-.1L70.98 184h.12l24.22-.87 29.97-18.44.52.85-30.19 18.58-24.37.87-10.38 5.68h-.12l-49.26.1z"></path><path d="M15.32 152.4a4.06 4.06 0 01-2-.47 1.54 1.54 0 010-2.86 4.43 4.43 0 014 0 1.68 1.68 0 011 1.43 1.71 1.71 0 01-1 1.43 4.07 4.07 0 01-2 .47zm0-2.82a3.05 3.05 0 00-1.48.35c-.3.18-.47.38-.47.57s.16.39.46.56a3.43 3.43 0 002.95 0c.3-.17.47-.38.47-.56s-.17-.39-.46-.56a3 3 0 00-1.44-.36z" fill="url(#aa)"></path><path fill="url(#ab)" d="M17.03 150.99v-1l27.56-.07 7.89-4.32h.11l18.42-.66 9.63-6.03.53.85-9.86 6.17-18.56.66-7.91 4.33h-.12l-27.69.07z"></path><path d="M125.68 255.88a4 4 0 01-2-.48 1.69 1.69 0 01-1-1.42 1.71 1.71 0 011-1.44 4.46 4.46 0 014 0 1.54 1.54 0 010 2.86 3.94 3.94 0 01-2 .48zm0-2.82a3.07 3.07 0 00-1.49.35c-.3.17-.47.38-.47.57s.17.39.46.55a3.46 3.46 0 003 0c.3-.17.47-.38.47-.57s-.17-.39-.46-.56a3 3 0 00-1.47-.34z" fill="url(#ac)"></path><path fill="url(#ad)" d="M127.73 254.06l-.49-.86 36-21.8 1.04-15 25.29-15.07.51.86-24.84 14.8L164.2 232l-.24.13-36.23 21.93z"></path><path fill="url(#ae)" d="M231.16 117.73l-.51-.86 35.33-20.96 1.04-15.01.23-.13 39.02-22.9.5.86-38.79 22.77-1.04 15-35.78 21.23z"></path><path d="M288.34 10.34a4.07 4.07 0 01-2-.48 1.71 1.71 0 01-1-1.44 1.66 1.66 0 011-1.42 4.43 4.43 0 014 0 1.71 1.71 0 011 1.44 1.66 1.66 0 01-.95 1.42 4 4 0 01-2.05.48zm0-2.82a3 3 0 00-1.47.34c-.29.17-.46.37-.46.56s.17.4.47.57a3.52 3.52 0 003 0c.29-.17.45-.38.45-.56s-.17-.4-.47-.57a3.05 3.05 0 00-1.55-.34z" fill="url(#af)"></path><path fill="url(#ag)" d="M231.35 56.64l-.51-.86 27.91-16.29 1.04-15.01.23-.13 26.75-15.63.5.87-26.52 15.49-1.04 15-28.36 16.56z"></path><path d="M175.72 234.55a4 4 0 01-2-.48 1.69 1.69 0 01-1-1.42 1.71 1.71 0 011-1.44 4.43 4.43 0 014 0 1.66 1.66 0 011 1.42 1.71 1.71 0 01-1 1.44 4 4 0 01-2 .48zm0-2.82a3.1 3.1 0 00-1.49.35c-.3.17-.47.38-.47.57s.17.39.46.56a3.5 3.5 0 002.95 0c.3-.17.47-.38.47-.57s-.16-.39-.46-.56a3 3 0 00-1.43-.35z" fill="url(#ah)"></path><path fill="url(#ai)" d="M177.78 232.73l-.52-.86 14.41-8.49-13.16-7 21.48-12.23.5.86-19.9 11.34 13.11 6.98-15.92 9.4z"></path></svg> 