<svg xmlns="http://www.w3.org/2000/svg" xmlns:xlink="http://www.w3.org/1999/xlink" viewBox="0 0 374.77 288"><defs><style>.cls-1,.cls-13{mask:url(#mask);}.cls-1{filter:url(#luminosity-noclip-13);}.cls-10,.cls-16,.cls-2,.cls-20,.cls-24,.cls-36,.cls-44,.cls-51,.cls-58,.cls-6,.cls-65,.cls-72{fill-rule:evenodd;}.cls-10,.cls-12,.cls-14,.cls-16,.cls-18,.cls-2,.cls-20,.cls-22,.cls-24,.cls-4,.cls-6,.cls-8{mix-blend-mode:multiply;}.cls-2{fill:url(#linear-gradient);}.cls-23,.cls-3{mask:url(#mask-2);}.cls-3{filter:url(#luminosity-noclip-18);}.cls-4{fill:url(#linear-gradient-2);}.cls-5,.cls-7{mask:url(#mask-3);}.cls-5{filter:url(#luminosity-noclip-19);}.cls-6{fill:url(#linear-gradient-3);}.cls-7{filter:url(#luminosity-noclip-20);}.cls-8{fill:url(#linear-gradient-4);}.cls-11,.cls-9{mask:url(#mask-5);}.cls-9{filter:url(#luminosity-noclip-21);}.cls-10{fill:url(#linear-gradient-5);}.cls-11{filter:url(#luminosity-noclip-22);}.cls-12{fill:url(#linear-gradient-6);}.cls-13{filter:url(#luminosity-noclip-14);}.cls-14{fill:url(#linear-gradient-7);}.cls-15,.cls-17{mask:url(#mask-8);}.cls-15{filter:url(#luminosity-noclip-23);}.cls-16{fill:url(#linear-gradient-8);}.cls-17{filter:url(#luminosity-noclip-24);}.cls-18{fill:url(#linear-gradient-9);}.cls-19,.cls-21{mask:url(#mask-10);}.cls-19{filter:url(#luminosity-noclip-15);}.cls-20{fill:url(#linear-gradient-10);}.cls-21{filter:url(#luminosity-noclip-16);}.cls-22{fill:url(#linear-gradient-11);}.cls-23{filter:url(#luminosity-noclip-17);}.cls-24{fill:url(#linear-gradient-12);}.cls-25{fill:#046ea3;}.cls-26{fill:#0090dd;}.cls-27{fill:#00597c;}.cls-28{fill:#fff;}.cls-29{fill:none;stroke:#fff;stroke-miterlimit:10;stroke-width:0.5px;}.cls-30{fill:#84a6c0;}.cls-31{fill:#31c800;}.cls-32{fill:red;}.cls-33{fill:url(#Áåçûìÿííûé_ãðàäèåíò_185);}.cls-34{fill:url(#linear-gradient-13);}.cls-35{mask:url(#mask-13);}.cls-36{fill:url(#linear-gradient-14);}.cls-37{mask:url(#mask-14);}.cls-38{fill:url(#linear-gradient-15);}.cls-39{fill:#ffa200;}.cls-40{fill:url(#Áåçûìÿííûé_ãðàäèåíò_18);}.cls-41{fill:url(#Áåçûìÿííûé_ãðàäèåíò_185-2);}.cls-42{fill:url(#linear-gradient-16);}.cls-43{mask:url(#mask-15);}.cls-44{fill:url(#linear-gradient-17);}.cls-45{mask:url(#mask-16);}.cls-46{fill:url(#linear-gradient-18);}.cls-47{fill:url(#Áåçûìÿííûé_ãðàäèåíò_18-2);}.cls-48{fill:url(#Áåçûìÿííûé_ãðàäèåíò_185-3);}.cls-49{fill:url(#linear-gradient-19);}.cls-50{mask:url(#mask-17);}.cls-51{fill:url(#linear-gradient-20);}.cls-52{mask:url(#mask-18);}.cls-53{fill:url(#linear-gradient-21);}.cls-54{fill:url(#Áåçûìÿííûé_ãðàäèåíò_18-3);}.cls-55{fill:url(#Áåçûìÿííûé_ãðàäèåíò_185-4);}.cls-56{fill:url(#linear-gradient-22);}.cls-57{mask:url(#mask-19);}.cls-58{fill:url(#linear-gradient-23);}.cls-59{mask:url(#mask-20);}.cls-60{fill:url(#linear-gradient-24);}.cls-61{fill:url(#Áåçûìÿííûé_ãðàäèåíò_18-4);}.cls-62{fill:url(#Áåçûìÿííûé_ãðàäèåíò_185-5);}.cls-63{fill:url(#linear-gradient-25);}.cls-64{mask:url(#mask-21);}.cls-65{fill:url(#linear-gradient-26);}.cls-66{mask:url(#mask-22);}.cls-67{fill:url(#linear-gradient-27);}.cls-68{fill:url(#Áåçûìÿííûé_ãðàäèåíò_18-5);}.cls-69{fill:url(#Áåçûìÿííûé_ãðàäèåíò_185-6);}.cls-70{fill:url(#linear-gradient-28);}.cls-71{mask:url(#mask-23);}.cls-72{fill:url(#linear-gradient-29);}.cls-73{mask:url(#mask-24);}.cls-74{fill:url(#linear-gradient-30);}.cls-75{fill:url(#Áåçûìÿííûé_ãðàäèåíò_18-6);}.cls-76{filter:url(#luminosity-noclip-10);}.cls-77{filter:url(#luminosity-noclip-8);}.cls-78{filter:url(#luminosity-noclip-5);}.cls-79{filter:url(#luminosity-noclip-3);}.cls-80{filter:url(#luminosity-noclip-2);}.cls-81{filter:url(#luminosity-noclip);}</style><filter id="luminosity-noclip" x="248.27" y="-6338.89" width="16.76" height="32766" filterUnits="userSpaceOnUse" color-interpolation-filters="sRGB"><feFlood flood-color="#fff" result="bg"/><feBlend in="SourceGraphic" in2="bg"/></filter><mask id="mask" x="248.27" y="-6338.89" width="16.76" height="32766" maskUnits="userSpaceOnUse"><g class="cls-81"/></mask><linearGradient id="linear-gradient" x1="256.65" y1="73.04" x2="256.65" y2="64.99" gradientUnits="userSpaceOnUse"><stop offset="0"/><stop offset="1" stop-color="#fff"/></linearGradient><filter id="luminosity-noclip-2" x="186.93" y="-6338.89" width="16.76" height="32766" filterUnits="userSpaceOnUse" color-interpolation-filters="sRGB"><feFlood flood-color="#fff" result="bg"/><feBlend in="SourceGraphic" in2="bg"/></filter><mask id="mask-2" x="186.93" y="-6338.89" width="16.76" height="32766" maskUnits="userSpaceOnUse"><g class="cls-80"/></mask><linearGradient id="linear-gradient-2" x1="195.31" y1="59.46" x2="195.31" y2="51.83" gradientUnits="userSpaceOnUse"><stop offset="0" stop-color="#fff"/><stop offset="1"/></linearGradient><filter id="luminosity-noclip-3" x="155.87" y="-6338.89" width="16.76" height="32766" filterUnits="userSpaceOnUse" color-interpolation-filters="sRGB"><feFlood flood-color="#fff" result="bg"/><feBlend in="SourceGraphic" in2="bg"/></filter><mask id="mask-3" x="155.87" y="-6338.89" width="16.76" height="32766" maskUnits="userSpaceOnUse"><g class="cls-79"/></mask><linearGradient id="linear-gradient-3" x1="164.25" y1="82.37" x2="164.25" y2="74.32" xlink:href="#linear-gradient"/><linearGradient id="linear-gradient-4" x1="164.25" y1="91.17" x2="164.25" y2="83.54" xlink:href="#linear-gradient-2"/><filter id="luminosity-noclip-5" x="123.26" y="-6338.89" width="16.76" height="32766" filterUnits="userSpaceOnUse" color-interpolation-filters="sRGB"><feFlood flood-color="#fff" result="bg"/><feBlend in="SourceGraphic" in2="bg"/></filter><mask id="mask-5" x="123.26" y="-6338.89" width="16.76" height="32766" maskUnits="userSpaceOnUse"><g class="cls-78"/></mask><linearGradient id="linear-gradient-5" x1="131.64" y1="68.95" x2="131.64" y2="60.9" xlink:href="#linear-gradient"/><linearGradient id="linear-gradient-6" x1="131.64" y1="77.75" x2="131.64" y2="70.12" xlink:href="#linear-gradient-2"/><linearGradient id="linear-gradient-7" x1="256.65" y1="81.84" x2="256.65" y2="74.21" xlink:href="#linear-gradient-2"/><filter id="luminosity-noclip-8" x="93.34" y="-6338.89" width="16.76" height="32766" filterUnits="userSpaceOnUse" color-interpolation-filters="sRGB"><feFlood flood-color="#fff" result="bg"/><feBlend in="SourceGraphic" in2="bg"/></filter><mask id="mask-8" x="93.34" y="-6338.89" width="16.76" height="32766" maskUnits="userSpaceOnUse"><g class="cls-77"/></mask><linearGradient id="linear-gradient-8" x1="101.72" y1="98.87" x2="101.72" y2="90.81" xlink:href="#linear-gradient"/><linearGradient id="linear-gradient-9" x1="101.72" y1="107.66" x2="101.72" y2="100.04" xlink:href="#linear-gradient-2"/><filter id="luminosity-noclip-10" x="217.84" y="-6338.89" width="16.76" height="32766" filterUnits="userSpaceOnUse" color-interpolation-filters="sRGB"><feFlood flood-color="#fff" result="bg"/><feBlend in="SourceGraphic" in2="bg"/></filter><mask id="mask-10" x="217.84" y="-6338.89" width="16.76" height="32766" maskUnits="userSpaceOnUse"><g class="cls-76"/></mask><linearGradient id="linear-gradient-10" x1="226.22" y1="25.78" x2="226.22" y2="17.73" xlink:href="#linear-gradient"/><linearGradient id="linear-gradient-11" x1="226.22" y1="34.58" x2="226.22" y2="26.95" xlink:href="#linear-gradient-2"/><linearGradient id="linear-gradient-12" x1="195.31" y1="50.66" x2="195.31" y2="42.61" xlink:href="#linear-gradient"/><linearGradient id="Áåçûìÿííûé_ãðàäèåíò_185" x1="256.65" y1="64.6" x2="256.65" y2="79.29" gradientTransform="translate(127.21 -159.93) rotate(45)" gradientUnits="userSpaceOnUse"><stop offset="0" stop-color="#f4be2b"/><stop offset="0.02" stop-color="#e9b227"/><stop offset="0.08" stop-color="#be8319"/><stop offset="0.15" stop-color="#9f610f"/><stop offset="0.2" stop-color="#8c4d08"/><stop offset="0.23" stop-color="#854506"/><stop offset="0.32" stop-color="#814106"/><stop offset="0.41" stop-color="#743408"/><stop offset="0.5" stop-color="#5f1f0a"/><stop offset="0.53" stop-color="#57170b"/><stop offset="0.64" stop-color="#5b1a0a"/><stop offset="0.76" stop-color="#682508"/><stop offset="0.88" stop-color="#7d3605"/><stop offset="1" stop-color="#9a4e01"/><stop offset="1" stop-color="#9a4e01"/></linearGradient><linearGradient id="linear-gradient-13" x1="256.65" y1="65.25" x2="256.65" y2="81.65" gradientTransform="translate(127.21 -159.93) rotate(45)" gradientUnits="userSpaceOnUse"><stop offset="0" stop-color="#ffca10"/><stop offset="1" stop-color="#ffa200"/></linearGradient><filter id="luminosity-noclip-13" x="248.27" y="65.21" width="16.76" height="8.58" filterUnits="userSpaceOnUse" color-interpolation-filters="sRGB"><feFlood flood-color="#fff" result="bg"/><feBlend in="SourceGraphic" in2="bg"/></filter><mask id="mask-13" x="248.27" y="65.21" width="16.76" height="8.58" maskUnits="userSpaceOnUse"><g class="cls-1"><path class="cls-2" d="M256.65,65.62A8.38,8.38,0,0,1,265,73.79v-.2a8.38,8.38,0,0,0-16.76,0c0,.07,0,.13,0,.2A8.37,8.37,0,0,1,256.65,65.62Z"/></g></mask><linearGradient id="linear-gradient-14" x1="256.65" y1="73.04" x2="256.65" y2="64.99" gradientUnits="userSpaceOnUse"><stop offset="0" stop-color="#ffa200"/><stop offset="1" stop-color="#db6205"/></linearGradient><filter id="luminosity-noclip-14" x="248.27" y="73.39" width="16.76" height="8.58" filterUnits="userSpaceOnUse" color-interpolation-filters="sRGB"><feFlood flood-color="#fff" result="bg"/><feBlend in="SourceGraphic" in2="bg"/></filter><mask id="mask-14" x="248.27" y="73.39" width="16.76" height="8.58" maskUnits="userSpaceOnUse"><g class="cls-13"><path class="cls-14" d="M256.65,81.56A8.38,8.38,0,0,0,265,73.39v.2a8.38,8.38,0,0,1-16.76,0c0-.07,0-.14,0-.2A8.37,8.37,0,0,0,256.65,81.56Z"/></g></mask><linearGradient id="linear-gradient-15" x1="256.65" y1="81.84" x2="256.65" y2="74.21" gradientUnits="userSpaceOnUse"><stop offset="0" stop-color="#fff"/><stop offset="1" stop-color="#fff"/></linearGradient><linearGradient id="Áåçûìÿííûé_ãðàäèåíò_18" x1="252.36" y1="73.77" x2="260.94" y2="73.77" gradientUnits="userSpaceOnUse"><stop offset="0" stop-color="#925c02"/><stop offset="0.2" stop-color="#642701"/><stop offset="0.66" stop-color="#330900"/><stop offset="0.73" stop-color="#390d00"/><stop offset="0.83" stop-color="#4a1a00"/><stop offset="0.95" stop-color="#672f01"/><stop offset="1" stop-color="#773b01"/></linearGradient><linearGradient id="Áåçûìÿííûé_ãðàäèåíò_185-2" x1="226.22" y1="17.35" x2="226.22" y2="32.03" gradientTransform="translate(84.88 -152.25) rotate(45)" xlink:href="#Áåçûìÿííûé_ãðàäèåíò_185"/><linearGradient id="linear-gradient-16" x1="226.22" y1="18" x2="226.22" y2="34.39" gradientTransform="translate(84.88 -152.25) rotate(45)" xlink:href="#linear-gradient-13"/><filter id="luminosity-noclip-15" x="217.84" y="17.95" width="16.76" height="8.58" filterUnits="userSpaceOnUse" color-interpolation-filters="sRGB"><feFlood flood-color="#fff" result="bg"/><feBlend in="SourceGraphic" in2="bg"/></filter><mask id="mask-15" x="217.84" y="17.95" width="16.76" height="8.58" maskUnits="userSpaceOnUse"><g class="cls-19"><path class="cls-20" d="M226.22,18.36a8.37,8.37,0,0,1,8.37,8.17,1.27,1.27,0,0,0,0-.2,8.38,8.38,0,1,0-16.76,0,1.27,1.27,0,0,0,0,.2A8.37,8.37,0,0,1,226.22,18.36Z"/></g></mask><linearGradient id="linear-gradient-17" x1="226.22" y1="25.78" x2="226.22" y2="17.73" xlink:href="#linear-gradient-14"/><filter id="luminosity-noclip-16" x="217.84" y="26.13" width="16.76" height="8.58" filterUnits="userSpaceOnUse" color-interpolation-filters="sRGB"><feFlood flood-color="#fff" result="bg"/><feBlend in="SourceGraphic" in2="bg"/></filter><mask id="mask-16" x="217.84" y="26.13" width="16.76" height="8.58" maskUnits="userSpaceOnUse"><g class="cls-21"><path class="cls-22" d="M226.22,34.31a8.37,8.37,0,0,0,8.37-8.18,1.34,1.34,0,0,1,0,.2,8.38,8.38,0,1,1-16.76,0,1.34,1.34,0,0,1,0-.2A8.37,8.37,0,0,0,226.22,34.31Z"/></g></mask><linearGradient id="linear-gradient-18" x1="226.22" y1="34.58" x2="226.22" y2="26.95" xlink:href="#linear-gradient-15"/><linearGradient id="Áåçûìÿííûé_ãðàäèåíò_18-2" x1="221.93" y1="26.51" x2="230.51" y2="26.51" xlink:href="#Áåçûìÿííûé_ãðàäèåíò_18"/><linearGradient id="Áåçûìÿííûé_ãðàäèåíò_185-3" x1="195.31" y1="42.23" x2="195.31" y2="56.91" gradientTransform="translate(93.42 -123.1) rotate(45)" xlink:href="#Áåçûìÿííûé_ãðàäèåíò_185"/><linearGradient id="linear-gradient-19" x1="195.31" y1="42.88" x2="195.31" y2="59.27" gradientTransform="translate(93.42 -123.1) rotate(45)" xlink:href="#linear-gradient-13"/><filter id="luminosity-noclip-17" x="186.93" y="42.83" width="16.76" height="8.58" filterUnits="userSpaceOnUse" color-interpolation-filters="sRGB"><feFlood flood-color="#fff" result="bg"/><feBlend in="SourceGraphic" in2="bg"/></filter><mask id="mask-17" x="186.93" y="42.83" width="16.76" height="8.58" maskUnits="userSpaceOnUse"><g class="cls-23"><path class="cls-24" d="M195.31,43.24a8.37,8.37,0,0,1,8.37,8.17c0-.06,0-.13,0-.2a8.38,8.38,0,1,0-16.76,0v.2A8.38,8.38,0,0,1,195.31,43.24Z"/></g></mask><linearGradient id="linear-gradient-20" x1="195.31" y1="50.66" x2="195.31" y2="42.61" xlink:href="#linear-gradient-14"/><filter id="luminosity-noclip-18" x="186.93" y="51.01" width="16.76" height="8.58" filterUnits="userSpaceOnUse" color-interpolation-filters="sRGB"><feFlood flood-color="#fff" result="bg"/><feBlend in="SourceGraphic" in2="bg"/></filter><mask id="mask-18" x="186.93" y="51.01" width="16.76" height="8.58" maskUnits="userSpaceOnUse"><g class="cls-3"><path class="cls-4" d="M195.31,59.18A8.37,8.37,0,0,0,203.68,51c0,.06,0,.13,0,.2a8.38,8.38,0,1,1-16.76,0V51A8.38,8.38,0,0,0,195.31,59.18Z"/></g></mask><linearGradient id="linear-gradient-21" x1="195.31" y1="59.46" x2="195.31" y2="51.83" xlink:href="#linear-gradient-15"/><linearGradient id="Áåçûìÿííûé_ãðàäèåíò_18-3" x1="191.02" y1="51.39" x2="199.6" y2="51.39" xlink:href="#Áåçûìÿííûé_ãðàäèåíò_18"/><linearGradient id="Áåçûìÿííûé_ãðàäèåíò_185-4" x1="164.25" y1="73.94" x2="164.25" y2="88.62" gradientTransform="translate(106.74 -91.85) rotate(45)" xlink:href="#Áåçûìÿííûé_ãðàäèåíò_185"/><linearGradient id="linear-gradient-22" x1="164.25" y1="74.59" x2="164.25" y2="90.98" gradientTransform="translate(106.74 -91.85) rotate(45)" xlink:href="#linear-gradient-13"/><filter id="luminosity-noclip-19" x="155.87" y="74.54" width="16.76" height="8.58" filterUnits="userSpaceOnUse" color-interpolation-filters="sRGB"><feFlood flood-color="#fff" result="bg"/><feBlend in="SourceGraphic" in2="bg"/></filter><mask id="mask-19" x="155.87" y="74.54" width="16.76" height="8.58" maskUnits="userSpaceOnUse"><g class="cls-5"><path class="cls-6" d="M164.25,75a8.37,8.37,0,0,1,8.37,8.17c0-.06,0-.13,0-.2a8.38,8.38,0,0,0-16.76,0v.2A8.38,8.38,0,0,1,164.25,75Z"/></g></mask><linearGradient id="linear-gradient-23" x1="164.25" y1="82.37" x2="164.25" y2="74.32" xlink:href="#linear-gradient-14"/><filter id="luminosity-noclip-20" x="155.87" y="82.72" width="16.76" height="8.58" filterUnits="userSpaceOnUse" color-interpolation-filters="sRGB"><feFlood flood-color="#fff" result="bg"/><feBlend in="SourceGraphic" in2="bg"/></filter><mask id="mask-20" x="155.87" y="82.72" width="16.76" height="8.58" maskUnits="userSpaceOnUse"><g class="cls-7"><path class="cls-8" d="M164.25,90.9a8.37,8.37,0,0,0,8.37-8.18c0,.07,0,.13,0,.2a8.38,8.38,0,1,1-16.76,0v-.2A8.39,8.39,0,0,0,164.25,90.9Z"/></g></mask><linearGradient id="linear-gradient-24" x1="164.25" y1="91.17" x2="164.25" y2="83.54" xlink:href="#linear-gradient-15"/><linearGradient id="Áåçûìÿííûé_ãðàäèåíò_18-4" x1="159.96" y1="83.1" x2="168.54" y2="83.1" xlink:href="#Áåçûìÿííûé_ãðàäèåíò_18"/><linearGradient id="Áåçûìÿííûé_ãðàäèåíò_185-5" x1="131.64" y1="60.52" x2="131.64" y2="75.2" gradientTransform="translate(87.7 -72.73) rotate(45)" xlink:href="#Áåçûìÿííûé_ãðàäèåíò_185"/><linearGradient id="linear-gradient-25" x1="131.64" y1="61.17" x2="131.64" y2="77.56" gradientTransform="translate(87.7 -72.73) rotate(45)" xlink:href="#linear-gradient-13"/><filter id="luminosity-noclip-21" x="123.26" y="61.12" width="16.76" height="8.58" filterUnits="userSpaceOnUse" color-interpolation-filters="sRGB"><feFlood flood-color="#fff" result="bg"/><feBlend in="SourceGraphic" in2="bg"/></filter><mask id="mask-21" x="123.26" y="61.12" width="16.76" height="8.58" maskUnits="userSpaceOnUse"><g class="cls-9"><path class="cls-10" d="M131.64,61.53A8.37,8.37,0,0,1,140,69.7a1.27,1.27,0,0,0,0-.2,8.38,8.38,0,0,0-16.76,0,1.27,1.27,0,0,0,0,.2A8.37,8.37,0,0,1,131.64,61.53Z"/></g></mask><linearGradient id="linear-gradient-26" x1="131.64" y1="68.95" x2="131.64" y2="60.9" xlink:href="#linear-gradient-14"/><filter id="luminosity-noclip-22" x="123.26" y="69.3" width="16.76" height="8.58" filterUnits="userSpaceOnUse" color-interpolation-filters="sRGB"><feFlood flood-color="#fff" result="bg"/><feBlend in="SourceGraphic" in2="bg"/></filter><mask id="mask-22" x="123.26" y="69.3" width="16.76" height="8.58" maskUnits="userSpaceOnUse"><g class="cls-11"><path class="cls-12" d="M131.64,77.47A8.37,8.37,0,0,0,140,69.3a1.34,1.34,0,0,1,0,.2,8.38,8.38,0,0,1-16.76,0,1.34,1.34,0,0,1,0-.2A8.37,8.37,0,0,0,131.64,77.47Z"/></g></mask><linearGradient id="linear-gradient-27" x1="131.64" y1="77.75" x2="131.64" y2="70.12" xlink:href="#linear-gradient-15"/><linearGradient id="Áåçûìÿííûé_ãðàäèåíò_18-5" x1="127.35" y1="69.68" x2="135.93" y2="69.68" xlink:href="#Áåçûìÿííûé_ãðàäèåíò_18"/><linearGradient id="Áåçûìÿííûé_ãðàäèåíò_185-6" x1="101.72" y1="90.43" x2="101.72" y2="105.11" gradientTransform="translate(100.09 -42.81) rotate(45)" xlink:href="#Áåçûìÿííûé_ãðàäèåíò_185"/><linearGradient id="linear-gradient-28" x1="101.72" y1="91.08" x2="101.72" y2="107.48" gradientTransform="translate(100.09 -42.81) rotate(45)" xlink:href="#linear-gradient-13"/><filter id="luminosity-noclip-23" x="93.34" y="91.04" width="16.76" height="8.58" filterUnits="userSpaceOnUse" color-interpolation-filters="sRGB"><feFlood flood-color="#fff" result="bg"/><feBlend in="SourceGraphic" in2="bg"/></filter><mask id="mask-23" x="93.34" y="91.04" width="16.76" height="8.58" maskUnits="userSpaceOnUse"><g class="cls-15"><path class="cls-16" d="M101.72,91.44a8.39,8.39,0,0,1,8.38,8.18v-.2a8.38,8.38,0,1,0-16.76,0c0,.06,0,.13,0,.2A8.38,8.38,0,0,1,101.72,91.44Z"/></g></mask><linearGradient id="linear-gradient-29" x1="101.72" y1="98.87" x2="101.72" y2="90.81" xlink:href="#linear-gradient-14"/><filter id="luminosity-noclip-24" x="93.34" y="99.21" width="16.76" height="8.58" filterUnits="userSpaceOnUse" color-interpolation-filters="sRGB"><feFlood flood-color="#fff" result="bg"/><feBlend in="SourceGraphic" in2="bg"/></filter><mask id="mask-24" x="93.34" y="99.21" width="16.76" height="8.58" maskUnits="userSpaceOnUse"><g class="cls-17"><path class="cls-18" d="M101.72,107.39a8.38,8.38,0,0,0,8.38-8.18v.21a8.38,8.38,0,0,1-16.76,0c0-.07,0-.14,0-.21A8.37,8.37,0,0,0,101.72,107.39Z"/></g></mask><linearGradient id="linear-gradient-30" x1="101.72" y1="107.66" x2="101.72" y2="100.04" xlink:href="#linear-gradient-15"/><linearGradient id="Áåçûìÿííûé_ãðàäèåíò_18-6" x1="97.43" y1="99.6" x2="106.02" y2="99.6" xlink:href="#Áåçûìÿííûé_ãðàäèåíò_18"/></defs><g id="Layer_2" data-name="Layer 2"><g id="Layer_1-2" data-name="Layer 1"><g id="Laptop"><rect class="cls-25" x="9.33" width="356.1" height="270.71" rx="26.85"/><path class="cls-26" d="M30.43,9.33H344.34a12,12,0,0,1,12,12V226.42a0,0,0,0,1,0,0H18.43a0,0,0,0,1,0,0V21.33A12,12,0,0,1,30.43,9.33Z"/><path class="cls-27" d="M357.48,288H17.29A17.34,17.34,0,0,1,0,270.71H0a17.34,17.34,0,0,1,17.29-17.29H357.48a17.34,17.34,0,0,1,17.29,17.29h0A17.34,17.34,0,0,1,357.48,288Z"/></g><g id="Www"><path class="cls-28" d="M346,49.88a33,33,0,1,1-33.05-33A33,33,0,0,1,346,49.88Z"/><path class="cls-26" d="M330.65,49.41a1.55,1.55,0,0,1,0,.21,17.27,17.27,0,0,1-2,8l-.24.44a17.39,17.39,0,0,1-9.95,8,15.16,15.16,0,0,1-1.64.42,17.43,17.43,0,0,1-2.3.31c-.32,0-.65,0-1,0h-.42c-.34,0-.66,0-1,0a17.36,17.36,0,0,1-2.31-.31,14.41,14.41,0,0,1-1.63-.42,17.36,17.36,0,0,1-9.95-8,4.77,4.77,0,0,1-.24-.44,17.15,17.15,0,0,1-2-8,1.55,1.55,0,0,1,0-.21,1.41,1.41,0,0,1,0-.21,17.21,17.21,0,0,1,2-8l.23-.39a17.3,17.3,0,0,1,10.12-8.05c.42-.13.83-.23,1.26-.32a15,15,0,0,1,2.52-.36c.32,0,.64,0,1,0h.42c.33,0,.66,0,1,0a14.74,14.74,0,0,1,2.51.36c.42.09.84.19,1.26.32a17.35,17.35,0,0,1,10.13,8.05c.08.13.15.26.22.39a17.21,17.21,0,0,1,2.05,8A1.41,1.41,0,0,1,330.65,49.41Z"/><path class="cls-29" d="M322.17,49.41c0,9.59-4,17.37-8.89,17.37s-8.89-7.78-8.89-17.37,4-17.38,8.89-17.38S322.17,39.81,322.17,49.41Z"/><path class="cls-28" d="M328.59,41.2H298l.23-.39h30.18C328.45,40.94,328.52,41.07,328.59,41.2Z"/><path class="cls-28" d="M330.65,49.41a1.55,1.55,0,0,1,0,.21H295.91a1.55,1.55,0,0,1,0-.21,1.41,1.41,0,0,1,0-.21h34.73A1.41,1.41,0,0,1,330.65,49.41Z"/><rect class="cls-28" x="313.06" y="32.03" width="0.42" height="34.74"/><path class="cls-28" d="M328.6,57.59l-.24.44H298.2a4.77,4.77,0,0,1-.24-.44Z"/></g><g id="Trading"><polygon class="cls-30" points="256.65 111.64 256.04 110.9 226.22 75.12 195.24 92.68 164.25 134.49 132.16 110.24 101.72 141.24 101.72 134.6 132.16 103.6 164.25 127.84 195.24 86.04 226.22 68.48 256.65 105 256.65 111.64"/><rect class="cls-27" x="99.51" y="104.86" width="4.43" height="64.81"/><rect class="cls-31" x="90.66" y="117.07" width="22.13" height="40.39"/><rect class="cls-27" x="193.02" y="58.94" width="4.43" height="64.81"/><rect class="cls-32" x="184.17" y="71.15" width="22.13" height="40.39"/><rect class="cls-27" x="254.44" y="79.67" width="4.43" height="55.99"/><rect class="cls-32" x="245.59" y="91.35" width="22.13" height="32.65"/><rect class="cls-27" x="129.94" y="73.86" width="4.43" height="64.81"/><rect class="cls-32" x="121.09" y="89.94" width="22.13" height="32.65"/><rect class="cls-27" x="162.04" y="90.17" width="4.43" height="80.69"/><rect class="cls-31" x="153.18" y="102.15" width="22.13" height="56.72"/><rect class="cls-27" x="224.01" y="30.76" width="4.43" height="80.78"/><rect class="cls-31" x="215.15" y="42.79" width="22.13" height="56.72"/><polygon class="cls-27" points="85.49 209.19 85.49 26.33 76.09 26.33 76.09 209.19 76.09 218.59 85.49 218.59 302.58 218.59 302.58 209.19 85.49 209.19"/><rect class="cls-31" x="106.26" y="179.56" width="66.95" height="22.41"/><path class="cls-28" d="M115.62,182a32.7,32.7,0,0,1,5.23-.37c2.47,0,4,.24,5.29,1a3.9,3.9,0,0,1,2.15,3.5,4,4,0,0,1-2.95,3.82V190a4.47,4.47,0,0,1,3.56,4.4,4.79,4.79,0,0,1-1.86,3.8c-1.3,1-3.48,1.62-7,1.62a30.13,30.13,0,0,1-4.38-.27Zm4,6.85H121c2.12,0,3.26-.88,3.26-2.2s-1-2.08-2.86-2.08a11.39,11.39,0,0,0-1.73.11Zm0,7.94a13.64,13.64,0,0,0,1.57,0c1.83,0,3.45-.69,3.45-2.58s-1.62-2.52-3.64-2.52h-1.38Z"/><path class="cls-28" d="M135.7,181.74V192c0,3.08,1.17,4.65,3.24,4.65s3.29-1.49,3.29-4.65v-10.3h4v10c0,5.52-2.78,8.14-7.45,8.14s-7.17-2.49-7.17-8.2v-10Z"/><path class="cls-28" d="M153.92,199.63v-7.32l-5.65-10.57h4.61l1.84,4.3c.55,1.3.92,2.26,1.38,3.43h.05c.4-1.12.82-2.15,1.35-3.43l1.81-4.3h4.54L158,192.17v7.46Z"/><rect class="cls-32" x="216.28" y="179.56" width="66.95" height="22.41"/><path class="cls-28" d="M223.6,195.56a10.25,10.25,0,0,0,4.48,1.11c1.86,0,2.84-.77,2.84-1.93s-.85-1.76-3-2.53c-3-1-4.91-2.68-4.91-5.28,0-3.05,2.55-5.39,6.77-5.39a11,11,0,0,1,4.57.91l-.91,3.26a8.54,8.54,0,0,0-3.74-.85c-1.75,0-2.6.8-2.6,1.73,0,1.14,1,1.64,3.32,2.52,3.16,1.17,4.64,2.81,4.64,5.33,0,3-2.31,5.55-7.22,5.55a11.69,11.69,0,0,1-5.07-1.09Z"/><path class="cls-28" d="M248.45,192.16h-6.58v4.25h7.35v3.32H237.8v-17.9h11v3.32h-7v3.72h6.58Z"/><path class="cls-28" d="M252,181.83h4.06v14.5h7.11v3.4H252Z"/><path class="cls-28" d="M265.56,181.83h4.06v14.5h7.11v3.4H265.56Z"/></g><g id="Kursor"><path class="cls-28" d="M202.94,213.52l7.35,14.22a1.05,1.05,0,0,0,1.9-.08L218.37,213l6.34-15.06a1.05,1.05,0,0,0-1.1-1.45l-16.21,2-15.8,2a1,1,0,0,0-.58,1.81l11.7,10.92A1.06,1.06,0,0,1,202.94,213.52Z"/><rect class="cls-28" x="194.99" y="203.77" width="8.18" height="26.21" rx="1.31" transform="translate(251.66 -72.78) rotate(52.84)"/></g><circle class="cls-33" cx="256.65" cy="73.59" r="9.76" transform="translate(23.14 203.04) rotate(-45)"/><circle class="cls-34" cx="256.65" cy="73.59" r="8.38" transform="translate(23.14 203.04) rotate(-45)"/><g class="cls-35"><path class="cls-36" d="M256.65,65.62A8.38,8.38,0,0,1,265,73.79v-.2a8.38,8.38,0,0,0-16.76,0c0,.07,0,.13,0,.2A8.37,8.37,0,0,1,256.65,65.62Z"/></g><g class="cls-37"><path class="cls-38" d="M256.65,81.56A8.38,8.38,0,0,0,265,73.39v.2a8.38,8.38,0,0,1-16.76,0c0-.07,0-.14,0-.2A8.37,8.37,0,0,0,256.65,81.56Z"/></g><path class="cls-39" d="M260.85,75.24a1.46,1.46,0,0,0,0-.22.53.53,0,0,0,0-.12.26.26,0,0,0,0-.11.56.56,0,0,0,0-.12v0h0a.14.14,0,0,0,0-.06h0a.93.93,0,0,0-.05-.1l0-.08a.59.59,0,0,1,0-.08.35.35,0,0,1-.05-.08,3.79,3.79,0,0,0-.3-.4h0a2.56,2.56,0,0,0-1.73-.8H258a1.57,1.57,0,0,0-1.38.79h0a1.61,1.61,0,0,0-.22.81h1.82a.84.84,0,0,1,.71.67.17.17,0,0,1,0,.07.09.09,0,0,0,0,0v0a.84.84,0,0,1-.62.81h-3.07a.57.57,0,0,1-.18,0h0a1.23,1.23,0,0,1-1-1.21V72.58a1.22,1.22,0,0,1,.53-1,1.2,1.2,0,0,1,.69-.22h5.72a2.44,2.44,0,0,0-2.15-1.61h0V68h-.29a.86.86,0,0,0-.86.87v.93h-1.27V68h-.29a.83.83,0,0,0-.58.24.84.84,0,0,0-.28.63v.93h-.36a2.56,2.56,0,0,0-2.5,2.56v3a2.53,2.53,0,0,0,.19,1,2.63,2.63,0,0,0,.78,1l.06,0a2.42,2.42,0,0,0,1.51.52h.32v.8a.87.87,0,0,0,.86.87h.29V77.94h1.27v.78a.86.86,0,0,0,.65.84.76.76,0,0,0,.21,0h.29V77.9h.07l.07,0A2.53,2.53,0,0,0,260.3,77a1.13,1.13,0,0,0,.1-.13.22.22,0,0,0,.05-.08,2.07,2.07,0,0,0,.28-.53,2.28,2.28,0,0,0,.13-.69,1,1,0,0,0,0-.25A.49.49,0,0,0,260.85,75.24Z"/><path class="cls-28" d="M260.85,74.87a1.92,1.92,0,0,0,0-.22.61.61,0,0,0,0-.11.23.23,0,0,0,0-.11.56.56,0,0,0,0-.12v0h0s0,0,0,0v0l-.05-.1,0-.07s0-.05,0-.08a.41.41,0,0,1-.05-.09,2.88,2.88,0,0,0-.3-.39h0a2.57,2.57,0,0,0-1.73-.81H258a1.62,1.62,0,0,0-1.38.8h0a1.58,1.58,0,0,0-.22.81h1.82a.83.83,0,0,1,.71.67.17.17,0,0,1,0,.07.06.06,0,0,0,0,0v.06a.83.83,0,0,1-.62.8l-.06,0h-3l-.18,0h0a1.23,1.23,0,0,1-1-1.21V72.22A1.23,1.23,0,0,1,255.22,71h5.72a2.45,2.45,0,0,0-2.15-1.62h0V67.59h-.29a.86.86,0,0,0-.86.87v.92h-1.27V67.59h-.29a.86.86,0,0,0-.58.23.88.88,0,0,0-.28.64v.92h-.36a2.55,2.55,0,0,0-2.5,2.55v3a2.57,2.57,0,0,0,.19,1,2.6,2.6,0,0,0,.78,1l.06.05a2.48,2.48,0,0,0,1.51.52h.32v.8a.86.86,0,0,0,.86.86h.29V77.57h1.27v.79a.86.86,0,0,0,.65.84.75.75,0,0,0,.21,0h.29V77.54l.07,0h.07a2.61,2.61,0,0,0,1.37-.84l.1-.12a.35.35,0,0,0,.05-.08,2.31,2.31,0,0,0,.28-.54,2.16,2.16,0,0,0,.13-.68,1,1,0,0,0,0-.25A.57.57,0,0,0,260.85,74.87Z"/><path class="cls-40" d="M260.85,75.24a1.46,1.46,0,0,0,0-.22.53.53,0,0,0,0-.12.26.26,0,0,0,0-.11.56.56,0,0,0,0-.12v0h0a.14.14,0,0,0,0-.06h0a.93.93,0,0,0-.05-.1l0-.08a.59.59,0,0,1,0-.08.35.35,0,0,1-.05-.08,3.79,3.79,0,0,0-.3-.4h0a2.56,2.56,0,0,0-1.73-.8H258a1.57,1.57,0,0,0-1.38.79h0a1.61,1.61,0,0,0-.22.81h1.82a.84.84,0,0,1,.71.67.17.17,0,0,1,0,.07.09.09,0,0,0,0,0v0a.84.84,0,0,1-.62.81h-3.07a.57.57,0,0,1-.18,0h0a1.23,1.23,0,0,1-1-1.21V72.58a1.22,1.22,0,0,1,.53-1,1.2,1.2,0,0,1,.69-.22h5.72a2.44,2.44,0,0,0-2.15-1.61h0V68h-.29a.86.86,0,0,0-.86.87v.93h-1.27V68h-.29a.83.83,0,0,0-.58.24.84.84,0,0,0-.28.63v.93h-.36a2.56,2.56,0,0,0-2.5,2.56v3a2.53,2.53,0,0,0,.19,1,2.63,2.63,0,0,0,.78,1l.06,0a2.42,2.42,0,0,0,1.51.52h.32v.8a.87.87,0,0,0,.86.87h.29V77.94h1.27v.78a.86.86,0,0,0,.65.84.76.76,0,0,0,.21,0h.29V77.9h.07l.07,0A2.53,2.53,0,0,0,260.3,77a1.13,1.13,0,0,0,.1-.13.22.22,0,0,0,.05-.08,2.07,2.07,0,0,0,.28-.53,2.28,2.28,0,0,0,.13-.69,1,1,0,0,0,0-.25A.49.49,0,0,0,260.85,75.24Z"/><circle class="cls-41" cx="226.22" cy="26.33" r="9.76" transform="translate(47.64 167.67) rotate(-45)"/><circle class="cls-42" cx="226.22" cy="26.33" r="8.38" transform="translate(47.64 167.67) rotate(-45)"/><g class="cls-43"><path class="cls-44" d="M226.22,18.36a8.37,8.37,0,0,1,8.37,8.17,1.27,1.27,0,0,0,0-.2,8.38,8.38,0,1,0-16.76,0,1.27,1.27,0,0,0,0,.2A8.37,8.37,0,0,1,226.22,18.36Z"/></g><g class="cls-45"><path class="cls-46" d="M226.22,34.31a8.37,8.37,0,0,0,8.37-8.18,1.34,1.34,0,0,1,0,.2,8.38,8.38,0,1,1-16.76,0,1.34,1.34,0,0,1,0-.2A8.37,8.37,0,0,0,226.22,34.31Z"/></g><path class="cls-39" d="M230.42,28l0-.22,0-.11,0-.11c0-.05,0-.09,0-.13v0h0s0,0,0-.06h0a.42.42,0,0,0,0-.1l0-.07a.56.56,0,0,0-.05-.08.41.41,0,0,0,0-.09,2.19,2.19,0,0,0-.29-.39h0a2.59,2.59,0,0,0-1.73-.81h-.52a1.51,1.51,0,0,0-.63.13,1.68,1.68,0,0,0-.76.66v0h0a1.55,1.55,0,0,0-.22.8h1.81a.85.85,0,0,1,.72.67s0,.05,0,.08v0a.11.11,0,0,1,0,.05.85.85,0,0,1-.62.81h-3.07a.58.58,0,0,1-.19,0h0a1.21,1.21,0,0,1-1-1.2V25.33a1.21,1.21,0,0,1,1.22-1.22h5.72a2.45,2.45,0,0,0-2.15-1.61h0V20.7h-.28a.86.86,0,0,0-.87.86v.93h-1.26V20.7h-.29a.89.89,0,0,0-.59.23.85.85,0,0,0-.27.63v.93h-.37a2.56,2.56,0,0,0-2.49,2.56v3a2.62,2.62,0,0,0,.19,1,2.51,2.51,0,0,0,.78,1l.06,0a2.45,2.45,0,0,0,1.5.51h.33v.81a.86.86,0,0,0,.86.86h.29V30.68h1.26v.79a.88.88,0,0,0,.66.84l.21,0h.28V30.64h.08l.06,0a2.52,2.52,0,0,0,1.38-.83,1.47,1.47,0,0,0,.1-.13l.05-.07a2.77,2.77,0,0,0,.28-.54,2.63,2.63,0,0,0,.13-.69,1,1,0,0,0,0-.25S230.42,28,230.42,28Z"/><path class="cls-28" d="M230.42,27.62l0-.22,0-.12,0-.11,0-.12v0h0s0,0,0-.05h0a.3.3,0,0,0,0-.1l0-.08a.56.56,0,0,1-.05-.08.22.22,0,0,0,0-.08,2.27,2.27,0,0,0-.29-.4h0a2.58,2.58,0,0,0-1.73-.8h-.52a1.68,1.68,0,0,0-.63.12,1.7,1.7,0,0,0-.76.67h0a1.61,1.61,0,0,0-.22.81h1.81a.85.85,0,0,1,.72.67s0,.05,0,.07v0a.13.13,0,0,1,0,.06.83.83,0,0,1-.62.8l-.06,0h-3a.58.58,0,0,1-.19,0h0a1.22,1.22,0,0,1-1-1.21V25a1.22,1.22,0,0,1,.53-1,1.16,1.16,0,0,1,.69-.22h5.72a2.44,2.44,0,0,0-2.15-1.61h0v-1.8h-.28a.87.87,0,0,0-.87.87v.93h-1.26v-1.8h-.29a.85.85,0,0,0-.59.24.84.84,0,0,0-.27.63v.93h-.37a2.56,2.56,0,0,0-2.49,2.56v3a2.57,2.57,0,0,0,.19,1,2.51,2.51,0,0,0,.78,1l.06.05a2.39,2.39,0,0,0,1.5.52h.33v.8a.86.86,0,0,0,.86.87h.29V30.32h1.26v.78a.86.86,0,0,0,.66.84.76.76,0,0,0,.21,0h.28V30.28h.08l.06,0a2.48,2.48,0,0,0,1.38-.84l.1-.12a.56.56,0,0,0,.05-.08,2.3,2.3,0,0,0,.28-.54,2.49,2.49,0,0,0,.13-.68,1,1,0,0,0,0-.25S230.42,27.66,230.42,27.62Z"/><path class="cls-47" d="M230.42,28l0-.22,0-.11,0-.11c0-.05,0-.09,0-.13v0h0s0,0,0-.06h0a.42.42,0,0,0,0-.1l0-.07a.56.56,0,0,0-.05-.08.41.41,0,0,0,0-.09,2.19,2.19,0,0,0-.29-.39h0a2.59,2.59,0,0,0-1.73-.81h-.52a1.51,1.51,0,0,0-.63.13,1.68,1.68,0,0,0-.76.66v0h0a1.55,1.55,0,0,0-.22.8h1.81a.85.85,0,0,1,.72.67s0,.05,0,.08v0a.11.11,0,0,1,0,.05.85.85,0,0,1-.62.81h-3.07a.58.58,0,0,1-.19,0h0a1.21,1.21,0,0,1-1-1.2V25.33a1.21,1.21,0,0,1,1.22-1.22h5.72a2.45,2.45,0,0,0-2.15-1.61h0V20.7h-.28a.86.86,0,0,0-.87.86v.93h-1.26V20.7h-.29a.89.89,0,0,0-.59.23.85.85,0,0,0-.27.63v.93h-.37a2.56,2.56,0,0,0-2.49,2.56v3a2.62,2.62,0,0,0,.19,1,2.51,2.51,0,0,0,.78,1l.06,0a2.45,2.45,0,0,0,1.5.51h.33v.81a.86.86,0,0,0,.86.86h.29V30.68h1.26v.79a.88.88,0,0,0,.66.84l.21,0h.28V30.64h.08l.06,0a2.52,2.52,0,0,0,1.38-.83,1.47,1.47,0,0,0,.1-.13l.05-.07a2.77,2.77,0,0,0,.28-.54,2.63,2.63,0,0,0,.13-.69,1,1,0,0,0,0-.25S230.42,28,230.42,28Z"/><circle class="cls-48" cx="195.31" cy="51.21" r="9.76" transform="translate(20.99 153.1) rotate(-45)"/><circle class="cls-49" cx="195.31" cy="51.21" r="8.38" transform="translate(20.99 153.1) rotate(-45)"/><g class="cls-50"><path class="cls-51" d="M195.31,43.24a8.37,8.37,0,0,1,8.37,8.17c0-.06,0-.13,0-.2a8.38,8.38,0,1,0-16.76,0v.2A8.38,8.38,0,0,1,195.31,43.24Z"/></g><g class="cls-52"><path class="cls-53" d="M195.31,59.18A8.37,8.37,0,0,0,203.68,51c0,.06,0,.13,0,.2a8.38,8.38,0,1,1-16.76,0V51A8.38,8.38,0,0,0,195.31,59.18Z"/></g><path class="cls-39" d="M199.51,52.86l0-.22,0-.11,0-.12s0-.08,0-.12v0h0a.14.14,0,0,1,0-.06h0a1,1,0,0,0,0-.1.3.3,0,0,0,0-.08.59.59,0,0,0,0-.08.35.35,0,0,0-.05-.08,1.85,1.85,0,0,0-.3-.39h0a2.5,2.5,0,0,0-1.72-.81h-.52a1.57,1.57,0,0,0-1.39.79v0h0a1.64,1.64,0,0,0-.21.8h1.81a.85.85,0,0,1,.72.67.15.15,0,0,0,0,.07v.1a.84.84,0,0,1-.61.81h-3.08a.57.57,0,0,1-.18,0h0a1.22,1.22,0,0,1-1-1.21V50.21a1.24,1.24,0,0,1,.52-1,1.21,1.21,0,0,1,.7-.22h5.72a2.45,2.45,0,0,0-2.15-1.61h0V45.58h-.28a.86.86,0,0,0-.87.86v.93H195V45.58h-.29a.87.87,0,0,0-.87.86v.93h-.36A2.56,2.56,0,0,0,191,49.93v3a2.52,2.52,0,0,0,.18,1,2.57,2.57,0,0,0,.79,1l.06,0a2.37,2.37,0,0,0,1.5.52h.32v.8a.87.87,0,0,0,.87.87H195V55.56h1.26v.78a.86.86,0,0,0,.66.84.71.71,0,0,0,.21,0h.28V55.52h.07l.07,0a2.56,2.56,0,0,0,1.38-.83l.09-.13.06-.07a2.73,2.73,0,0,0,.27-.54,2.29,2.29,0,0,0,.14-.69V53A.49.49,0,0,1,199.51,52.86Z"/><path class="cls-28" d="M199.51,52.5l0-.23,0-.11,0-.11s0-.08,0-.12v0h0s0,0,0,0v0a1,1,0,0,1,0-.1l0-.07a.3.3,0,0,0,0-.08.22.22,0,0,0-.05-.08,1.68,1.68,0,0,0-.3-.4h0a2.54,2.54,0,0,0-1.72-.81h-.52a1.62,1.62,0,0,0-1.39.8h0a1.71,1.71,0,0,0-.21.81h1.81a.84.84,0,0,1,.72.67.17.17,0,0,0,0,.07v.1a.83.83,0,0,1-.61.8l-.06,0h-3a1.13,1.13,0,0,1-.18,0h0a1.22,1.22,0,0,1-1-1.21V49.84a1.24,1.24,0,0,1,.52-1,1.21,1.21,0,0,1,.7-.22h5.72A2.44,2.44,0,0,0,197.45,47h0v-1.8h-.28a.87.87,0,0,0-.87.87V47H195v-1.8h-.29a.87.87,0,0,0-.87.87V47h-.36A2.55,2.55,0,0,0,191,49.56v3a2.48,2.48,0,0,0,1,2l.06,0a2.37,2.37,0,0,0,1.5.52h.32V56a.87.87,0,0,0,.87.87H195V55.2h1.26V56a.86.86,0,0,0,.66.84.71.71,0,0,0,.21,0h.28V55.16l.07,0h.07a2.58,2.58,0,0,0,1.38-.84l.09-.12.06-.08a2.27,2.27,0,0,0,.27-.54,2.17,2.17,0,0,0,.14-.68v-.25A.49.49,0,0,1,199.51,52.5Z"/><path class="cls-54" d="M199.51,52.86l0-.22,0-.11,0-.12s0-.08,0-.12v0h0a.14.14,0,0,1,0-.06h0a1,1,0,0,0,0-.1.3.3,0,0,0,0-.08.59.59,0,0,0,0-.08.35.35,0,0,0-.05-.08,1.85,1.85,0,0,0-.3-.39h0a2.5,2.5,0,0,0-1.72-.81h-.52a1.57,1.57,0,0,0-1.39.79v0h0a1.64,1.64,0,0,0-.21.8h1.81a.85.85,0,0,1,.72.67.15.15,0,0,0,0,.07v.1a.84.84,0,0,1-.61.81h-3.08a.57.57,0,0,1-.18,0h0a1.22,1.22,0,0,1-1-1.21V50.21a1.24,1.24,0,0,1,.52-1,1.21,1.21,0,0,1,.7-.22h5.72a2.45,2.45,0,0,0-2.15-1.61h0V45.58h-.28a.86.86,0,0,0-.87.86v.93H195V45.58h-.29a.87.87,0,0,0-.87.86v.93h-.36A2.56,2.56,0,0,0,191,49.93v3a2.52,2.52,0,0,0,.18,1,2.57,2.57,0,0,0,.79,1l.06,0a2.37,2.37,0,0,0,1.5.52h.32v.8a.87.87,0,0,0,.87.87H195V55.56h1.26v.78a.86.86,0,0,0,.66.84.71.71,0,0,0,.21,0h.28V55.52h.07l.07,0a2.56,2.56,0,0,0,1.38-.83l.09-.13.06-.07a2.73,2.73,0,0,0,.27-.54,2.29,2.29,0,0,0,.14-.69V53A.49.49,0,0,1,199.51,52.86Z"/><circle class="cls-55" cx="164.25" cy="82.92" r="9.76" transform="translate(-10.53 140.43) rotate(-45)"/><circle class="cls-56" cx="164.25" cy="82.92" r="8.38" transform="translate(-10.53 140.43) rotate(-45)"/><g class="cls-57"><path class="cls-58" d="M164.25,75a8.37,8.37,0,0,1,8.37,8.17c0-.06,0-.13,0-.2a8.38,8.38,0,0,0-16.76,0v.2A8.38,8.38,0,0,1,164.25,75Z"/></g><g class="cls-59"><path class="cls-60" d="M164.25,90.9a8.37,8.37,0,0,0,8.37-8.18c0,.07,0,.13,0,.2a8.38,8.38,0,1,1-16.76,0v-.2A8.39,8.39,0,0,0,164.25,90.9Z"/></g><path class="cls-39" d="M168.45,84.57l0-.22,0-.11,0-.11s0-.09,0-.13v0h0s0,0,0-.06h0a.42.42,0,0,0,0-.1.16.16,0,0,0,0-.07.2.2,0,0,0,0-.08.41.41,0,0,0,0-.09,1.85,1.85,0,0,0-.3-.39h0a2.54,2.54,0,0,0-1.72-.81h-.52a1.51,1.51,0,0,0-.63.13,1.63,1.63,0,0,0-.76.66v0h0a1.64,1.64,0,0,0-.21.8h1.81a.85.85,0,0,1,.72.67s0,0,0,.07v.1a.84.84,0,0,1-.61.81h-3.07a.58.58,0,0,1-.19,0h0a1.21,1.21,0,0,1-1-1.2V81.92a1.21,1.21,0,0,1,1.22-1.22h5.72a2.45,2.45,0,0,0-2.15-1.61h0V77.29h-.28a.86.86,0,0,0-.87.86v.93H164V77.29h-.29a.85.85,0,0,0-.86.86v.93h-.37A2.56,2.56,0,0,0,160,81.64v3a2.35,2.35,0,0,0,.19,1,2.4,2.4,0,0,0,.78,1l.06,0a2.37,2.37,0,0,0,1.5.52h.33v.8a.86.86,0,0,0,.86.87H164V87.27h1.26v.78a.86.86,0,0,0,.66.84.76.76,0,0,0,.21,0h.28V87.23h.07l.07,0a2.52,2.52,0,0,0,1.38-.83l.09-.13.06-.07a2.73,2.73,0,0,0,.27-.54,2.29,2.29,0,0,0,.14-.69v-.25S168.45,84.61,168.45,84.57Z"/><path class="cls-28" d="M168.45,84.21l0-.22,0-.12,0-.11,0-.12v0h0s0,0,0,0h0a.3.3,0,0,0,0-.1l0-.08a.59.59,0,0,0,0-.08.22.22,0,0,0,0-.08,1.9,1.9,0,0,0-.3-.4h0a2.54,2.54,0,0,0-1.72-.81h-.52a1.69,1.69,0,0,0-.63.13,1.65,1.65,0,0,0-.76.67h0a1.71,1.71,0,0,0-.21.81h1.81a.85.85,0,0,1,.72.67s0,0,0,.07v.1a.82.82,0,0,1-.61.8l-.06,0h-3a.58.58,0,0,1-.19,0h0a1.22,1.22,0,0,1-1-1.21V81.55a1.22,1.22,0,0,1,.53-1,1.16,1.16,0,0,1,.69-.22h5.72a2.44,2.44,0,0,0-2.15-1.61h0v-1.8h-.28a.87.87,0,0,0-.87.87v.93H164v-1.8h-.29a.89.89,0,0,0-.59.23.88.88,0,0,0-.27.64v.93h-.37A2.55,2.55,0,0,0,160,81.28v3a2.38,2.38,0,0,0,.19,1,2.43,2.43,0,0,0,.78,1l.06.05a2.37,2.37,0,0,0,1.5.52h.33v.8a.86.86,0,0,0,.86.87H164V86.91h1.26v.78a.86.86,0,0,0,.66.84.76.76,0,0,0,.21,0h.28V86.87h.07l.07,0A2.54,2.54,0,0,0,167.9,86l.09-.12.06-.08a2.27,2.27,0,0,0,.27-.54,2.17,2.17,0,0,0,.14-.68v-.25S168.45,84.25,168.45,84.21Z"/><path class="cls-61" d="M168.45,84.57l0-.22,0-.11,0-.11s0-.09,0-.13v0h0s0,0,0-.06h0a.42.42,0,0,0,0-.1.16.16,0,0,0,0-.07.2.2,0,0,0,0-.08.41.41,0,0,0,0-.09,1.85,1.85,0,0,0-.3-.39h0a2.54,2.54,0,0,0-1.72-.81h-.52a1.51,1.51,0,0,0-.63.13,1.63,1.63,0,0,0-.76.66v0h0a1.64,1.64,0,0,0-.21.8h1.81a.85.85,0,0,1,.72.67s0,0,0,.07v.1a.84.84,0,0,1-.61.81h-3.07a.58.58,0,0,1-.19,0h0a1.21,1.21,0,0,1-1-1.2V81.92a1.21,1.21,0,0,1,1.22-1.22h5.72a2.45,2.45,0,0,0-2.15-1.61h0V77.29h-.28a.86.86,0,0,0-.87.86v.93H164V77.29h-.29a.85.85,0,0,0-.86.86v.93h-.37A2.56,2.56,0,0,0,160,81.64v3a2.35,2.35,0,0,0,.19,1,2.4,2.4,0,0,0,.78,1l.06,0a2.37,2.37,0,0,0,1.5.52h.33v.8a.86.86,0,0,0,.86.87H164V87.27h1.26v.78a.86.86,0,0,0,.66.84.76.76,0,0,0,.21,0h.28V87.23h.07l.07,0a2.52,2.52,0,0,0,1.38-.83l.09-.13.06-.07a2.73,2.73,0,0,0,.27-.54,2.29,2.29,0,0,0,.14-.69v-.25S168.45,84.61,168.45,84.57Z"/><circle class="cls-62" cx="131.64" cy="69.5" r="9.76" transform="translate(-10.59 113.44) rotate(-45)"/><circle class="cls-63" cx="131.64" cy="69.5" r="8.38" transform="translate(-10.59 113.44) rotate(-45)"/><g class="cls-64"><path class="cls-65" d="M131.64,61.53A8.37,8.37,0,0,1,140,69.7a1.27,1.27,0,0,0,0-.2,8.38,8.38,0,0,0-16.76,0,1.27,1.27,0,0,0,0,.2A8.37,8.37,0,0,1,131.64,61.53Z"/></g><g class="cls-66"><path class="cls-67" d="M131.64,77.47A8.37,8.37,0,0,0,140,69.3a1.34,1.34,0,0,1,0,.2,8.38,8.38,0,0,1-16.76,0,1.34,1.34,0,0,1,0-.2A8.37,8.37,0,0,0,131.64,77.47Z"/></g><path class="cls-39" d="M135.84,71.15l0-.22,0-.11,0-.11s0-.09,0-.13v0h0s0,0,0-.06h0a.42.42,0,0,0,0-.1.16.16,0,0,0,0-.07.36.36,0,0,0,0-.09l-.05-.08a1.85,1.85,0,0,0-.3-.39h0a2.54,2.54,0,0,0-1.72-.81H133a1.51,1.51,0,0,0-.63.13,1.63,1.63,0,0,0-.76.66v0h0a1.64,1.64,0,0,0-.21.8h1.81a.85.85,0,0,1,.72.67s0,0,0,.07v.1a.84.84,0,0,1-.61.81h-3.07a.58.58,0,0,1-.19,0h0a1.22,1.22,0,0,1-1-1.2V68.5a1.22,1.22,0,0,1,.53-1,1.15,1.15,0,0,1,.69-.21h.2s0,0,0,0h5.49a2.45,2.45,0,0,0-2.15-1.61h0V63.87h-.28a.86.86,0,0,0-.87.86v.93h-1.26V63.87h-.29a.85.85,0,0,0-.86.86v.93h-.37a2.56,2.56,0,0,0-2.49,2.56v3a2.35,2.35,0,0,0,.19,1,2.4,2.4,0,0,0,.78,1l.06,0a2.37,2.37,0,0,0,1.5.52h.33v.8a.86.86,0,0,0,.86.87h.29V73.85h1.26v.78a.86.86,0,0,0,.66.84.76.76,0,0,0,.21,0h.28V73.81h.07l.07,0a2.52,2.52,0,0,0,1.38-.83,1.13,1.13,0,0,1,.1-.13l.05-.07a2.73,2.73,0,0,0,.27-.54,2.29,2.29,0,0,0,.14-.69v-.25S135.84,71.19,135.84,71.15Z"/><path class="cls-28" d="M135.84,70.79l0-.22,0-.12,0-.11s0-.08,0-.12v0h0s0,0,0,0v0a.36.36,0,0,0,0-.09.3.3,0,0,0,0-.08.3.3,0,0,0,0-.08.22.22,0,0,0-.05-.08,1.9,1.9,0,0,0-.3-.4h0a2.54,2.54,0,0,0-1.72-.81H133a1.69,1.69,0,0,0-.63.13,1.65,1.65,0,0,0-.76.67h0a1.71,1.71,0,0,0-.21.81h1.81a.84.84,0,0,1,.72.67s0,0,0,.07V71a.82.82,0,0,1-.61.8l-.06,0h-3a.58.58,0,0,1-.19,0h0a1.22,1.22,0,0,1-1-1.21V68.13a1.22,1.22,0,0,1,.53-1,1.16,1.16,0,0,1,.69-.22h5.72a2.44,2.44,0,0,0-2.15-1.61h0V63.5h-.28a.87.87,0,0,0-.87.87v.93h-1.26V63.5h-.29a.89.89,0,0,0-.59.23.88.88,0,0,0-.27.64v.93h-.37a2.55,2.55,0,0,0-2.49,2.56v3a2.38,2.38,0,0,0,.19,1,2.43,2.43,0,0,0,.78,1l.06,0a2.37,2.37,0,0,0,1.5.52h.33v.8a.86.86,0,0,0,.86.87h.29V73.49h1.26v.78a.86.86,0,0,0,.66.84.76.76,0,0,0,.21,0h.28V73.45h.07l.07,0a2.54,2.54,0,0,0,1.38-.84l.1-.12a.35.35,0,0,1,.05-.08,2.27,2.27,0,0,0,.27-.54,2.17,2.17,0,0,0,.14-.68v-.25S135.84,70.83,135.84,70.79Z"/><path class="cls-68" d="M135.84,71.15l0-.22,0-.11,0-.11s0-.09,0-.13v0h0s0,0,0-.06h0a.42.42,0,0,0,0-.1.16.16,0,0,0,0-.07.36.36,0,0,0,0-.09l-.05-.08a1.85,1.85,0,0,0-.3-.39h0a2.54,2.54,0,0,0-1.72-.81H133a1.51,1.51,0,0,0-.63.13,1.63,1.63,0,0,0-.76.66v0h0a1.64,1.64,0,0,0-.21.8h1.81a.85.85,0,0,1,.72.67s0,0,0,.07v.1a.84.84,0,0,1-.61.81h-3.07a.58.58,0,0,1-.19,0h0a1.22,1.22,0,0,1-1-1.2V68.5a1.22,1.22,0,0,1,.53-1,1.15,1.15,0,0,1,.69-.21h.2s0,0,0,0h5.49a2.45,2.45,0,0,0-2.15-1.61h0V63.87h-.28a.86.86,0,0,0-.87.86v.93h-1.26V63.87h-.29a.85.85,0,0,0-.86.86v.93h-.37a2.56,2.56,0,0,0-2.49,2.56v3a2.35,2.35,0,0,0,.19,1,2.4,2.4,0,0,0,.78,1l.06,0a2.37,2.37,0,0,0,1.5.52h.33v.8a.86.86,0,0,0,.86.87h.29V73.85h1.26v.78a.86.86,0,0,0,.66.84.76.76,0,0,0,.21,0h.28V73.81h.07l.07,0a2.52,2.52,0,0,0,1.38-.83,1.13,1.13,0,0,1,.1-.13l.05-.07a2.73,2.73,0,0,0,.27-.54,2.29,2.29,0,0,0,.14-.69v-.25S135.84,71.19,135.84,71.15Z"/><circle class="cls-69" cx="101.72" cy="99.42" r="9.76" transform="translate(-40.5 101.05) rotate(-45)"/><circle class="cls-70" cx="101.72" cy="99.42" r="8.38" transform="translate(-40.5 101.05) rotate(-45)"/><g class="cls-71"><path class="cls-72" d="M101.72,91.44a8.39,8.39,0,0,1,8.38,8.18v-.2a8.38,8.38,0,1,0-16.76,0c0,.06,0,.13,0,.2A8.38,8.38,0,0,1,101.72,91.44Z"/></g><g class="cls-73"><path class="cls-74" d="M101.72,107.39a8.38,8.38,0,0,0,8.38-8.18v.21a8.38,8.38,0,0,1-16.76,0c0-.07,0-.14,0-.21A8.37,8.37,0,0,0,101.72,107.39Z"/></g><path class="cls-39" d="M105.92,101.07a.91.91,0,0,0,0-.23s0-.07,0-.11l0-.11,0-.12v0h0l0,0v0a.93.93,0,0,1-.05-.1l0-.07,0-.08,0-.08a2.46,2.46,0,0,0-.3-.4h0a2.57,2.57,0,0,0-1.73-.81h-.51a1.62,1.62,0,0,0-1.39.8h0a1.61,1.61,0,0,0-.22.81h1.82a.82.82,0,0,1,.71.67.17.17,0,0,1,0,.07s0,0,0,0v.06a.83.83,0,0,1-.62.8l-.06,0h-3l-.18,0h0a1.23,1.23,0,0,1-1-1.21V98.41a1.22,1.22,0,0,1,.53-1,1.2,1.2,0,0,1,.69-.22H106a2.45,2.45,0,0,0-2.16-1.61h0v-1.8h-.29a.86.86,0,0,0-.86.87v.93h-1.27v-1.8h-.28a.87.87,0,0,0-.59.23.88.88,0,0,0-.28.64v.93h-.36a2.55,2.55,0,0,0-2.5,2.55v3.05a2.57,2.57,0,0,0,.19,1,2.6,2.6,0,0,0,.78,1l.06,0a2.42,2.42,0,0,0,1.51.52h.32v.8a.87.87,0,0,0,.87.87h.28v-1.65h1.27v.78a.86.86,0,0,0,.66.84.64.64,0,0,0,.2,0h.29v-1.69l.07,0H104a2.55,2.55,0,0,0,1.37-.84l.1-.12a.35.35,0,0,0,0-.08,2,2,0,0,0,.28-.54,2.49,2.49,0,0,0,.14-.68,2,2,0,0,0,0-.25A.49.49,0,0,0,105.92,101.07Z"/><path class="cls-28" d="M105.92,100.7a.83.83,0,0,0,0-.22s0-.07,0-.11l0-.11c0-.05,0-.09,0-.13h0l0-.06h0s0-.07-.05-.1l0-.07,0-.08a.41.41,0,0,1,0-.09,2.88,2.88,0,0,0-.3-.39h0a2.57,2.57,0,0,0-1.73-.81h-.51a1.61,1.61,0,0,0-.63.13,1.58,1.58,0,0,0-.76.66v0h0a1.58,1.58,0,0,0-.22.81h1.82a.81.81,0,0,1,.71.67.15.15,0,0,1,0,.07.08.08,0,0,0,0,0V101a.83.83,0,0,1-.62.8h-3.07l-.18,0h0a1.22,1.22,0,0,1-1-1.2V98.05a1.22,1.22,0,0,1,.53-1,1.27,1.27,0,0,1,.69-.21H106a2.47,2.47,0,0,0-2.16-1.61h0V93.42h-.29a.86.86,0,0,0-.86.86v.93h-1.27V93.42h-.28a.87.87,0,0,0-.87.86v.93h-.36a2.57,2.57,0,0,0-2.5,2.56v3a2.57,2.57,0,0,0,1,2l.06.05a2.48,2.48,0,0,0,1.51.52h.32v.8a.87.87,0,0,0,.87.86h.28V103.4h1.27v.79a.87.87,0,0,0,.66.84l.2,0h.29v-1.69h.07l.07,0a2.53,2.53,0,0,0,1.37-.83.64.64,0,0,0,.1-.13l0-.07a2.31,2.31,0,0,0,.28-.54,2.64,2.64,0,0,0,.14-.69,2.18,2.18,0,0,0,0-.25A.49.49,0,0,0,105.92,100.7Z"/><path class="cls-75" d="M105.92,101.07a.91.91,0,0,0,0-.23s0-.07,0-.11l0-.11,0-.12v0h0l0,0v0a.93.93,0,0,1-.05-.1l0-.07,0-.08,0-.08a2.46,2.46,0,0,0-.3-.4h0a2.57,2.57,0,0,0-1.73-.81h-.51a1.62,1.62,0,0,0-1.39.8h0a1.61,1.61,0,0,0-.22.81h1.82a.82.82,0,0,1,.71.67.17.17,0,0,1,0,.07s0,0,0,0v.06a.83.83,0,0,1-.62.8l-.06,0h-3l-.18,0h0a1.23,1.23,0,0,1-1-1.21V98.41a1.22,1.22,0,0,1,.53-1,1.2,1.2,0,0,1,.69-.22H106a2.45,2.45,0,0,0-2.16-1.61h0v-1.8h-.29a.86.86,0,0,0-.86.87v.93h-1.27v-1.8h-.28a.87.87,0,0,0-.59.23.88.88,0,0,0-.28.64v.93h-.36a2.55,2.55,0,0,0-2.5,2.55v3.05a2.57,2.57,0,0,0,.19,1,2.6,2.6,0,0,0,.78,1l.06,0a2.42,2.42,0,0,0,1.51.52h.32v.8a.87.87,0,0,0,.87.87h.28v-1.65h1.27v.78a.86.86,0,0,0,.66.84.64.64,0,0,0,.2,0h.29v-1.69l.07,0H104a2.55,2.55,0,0,0,1.37-.84l.1-.12a.35.35,0,0,0,0-.08,2,2,0,0,0,.28-.54,2.49,2.49,0,0,0,.14-.68,2,2,0,0,0,0-.25A.49.49,0,0,0,105.92,101.07Z"/></g></g></svg>