<svg width="200" height="200" viewBox="0 0 200 200" fill="none" xmlns="http://www.w3.org/2000/svg">
<rect x="2.5" y="2.5" width="195" height="195" rx="97.5" fill="white" stroke="white" stroke-width="5"/>
<rect x="5" y="5" width="190" height="190" rx="95" fill="#F6BD0E"/>
<rect x="5" y="5" width="190" height="190" rx="95" stroke="white"/>
<path d="M55.9564 92C50.9245 73.1344 63.2886 46.7226 153 92" stroke="black" stroke-width="5"/>
<path d="M40.3486 97.1094C38.6123 97.1094 36.7598 97.2803 34.791 97.6221C32.8359 97.9502 31.1885 98.3193 29.8486 98.7295C28.5088 99.1396 27.292 99.5156 26.1982 99.8574C25.1045 100.186 24.4482 100.35 24.2295 100.35C23.4775 100.35 23.1016 100.09 23.1016 99.5703C23.1016 99.0371 23.5117 98.4971 24.332 97.9502C26.9707 96.1865 29.958 94.8672 33.2939 93.9922C36.6436 93.1172 39.8428 92.6797 42.8916 92.6797C45.9541 92.6797 48.4561 92.9326 50.3975 93.4385C52.3525 93.9443 53.9658 94.6348 55.2373 95.5098C56.5088 96.3848 57.5547 97.4512 58.375 98.709C59.9062 101.047 60.6719 103.966 60.6719 107.466C60.6719 111.157 59.6602 114.555 57.6367 117.658C55.4082 121.062 52.4619 123.428 48.7979 124.754C46.8018 125.465 44.6621 125.82 42.3789 125.82C38.7422 125.82 35.8984 125.246 33.8477 124.098C33.2734 124.658 32.5762 125.014 31.7559 125.164C30.9355 125.328 29.8008 125.41 28.3516 125.41C26.9023 125.41 25.5146 125.294 24.1885 125.062C22.876 124.829 21.7275 124.535 20.7432 124.18C19.7588 123.811 18.9521 123.407 18.3232 122.97C17.6943 122.519 17.3799 122.115 17.3799 121.76C17.3799 121.404 17.5234 121.131 17.8105 120.939C18.084 120.734 18.3984 120.632 18.7539 120.632C19.9844 120.632 20.8867 120.44 21.4609 120.058C22.0488 119.661 22.6436 118.923 23.2451 117.843C23.8604 116.763 24.4277 115.532 24.9473 114.151C25.4668 112.771 25.9521 111.444 26.4033 110.173C26.8682 108.901 27.3945 107.616 27.9824 106.317C29.2539 103.46 30.8467 101.58 32.7607 100.678C33.7041 100.24 34.9072 99.9053 36.3701 99.6729C37.833 99.4268 39.3027 99.3037 40.7793 99.3037C42.2559 99.3037 42.9941 99.6455 42.9941 100.329C42.9941 100.849 42.6797 101.601 42.0508 102.585C41.4355 103.569 40.7725 105.094 40.0615 107.158C39.3506 109.223 38.5576 111.684 37.6826 114.541C36.8213 117.398 36.1514 119.49 35.6729 120.816L35.3242 121.719C35.748 121.76 36.4111 121.78 37.3135 121.78C38.2158 121.78 39.2207 121.589 40.3281 121.206C41.4492 120.823 42.4199 120.304 43.2402 119.647C44.0605 118.978 44.7988 118.191 45.4551 117.289C46.125 116.387 46.6719 115.43 47.0957 114.418C47.5332 113.393 47.8955 112.312 48.1826 111.178C48.7158 109.086 48.9824 106.844 48.9824 104.451C48.9824 99.5566 46.1045 97.1094 40.3486 97.1094ZM87.3525 125.82C83.3467 125.82 79.6689 125.109 76.3193 123.688C75.6221 124.385 74.7539 124.843 73.7148 125.062C72.6895 125.294 71.3154 125.41 69.5928 125.41C67.8838 125.41 66.2227 125.212 64.6094 124.815C62.9961 124.419 61.7178 123.934 60.7744 123.359C59.8174 122.785 59.3389 122.225 59.3389 121.678C59.3389 121.363 59.4756 121.11 59.749 120.919C60.0225 120.728 60.3369 120.632 60.6924 120.632C61.9502 120.632 62.8799 120.434 63.4814 120.037C64.0967 119.627 64.6846 118.875 65.2451 117.781C65.8193 116.688 66.373 115.43 66.9062 114.008C67.4395 112.572 67.9316 111.232 68.3828 109.988C68.8477 108.744 69.3672 107.486 69.9414 106.215C71.2129 103.439 72.8057 101.594 74.7197 100.678C75.6357 100.24 76.832 99.9053 78.3086 99.6729C79.7852 99.4268 80.9404 99.3037 81.7744 99.3037C82.6221 99.3037 83.1689 99.3174 83.415 99.3447C83.6748 99.3584 83.9346 99.3994 84.1943 99.4678C84.7139 99.6045 84.9736 99.8916 84.9736 100.329C84.9736 100.63 84.9121 100.91 84.7891 101.17C84.6797 101.416 84.3721 101.949 83.8662 102.77C83.3604 103.59 82.6904 105.306 81.8564 107.917C85.1924 107.712 87.7422 107.021 89.5059 105.846C91.2695 104.656 92.1514 103.139 92.1514 101.293C92.1514 98.791 90.0322 97.3691 85.7939 97.0273C84.9326 96.959 83.6748 96.9248 82.0205 96.9248C80.3662 96.9248 78.5273 97.123 76.5039 97.5195C74.4805 97.9023 72.8945 98.3262 71.7461 98.791C70.6113 99.2559 69.5859 99.6865 68.6699 100.083C67.7539 100.466 67.166 100.657 66.9062 100.657C66.1953 100.657 65.8398 100.425 65.8398 99.96C65.8398 99.4814 66.2842 98.9141 67.1729 98.2578C68.0615 97.6016 69.2852 96.9521 70.8438 96.3096C72.416 95.667 74.1523 95.0723 76.0527 94.5254C80.3457 93.2949 84.7822 92.6797 89.3623 92.6797C93.9424 92.6797 97.415 93.3975 99.7803 94.833C102.159 96.2549 103.349 98.1416 103.349 100.493C103.349 102.845 102.166 104.8 99.8008 106.358C97.4492 107.917 94.2158 108.778 90.1006 108.942C92.7393 108.97 95.166 109.605 97.3809 110.85C98.4473 111.438 99.3154 112.21 99.9854 113.167C100.655 114.124 100.99 115.231 100.99 116.489C100.99 117.747 100.724 118.93 100.19 120.037C99.6709 121.131 98.9736 122.033 98.0986 122.744C97.2373 123.455 96.2051 124.043 95.002 124.508C92.8008 125.383 90.251 125.82 87.3525 125.82ZM81.2822 109.722C81.0225 110.583 80.5098 112.326 79.7441 114.951C78.9785 117.562 78.4453 119.312 78.1445 120.201C77.8438 121.076 77.6865 121.527 77.6729 121.555C78.1104 121.609 78.8076 121.637 79.7646 121.637C80.7354 121.637 81.8154 121.507 83.0049 121.247C84.208 120.974 85.2812 120.563 86.2246 120.017C87.1816 119.47 87.9268 118.731 88.46 117.802C89.0068 116.872 89.2803 115.744 89.2803 114.418C89.2803 113.092 88.5078 111.991 86.9629 111.116C85.418 110.241 83.5244 109.776 81.2822 109.722ZM124.267 97.1094C122.53 97.1094 120.678 97.2803 118.709 97.6221C116.754 97.9502 115.106 98.3193 113.767 98.7295C112.427 99.1396 111.21 99.5156 110.116 99.8574C109.022 100.186 108.366 100.35 108.147 100.35C107.396 100.35 107.02 100.09 107.02 99.5703C107.02 99.0371 107.43 98.4971 108.25 97.9502C110.889 96.1865 113.876 94.8672 117.212 93.9922C120.562 93.1172 123.761 92.6797 126.81 92.6797C129.872 92.6797 132.374 92.9326 134.315 93.4385C136.271 93.9443 137.884 94.6348 139.155 95.5098C140.427 96.3848 141.473 97.4512 142.293 98.709C143.824 101.047 144.59 103.966 144.59 107.466C144.59 111.157 143.578 114.555 141.555 117.658C139.326 121.062 136.38 123.428 132.716 124.754C130.72 125.465 128.58 125.82 126.297 125.82C122.66 125.82 119.816 125.246 117.766 124.098C117.191 124.658 116.494 125.014 115.674 125.164C114.854 125.328 113.719 125.41 112.27 125.41C110.82 125.41 109.433 125.294 108.106 125.062C106.794 124.829 105.646 124.535 104.661 124.18C103.677 123.811 102.87 123.407 102.241 122.97C101.612 122.519 101.298 122.115 101.298 121.76C101.298 121.404 101.441 121.131 101.729 120.939C102.002 120.734 102.316 120.632 102.672 120.632C103.902 120.632 104.805 120.44 105.379 120.058C105.967 119.661 106.562 118.923 107.163 117.843C107.778 116.763 108.346 115.532 108.865 114.151C109.385 112.771 109.87 111.444 110.321 110.173C110.786 108.901 111.312 107.616 111.9 106.317C113.172 103.46 114.765 101.58 116.679 100.678C117.622 100.24 118.825 99.9053 120.288 99.6729C121.751 99.4268 123.221 99.3037 124.697 99.3037C126.174 99.3037 126.912 99.6455 126.912 100.329C126.912 100.849 126.598 101.601 125.969 102.585C125.354 103.569 124.69 105.094 123.979 107.158C123.269 109.223 122.476 111.684 121.601 114.541C120.739 117.398 120.069 119.49 119.591 120.816L119.242 121.719C119.666 121.76 120.329 121.78 121.231 121.78C122.134 121.78 123.139 121.589 124.246 121.206C125.367 120.823 126.338 120.304 127.158 119.647C127.979 118.978 128.717 118.191 129.373 117.289C130.043 116.387 130.59 115.43 131.014 114.418C131.451 113.393 131.813 112.312 132.101 111.178C132.634 109.086 132.9 106.844 132.9 104.451C132.9 99.5566 130.022 97.1094 124.267 97.1094ZM170.286 120.57L174.429 120.181C175.646 120.181 176.254 120.509 176.254 121.165C176.254 121.808 175.857 122.368 175.064 122.847C173.123 124.009 171.045 124.795 168.83 125.205C166.615 125.615 164.455 125.82 162.35 125.82C160.258 125.82 158.761 125.779 157.858 125.697C156.97 125.629 156.081 125.479 155.192 125.246C154.317 125.014 153.6 124.699 153.039 124.303C151.822 123.428 151.214 122.081 151.214 120.263C151.214 117.104 153.121 113.133 156.936 108.348C159.82 104.738 162.268 102.633 164.277 102.031C165.33 101.717 166.554 101.56 167.948 101.56C169.356 101.56 170.061 102.093 170.061 103.159C170.061 103.515 169.958 103.938 169.753 104.431C168.974 106.03 168.29 107.924 167.702 110.111C167.114 112.285 166.82 114.24 166.82 115.977C166.82 119.039 167.976 120.57 170.286 120.57ZM149.471 103.692C148.773 103.692 148.425 103.289 148.425 102.482C148.425 101.594 148.691 100.377 149.225 98.832C150.264 95.8926 151.378 94.2588 152.567 93.9307C152.896 93.8076 153.887 93.7461 155.541 93.7461L169.404 94.0742C170.088 94.0742 172.077 93.8691 175.372 93.459C178.681 93.0488 180.417 92.8438 180.581 92.8438C182.345 92.8438 183.227 93.4453 183.227 94.6484C183.227 95.1816 183.035 96.0293 182.652 97.1914C182.283 98.3398 181.791 99.4268 181.176 100.452C180.561 101.478 179.993 101.99 179.474 101.99C179.159 101.99 178.448 101.737 177.341 101.231C173.991 99.7002 171.291 98.9346 169.24 98.9346C167.189 98.9346 164.817 99.1328 162.124 99.5293C159.431 99.9258 157.428 100.397 156.115 100.944C154.803 101.478 153.654 101.97 152.67 102.421C150.838 103.269 149.771 103.692 149.471 103.692Z" fill="white"/>
</svg>
