<svg width="150" height="150" viewBox="0 0 150 150" fill="none" xmlns="http://www.w3.org/2000/svg">
<rect x="2.5" y="2.5" width="145" height="145" rx="72.5" fill="white" stroke="white" stroke-width="5"/>
<rect x="5" y="5" width="140" height="140" rx="70" fill="#F6BD0E"/>
<rect x="5" y="5" width="140" height="140" rx="70" stroke="white"/>
<path d="M45.6831 69C42.0889 53.9075 50.9204 32.7781 115 69" stroke="black" stroke-width="5"/>
<path d="M32.249 73.0781C31.0088 73.0781 29.6855 73.2002 28.2793 73.4443C26.8828 73.6787 25.7061 73.9424 24.749 74.2354C23.792 74.5283 22.9229 74.7969 22.1416 75.041C21.3604 75.2754 20.8916 75.3926 20.7354 75.3926C20.1982 75.3926 19.9297 75.207 19.9297 74.8359C19.9297 74.4551 20.2227 74.0693 20.8086 73.6787C22.6934 72.4189 24.8271 71.4766 27.21 70.8516C29.6025 70.2266 31.8877 69.9141 34.0654 69.9141C36.2529 69.9141 38.04 70.0947 39.4268 70.4561C40.8232 70.8174 41.9756 71.3105 42.8838 71.9355C43.792 72.5605 44.5391 73.3223 45.125 74.2207C46.2188 75.8906 46.7656 77.9756 46.7656 80.4756C46.7656 83.1123 46.043 85.5391 44.5977 87.7559C43.0059 90.1875 40.9014 91.877 38.2842 92.8242C36.8584 93.332 35.3301 93.5859 33.6992 93.5859C31.1016 93.5859 29.0703 93.1758 27.6055 92.3555C27.1953 92.7559 26.6973 93.0098 26.1113 93.1172C25.5254 93.2344 24.7148 93.293 23.6797 93.293C22.6445 93.293 21.6533 93.21 20.7061 93.0439C19.7686 92.8779 18.9482 92.668 18.2451 92.4141C17.542 92.1504 16.9658 91.8623 16.5166 91.5498C16.0674 91.2275 15.8428 90.9395 15.8428 90.6855C15.8428 90.4316 15.9453 90.2363 16.1504 90.0996C16.3457 89.9531 16.5703 89.8799 16.8242 89.8799C17.7031 89.8799 18.3477 89.7432 18.7578 89.4697C19.1777 89.1865 19.6025 88.6592 20.0322 87.8877C20.4717 87.1162 20.877 86.2373 21.248 85.251C21.6191 84.2646 21.9658 83.3174 22.2881 82.4092C22.6201 81.501 22.9961 80.583 23.416 79.6553C24.3242 77.6143 25.4619 76.2715 26.8291 75.627C27.5029 75.3145 28.3623 75.0752 29.4072 74.9092C30.4521 74.7334 31.502 74.6455 32.5566 74.6455C33.6113 74.6455 34.1387 74.8896 34.1387 75.3779C34.1387 75.749 33.9141 76.2861 33.4648 76.9893C33.0254 77.6924 32.5518 78.7812 32.0439 80.2559C31.5361 81.7305 30.9697 83.4883 30.3447 85.5293C29.7295 87.5703 29.251 89.0645 28.9092 90.0117L28.6602 90.6562C28.9629 90.6855 29.4365 90.7002 30.0811 90.7002C30.7256 90.7002 31.4434 90.5635 32.2344 90.29C33.0352 90.0166 33.7285 89.6455 34.3145 89.1768C34.9004 88.6982 35.4277 88.1367 35.8965 87.4922C36.375 86.8477 36.7656 86.1641 37.0684 85.4414C37.3809 84.709 37.6396 83.9375 37.8447 83.127C38.2256 81.6328 38.416 80.0312 38.416 78.3223C38.416 74.8262 36.3604 73.0781 32.249 73.0781ZM65.8232 93.5859C62.9619 93.5859 60.335 93.0781 57.9424 92.0625C57.4443 92.5605 56.8242 92.8877 56.082 93.0439C55.3496 93.21 54.3682 93.293 53.1377 93.293C51.917 93.293 50.7305 93.1514 49.5781 92.8682C48.4258 92.585 47.5127 92.2383 46.8389 91.8281C46.1553 91.418 45.8135 91.0176 45.8135 90.627C45.8135 90.4023 45.9111 90.2217 46.1064 90.085C46.3018 89.9482 46.5264 89.8799 46.7803 89.8799C47.6787 89.8799 48.3428 89.7383 48.7725 89.4551C49.2119 89.1621 49.6318 88.625 50.0322 87.8438C50.4424 87.0625 50.8379 86.1641 51.2188 85.1484C51.5996 84.123 51.9512 83.166 52.2734 82.2773C52.6055 81.3887 52.9766 80.4902 53.3867 79.582C54.2949 77.5996 55.4326 76.2812 56.7998 75.627C57.4541 75.3145 58.3086 75.0752 59.3633 74.9092C60.418 74.7334 61.2432 74.6455 61.8389 74.6455C62.4443 74.6455 62.835 74.6553 63.0107 74.6748C63.1963 74.6846 63.3818 74.7139 63.5674 74.7627C63.9385 74.8604 64.124 75.0654 64.124 75.3779C64.124 75.5928 64.0801 75.793 63.9922 75.9785C63.9141 76.1543 63.6943 76.5352 63.333 77.1211C62.9717 77.707 62.4932 78.9326 61.8975 80.7979C64.2803 80.6514 66.1016 80.1582 67.3613 79.3184C68.6211 78.4688 69.251 77.3848 69.251 76.0664C69.251 74.2793 67.7373 73.2637 64.71 73.0195C64.0947 72.9707 63.1963 72.9463 62.0146 72.9463C60.833 72.9463 59.5195 73.0879 58.0742 73.3711C56.6289 73.6445 55.4961 73.9473 54.6758 74.2793C53.8652 74.6113 53.1328 74.9189 52.4785 75.2021C51.8242 75.4756 51.4043 75.6123 51.2188 75.6123C50.7109 75.6123 50.457 75.4463 50.457 75.1143C50.457 74.7725 50.7744 74.3672 51.4092 73.8984C52.0439 73.4297 52.918 72.9658 54.0312 72.5068C55.1543 72.0479 56.3945 71.623 57.752 71.2324C60.8184 70.3535 63.9873 69.9141 67.2588 69.9141C70.5303 69.9141 73.0107 70.4268 74.7002 71.4521C76.3994 72.4678 77.249 73.8154 77.249 75.4951C77.249 77.1748 76.4043 78.5713 74.7148 79.6846C73.0352 80.7979 70.7256 81.4131 67.7861 81.5303C69.6709 81.5498 71.4043 82.0039 72.9863 82.8926C73.748 83.3125 74.3682 83.8643 74.8467 84.5479C75.3252 85.2314 75.5645 86.0225 75.5645 86.9209C75.5645 87.8193 75.374 88.6641 74.9932 89.4551C74.6221 90.2363 74.124 90.8809 73.499 91.3887C72.8838 91.8965 72.1465 92.3164 71.2871 92.6484C69.7148 93.2734 67.8936 93.5859 65.8232 93.5859ZM61.4873 82.0869C61.3018 82.7021 60.9355 83.9473 60.3887 85.8223C59.8418 87.6875 59.4609 88.9375 59.2461 89.5723C59.0312 90.1973 58.9189 90.5195 58.9092 90.5391C59.2217 90.5781 59.7197 90.5977 60.4033 90.5977C61.0967 90.5977 61.8682 90.5049 62.7178 90.3193C63.5771 90.124 64.3438 89.8311 65.0176 89.4404C65.7012 89.0498 66.2334 88.5225 66.6143 87.8584C67.0049 87.1943 67.2002 86.3887 67.2002 85.4414C67.2002 84.4941 66.6484 83.708 65.5449 83.083C64.4414 82.458 63.0889 82.126 61.4873 82.0869ZM92.1904 73.0781C90.9502 73.0781 89.627 73.2002 88.2207 73.4443C86.8242 73.6787 85.6475 73.9424 84.6904 74.2354C83.7334 74.5283 82.8643 74.7969 82.083 75.041C81.3018 75.2754 80.833 75.3926 80.6768 75.3926C80.1396 75.3926 79.8711 75.207 79.8711 74.8359C79.8711 74.4551 80.1641 74.0693 80.75 73.6787C82.6348 72.4189 84.7686 71.4766 87.1514 70.8516C89.5439 70.2266 91.8291 69.9141 94.0068 69.9141C96.1943 69.9141 97.9814 70.0947 99.3682 70.4561C100.765 70.8174 101.917 71.3105 102.825 71.9355C103.733 72.5605 104.48 73.3223 105.066 74.2207C106.16 75.8906 106.707 77.9756 106.707 80.4756C106.707 83.1123 105.984 85.5391 104.539 87.7559C102.947 90.1875 100.843 91.877 98.2256 92.8242C96.7998 93.332 95.2715 93.5859 93.6406 93.5859C91.043 93.5859 89.0117 93.1758 87.5469 92.3555C87.1367 92.7559 86.6387 93.0098 86.0527 93.1172C85.4668 93.2344 84.6562 93.293 83.6211 93.293C82.5859 93.293 81.5947 93.21 80.6475 93.0439C79.71 92.8779 78.8896 92.668 78.1865 92.4141C77.4834 92.1504 76.9072 91.8623 76.458 91.5498C76.0088 91.2275 75.7842 90.9395 75.7842 90.6855C75.7842 90.4316 75.8867 90.2363 76.0918 90.0996C76.2871 89.9531 76.5117 89.8799 76.7656 89.8799C77.6445 89.8799 78.2891 89.7432 78.6992 89.4697C79.1191 89.1865 79.5439 88.6592 79.9736 87.8877C80.4131 87.1162 80.8184 86.2373 81.1895 85.251C81.5605 84.2646 81.9072 83.3174 82.2295 82.4092C82.5615 81.501 82.9375 80.583 83.3574 79.6553C84.2656 77.6143 85.4033 76.2715 86.7705 75.627C87.4443 75.3145 88.3037 75.0752 89.3486 74.9092C90.3936 74.7334 91.4434 74.6455 92.498 74.6455C93.5527 74.6455 94.0801 74.8896 94.0801 75.3779C94.0801 75.749 93.8555 76.2861 93.4062 76.9893C92.9668 77.6924 92.4932 78.7812 91.9854 80.2559C91.4775 81.7305 90.9111 83.4883 90.2861 85.5293C89.6709 87.5703 89.1924 89.0645 88.8506 90.0117L88.6016 90.6562C88.9043 90.6855 89.3779 90.7002 90.0225 90.7002C90.667 90.7002 91.3848 90.5635 92.1758 90.29C92.9766 90.0166 93.6699 89.6455 94.2559 89.1768C94.8418 88.6982 95.3691 88.1367 95.8379 87.4922C96.3164 86.8477 96.707 86.1641 97.0098 85.4414C97.3223 84.709 97.5811 83.9375 97.7861 83.127C98.167 81.6328 98.3574 80.0312 98.3574 78.3223C98.3574 74.8262 96.3018 73.0781 92.1904 73.0781ZM125.062 89.8359L128.021 89.5576C128.89 89.5576 129.324 89.792 129.324 90.2607C129.324 90.7197 129.041 91.1201 128.475 91.4619C127.088 92.292 125.604 92.8535 124.021 93.1465C122.439 93.4395 120.896 93.5859 119.393 93.5859C117.898 93.5859 116.829 93.5566 116.185 93.498C115.55 93.4492 114.915 93.3418 114.28 93.1758C113.655 93.0098 113.143 92.7852 112.742 92.502C111.873 91.877 111.438 90.915 111.438 89.6162C111.438 87.3604 112.801 84.5234 115.525 81.1055C117.586 78.5273 119.334 77.0234 120.77 76.5938C121.521 76.3691 122.396 76.2568 123.392 76.2568C124.397 76.2568 124.9 76.6377 124.9 77.3994C124.9 77.6533 124.827 77.9561 124.681 78.3076C124.124 79.4502 123.636 80.8027 123.216 82.3652C122.796 83.918 122.586 85.3145 122.586 86.5547C122.586 88.7422 123.411 89.8359 125.062 89.8359ZM110.193 77.7803C109.695 77.7803 109.446 77.4922 109.446 76.916C109.446 76.2812 109.637 75.4121 110.018 74.3086C110.76 72.209 111.556 71.042 112.405 70.8076C112.64 70.7197 113.348 70.6758 114.529 70.6758L124.432 70.9102C124.92 70.9102 126.341 70.7637 128.694 70.4707C131.058 70.1777 132.298 70.0312 132.415 70.0312C133.675 70.0312 134.305 70.4609 134.305 71.3203C134.305 71.7012 134.168 72.3066 133.895 73.1367C133.631 73.957 133.279 74.7334 132.84 75.4658C132.4 76.1982 131.995 76.5645 131.624 76.5645C131.399 76.5645 130.892 76.3838 130.101 76.0225C127.708 74.9287 125.779 74.3818 124.314 74.3818C122.85 74.3818 121.155 74.5234 119.231 74.8066C117.308 75.0898 115.877 75.4268 114.939 75.8174C114.002 76.1982 113.182 76.5498 112.479 76.8721C111.17 77.4775 110.408 77.7803 110.193 77.7803Z" fill="white"/>
</svg>
